<svg preserveAspectRatio="none" width="100%" height="100%" overflow="visible" style="display: block;" viewBox="0 0 222.87 185.555" fill="none" xmlns="http://www.w3.org/2000/svg">
<g id="Group 30">
<path id="Vector" d="M26.0923 74.9385C29.0372 57.5976 37.7131 43.0068 52.387 34.2473C33.4197 36.6409 23.0137 58.3297 26.0923 74.9385Z" fill="var(--fill-0, white)"/>
<path id="Vector_2" d="M82.2951 106.538C98.0745 103.5 117.79 92.005 113.389 73.2027C106.325 92.749 98.5906 96.8275 82.2951 106.538Z" fill="var(--fill-0, white)"/>
<path id="Vector_3" d="M67.1021 27.2585L67.9966 27.2741C93.5017 27.8263 106.19 38.6953 120.087 50.8093C122.373 52.8019 123.206 54.4726 123.451 56.1765C123.717 58.0276 123.334 60.117 122.692 63.1345C121.42 69.107 119.465 77.4806 122.045 90.9743C122.378 92.7216 121.445 94.6585 119.578 96.2732C114.177 100.932 102.871 106.717 92.6929 111.405C87.6473 113.729 82.9489 115.752 79.5113 117.194C77.7929 117.915 76.3902 118.491 75.4185 118.885C75.1719 118.986 74.9525 119.073 74.7632 119.149L66.5611 113.801L66.1158 113.51L65.5835 113.51L46.1587 113.536L45.4722 113.537L44.9634 113.998L40.0523 118.442C39.9294 118.359 39.7958 118.271 39.6548 118.173C38.6958 117.505 37.3338 116.488 35.7554 115.11C32.5957 112.351 28.5889 108.159 25.2007 102.44C18.4691 91.0776 14.0534 73.48 24.0406 48.6277C30.596 32.3222 48.3325 27.0285 67.1021 27.2585Z" stroke="var(--stroke-0, white)" stroke-width="3.56836"/>
<path id="Vector_4" d="M135.648 53.4112C128.053 39.8263 110.549 29.1824 95.3216 22.7528C104.608 10.4855 118.398 2.61721 132.512 13.4075C140.679 19.6525 146.709 27.6864 151.225 37.0953C150.608 43.1493 148.865 47.7964 146.544 53.1247C142.555 51.2914 139.566 51.616 135.648 53.4049V53.4112Z" fill="var(--fill-0, white)"/>
<path id="Vector_5" d="M91.1684 20.8366C75.2734 15.069 63.5127 14.8717 47.4396 19.3788C57.5211 -3.48775 101.549 -3.18219 116.744 5.32274C106.02 6.2076 98.3241 11.9752 91.1684 20.8366Z" fill="var(--fill-0, white)"/>
<path id="Vector_6" d="M207.624 154.948C197.352 153.866 187.486 156.202 180.668 163.313C173.843 158.723 168.455 155.948 160.943 152.504C168.207 144.673 177.786 141.764 188.199 143.973C196.289 145.692 201.511 149.696 207.63 154.948H207.624Z" fill="var(--fill-0, white)"/>
<path id="Vector_7" d="M68.353 144.113L49.7737 143.661L43.3367 129.516L47.4457 124.13L62.9592 124.391L69.6696 130.923L68.353 144.113Z" fill="var(--fill-0, white)"/>
<path id="Vector_8" d="M44.0181 181.208L40.6025 170.099L29.2679 173.161L27.2835 170.717L43.0068 165.229L47.5991 179.011L86.8501 179.591L105.404 163.714L128.047 170.309L127.055 172.022L106.11 168.367L86.99 184.492L47.2874 184.206L44.0181 181.208Z" fill="var(--fill-0, white)"/>
<path id="Vector_9" d="M132.874 95.897C127.856 102.511 113.564 113.518 112.559 114.104C103.215 119.566 93.9156 123.996 84.2857 127.262L85.1317 138.829L111.42 128.376L130.782 118.522C130.782 118.522 129.185 113.448 131.488 108.508C133.79 103.568 139.216 98.227 139.216 98.227L132.874 95.897Z" fill="var(--fill-0, white)"/>
<path id="Vector_10" d="M134.376 116.842C133.625 107.484 139.057 104.695 143.713 98.2595C153.973 93.5932 156.644 84.2862 157.083 73.776C157.388 66.417 154.882 60.0892 149.457 55.111L154.093 42.0926C159.15 52.0108 161.484 63.2403 160.95 74.1516C159.627 101.131 139.617 113.334 134.376 116.848V116.842Z" fill="var(--fill-0, white)"/>
<path id="Vector_11" d="M146.448 57.7398C141.983 56.2502 137.034 65.449 136.958 74.947C136.882 84.4451 140.997 92.7144 144.381 92.7144C147.765 92.7144 154.322 86.3103 153.68 74.7561C153.209 66.2957 151.237 59.3377 146.448 57.7398Z" fill="var(--fill-0, white)"/>
<path id="Vector_12" d="M167.616 134.863C162.146 132.852 156.676 130.146 150.996 131.133C144.559 132.247 138.459 135.767 132.665 139.555C125.624 144.158 115.892 161.346 115.892 161.346L129.783 166.069C129.783 166.069 139.763 150.116 143.592 146.749C150.691 140.497 158.279 135.99 167.616 134.863Z" fill="var(--fill-0, white)"/>
<path id="Vector_13" d="M104.589 142.312C104.309 141.134 106.415 140.045 119.74 133.864C130.318 128.956 137.753 124.067 145.1 117.039C144.413 120.489 143.179 127.25 127.163 134.832C108.965 143.445 105.486 146.074 104.583 142.318L104.589 142.312Z" fill="var(--fill-0, white)"/>
<path id="Vector_14" d="M133.58 75.2279C134.083 88.1508 140.533 93.5618 140.533 93.5618C140.533 93.5618 130.82 96.0255 129.917 75.979C129.071 57.174 141.658 56.9894 141.658 56.9894C141.658 56.9894 133.078 62.305 133.58 75.2279Z" fill="var(--fill-0, white)"/>
<path id="Vector_15" d="M178.6 138.587C178.6 138.587 177.945 123.685 174.561 118.891C171.178 114.097 155.123 114.74 155.123 114.74V111.685C155.123 111.685 172.475 111.169 177.354 116.351C182.232 121.533 181.959 138.823 181.959 138.823L178.6 138.587Z" fill="var(--fill-0, white)"/>
<path id="Vector_16" d="M81.2523 140.129L71.7493 143.617L73.0151 130.083L80.6417 128.37L81.2523 140.129Z" fill="var(--fill-0, white)"/>
<path id="Vector_17" d="M143.179 169.692L135.247 167.61L156.275 147.112L143.179 169.692Z" fill="var(--fill-0, white)"/>
<path id="Vector_18" d="M23.0595 168.813L17.1442 171.537L22.5125 151.86C22.5125 151.86 21.533 160.824 23.0659 168.813H23.0595Z" fill="var(--fill-0, white)"/>
<path id="Vector_19" d="M177.621 113.621C177.621 113.621 180.273 115.174 182.029 117.765C184.987 122.138 185.222 138.938 185.222 138.938C191.856 139.785 196.563 142.522 202.319 145.941C202.319 145.941 204.03 131.942 198.7 123.545C193.872 115.938 182.22 113.869 177.621 113.614V113.621Z" fill="var(--fill-0, white)"/>
<path id="Vector_20" d="M35.3036 24.7391C37.9879 21.2568 42.7076 15.9857 47.2365 13.2673C43.1019 17.9655 42.4468 20.8812 42.4468 20.8812C42.4468 20.8812 38.5985 22.2945 35.31 24.7328L35.3036 24.7391Z" fill="var(--fill-0, white)"/>
<path id="Vector_21" d="M179.065 167.546C179.065 167.546 158.717 156.094 158.469 155.973C153.673 164.637 150.837 173.091 150.716 182.691L161.637 185.479L187.607 185.218L179.059 167.546H179.065Z" fill="var(--fill-0, white)"/>
<path id="Vector_22" d="M212.286 158.99C210.162 157.297 191.277 157.959 183.765 166.515L192.861 185.517C199.756 185.587 216.503 185.651 222.87 184.779C221.083 175.847 217.636 166.852 212.293 158.99H212.286Z" fill="var(--fill-0, white)"/>
<path id="Vector_23" d="M95.4175 147.316C95.4175 147.316 79.7831 153.631 69.1736 153.803C58.5641 153.974 50.2381 150.282 49.1759 149.951C49.5957 150.925 56.3125 158.87 68.0987 158.679C81.3733 158.462 87.1169 153.542 95.4238 147.316H95.4175Z" fill="var(--fill-0, white)"/>
<path id="Vector_24" d="M16.3361 152.732C13.3402 152.102 -1.03474 166.215 0.05928 167.584L0.0465587 167.597L11.7501 182.41C11.7501 182.41 16.3933 153.865 16.3297 152.739L16.3361 152.732Z" fill="var(--fill-0, white)"/>
<path id="Vector_25" d="M37.5302 143.387C36.1118 143.292 30.9407 146.201 28.6826 151.281C26.0493 157.214 26.4246 165.573 26.7109 167.495L37.8419 163.408C37.8419 163.408 36.9959 157.558 37.8546 153.515C38.7133 149.473 41.5056 147.054 41.5056 147.054C41.2258 146.277 38.3571 143.445 37.5302 143.387Z" fill="var(--fill-0, white)"/>
<path id="Vector_26" d="M67.1129 166.388C56.6942 166.598 48.2919 157.157 48.2919 157.157C48.2919 157.157 50.2128 174.727 66.9285 174.39C83.6441 174.046 102.357 158.348 109.481 150.753C100.163 156.572 77.5316 166.178 67.1129 166.388Z" fill="var(--fill-0, white)"/>
<path id="Vector_27" d="M39.8576 129.796L28.2114 119.922C28.2114 119.922 31.6397 129.783 35.5388 134.309C39.6923 139.128 45.4931 142.585 45.4931 142.585L39.8576 129.802V129.796Z" fill="var(--fill-0, white)"/>
</g>
</svg>
