<svg width="279" height="280" viewBox="0 0 279 280" fill="none" xmlns="http://www.w3.org/2000/svg">
<path d="M62.2576 114.299C65.2025 96.9579 73.8784 82.3671 88.5523 73.6075C69.585 76.0011 59.1791 97.69 62.2576 114.299Z" fill="white"/>
<path d="M118.46 145.898C134.24 142.86 153.955 131.365 149.555 112.563C142.49 132.109 134.756 136.188 118.46 145.898Z" fill="white"/>
<path d="M103.267 66.6188L104.162 66.6344C129.667 67.1865 142.356 78.0556 156.253 90.1696C158.538 92.1622 159.371 93.8328 159.616 95.5367C159.882 97.3878 159.5 99.4772 158.857 102.495C157.586 108.467 155.63 116.841 158.211 130.335C158.543 132.082 157.61 134.019 155.743 135.633C150.342 140.292 139.036 146.078 128.858 150.765C123.813 153.089 119.114 155.112 115.677 156.554C113.958 157.275 112.555 157.851 111.584 158.246C111.337 158.346 111.118 158.433 110.928 158.509L102.726 153.161L102.281 152.87L101.749 152.871L82.324 152.896L81.6375 152.897L81.1287 153.358L76.2175 157.802C76.0947 157.719 75.961 157.631 75.8201 157.533C74.861 156.865 73.499 155.849 71.9207 154.47C68.761 151.711 64.7541 147.519 61.366 141.8C54.6343 130.438 50.2186 112.84 60.2058 87.9879C66.7612 71.6825 84.4977 66.3887 103.267 66.6188Z" stroke="white" stroke-width="3.56836"/>
<path d="M171.813 92.7715C164.218 79.1866 146.714 68.5427 131.487 62.1131C140.773 49.8458 154.563 41.9775 168.677 52.7678C176.844 59.0128 182.874 67.0467 187.39 76.4556C186.773 82.5096 185.03 87.1567 182.709 92.4851C178.721 90.6517 175.731 90.9763 171.813 92.7652V92.7715Z" fill="white"/>
<path d="M127.334 60.1969C111.439 54.4294 99.6781 54.232 83.605 58.7391C93.6865 35.8726 137.714 36.1782 152.91 44.6831C142.186 45.568 134.489 51.3355 127.334 60.1969Z" fill="white"/>
<path d="M243.789 194.308C233.517 193.226 223.652 195.563 216.833 202.673C210.008 198.083 204.621 195.308 197.109 191.864C204.373 184.034 213.952 181.124 224.364 183.333C232.455 185.052 237.677 189.056 243.796 194.308H243.789Z" fill="white"/>
<path d="M104.518 183.473L85.9389 183.021L79.502 168.876L83.6109 163.491L99.1244 163.752L105.835 170.283L104.518 183.473Z" fill="white"/>
<path d="M80.1834 220.568L76.7677 209.459L65.4332 212.521L63.4487 210.077L79.172 204.589L83.7643 218.372L123.015 218.951L141.569 203.074L164.213 209.669L163.22 211.382L142.275 207.728L123.155 223.853L83.4527 223.566L80.1834 220.568Z" fill="white"/>
<path d="M169.04 135.257C164.021 141.872 149.729 152.878 148.724 153.464C139.38 158.926 130.081 163.357 120.451 166.622L121.297 178.189L147.585 167.736L166.947 157.882C166.947 157.882 165.35 152.808 167.653 147.868C169.956 142.928 175.381 137.587 175.381 137.587L169.04 135.257Z" fill="white"/>
<path d="M170.541 156.202C169.79 146.844 175.222 144.056 179.878 137.62C190.138 132.954 192.809 123.646 193.248 113.136C193.553 105.777 191.047 99.4495 185.622 94.4713L190.259 81.4529C195.315 91.371 197.65 102.601 197.115 113.512C195.792 140.491 175.782 152.694 170.541 156.208V156.202Z" fill="white"/>
<path d="M182.613 97.1002C178.148 95.6106 173.2 104.809 173.123 114.307C173.047 123.805 177.162 132.075 180.546 132.075C183.93 132.075 190.488 125.671 189.845 114.116C189.375 105.656 187.403 98.6981 182.613 97.1002Z" fill="white"/>
<path d="M203.782 174.224C198.311 172.212 192.841 169.507 187.161 170.493C180.724 171.607 174.625 175.128 168.83 178.915C161.789 183.518 152.057 200.706 152.057 200.706L165.949 205.43C165.949 205.43 175.928 189.477 179.758 186.109C186.856 179.858 194.444 175.351 203.782 174.224Z" fill="white"/>
<path d="M140.754 181.672C140.475 180.494 142.58 179.406 155.905 173.224C166.483 168.316 173.919 163.427 181.265 156.399C180.578 159.849 179.344 166.61 163.328 174.192C145.131 182.805 141.651 185.434 140.748 181.678L140.754 181.672Z" fill="white"/>
<path d="M169.746 114.588C170.248 127.511 176.698 132.922 176.698 132.922C176.698 132.922 166.985 135.386 166.082 115.339C165.236 96.5343 177.824 96.3497 177.824 96.3497C177.824 96.3497 169.243 101.665 169.746 114.588Z" fill="white"/>
<path d="M214.766 177.948C214.766 177.948 214.111 163.045 210.727 158.251C207.343 153.458 191.289 154.101 191.289 154.101V151.045C191.289 151.045 208.64 150.529 213.519 155.711C218.398 160.893 218.124 178.183 218.124 178.183L214.766 177.948Z" fill="white"/>
<path d="M117.418 179.489L107.915 182.978L109.18 169.443L116.807 167.731L117.418 179.489Z" fill="white"/>
<path d="M179.344 209.052L171.412 206.971L192.44 186.472L179.344 209.052Z" fill="white"/>
<path d="M59.2249 208.173L53.3096 210.898L58.6779 191.221C58.6779 191.221 57.6984 200.184 59.2313 208.173H59.2249Z" fill="white"/>
<path d="M213.786 152.981C213.786 152.981 216.439 154.534 218.194 157.125C221.152 161.499 221.387 178.298 221.387 178.298C228.021 179.145 232.728 181.882 238.484 185.301C238.484 185.301 240.195 171.302 234.865 162.906C230.038 155.298 218.385 153.229 213.786 152.975V152.981Z" fill="white"/>
<path d="M71.469 64.0994C74.1533 60.6171 78.873 55.3459 83.4019 52.6276C79.2673 57.3258 78.6122 60.2415 78.6122 60.2415C78.6122 60.2415 74.7639 61.6548 71.4754 64.093L71.469 64.0994Z" fill="white"/>
<path d="M215.23 206.906C215.23 206.906 194.883 195.454 194.635 195.333C189.839 203.997 187.002 212.451 186.881 222.051L197.802 224.839L223.773 224.578L215.224 206.906H215.23Z" fill="white"/>
<path d="M248.452 198.351C246.327 196.657 227.443 197.319 219.931 205.875L229.026 224.878C235.921 224.948 252.669 225.011 259.036 224.139C257.248 215.208 253.801 206.213 248.458 198.351H248.452Z" fill="white"/>
<path d="M131.583 186.676C131.583 186.676 115.948 192.991 105.339 193.163C94.7293 193.335 86.4033 189.642 85.3411 189.311C85.7609 190.285 92.4777 198.23 104.264 198.039C117.538 197.823 123.282 192.902 131.589 186.676H131.583Z" fill="white"/>
<path d="M52.5013 192.093C49.5055 191.462 35.1305 205.576 36.2246 206.944L36.2118 206.957L47.9153 221.771C47.9153 221.771 52.5586 193.226 52.495 192.099L52.5013 192.093Z" fill="white"/>
<path d="M73.6956 182.748C72.2772 182.652 67.106 185.561 64.848 190.641C62.2147 196.574 62.59 204.933 62.8762 206.855L74.0073 202.768C74.0073 202.768 73.1613 196.918 74.02 192.876C74.8787 188.833 77.671 186.414 77.671 186.414C77.3911 185.638 74.5225 182.805 73.6956 182.748Z" fill="white"/>
<path d="M103.278 205.748C92.8596 205.958 84.4573 196.518 84.4573 196.518C84.4573 196.518 86.3782 214.088 103.094 213.75C119.81 213.406 138.522 197.708 145.646 190.113C136.328 195.932 113.697 205.538 103.278 205.748Z" fill="white"/>
<path d="M76.023 169.156L64.3767 159.282C64.3767 159.282 67.8051 169.143 71.7041 173.67C75.8576 178.489 81.6585 181.945 81.6585 181.945L76.023 169.162V169.156Z" fill="white"/>
<mask id="mask0_2_1121" style="mask-type:luminance" maskUnits="userSpaceOnUse" x="57" y="67" width="101" height="91">
<path d="M101.144 67.9151C91.9949 67.9151 84.0705 69.6805 77.5799 73.1669C70.3344 77.0534 65.1318 83.0165 62.1181 90.8847C57.8925 101.896 56.5729 114.839 58.5016 126.39C60.0053 135.408 64.1864 147.95 75.5497 156.485C75.8479 156.707 76.1143 156.841 76.2856 156.841C76.7107 156.841 77.5228 156.034 78.1763 155.38C79.496 154.065 81.1393 152.433 83.6327 152.427L103.009 152.402C105.89 152.402 107.888 153.894 109.652 155.215C111.295 156.447 112.717 157.507 114.785 157.507C115.483 157.507 116.25 157.387 117.063 157.145C131.344 152.916 144.097 146.019 154.959 136.652C155.841 135.897 157.833 133.871 157.383 131.49C154.991 118.992 156.171 110.177 157.034 103.738C157.998 96.5176 158.531 92.5358 153.906 88.5033C139.726 76.1453 122.931 69.0645 105.357 68.0421C103.942 67.9595 102.527 67.9151 101.15 67.9151H101.144Z" fill="white"/>
</mask>
<g mask="url(#mask0_2_1121)">
<path d="M135.217 74.8046C135.217 74.9934 135.176 75.1904 135.119 75.4121C135.053 75.6665 134.987 75.9539 134.963 76.3151V76.3972C135.463 76.3479 135.981 76.4628 136.457 76.6024L136.794 75.1576C136.309 75.0673 135.833 74.9523 135.365 74.8456L135.217 74.8128V74.8046Z" fill="white"/>
<path d="M92.2263 123.512L91.6967 125.749L93.6544 126.212L94.184 123.975L92.2263 123.512Z" fill="white"/>
<path d="M141.713 105.467C141.59 106.074 141.491 106.583 141.409 107.109L141.532 107.133C142.025 107.223 142.419 107.297 142.969 107.347C143.027 107.133 143.084 106.928 143.133 106.723C143.216 106.411 143.289 106.123 143.372 105.836C142.821 105.705 142.271 105.582 141.721 105.467H141.713Z" fill="white"/>
<path d="M136.391 69.5334C136.334 69.8617 136.301 70.1162 136.268 70.5595C136.219 70.814 136.186 70.9864 136.161 71.1588C136.67 71.2983 137.114 71.4133 137.615 71.5036L137.672 71.2409C137.779 70.773 137.886 70.3132 137.992 69.8699C137.459 69.755 136.925 69.6401 136.383 69.5251L136.391 69.5334Z" fill="white"/>
<path d="M138.748 95.8255C138.831 95.8255 139.044 95.8501 139.282 95.883C139.504 95.9158 139.767 95.9486 139.972 95.9568C139.988 95.9076 140.005 95.8665 140.021 95.8173C140.235 95.1688 140.292 95.0046 139.988 94.6105C139.332 94.4546 138.978 94.7337 138.519 95.8009C138.592 95.8009 138.675 95.8009 138.748 95.8173V95.8255Z" fill="white"/>
<path d="M134.363 66.2733L134.305 66.6264C134.248 66.9795 134.199 67.2505 134.125 67.4722L134.264 67.5132H134.108C133.944 68.0059 133.714 68.2358 133.361 68.3097C132.942 68.3919 131.834 68.6054 131.169 68.0634L131.029 68.9338C130.93 69.5907 130.865 69.9767 130.577 70.2312L130.479 70.3051C130.109 70.5515 129.707 70.4529 128.984 70.2641C128.795 70.2148 128.607 70.1655 128.385 70.1163L127.884 70.0013L127.785 70.7485C127.679 71.5779 127.621 71.9967 127.301 72.2841L127.211 72.3498C126.808 72.6207 126.365 72.5058 125.626 72.3169L124.936 72.1445L124.903 72.3415C124.805 72.9081 124.698 73.4829 124.591 74.0413L124.542 74.3041C124.919 74.2466 125.388 74.3944 126.184 74.6325L126.545 74.7393L126.718 74.0249C126.882 73.3023 127.013 72.7439 127.514 72.4729C127.991 72.2184 128.582 72.3662 129.51 72.7193L129.633 72.7685L129.723 72.358C129.953 71.2905 130.06 70.7485 130.528 70.4611C130.98 70.1737 131.472 70.2887 132.368 70.5022L132.655 70.5679L132.745 70.1984C132.942 69.4183 133.131 68.942 133.435 68.671C133.846 68.3097 134.47 68.2933 135.628 68.359H135.784C135.8 68.2933 135.816 68.2358 135.825 68.1784C135.874 67.9484 135.907 67.7349 135.956 67.3983L135.972 67.308L136.038 67.1273C136.128 66.9959 136.235 66.8645 136.367 66.7414C135.701 66.5853 135.045 66.4375 134.379 66.298L134.363 66.2733Z" fill="white"/>
<path d="M144.497 100.777C143.914 100.654 143.536 100.588 142.928 100.531C142.789 100.908 142.723 101.146 142.666 101.417C142.633 101.582 142.592 101.762 142.551 101.984V102.025L142.74 102.066C143.175 102.156 143.602 102.255 144.021 102.353C144.103 102.107 144.168 101.852 144.242 101.606C144.324 101.327 144.407 101.048 144.497 100.769V100.777Z" fill="white"/>
<path d="M132.91 85.1508L132.852 85.4956C132.852 85.5038 132.852 85.512 132.852 85.5202L132.795 85.8404C132.762 86.0374 132.729 86.2344 132.688 86.4232C133 86.4232 133.304 86.5135 133.567 86.5874C133.723 86.6285 133.895 86.6777 134.084 86.7188C134.232 86.3411 134.355 85.8486 134.462 85.4299C134.478 85.3478 134.503 85.2739 134.519 85.2L132.959 84.847C132.943 84.9456 132.926 85.0523 132.91 85.1508Z" fill="white"/>
<path d="M141.072 78.336L141.015 78.6808C141.015 78.689 141.015 78.6972 141.015 78.7054L140.957 79.0255C140.924 79.2226 140.891 79.4196 140.85 79.6084C141.162 79.6084 141.466 79.6987 141.729 79.7726C141.885 79.8136 142.057 79.8629 142.246 79.9039C142.394 79.5263 142.517 79.0338 142.624 78.6151C142.64 78.533 142.665 78.4591 142.682 78.3852L141.121 78.0322C141.105 78.1307 141.088 78.2375 141.072 78.336Z" fill="white"/>
<path d="M145.621 94.8492L145.564 95.1939C145.564 95.2021 145.564 95.2104 145.564 95.2186L145.507 95.5387C145.474 95.7357 145.441 95.9328 145.4 96.1216C145.712 96.1216 146.016 96.2119 146.278 96.2858C146.434 96.3268 146.607 96.3761 146.796 96.4171C146.944 96.0395 147.067 95.5469 147.174 95.1283C147.19 95.0462 147.215 94.9723 147.231 94.8984L145.671 94.5454C145.654 94.6439 145.638 94.7506 145.621 94.8492Z" fill="white"/>
<path d="M128.27 113.258L128.212 113.603C128.212 113.611 128.212 113.62 128.212 113.628L128.155 113.948C128.122 114.145 128.089 114.342 128.048 114.531C128.36 114.531 128.664 114.621 128.927 114.695C129.083 114.736 129.255 114.785 129.444 114.826C129.592 114.449 129.715 113.956 129.822 113.537C129.838 113.455 129.863 113.381 129.879 113.308L128.319 112.955C128.303 113.053 128.286 113.16 128.27 113.258Z" fill="white"/>
<path d="M89.8556 134.411L89.7981 134.756C89.7981 134.764 89.7981 134.772 89.7981 134.78L89.7407 135.1C89.7078 135.298 89.675 135.495 89.6339 135.683C89.946 135.683 90.2498 135.774 90.5126 135.848C90.6686 135.889 90.841 135.938 91.0299 135.979C91.1777 135.601 91.3009 135.109 91.4076 134.69C91.4241 134.608 91.4487 134.534 91.4651 134.46L89.9049 134.107C89.8885 134.206 89.8721 134.312 89.8556 134.411Z" fill="white"/>
<path d="M83.4832 139.658L83.4257 140.003C83.4257 140.011 83.4257 140.02 83.4257 140.028L83.3682 140.348C83.3354 140.545 83.3025 140.742 83.2615 140.931C83.5735 140.931 83.8774 141.021 84.1401 141.095C84.2961 141.136 84.4686 141.185 84.6575 141.226C84.8053 140.849 84.9284 140.356 85.0352 139.937C85.0516 139.855 85.0763 139.781 85.0927 139.708L83.5325 139.355C83.516 139.453 83.4996 139.56 83.4832 139.658Z" fill="white"/>
<path d="M137.475 78.1225L137.418 78.4673C137.418 78.4755 137.418 78.4837 137.418 78.4919L137.361 78.812C137.328 79.0091 137.295 79.2061 137.254 79.3949C137.566 79.3949 137.87 79.4852 138.132 79.5591C138.288 79.6001 138.461 79.6494 138.65 79.6904C138.798 79.3128 138.921 78.8203 139.028 78.4016C139.044 78.3195 139.069 78.2456 139.085 78.1717L137.525 77.8187C137.508 77.9172 137.492 78.024 137.475 78.1225Z" fill="white"/>
<path d="M114.663 69.0163L114.606 69.3611C114.606 69.3693 114.606 69.3775 114.606 69.3857L114.548 69.7058C114.515 69.9029 114.482 70.0999 114.441 70.2887C114.753 70.2887 115.057 70.379 115.32 70.4529C115.476 70.4939 115.648 70.5432 115.837 70.5842C115.985 70.2066 116.108 69.7141 116.215 69.2954C116.231 69.2133 116.256 69.1394 116.272 69.0655L114.712 68.7125C114.696 68.811 114.679 68.9178 114.663 69.0163Z" fill="white"/>
<path d="M118.046 68.4409L117.989 68.7857C117.989 68.7939 117.989 68.8022 117.989 68.8104L117.931 69.1305C117.898 69.3275 117.865 69.5246 117.824 69.7134C118.136 69.7134 118.44 69.8037 118.703 69.8776C118.859 69.9186 119.031 69.9679 119.22 70.0089C119.368 69.6313 119.491 69.1387 119.598 68.7201C119.614 68.638 119.639 68.5641 119.656 68.4902L118.095 68.1372C118.079 68.2357 118.062 68.3424 118.046 68.4409Z" fill="white"/>
<path d="M116.79 73.2033L116.732 73.5481C116.732 73.5563 116.732 73.5645 116.732 73.5727L116.675 73.8929C116.642 74.0899 116.609 74.2869 116.568 74.4757C116.88 74.4757 117.184 74.566 117.447 74.6399C117.603 74.6809 117.775 74.7302 117.964 74.7712C118.112 74.3936 118.235 73.9011 118.342 73.4824C118.358 73.4003 118.383 73.3264 118.399 73.2525L116.839 72.8995C116.823 72.998 116.806 73.1048 116.79 73.2033Z" fill="white"/>
<path d="M113.875 124.393L113.817 124.738C113.817 124.746 113.817 124.754 113.817 124.763L113.76 125.083C113.727 125.28 113.694 125.477 113.653 125.666C113.965 125.666 114.269 125.756 114.531 125.83C114.688 125.871 114.86 125.92 115.049 125.961C115.197 125.583 115.32 125.091 115.427 124.672C115.443 124.59 115.468 124.516 115.484 124.442L113.924 124.089C113.907 124.188 113.891 124.295 113.875 124.393Z" fill="white"/>
<path d="M108.233 135.396L108.176 135.741C108.176 135.749 108.176 135.758 108.176 135.766L108.118 136.086C108.086 136.283 108.053 136.48 108.012 136.669C108.324 136.669 108.628 136.759 108.89 136.833C109.046 136.874 109.219 136.923 109.408 136.964C109.556 136.587 109.679 136.094 109.785 135.676C109.802 135.593 109.827 135.52 109.843 135.446L108.283 135.093C108.266 135.191 108.25 135.298 108.233 135.396Z" fill="white"/>
<path d="M86.2835 137.671L86.226 138.015C86.226 138.024 86.226 138.032 86.226 138.04L86.1685 138.36C86.1357 138.557 86.1028 138.754 86.0618 138.943C86.3738 138.943 86.6776 139.033 86.9404 139.107C87.0964 139.148 87.2689 139.198 87.4578 139.239C87.6056 138.861 87.7287 138.368 87.8355 137.95C87.8519 137.868 87.8766 137.794 87.893 137.72L86.3328 137.367C86.3163 137.465 86.2999 137.572 86.2835 137.671Z" fill="white"/>
<path d="M84.0005 134.181L83.943 134.526C83.943 134.534 83.943 134.543 83.943 134.551L83.8856 134.871C83.8527 135.068 83.8199 135.265 83.7788 135.454C84.0909 135.454 84.3947 135.544 84.6575 135.618C84.8135 135.659 84.9859 135.708 85.1748 135.749C85.3226 135.372 85.4458 134.879 85.5525 134.46C85.569 134.378 85.5936 134.304 85.61 134.231L84.0498 133.878C84.0334 133.976 84.0169 134.083 84.0005 134.181Z" fill="white"/>
<path d="M78.2769 132.203L78.2194 132.547C78.2194 132.556 78.2194 132.564 78.2194 132.572L78.1619 132.892C78.1291 133.089 78.0962 133.286 78.0552 133.475C78.3672 133.475 78.6711 133.565 78.9338 133.639C79.0898 133.68 79.2623 133.729 79.4512 133.771C79.599 133.393 79.7221 132.9 79.8289 132.482C79.8453 132.4 79.87 132.326 79.8864 132.252L78.3262 131.899C78.3097 131.997 78.2933 132.104 78.2769 132.203Z" fill="white"/>
<path d="M74.4837 126.733L74.4262 127.078C74.4262 127.086 74.4262 127.095 74.4262 127.103L74.3687 127.423C74.3359 127.62 74.303 127.817 74.262 128.006C74.574 128.006 74.8778 128.096 75.1406 128.17C75.2966 128.211 75.4691 128.26 75.6579 128.301C75.8058 127.924 75.9289 127.431 76.0357 127.013C76.0521 126.93 76.0767 126.857 76.0932 126.783L74.5329 126.43C74.5165 126.528 74.5001 126.635 74.4837 126.733Z" fill="white"/>
<path d="M76.314 121.306L76.2565 121.651C76.2565 121.659 76.2565 121.667 76.2565 121.676L76.199 121.996C76.1662 122.193 76.1333 122.39 76.0923 122.579C76.4043 122.579 76.7082 122.669 76.9709 122.743C77.127 122.784 77.2994 122.833 77.4883 122.874C77.6361 122.497 77.7593 122.004 77.866 121.585C77.8824 121.503 77.9071 121.429 77.9235 121.355L76.3633 121.002C76.3468 121.101 76.3304 121.208 76.314 121.306Z" fill="white"/>
<path d="M76.9468 107.297L76.8893 107.642C76.8893 107.65 76.8893 107.658 76.8893 107.666L76.8318 107.986C76.799 108.184 76.7662 108.381 76.7251 108.569C77.0371 108.569 77.341 108.66 77.6037 108.734C77.7598 108.775 77.9322 108.824 78.1211 108.865C78.2689 108.487 78.3921 107.995 78.4988 107.576C78.5152 107.494 78.5399 107.42 78.5563 107.346L76.9961 106.993C76.9797 107.092 76.9632 107.198 76.9468 107.297Z" fill="white"/>
<path d="M75.1319 111.009L75.0744 111.354C75.0744 111.362 75.0744 111.37 75.0744 111.378L75.0169 111.699C74.9841 111.896 74.9512 112.093 74.9102 112.281C75.2222 112.281 75.526 112.372 75.7888 112.446C75.9448 112.487 76.1173 112.536 76.3061 112.577C76.454 112.199 76.5771 111.707 76.6839 111.288C76.7003 111.206 76.7249 111.132 76.7414 111.058L75.1811 110.705C75.1647 110.804 75.1483 110.911 75.1319 111.009Z" fill="white"/>
<path d="M94.2814 96.9586L94.2239 97.3034C94.2239 97.3116 94.2239 97.3199 94.2239 97.3281L94.1664 97.6482C94.1336 97.8452 94.1008 98.0423 94.0597 98.2311C94.3717 98.2311 94.6756 98.3214 94.9383 98.3953C95.0944 98.4363 95.2668 98.4856 95.4557 98.5266C95.6035 98.149 95.7267 97.6564 95.8334 97.2378C95.8498 97.1557 95.8745 97.0818 95.8909 97.0079L94.3307 96.6549C94.3143 96.7534 94.2978 96.8601 94.2814 96.9586Z" fill="white"/>
<path d="M87.6956 92.1806L87.6381 92.5254C87.6381 92.5336 87.6381 92.5418 87.6381 92.55L87.5806 92.8701C87.5478 93.0672 87.5149 93.2642 87.4739 93.453C87.7859 93.453 88.0898 93.5433 88.3525 93.6172C88.5086 93.6582 88.681 93.7075 88.8699 93.7485C89.0177 93.3709 89.1409 92.8784 89.2476 92.4597C89.264 92.3776 89.2887 92.3037 89.3051 92.2298L87.7449 91.8768C87.7284 91.9753 87.712 92.0821 87.6956 92.1806Z" fill="white"/>
<path d="M82.7854 96.6962L82.728 97.041C82.728 97.0492 82.728 97.0574 82.728 97.0656L82.6705 97.3858C82.6376 97.5828 82.6048 97.7798 82.5637 97.9686C82.8758 97.9686 83.1796 98.0589 83.4424 98.1328C83.5984 98.1739 83.7708 98.2231 83.9597 98.2642C84.1075 97.8865 84.2307 97.394 84.3374 96.9753C84.3539 96.8932 84.3785 96.8193 84.3949 96.7455L82.8347 96.3925C82.8183 96.491 82.8019 96.5977 82.7854 96.6962Z" fill="white"/>
<path d="M102.321 91.86L102.263 92.2048C102.263 92.213 102.263 92.2212 102.263 92.2294L102.206 92.5496C102.173 92.7466 102.14 92.9436 102.099 93.1324C102.411 93.1324 102.715 93.2227 102.978 93.2966C103.134 93.3377 103.306 93.3869 103.495 93.428C103.643 93.0504 103.766 92.5578 103.873 92.1391C103.889 92.057 103.914 91.9832 103.93 91.9093L102.37 91.5563C102.354 91.6548 102.337 91.7615 102.321 91.86Z" fill="white"/>
<path d="M105.376 89.6427L105.318 89.9875C105.318 89.9957 105.318 90.0039 105.318 90.0121L105.261 90.3323C105.228 90.5293 105.195 90.7264 105.154 90.9152C105.466 90.9152 105.77 91.0055 106.033 91.0793C106.189 91.1204 106.361 91.1696 106.55 91.2107C106.698 90.8331 106.821 90.3405 106.928 89.9218C106.944 89.8398 106.969 89.7659 106.985 89.692L105.425 89.339C105.408 89.4375 105.392 89.5442 105.376 89.6427Z" fill="white"/>
<path d="M107.921 87.9513L107.863 88.2961C107.863 88.3043 107.863 88.3125 107.863 88.3207L107.806 88.6409C107.773 88.8379 107.74 89.0349 107.699 89.2238C108.011 89.2238 108.315 89.3141 108.578 89.3879C108.734 89.429 108.906 89.4782 109.095 89.5193C109.243 89.1417 109.366 88.6491 109.473 88.2304C109.489 88.1483 109.514 88.0745 109.53 88.0006L107.97 87.6476C107.954 87.7461 107.937 87.8528 107.921 87.9513Z" fill="white"/>
<path d="M116.864 86.424L116.806 86.7688C116.806 86.777 116.806 86.7852 116.806 86.7934L116.749 87.1136C116.716 87.3106 116.683 87.5076 116.642 87.6964C116.954 87.6964 117.258 87.7867 117.52 87.8606C117.677 87.9016 117.849 87.9509 118.038 87.9919C118.186 87.6143 118.309 87.1218 118.416 86.7031C118.432 86.621 118.457 86.5471 118.473 86.4732L116.913 86.1202C116.896 86.2188 116.88 86.3255 116.864 86.424Z" fill="white"/>
<path d="M108.66 80.6433L108.603 80.9881C108.603 80.9963 108.603 81.0045 108.603 81.0128L108.545 81.3329C108.513 81.5299 108.48 81.727 108.439 81.9158C108.751 81.9158 109.054 82.0061 109.317 82.08C109.473 82.121 109.646 82.1703 109.835 82.2113C109.982 81.8337 110.106 81.3411 110.212 80.9225C110.229 80.8404 110.253 80.7665 110.27 80.6926L108.71 80.3396C108.693 80.4381 108.677 80.5448 108.66 80.6433Z" fill="white"/>
<path d="M120.6 79.5509L120.543 79.8957C120.543 79.9039 120.543 79.9121 120.543 79.9203L120.485 80.2405C120.453 80.4375 120.42 80.6346 120.379 80.8234C120.691 80.8234 120.995 80.9137 121.257 80.9876C121.413 81.0286 121.586 81.0779 121.775 81.1189C121.922 80.7413 122.046 80.2487 122.152 79.8301C122.169 79.748 122.193 79.6741 122.21 79.6002L120.65 79.2472C120.633 79.3457 120.617 79.4524 120.6 79.5509Z" fill="white"/>
<path d="M134.084 79.6327C134.125 79.9693 134.043 80.3223 133.969 80.6753C133.928 80.8559 133.895 81.0365 133.87 81.2089L133.846 81.3402C133.846 81.3402 133.837 81.3648 133.829 81.373C134.33 81.4716 134.823 81.5783 135.332 81.6932L135.767 80.0021C135.34 79.8954 134.921 79.8051 134.511 79.723L134.076 79.6327H134.084Z" fill="white"/>
<path d="M133.812 65.3787C133.87 65.1488 133.927 64.9435 133.968 64.7628L133.985 64.6889C134.1 64.2291 134.206 63.876 134.362 63.6379L134.264 63.6132C133.64 63.4736 133.016 63.3341 132.383 63.1945L132.334 63.4819C132.178 64.3851 132.096 64.845 131.776 65.1323L131.677 65.2063C131.267 65.469 130.848 65.3623 130.142 65.1816C129.903 65.1159 129.665 65.0584 129.386 64.9928L129.115 64.9271L129.041 65.4197C128.91 66.3148 128.844 66.7664 128.507 67.062L128.409 67.1359C128.015 67.4069 127.571 67.2919 126.84 67.1113C126.676 67.0702 126.504 67.0292 126.307 66.9799L126.044 66.9224L125.986 67.218C125.937 67.4726 125.896 67.6861 125.871 67.875C125.756 68.5319 125.691 68.926 125.403 69.1806L125.288 69.2627C124.919 69.509 124.492 69.3941 123.794 69.2216C123.613 69.1724 123.408 69.1231 123.17 69.0656L123.071 69.041L123.055 69.1313C122.915 69.78 122.784 70.4287 122.652 71.0774V71.1185C122.932 71.102 123.277 71.2006 123.728 71.3237C123.917 71.373 124.122 71.4305 124.369 71.488L124.508 71.5208L124.623 70.946C124.796 70.0838 124.886 69.6158 125.297 69.353C125.691 69.0985 126.126 69.2052 126.849 69.3859L127.752 69.5994L127.949 68.8028C128.113 68.1131 128.195 67.76 128.516 67.5219C128.869 67.2591 129.255 67.333 129.838 67.4398C130.035 67.4808 130.248 67.5137 130.503 67.5547L130.84 67.604C130.84 67.604 130.831 67.5793 130.823 67.5711L130.733 67.3823H130.7L130.807 66.9799C130.979 66.3312 131.135 65.9042 131.398 65.6743C131.472 65.6086 131.554 65.5593 131.653 65.5183C132.194 65.3787 133.131 65.1488 133.779 65.5101L133.82 65.3458L133.812 65.3787Z" fill="white"/>
<path d="M81.2006 120.41V120.386C81.3566 119.811 81.488 119.286 81.6441 118.752C81.0282 118.604 80.5437 118.506 79.9524 118.416L79.9032 118.67C79.8211 119.08 79.7472 119.458 79.7061 119.918L79.665 120.066H79.6815C80.1824 120.189 80.6997 120.304 81.2088 120.402L81.2006 120.41Z" fill="white"/>
<path d="M132.121 76.5697V76.6108C132.039 76.9063 131.974 77.2018 131.908 77.5056L131.711 78.3758C132.195 78.4743 132.672 78.5728 133.148 78.6549C133.271 78.6795 133.378 78.7123 133.468 78.7534L133.509 78.5071C133.6 77.9489 133.682 77.4563 134.059 76.9556C133.452 76.8242 132.844 76.7011 132.121 76.5615V76.5697Z" fill="white"/>
<path d="M87.7616 103.076C87.8683 102.583 87.9833 102.091 88.1064 101.598L86.5791 101.327C86.4887 101.73 86.4066 102.14 86.3245 102.542L86.2834 102.756C86.7761 102.854 87.2853 102.969 87.6794 103.068L87.7698 103.092L87.7616 103.076Z" fill="white"/>
<path d="M83.6641 109.851C83.7708 109.293 83.8447 108.899 83.9926 108.62L82.227 108.242C82.0956 108.776 81.9889 109.293 81.8657 109.884L83.582 110.262L83.6641 109.851Z" fill="white"/>
<path d="M84.9282 108.077C85.2156 108.077 85.5687 108.168 86.0368 108.283L86.5377 108.406L87.0058 106.435C86.5541 106.477 85.9957 106.345 85.3552 106.165L84.9364 108.077H84.9282Z" fill="white"/>
<path d="M80.3878 112.141C80.5274 111.747 80.626 111.378 80.7245 110.951C80.7492 110.852 80.7656 110.754 80.7902 110.647L80.5439 110.59C80.1333 110.491 79.6488 110.376 79.2136 110.319L78.8933 111.829C79.4024 111.944 79.8951 112.059 80.3796 112.166V112.141H80.3878Z" fill="white"/>
<path d="M84.1323 111.222C84.0091 111.83 83.886 112.437 83.771 113.028V113.053L85.5201 113.472L86.0128 111.403C85.6186 111.543 85.1341 111.436 84.3212 111.263L84.1323 111.222Z" fill="white"/>
<path d="M115.295 91.4734L115.213 91.9331C115.106 92.5324 115.04 92.9264 114.868 93.2055L116.904 93.6899L117.34 91.851L117.233 91.8264C116.822 91.7443 116.486 91.7032 116.215 91.6704C115.845 91.6212 115.541 91.5883 115.303 91.4734H115.295Z" fill="white"/>
<path d="M100.621 96.1459L100.539 96.6056C100.432 97.2049 100.366 97.5989 100.194 97.878L102.23 98.3624L102.665 96.5235L102.559 96.4989C102.148 96.4168 101.811 96.3757 101.54 96.3429C101.171 96.2936 100.867 96.2608 100.629 96.1459H100.621Z" fill="white"/>
<path d="M111.304 95.3411L109.046 95.2344L108.159 97.123L105.646 96.9259L105.039 99.0855L102.583 98.9624L101.943 101.048L104.538 101.664L105.137 99.1102L107.601 99.6932L108.217 97.1066L110.738 97.706L111.304 95.3411Z" fill="white"/>
<path d="M111.789 92.6887L111.838 92.4588C111.879 92.27 111.912 92.0976 111.945 91.9417L111.978 91.7693C111.978 91.7693 111.978 91.7446 111.978 91.7282L112.043 91.3834C112.093 91.17 112.142 90.9894 112.208 90.8334L110.294 90.4312C110.179 90.9976 110.081 91.5476 109.974 92.1387L109.949 92.2946C110.212 92.2946 110.524 92.3767 110.943 92.4835L111.772 92.6805L111.789 92.6887Z" fill="white"/>
<path d="M125.453 107.125C125.338 107.651 125.223 108.176 125.116 108.71H125.149C125.642 108.816 126.151 108.923 126.619 109.038C126.636 108.923 126.652 108.816 126.668 108.718C126.734 108.274 126.8 107.831 127.022 107.486C126.504 107.363 125.979 107.24 125.453 107.125Z" fill="white"/>
<path d="M135.34 110.795C135.537 110.845 135.718 110.877 135.907 110.918C136.17 110.976 136.416 111.025 136.646 111.091C136.827 110.508 136.974 110.065 137.171 109.745C136.646 109.564 136.243 109.465 135.636 109.383C135.537 109.843 135.431 110.311 135.34 110.795Z" fill="white"/>
<path d="M133.172 71.4879C133.082 72.12 132.975 72.6536 132.868 73.1708L132.827 73.3842C133.033 73.3596 133.279 73.3596 133.566 73.376L134.174 73.4663C134.338 73.5402 134.478 73.6223 134.601 73.7044C134.732 73.0805 134.864 72.473 135.044 71.8984C134.429 71.7834 133.846 71.6521 133.238 71.5208L133.18 71.5043L133.172 71.4879Z" fill="white"/>
<path d="M106.443 94.3718L108.57 94.5606L108.857 93.4113C108.931 93.1404 109.12 92.7382 109.12 92.7382C109.12 92.7382 107.757 92.418 107.33 92.377C107.182 92.7382 106.443 94.38 106.443 94.38V94.3718Z" fill="white"/>
<path d="M97.7221 134.764C98.1901 134.871 98.7075 134.994 99.1509 135.035C99.2741 134.452 99.4055 133.943 99.5287 133.5C99.0195 133.385 98.5268 133.27 98.0341 133.172C97.9109 133.738 97.8124 134.247 97.7139 134.756L97.7221 134.764Z" fill="white"/>
<path d="M114.762 117.89V117.882L114.039 119.794L116.117 120.147L117.003 118.226L114.762 117.89Z" fill="white"/>
<path d="M93.9694 101.992L96.047 102.485L96.2194 101.688C96.244 101.565 96.2687 101.442 96.2933 101.335V101.294H96.3015C96.3672 101.023 96.4329 100.802 96.5314 100.629H96.515C95.9238 100.49 95.3243 100.359 94.7249 100.227C94.4292 100.876 94.2075 101.401 93.9612 101.992H93.9694Z" fill="white"/>
<path d="M79.9935 125.501L80.4041 123.884H80.3548C79.8457 123.761 79.3366 123.646 78.8357 123.547C78.6714 124.073 78.5729 124.59 78.4744 125.156L78.655 125.197C79.041 125.279 79.5419 125.386 79.9935 125.501Z" fill="white"/>
<path d="M92.5898 133.639L94.0762 133.959C94.224 133.442 94.38 132.933 94.5606 132.391C93.9694 132.268 93.4439 132.161 92.9265 132.062L92.5898 133.647V133.639Z" fill="white"/>
<path d="M90.6686 101.131L90.6932 101.048C90.8328 100.654 90.956 100.244 91.0709 99.8417L91.0956 99.7514C91.0956 99.7514 91.112 99.7021 91.1202 99.6775C90.7096 99.5954 90.299 99.5215 89.8885 99.4395C89.5928 99.8745 89.3219 100.334 89.0591 100.786C89.4122 100.86 89.7571 100.934 90.1102 101.007L90.6604 101.122L90.6686 101.131Z" fill="white"/>
<path d="M87.4657 132.49C88.0077 132.613 88.5497 132.736 89.0834 132.851C89.223 132.309 89.3708 131.775 89.5351 131.209L87.7449 130.798C87.671 131.431 87.5725 131.94 87.4575 132.49H87.4657Z" fill="white"/>
<path d="M84.4356 130.027C83.8773 129.904 83.3271 129.781 82.7687 129.657C82.6948 129.953 82.6291 130.24 82.5634 130.511C82.4977 130.807 82.432 131.094 82.3745 131.381L82.4731 131.398C83.13 131.521 83.6227 131.628 83.984 131.759C84.14 131.111 84.2796 130.577 84.4356 130.01V130.027Z" fill="white"/>
<path d="M140.35 107.856C139.824 107.815 139.134 107.667 138.625 107.453C138.625 107.642 138.592 107.823 138.56 108.02C138.535 108.159 138.518 108.307 138.502 108.471C138.445 108.734 138.395 108.923 138.354 109.112C138.568 109.112 138.822 109.136 139.11 109.194C139.373 109.243 139.652 109.292 139.98 109.341C140.095 108.816 140.218 108.348 140.341 107.864L140.35 107.856Z" fill="white"/>
<path d="M121.512 72.8581L121.545 72.6857C121.635 72.2506 121.701 71.9222 121.824 71.676L120.157 71.2983L119.795 72.9566L121.413 73.3178C121.454 73.1536 121.487 72.9977 121.512 72.8581Z" fill="white"/>
<path d="M126.134 87.1787C126.266 86.7108 126.373 86.3414 126.52 86.0623C125.978 85.9474 125.436 85.8242 124.886 85.6929C124.722 86.2511 124.623 86.7272 124.5 87.2937C125.026 87.4086 125.518 87.5235 126.003 87.6303L126.134 87.1787Z" fill="white"/>
<path d="M126.931 75.2316L126.8 76.0281C126.701 76.6686 126.636 77.0545 126.422 77.3255L126.668 77.3747C127.243 77.4897 127.736 77.5882 128.352 77.6786H128.401L128.557 77.1202C128.754 76.3812 128.927 75.9131 129.214 75.6504C129.534 75.3712 130.002 75.3301 130.815 75.4697C130.988 75.4943 131.185 75.5272 131.407 75.56L131.538 75.5764L131.579 75.4615L131.637 75.0263C131.727 74.4104 131.85 74.0081 132.055 73.7453L129.978 73.269L129.937 73.5072C129.896 73.7453 129.863 73.9588 129.838 74.1395V74.1887C129.814 74.2873 129.805 74.3858 129.789 74.4679V74.4843C129.715 74.936 129.641 75.2069 129.403 75.4204L129.304 75.4943C128.943 75.7325 128.574 75.6339 127.884 75.4615C127.662 75.404 127.424 75.3465 127.145 75.2808L126.915 75.2316H126.931Z" fill="white"/>
<path d="M122.406 89.4369C122.554 89.4697 122.718 89.5025 122.899 89.5354L123.236 88.107L121.807 87.7704C121.725 88.0741 121.643 88.3861 121.569 88.698L121.413 89.2891C121.692 89.2891 122.021 89.3548 122.406 89.4369Z" fill="white"/>
<path d="M118.152 91.0383L119.959 91.4652L119.975 91.3749C120.123 90.6771 120.222 90.2256 120.394 89.9054C119.803 89.7905 119.22 89.7084 118.604 89.6345C118.415 90.1599 118.3 90.4965 118.152 91.0383Z" fill="white"/>
<path d="M84.2307 118.645L84.6741 116.79L82.9496 116.379C82.8347 116.978 82.7279 117.578 82.6212 118.177L82.6047 118.259C82.8182 118.3 83.0153 118.333 83.1878 118.366C83.5984 118.44 83.9597 118.497 84.2389 118.645H84.2307Z" fill="white"/>
<path d="M83.6062 121.815C83.4337 121.815 83.2859 121.807 83.1874 121.791C83.1299 121.791 83.0724 121.774 83.0149 121.774L82.9246 121.758L82.7358 121.701C82.2923 121.545 82.2102 121.512 81.8899 121.471C81.7668 122.078 81.6436 122.677 81.5122 123.285C82.0624 123.4 82.6208 123.531 83.171 123.671L83.6144 121.815H83.6062Z" fill="white"/>
<path d="M82.7521 113.579L82.6372 113.555C82.0624 113.44 81.504 113.325 81.0934 113.177L80.6992 115.016C81.2412 115.139 81.7832 115.271 82.3251 115.402L82.7604 113.571L82.7521 113.579Z" fill="white"/>
<path d="M104.924 126.635L104.776 126.619C104.037 126.553 103.339 126.479 102.813 126.34L102.066 128.721C102.756 128.811 103.446 128.909 104.127 129.008L104.924 126.635Z" fill="white"/>
<path d="M106.024 129.632H105.909C105.342 129.567 104.8 129.509 104.398 129.411L103.823 131.241C104.357 131.307 104.883 131.381 105.408 131.463L106.024 129.632Z" fill="white"/>
<path d="M90.2332 104.382C89.9786 104.431 89.6584 104.398 89.2396 104.292C89.0343 104.234 88.7879 104.177 88.4841 104.111L88.3774 104.382C88.1885 104.883 88.0489 105.26 87.8682 105.843L87.8518 105.884L89.7733 106.336L90.2332 104.382Z" fill="white"/>
<path d="M102.739 131.57L102.698 131.554C102.181 131.406 101.688 131.308 101.163 131.201C101.048 131.735 100.941 132.268 100.834 132.802C101.343 132.909 101.803 133.007 102.296 133.147C102.436 132.613 102.567 132.112 102.748 131.57H102.739Z" fill="white"/>
<path d="M91.4647 102.116C91.4401 102.289 91.4318 102.387 91.4236 102.658L91.399 102.814C91.2183 103.323 91.0623 103.717 90.8652 103.988L92.9017 104.472L93.3698 102.51L93.1645 102.477C92.6964 102.395 92.138 102.289 91.4729 102.124L91.4647 102.116Z" fill="white"/>
<path d="M92.4918 131.184L93.198 129.321L90.7428 128.746L90.3896 130.692L92.4918 131.184Z" fill="white"/>
<path d="M82.5388 127.119L80.7979 126.733C80.6994 127.242 80.609 127.759 80.5105 128.342C81.0607 128.465 81.6191 128.597 82.1693 128.736L82.547 127.127L82.5388 127.119Z" fill="white"/>
<path d="M125.428 79.5746C125.56 79.0246 125.691 78.4664 125.823 77.9164L125.888 77.6537C125.576 77.7112 125.207 77.6126 124.681 77.4731C124.484 77.4238 124.246 77.3582 123.975 77.2925L123.893 77.7276C123.803 78.2201 123.729 78.647 123.63 79.0903C124.139 79.2627 124.55 79.3612 125.141 79.5008L125.42 79.5664L125.428 79.5746Z" fill="white"/>
<path d="M122.604 68.3093L122.628 68.2108C122.678 67.9727 122.727 67.7675 122.76 67.5869C122.866 67.0533 122.94 66.6838 123.137 66.4376L122.579 66.3226C122.078 66.2159 121.626 66.1256 121.216 66.0928H121.158L120.813 67.9234C121.372 68.0466 121.938 68.1697 122.497 68.2928L122.604 68.3175V68.3093Z" fill="white"/>
<path d="M123.359 76.3888C123.408 76.1836 123.458 75.9948 123.491 75.8388C123.614 75.3134 123.704 74.9193 123.918 74.6484L122.012 74.2216L121.651 76.1671C122.21 76.2903 122.768 76.4216 123.326 76.5366L123.367 76.3888H123.359Z" fill="white"/>
<path d="M103.618 96.2689C103.922 96.2443 104.283 96.3346 104.768 96.4577L105.548 96.6548L105.737 95.842C105.852 95.3495 105.934 94.9883 106.098 94.7256L104.062 94.2659L103.618 96.2689Z" fill="white"/>
<path d="M113.711 88.7069C113.481 89.2405 113.349 89.6181 113.16 90.242C113.333 90.242 113.522 90.2831 113.752 90.3323L114.154 90.4226C114.335 90.4637 114.524 90.5047 114.737 90.554C114.729 90.2831 114.77 89.9629 114.836 89.5771C114.885 89.3636 114.926 89.1666 114.967 88.9696L113.727 88.7069H113.711Z" fill="white"/>
<path d="M113.702 109.383L114.334 106.714L116.428 107.207L116.979 104.867L114.72 104.333L115.279 101.976L112.856 101.402L112.339 103.578L109.917 103.003L110.491 100.58L112.643 101.089L113.218 98.6753L110.959 98.1416L110.376 100.597L107.913 100.014L107.346 102.395L109.555 102.921L108.98 105.343L106.558 104.768L107.084 102.543L104.513 101.935L103.906 104.489L101.475 103.914L100.859 106.509L98.3709 105.926L97.7632 108.48L95.1355 107.856L94.4703 110.656L92.0479 110.081L91.4402 112.635L89.1327 112.085L88.6072 114.302L90.9557 114.852L90.2824 117.685L88.0816 117.167L87.5725 119.311L89.724 119.82L90.2249 117.693L92.8526 118.317L92.2286 120.945L90.0853 120.436L89.609 122.447L91.8508 122.973L92.3764 120.764L95.0041 121.388L94.4211 123.86L96.901 124.426L96.1948 127.054L94.0433 126.545L93.2797 129.214L95.7678 129.649L96.2441 127.136L98.6994 127.612L99.3399 124.919L101.582 125.461L102.501 123.071L105.014 123.581L105.893 121.134L108.176 121.536L108.98 119.13L111.28 119.524L112.208 116.97L114.351 117.406L114.934 115.156L112.709 114.679L112.183 116.568L109.613 116.026L110.155 113.776L112.438 114.326L112.98 112.035L110.491 111.444L111.115 108.792L113.669 109.399L113.702 109.383ZM112.446 103.799L114.868 104.374L114.293 106.796L111.871 106.222L112.446 103.799ZM99.3481 124.894L96.9503 124.377L97.6976 121.938L99.964 122.472L99.3481 124.886V124.894ZM102.51 123.006L100.243 122.472L100.777 120.206L103.043 120.739L102.51 123.006ZM105.688 120.961L103.421 120.419L103.963 118.153L106.23 118.687L105.696 120.953L105.688 120.961ZM108.915 119.031L106.443 118.448L107.026 115.977L109.498 116.56L108.915 119.031Z" fill="white"/>
<path d="M129.05 85.6353H129.075L129.642 84.0098L127.827 83.6322C127.802 83.8703 127.761 84.1083 127.712 84.3875C127.654 84.724 127.597 85.0524 127.564 85.4054C127.925 85.3972 128.377 85.4957 129.042 85.6435L129.05 85.6353Z" fill="white"/>
<path d="M140.99 97.5176C140.744 97.9609 140.678 98.2482 140.58 98.6669C140.555 98.7654 140.53 98.8639 140.506 98.9706C140.711 99.0035 140.916 99.0363 141.13 99.0773C141.467 99.1348 141.803 99.1923 142.115 99.2251C142.247 98.7325 142.394 98.2728 142.542 97.8049C142.05 97.7064 141.549 97.6079 141.064 97.5176H140.998H140.99Z" fill="white"/>
<path d="M133.426 94.5941L134.913 94.906C135.036 94.4299 135.175 93.9456 135.315 93.4776L135.331 93.4284L133.747 93.0918L133.434 94.5859L133.426 94.5941Z" fill="white"/>
<path d="M113.743 109.609L113.246 111.71L115.395 112.218L115.892 110.117L113.743 109.609Z" fill="white"/>
<path d="M131.472 91.4904L131.456 91.5396C131.949 91.6381 132.441 91.7448 132.909 91.8598H132.918C133.049 91.3344 133.205 90.8172 133.369 90.2918L131.768 89.947C131.661 90.4642 131.554 90.965 131.464 91.4904H131.472Z" fill="white"/>
<path d="M84.5673 121.125C84.5509 121.174 84.5345 121.215 84.5181 121.256L86.3575 121.692L86.7845 119.902L84.8137 119.434C84.8958 119.877 84.7562 120.435 84.5673 121.117V121.125Z" fill="white"/>
<path d="M129.813 86.793C129.715 87.1706 129.633 87.54 129.543 87.9341L129.444 88.402L131.095 88.7796L131.497 87.1295C131.152 87.0639 130.799 86.99 130.454 86.9243L129.813 86.793Z" fill="white"/>
<path d="M135.447 97.6896L135.406 97.8784C135.751 97.8374 136.17 97.9359 136.769 98.0837L137.007 98.1411C137.016 98.0837 137.024 98.0344 137.032 97.9769C137.114 97.509 137.204 96.959 137.434 96.5321L135.784 96.1709C135.669 96.6799 135.554 97.1971 135.447 97.706V97.6896Z" fill="white"/>
<path d="M118.957 108.192L117.118 107.757L116.691 109.571L118.481 109.998C118.637 109.341 118.768 108.841 118.957 108.2V108.192Z" fill="white"/>
<path d="M119.82 116.65L117.98 116.215L117.553 118.03L119.343 118.456C119.499 117.8 119.631 117.299 119.82 116.659V116.65Z" fill="white"/>
<path d="M117.997 113.645L116.158 113.21L115.731 115.024L117.521 115.451C117.677 114.795 117.808 114.294 117.997 113.653V113.645Z" fill="white"/>
<path d="M121.438 107.855C121.561 107.346 121.684 106.846 121.824 106.337L121.355 106.222C121.117 106.181 120.838 106.107 120.575 106.041L120.329 105.984L119.927 107.683L121.405 108.011L121.438 107.864V107.855Z" fill="white"/>
<path d="M132.113 108.619H132.072C131.587 108.496 131.012 108.356 130.552 108.307C130.552 108.324 130.552 108.332 130.544 108.348V108.365C130.413 108.89 130.314 109.374 130.224 109.809C130.7 109.892 131.168 109.974 131.636 110.064C131.759 109.547 131.883 109.062 132.121 108.619H132.113Z" fill="white"/>
<path d="M134.88 108.34C135.003 107.79 135.135 107.24 135.266 106.69C134.658 106.567 134.084 106.452 133.517 106.32L133.254 107.938H133.279C133.846 108.102 134.346 108.217 134.88 108.332V108.34Z" fill="white"/>
<path d="M139.315 104.177C139.635 104.144 140.013 104.226 140.596 104.349L141.097 104.448C141.236 103.849 141.376 103.241 141.524 102.65C140.892 102.519 140.317 102.396 139.709 102.289L139.315 104.169V104.177Z" fill="white"/>
<path d="M128.721 106.853C129.033 106.968 129.255 107.042 129.477 107.108C129.592 107.141 129.707 107.182 129.813 107.223C129.969 106.254 130.109 105.712 130.437 105.384L128.384 104.941L128.007 106.87C128.155 106.845 128.319 106.829 128.508 106.829L128.705 106.862L128.721 106.853Z" fill="white"/>
<path d="M127.235 82.5061H127.252L127.276 82.4158C127.408 81.8822 127.531 81.3568 127.67 80.8314L125.93 80.4374C125.856 80.8396 125.798 81.2337 125.732 81.6277L125.634 82.2024C126.143 82.3173 126.652 82.424 127.227 82.4979L127.235 82.5061Z" fill="white"/>
<path d="M128.968 78.5328C128.853 79.1157 128.738 79.7067 128.615 80.2814C129.206 80.3963 129.748 80.5112 130.388 80.659C130.528 80.0515 130.659 79.5508 130.865 78.8694L130.881 78.8201L128.992 78.4097L128.968 78.5328Z" fill="white"/>
<path d="M101.697 101.212L99.4795 101.032L98.7815 103.043L101.13 103.593L101.697 101.212Z" fill="white"/>
<path d="M98.6833 103.134L96.4415 102.937L95.9406 105.063L98.1084 105.572L98.6915 103.134H98.6833Z" fill="white"/>
<path d="M132.876 105.293C132.934 105.08 132.983 104.883 133.024 104.71L133.049 104.612C133.049 104.612 133.057 104.571 133.065 104.554L133.131 104.283C133.238 103.889 133.353 103.577 133.583 103.372L133.361 103.323C132.761 103.192 132.154 103.06 131.546 102.945L131.448 102.929L131.431 103.077C131.349 103.684 131.251 104.218 131.144 104.776L131.086 105.08C131.423 105.039 131.809 105.104 132.285 105.195C132.466 105.227 132.663 105.26 132.876 105.301V105.293Z" fill="white"/>
<path d="M93.383 105.042L92.85 107.295L94.9596 107.794L95.4926 105.541L93.383 105.042Z" fill="white"/>
<path d="M110.623 122.759L108.307 122.447L107.469 124.967L109.785 125.288L110.623 122.759Z" fill="white"/>
<path d="M116.09 99.5248L115.62 101.514L117.585 101.979L118.056 99.9899L116.09 99.5248Z" fill="white"/>
<path d="M136.12 103.224C136.284 102.674 136.416 102.148 136.564 101.598L136.966 101.672L136.572 101.574L136.605 101.451L136.523 101.434C135.89 101.303 135.242 101.155 134.601 100.999H134.568L134.56 101.081C134.47 101.746 134.371 102.222 134.256 102.772L134.182 103.125C134.527 103.084 134.962 103.183 135.71 103.355L136.079 103.437L136.145 103.224H136.12Z" fill="white"/>
<path d="M129.994 93.6339C130.101 93.1905 130.208 92.7389 130.347 92.279C129.838 92.1312 129.296 92.0163 128.861 91.9259L128.672 91.8849C128.549 92.2051 128.459 92.4761 128.393 92.6896L128.36 92.7964C128.36 92.7964 128.36 92.821 128.352 92.8374L128.245 93.1741C128.122 93.5107 127.966 93.7653 127.646 93.8885C127.293 94.0281 126.939 93.946 126.241 93.7817C126.044 93.7325 125.823 93.6832 125.552 93.6257L125.363 93.5847L125.289 94.0445C125.166 94.8246 125.092 95.2598 124.772 95.5472L124.681 95.6129C124.279 95.8838 123.844 95.7853 123.047 95.6129L122.259 95.4404L122.185 95.851C122.053 96.8692 121.996 97.3373 121.643 97.6493L121.544 97.7232C121.134 98.0024 120.674 97.8874 119.91 97.6986L119.344 97.559L118.925 99.3244L120.887 99.7925L120.928 99.6282C121.134 98.8399 121.249 98.3637 121.692 98.1009C122.111 97.8546 122.604 97.9449 123.482 98.1091L123.827 98.1748L123.991 97.6986C124.525 96.1466 124.854 95.9003 126.512 95.8181L127.128 95.7853C127.194 95.539 127.243 95.3255 127.284 95.1366C127.416 94.5864 127.498 94.2005 127.777 93.946C127.81 93.9131 127.851 93.8885 127.892 93.8638C128.278 93.6257 128.68 93.716 129.411 93.8885L129.904 94.0034L129.994 93.6339Z" fill="white"/>
<path d="M83.4915 126.322C84.0663 126.446 84.6329 126.577 85.2077 126.708L85.6019 125.042L83.7789 124.607C83.6967 125.181 83.5982 125.756 83.4915 126.322Z" fill="white"/>
<path d="M86.9404 122.634L86.5435 124.312L88.4533 124.764L88.8502 123.086L86.9404 122.634Z" fill="white"/>
<path d="M86.1386 114.189L85.6831 116.114L87.585 116.564L88.0405 114.639L86.1386 114.189Z" fill="white"/>
<path d="M107.576 124.862L105.515 124.583L104.792 126.725L106.854 127.004L107.576 124.862Z" fill="white"/>
<path d="M89.2154 109.506L87.0475 108.997L86.949 109.539C86.8258 110.228 86.7519 110.672 86.5466 110.984L88.7392 111.501L89.2154 109.506Z" fill="white"/>
<path d="M102.173 128.663L99.6357 128.319L99.455 128.967C99.2251 129.788 99.0773 130.313 98.7981 130.699L101.368 131.044L102.173 128.655V128.663Z" fill="white"/>
<path d="M90.9228 126.233L88.9602 125.765L88.4839 127.768L90.4383 128.203L90.9228 126.233Z" fill="white"/>
<path d="M90.1412 107.113L89.6418 109.222L91.7274 109.715L92.2267 107.606L90.1412 107.113Z" fill="white"/>
<path d="M97.3572 97.8138L96.8579 99.9227L98.9435 100.416L99.4428 98.3075L97.3572 97.8138Z" fill="white"/>
<path d="M113.447 120.878L111.214 120.517L110.499 122.824L112.733 123.177L113.447 120.878Z" fill="white"/>
<path d="M87.6299 128.277L87.6792 128.104L85.8726 127.678C85.7412 128.277 85.618 128.876 85.4949 129.475C86.1108 129.59 86.6527 129.714 87.1783 129.845C87.3425 129.328 87.4903 128.802 87.6381 128.277H87.6299Z" fill="white"/>
<path d="M123.088 105.557C123.589 105.639 124.147 105.778 124.632 105.893C124.771 105.384 124.919 104.875 125.075 104.366L125.1 104.276C124.96 104.292 124.78 104.292 124.5 104.276L124.18 104.227C123.885 104.112 123.679 104.046 123.449 103.972L123.088 105.565V105.557Z" fill="white"/>
<path d="M122.809 102.403C122.99 101.738 123.113 101.262 123.573 100.991C124.033 100.72 124.607 100.802 125.511 101.048C125.683 101.098 125.831 101.18 125.946 101.311L126.135 100.588C126.324 99.833 126.439 99.365 126.882 99.1187C127.35 98.8641 127.917 99.0283 128.787 99.3239L128.984 99.3896L129.107 98.9216C129.165 98.7163 129.206 98.5356 129.247 98.3796C129.395 97.7802 129.493 97.3943 129.764 97.1561C129.814 97.1151 129.871 97.074 129.937 97.0412C130.315 96.8277 130.709 96.9262 131.44 97.0904L132.023 97.2218L132.08 96.9591C132.203 96.4171 132.335 95.8505 132.458 95.3003L130.528 94.8569V94.8734C130.471 95.1361 130.43 95.3578 130.397 95.5467C130.282 96.179 130.216 96.5567 129.929 96.8112L129.814 96.8934C129.444 97.1315 129.034 97.0247 128.344 96.8523C128.155 96.803 127.933 96.7456 127.67 96.6881L127.284 96.5978L127.202 97.189C127.096 97.9691 127.038 98.4043 126.71 98.6917L126.628 98.7573C126.209 99.0447 125.749 98.9298 124.829 98.7081L124.254 98.5685L124.197 98.9791C124.057 99.9726 123.992 100.465 123.647 100.769L123.548 100.843C123.154 101.106 122.719 100.991 122.062 100.818C121.906 100.777 121.733 100.736 121.536 100.687L121.101 102.51L122.67 102.879C122.719 102.707 122.768 102.543 122.801 102.403H122.809Z" fill="white"/>
<path d="M116.896 96.4169L118.908 96.893L119.064 96.1788C119.081 96.1131 119.089 96.0475 119.105 95.99L119.13 95.8833C119.228 95.4646 119.327 95.1691 119.557 94.972H119.565L117.373 94.4467L116.904 96.4251L116.896 96.4169Z" fill="white"/>
<path d="M111.977 93.2313L111.92 93.5761C111.772 94.4791 111.698 94.9552 111.394 95.259L113.735 95.809L114.252 93.6335C114.121 93.6582 113.981 93.6582 113.825 93.6335L113.554 93.5843C113.398 93.5515 113.225 93.5104 113.028 93.4612C112.823 93.4119 112.626 93.3626 112.396 93.3052L111.986 93.2067L111.977 93.2313Z" fill="white"/>
<path d="M118.118 102.754L117.755 104.288L119.593 104.722L119.956 103.188L118.118 102.754Z" fill="white"/>
<path d="M139.512 99.652L137.706 99.2498C137.599 99.7916 137.484 100.325 137.369 100.859L137.336 101.015L139.069 101.384C139.2 100.834 139.348 100.251 139.512 99.652Z" fill="white"/>
<path d="M127.826 104.053C128.056 103.109 128.212 102.542 128.623 102.222C129.091 101.869 129.649 101.992 130.569 102.197L130.93 102.271L131.127 101.565C131.3 100.916 131.423 100.489 131.719 100.227C131.776 100.177 131.833 100.136 131.907 100.095C132.326 99.8736 132.761 99.9722 133.632 100.177L134.018 100.268L134.149 99.7669C134.33 99.0525 134.453 98.5762 134.691 98.2724L132.531 97.7961L132.458 98.3135C132.334 99.1921 132.269 99.6355 131.94 99.9311L131.842 100.005C131.448 100.268 131.021 100.153 130.298 99.9722C130.093 99.9229 129.887 99.8654 129.641 99.8079L129.321 99.734L129.239 100.333C129.124 101.187 129.058 101.614 128.738 101.902L128.639 101.976C128.253 102.239 127.818 102.124 127.104 101.935C126.939 101.894 126.767 101.844 126.57 101.795L126.159 101.697C126.299 102.173 126.135 102.764 125.921 103.421C125.88 103.536 125.855 103.634 125.831 103.708L125.798 103.84L125.888 103.856C126.504 103.971 127.079 104.086 127.777 104.242L127.826 104.053Z" fill="white"/>
<path d="M137.976 106.295C138.042 106.081 138.099 105.884 138.14 105.712C138.28 105.203 138.387 104.842 138.575 104.579L138.239 104.505C137.713 104.39 137.163 104.267 136.637 104.127L136.572 104.111L136.555 104.226C136.473 104.85 136.358 105.4 136.235 105.974L136.514 106.032C137.032 106.139 137.459 106.221 137.968 106.286H137.976V106.295Z" fill="white"/>
<path d="M116.207 96.8276L114.064 96.3186L113.784 97.4925C113.776 97.5336 113.76 97.5992 113.743 97.6567L113.546 98.4941L115.698 99.003L116.215 96.8276H116.207Z" fill="white"/>
<path d="M131.587 81.9484C131.366 81.8909 131.144 81.8416 130.93 81.817L130.889 81.9402C130.791 82.2193 130.717 82.4327 130.651 82.7118C130.635 82.8021 130.61 82.9006 130.594 83.0156L130.528 83.4589C131.119 83.541 131.719 83.623 132.302 83.7216V83.6723C132.441 83.1469 132.573 82.6461 132.729 82.1208C132.351 82.129 131.94 82.0305 131.587 81.9402V81.9484Z" fill="white"/>
<path d="M123.195 92.5656C123.63 92.4917 124.164 92.6641 124.862 92.9186L124.944 92.9515L125.059 92.4096C125.198 91.7611 125.289 91.326 125.461 91.0141L123.638 90.6118L123.195 92.5738V92.5656Z" fill="white"/>
<path d="M126.324 90.4554C126.66 90.4307 127.063 90.5374 127.638 90.677L128.106 90.7919C128.237 90.2009 128.377 89.6262 128.516 89.0516C128.352 89.0187 128.196 88.9859 128.04 88.9531C127.728 88.8874 127.523 88.8463 127.301 88.8053L126.677 88.6411C126.578 89.2322 126.463 89.7904 126.348 90.324L126.324 90.4554Z" fill="white"/>
<path d="M120.748 92.5658L120.238 94.7249C120.518 94.7249 120.854 94.8152 121.298 94.9219L121.955 95.0779L122.053 94.6263C122.086 94.4622 122.119 94.3144 122.152 94.1748C122.258 93.6412 122.341 93.2308 122.562 92.9434L121.807 92.7793C121.454 92.7054 121.109 92.6315 120.756 92.5576L120.748 92.5658Z" fill="white"/>
<path d="M93.3451 80.101L94.5441 83.3773L92.9674 86.473L96.2357 85.2741L99.3315 86.8589L98.1326 83.5908L99.7174 80.4869L96.4492 81.6858L93.3451 80.101Z" fill="white"/>
<path d="M133.665 114.622L134.864 117.89L133.28 120.994L136.548 119.787L139.652 121.372L138.453 118.103L140.038 115L136.77 116.207L133.665 114.622Z" fill="white"/>
<path d="M105.951 143.608L106.681 145.595L105.721 147.475L107.708 146.753L109.588 147.713L108.857 145.726L109.826 143.838L107.839 144.568L105.951 143.608Z" fill="white"/>
<path d="M63.0117 134.838L63.7425 136.825L62.7817 138.706L64.769 137.975L66.6495 138.936L65.9186 136.957L66.8794 135.068L64.9004 135.799L63.0117 134.838Z" fill="white"/>
<path d="M153.956 84.0505L154.687 86.0377L153.718 87.9181L155.705 87.1873L157.594 88.148L156.863 86.1609L157.824 84.2805L155.837 85.0113L153.956 84.0505Z" fill="white"/>
<path d="M88.3692 140.97L89.5681 144.246L87.9915 147.342L91.2597 146.143L94.3555 147.728L93.1566 144.46L94.7415 141.356L91.4732 142.555L88.3692 140.97Z" fill="white"/>
<path d="M122.103 119.959L123.302 123.227L121.717 126.331L124.985 125.132L128.089 126.717L126.89 123.449L128.475 120.345L125.207 121.544L122.103 119.959Z" fill="white"/>
<path d="M63.6108 118.325L64.8097 121.593L63.2249 124.697L66.4931 123.498L69.5971 125.083L68.3982 121.815L69.9831 118.711L66.7148 119.91L63.6108 118.325Z" fill="white"/>
<path d="M88.6899 98.6179L89.2483 100.153L88.5093 101.606L90.0367 101.04L91.4901 101.787L90.9317 100.252L91.6708 98.7985L90.1434 99.3568L88.6899 98.6179Z" fill="white"/>
<path d="M91.67 92.5747L92.2366 94.1016L91.4894 95.5547L93.025 94.9964L94.4784 95.7353L93.9118 94.2001L94.6591 92.7471L93.1235 93.3135L91.67 92.5747Z" fill="white"/>
<path d="M97.0653 92.8123L97.6319 94.3392L96.8846 95.7922L98.4202 95.234L99.8737 95.9728L99.3153 94.4459L100.054 92.9929L98.5188 93.5511L97.0653 92.8123Z" fill="white"/>
<path d="M119.812 82.458L120.378 83.9849L119.631 85.438L121.167 84.8797L122.62 85.6186L122.053 84.0916L122.801 82.6304L121.265 83.1968L119.812 82.458Z" fill="white"/>
<path d="M139.611 67.8419L140.177 69.377L139.43 70.8301L140.966 70.2719L142.419 71.0107L141.852 69.4756L142.6 68.0225L141.064 68.589L139.611 67.8419Z" fill="white"/>
<path d="M135.505 88.9855L136.063 90.5206L135.324 91.9736L136.851 91.4072L138.313 92.1542L137.746 90.6191L138.485 89.1661L136.958 89.7325L135.505 88.9855Z" fill="white"/>
<path d="M119.795 110.204L120.353 111.739L119.614 113.192L121.142 112.626L122.595 113.373L122.037 111.838L122.776 110.385L121.249 110.943L119.795 110.204Z" fill="white"/>
<path d="M108.274 127.275L108.841 128.802L108.093 130.255L109.629 129.697L111.082 130.436L110.516 128.909L111.263 127.456L109.728 128.014L108.274 127.275Z" fill="white"/>
<path d="M93.3944 135.545L93.9528 137.08L93.2137 138.533L94.7493 137.967L96.2028 138.714L95.6362 137.178L96.3835 135.725L94.8479 136.284L93.3944 135.545Z" fill="white"/>
<path d="M75.3621 114.097L75.9204 115.632L75.1814 117.085L76.7088 116.518L78.1622 117.265L77.6038 115.73L78.3429 114.277L76.8155 114.844L75.3621 114.097Z" fill="white"/>
<path d="M145.367 102.855L145.926 104.382L145.187 105.843L146.714 105.277L148.167 106.016L147.609 104.489L148.348 103.036L146.821 103.594L145.367 102.855Z" fill="white"/>
<path d="M136.022 82.4491L136.589 83.976L135.85 85.4291L137.377 84.8708L138.83 85.6097L138.272 84.0827L139.011 82.6297L137.484 83.1879L136.022 82.4491Z" fill="white"/>
<path d="M80.3628 101.64L80.9212 103.175L80.1821 104.628L81.7095 104.07L83.1712 104.809L82.6046 103.274L83.3436 101.82L81.8163 102.387L80.3628 101.64Z" fill="white"/>
<path d="M65.4172 105.893L65.9756 107.428L65.2366 108.881L66.7639 108.323L68.2174 109.062L67.659 107.527L68.3981 106.074L66.8707 106.64L65.4172 105.893Z" fill="white"/>
<path d="M76.2161 138.377L76.7745 139.904L76.0354 141.357L77.571 140.799L79.0245 141.538L78.4578 140.011L79.2051 138.558L77.6695 139.116L76.2161 138.377Z" fill="white"/>
<path d="M121.24 131.036L121.807 132.571L121.06 134.024L122.595 133.458L124.049 134.205L123.49 132.67L124.229 131.217L122.694 131.775L121.24 131.036Z" fill="white"/>
<path d="M104.464 84.4119L105.031 85.947L104.284 87.4L105.819 86.8336L107.273 87.5724L106.706 86.0455L107.453 84.5925L105.918 85.1507L104.464 84.4119Z" fill="white"/>
<path d="M111.419 84.2231L111.977 85.7583L111.238 87.2113L112.766 86.6449L114.219 87.3919L113.661 85.8568L114.4 84.4037L112.872 84.9702L111.419 84.2231Z" fill="white"/>
<path d="M113.489 76.2332L114.047 77.7601L113.308 79.2131L114.844 78.6549L116.297 79.3937L115.73 77.8668L116.478 76.4138L114.942 76.972L113.489 76.2332Z" fill="white"/>
</g>
</svg>