<svg preserveAspectRatio="none" width="100%" height="100%" overflow="visible" style="display: block;" viewBox="0 0 278.542 193.028" fill="none" xmlns="http://www.w3.org/2000/svg">
<g id="HSRS">
<path id="Vector" d="M21.1663 170.208L21.9747 172.533L14.9848 174.946L18.9185 186.321L16.5918 187.129L12.6581 175.753L5.66823 178.166L4.85981 175.842L21.1663 170.218V170.208ZM26.3126 185.08L27.1211 187.405L10.8145 193.028L10.0061 190.704L26.3126 185.08Z" fill="var(--fill-0, white)"/>
<path id="Vector_2" d="M17.3921 147.596L17.7569 150.029L12.8867 150.758L14.9373 164.369L12.5022 164.733L10.4515 151.122L3.13627 152.225L4.44749 160.971C4.61509 162.074 5.03902 163.049 5.71928 163.896C6.39954 164.743 7.2474 165.364 8.253 165.767C9.2586 166.171 10.3234 166.289 11.4473 166.122L19.9752 164.842L20.3399 167.274L11.812 168.555C10.6388 168.732 9.50507 168.673 8.41074 168.397C7.31641 168.111 6.31081 167.639 5.4038 166.979C4.49679 166.319 3.74751 165.501 3.15598 164.536C2.56445 163.571 2.17996 162.507 2.0025 161.335L0.31664 150.157L17.3823 147.596H17.3921Z" fill="var(--fill-0, white)"/>
<path id="Vector_3" d="M3.05629 124.904L14.8968 141.096L15.37 125.269L17.8347 125.337L17.2432 145.252L14.7784 145.183L2.93799 128.893L2.46476 144.818L5.50278e-05 144.75L0.591585 124.835L3.05629 124.904Z" fill="var(--fill-0, white)"/>
<path id="Vector_4" d="M17.3124 103.177C18.1997 103.365 18.9489 103.808 19.5602 104.497C20.1714 105.187 20.6052 106.043 20.8418 107.048C21.0785 108.053 21.0883 109.116 20.8418 110.219L17.9926 123.683L15.5772 123.171L18.4264 109.707C18.5645 109.047 18.5842 108.427 18.4856 107.836C18.387 107.245 18.18 106.743 17.8842 106.339C17.5884 105.935 17.2138 105.679 16.78 105.59L15.5772 105.334L13.2308 116.395C12.9942 117.498 12.5111 118.453 11.7717 119.241C11.0323 120.029 10.1549 120.61 9.12955 120.964C8.10423 121.319 7.03948 121.378 5.92543 121.142L1.10446 120.117L1.61712 117.704L6.43809 118.729C7.09863 118.867 7.73946 118.837 8.36056 118.63C8.98167 118.423 9.51405 118.079 9.95769 117.596C10.4013 117.114 10.6872 116.542 10.8253 115.882L13.1717 104.822L4.73251 103.04L5.24517 100.627L17.3025 103.177H17.3124Z" fill="var(--fill-0, white)"/>
<path id="Vector_5" d="M30.2868 73.5825C31.0953 73.9863 31.7361 74.5477 32.2093 75.2765C32.6825 76.0053 32.9487 76.803 33.0177 77.6599C33.0868 78.5167 32.9192 79.3637 32.5051 80.1812L25.8306 93.5855L23.6223 92.4923L30.2967 79.088C30.6023 78.4675 30.6516 77.8372 30.4249 77.197C30.1981 76.5568 29.7939 76.0841 29.1827 75.7886C28.5813 75.4931 27.9503 75.4439 27.3095 75.6507C26.6588 75.8576 26.1856 76.2712 25.8799 76.8917L21.404 85.8837C20.9998 86.6913 20.4379 87.3315 19.7083 87.8042C18.9788 88.2769 18.1802 88.5429 17.3126 88.6118C16.445 88.6807 15.607 88.5035 14.7986 88.1095C13.9902 87.7057 13.3494 87.1443 12.8761 86.4155C12.4029 85.6867 12.1367 84.8889 12.0677 84.0222C11.9987 83.1555 12.1762 82.3184 12.5705 81.5108L18.6929 69.2096L20.9012 70.3028L14.7789 82.604C14.4831 83.2048 14.4338 83.8351 14.6606 84.4851C14.8775 85.1352 15.2916 85.6079 15.8929 85.9132C16.4943 86.2087 17.1253 86.2579 17.776 86.0314C18.4267 85.8147 18.8999 85.4011 19.2055 84.8003L23.6814 75.8083C24.0955 74.981 24.6574 74.3408 25.387 73.8779C26.1166 73.415 26.9151 73.1491 27.7728 73.09C28.6404 73.0309 29.4784 73.1984 30.2868 73.5923V73.5825Z" fill="var(--fill-0, white)"/>
<path id="Vector_6" d="M38.8242 51.4324C39.7312 52.1021 40.4016 52.9393 40.8157 53.934C41.2298 54.9287 41.3875 55.9629 41.2791 57.0561C41.1706 58.1493 40.7763 59.1342 40.1059 60.0501L34.2103 68.008L32.2484 66.5602L38.1439 58.6024C38.558 58.0508 38.7946 57.4501 38.8538 56.8C38.9129 56.15 38.8143 55.5295 38.558 54.9288C38.3017 54.328 37.8975 53.8257 37.3552 53.4219C36.8031 53.0082 36.2018 52.7719 35.5609 52.7029C34.9201 52.634 34.299 52.7226 33.6976 52.9787C33.1061 53.2348 32.5934 53.6386 32.1892 54.1901L25.4655 63.251L37.3454 72.046L35.8764 74.0257L22.0149 63.7632L30.1977 52.7226C30.8681 51.8165 31.7061 51.1468 32.7117 50.7233C33.7075 50.2998 34.7525 50.1422 35.8271 50.2604C36.9017 50.3786 37.9073 50.7725 38.8143 51.4423L38.8242 51.4324Z" fill="var(--fill-0, white)"/>
<path id="Vector_7" d="M62.5936 43.9371L60.8091 45.6311L57.4177 42.056L47.4209 51.5306L45.7251 49.7479L55.722 40.2734L50.6348 34.9156L44.2167 41.0022C43.4083 41.7704 42.8464 42.6765 42.5506 43.7205C42.2548 44.7644 42.2252 45.8183 42.4717 46.8721C42.7182 47.9259 43.2308 48.8714 44.0097 49.6889L49.9447 55.9429L48.1603 57.6369L42.2252 51.3829C41.407 50.526 40.8056 49.5707 40.4112 48.507C40.0169 47.4433 39.8295 46.3599 39.8493 45.2372C39.869 44.1144 40.1056 43.0409 40.5591 41.9969C41.0126 40.9529 41.6633 40.0271 42.521 39.2195L50.7236 31.4389L62.6035 43.9371H62.5936Z" fill="var(--fill-0, white)"/>
<path id="Vector_8" d="M80.3983 31.9905L71.1211 38.1067C70.1155 38.7665 69.0902 39.1802 68.0353 39.3378C66.9804 39.5052 65.9452 39.4461 64.9297 39.1703C63.9143 38.8946 62.958 38.4317 62.0707 37.7619C61.1834 37.1021 60.4045 36.2649 59.744 35.2702C59.0933 34.2853 58.6398 33.2512 58.3835 32.1777C58.1271 31.1041 58.068 30.0405 58.2159 28.9866C58.3638 27.9427 58.7187 26.9578 59.2806 26.0615C59.8426 25.1554 60.6313 24.3774 61.627 23.7175L70.9042 17.6014L72.2647 19.6598L62.9876 25.7759C62.0411 26.3964 61.3806 27.1646 61.0059 28.0707C60.6313 28.9768 60.513 29.942 60.6609 30.9662C60.8087 31.9905 61.1932 32.9754 61.8144 33.9209C62.4355 34.8664 63.1946 35.6051 64.072 36.1369C64.9495 36.6687 65.8861 36.9445 66.8719 36.9642C67.8578 36.9839 68.824 36.6786 69.7704 36.0581L79.0476 29.942L80.4081 32.0004L80.3983 31.9905Z" fill="var(--fill-0, white)"/>
<path id="Vector_9" d="M98.7471 23.7861L82.4307 31.0053L75.4506 15.2471L91.767 8.02794L92.7627 10.2833L78.704 16.5078L83.6926 27.765L97.7513 21.5405L98.7471 23.7959V23.7861ZM93.8373 17.8768L82.8152 22.752L81.8194 20.4966L92.8416 15.6214L93.8373 17.8768Z" fill="var(--fill-0, white)"/>
<path id="Vector_10" d="M129.101 17.2264L125.818 17.7878L119.893 13.799L112.43 15.0695L112.016 12.6664L121.786 11.0019C122.466 10.8837 123.058 10.6178 123.551 10.1943C124.043 9.77082 124.408 9.24883 124.635 8.6382C124.862 8.02758 124.921 7.3874 124.812 6.72753C124.694 6.04796 124.428 5.45703 124.014 4.96459C123.6 4.47214 123.087 4.10774 122.476 3.88121C121.875 3.65469 121.224 3.5956 120.544 3.71378L109.413 5.60476L111.897 20.1712L109.472 20.5848L106.574 3.5956L120.13 1.29097C121.244 1.10384 122.318 1.20233 123.334 1.58643C124.349 1.97054 125.207 2.58117 125.907 3.40847C126.607 4.23577 127.05 5.21081 127.238 6.32373C127.405 7.32831 127.346 8.29349 127.041 9.22913C126.745 10.1648 126.252 10.9724 125.581 11.6618C124.911 12.3512 124.103 12.8634 123.156 13.1884L129.101 17.2461V17.2264Z" fill="var(--fill-0, white)"/>
<path id="Vector_11" d="M151.067 17.414L148.603 17.3746L148.682 12.4502L134.909 12.2237L134.948 9.76149L148.721 9.98801L148.839 2.60138L139.996 2.45365C138.882 2.43395 137.847 2.69002 136.9 3.23171C135.954 3.76354 135.195 4.49236 134.633 5.428C134.071 6.35379 133.775 7.38792 133.755 8.52053L133.617 17.1383L131.153 17.0989L131.291 8.48114C131.31 7.29928 131.547 6.19621 132.01 5.15223C132.474 4.1181 133.105 3.21201 133.903 2.4241C134.702 1.64604 135.629 1.03541 136.683 0.611914C137.738 0.188413 138.852 -0.0184122 140.035 0.00128544L151.343 0.188413L151.067 17.4239V17.414Z" fill="var(--fill-0, white)"/>
<path id="Vector_12" d="M156.835 18.2807L154.419 17.7883L157.85 0.897509L159.063 1.14373C160.236 1.3801 161.468 1.8627 162.75 2.59151C164.032 3.32032 165.284 4.23627 166.506 5.33934C167.729 6.44241 168.833 7.68336 169.839 9.07205C170.844 10.4607 171.643 11.9282 172.244 13.4942L174.137 4.20672L176.552 4.69916L173.122 21.5899L170.706 21.0975C171.012 19.6202 170.992 18.133 170.667 16.6557C170.341 15.1783 169.789 13.7601 169.03 12.401C168.271 11.0418 167.364 9.80086 166.329 8.6584C165.294 7.51593 164.209 6.5409 163.066 5.71359C161.922 4.88629 160.828 4.28551 159.763 3.90141L156.845 18.2807H156.835Z" fill="var(--fill-0, white)"/>
<path id="Vector_13" d="M193.085 29.272L182.763 25.165C181.649 24.7218 180.722 24.1112 179.983 23.343C179.244 22.5748 178.701 21.6884 178.347 20.7035C177.992 19.7088 177.824 18.6648 177.863 17.5519C177.903 16.4488 178.139 15.3359 178.583 14.223C179.017 13.1298 179.608 12.1646 180.348 11.3373C181.087 10.51 181.925 9.8501 182.872 9.36751C183.818 8.88491 184.824 8.61899 185.889 8.56975C186.953 8.52051 188.048 8.70763 189.162 9.15083L199.484 13.2578L198.577 15.5427L188.255 11.4358C187.2 11.0123 186.194 10.9138 185.238 11.1206C184.282 11.3274 183.424 11.7903 182.665 12.4896C181.906 13.1987 181.314 14.0753 180.9 15.1291C180.476 16.1829 180.308 17.217 180.377 18.2413C180.446 19.2656 180.752 20.1914 181.304 21.0088C181.856 21.8263 182.655 22.4468 183.71 22.8703L191.745 26.0711L193.569 21.4914L183.858 17.6307L184.765 15.3458L196.763 20.1224L193.115 29.272H193.085Z" fill="var(--fill-0, white)"/>
<path id="Vector_14" d="M210.91 39.9477L195.678 30.6602L204.67 15.9461L219.902 25.2335L218.62 27.3313L205.498 19.3242L199.08 29.8329L212.202 37.84L210.92 39.9378L210.91 39.9477ZM212.971 32.5512L202.688 26.2775L203.97 24.1797L214.252 30.4534L212.971 32.5512Z" fill="var(--fill-0, white)"/>
<path id="Vector_15" d="M227.73 54.4655L225.235 52.2692L224.604 45.1583L218.926 40.165L220.533 38.3331L227.966 44.8727C228.489 45.3258 229.061 45.6114 229.701 45.7296C230.342 45.8477 230.973 45.7985 231.594 45.5917C232.215 45.3849 232.748 45.0303 233.191 44.5182C233.645 43.9962 233.941 43.4249 234.059 42.7848C234.177 42.1446 234.138 41.5241 233.941 40.9036C233.744 40.2832 233.379 39.7513 232.856 39.2983L224.378 31.8525L214.608 42.9423L212.754 41.3173L224.151 28.3759L234.473 37.4565C235.321 38.205 235.922 39.0914 236.258 40.1256C236.593 41.1597 236.662 42.2037 236.455 43.2674C236.248 44.331 235.774 45.2864 235.025 46.1432C234.355 46.9114 233.556 47.463 232.639 47.8175C231.722 48.1721 230.786 48.3001 229.83 48.2115C228.873 48.1228 227.966 47.8175 227.118 47.2857L227.7 54.4556L227.73 54.4655Z" fill="var(--fill-0, white)"/>
<path id="Vector_16" d="M249.882 75.9656C249.133 76.4778 248.324 76.7536 247.457 76.8126C246.589 76.8717 245.761 76.7142 244.982 76.3596C244.203 76.005 243.543 75.4437 243.03 74.6853L234.571 62.325L236.602 60.9363L245.061 73.2966C245.455 73.8678 245.978 74.2126 246.648 74.3307C247.319 74.4489 247.93 74.3209 248.482 73.9368C249.034 73.5527 249.379 73.0307 249.517 72.3708C249.645 71.7011 249.517 71.0905 249.133 70.5192L243.454 62.2265C242.941 61.478 242.665 60.6802 242.606 59.8135C242.547 58.9469 242.705 58.1195 243.069 57.3316C243.434 56.5437 243.996 55.8937 244.736 55.3816C245.485 54.8694 246.283 54.5937 247.161 54.5346C248.028 54.4755 248.857 54.6331 249.645 54.9975C250.434 55.3619 251.085 55.9233 251.597 56.6619L259.356 68.0078L257.325 69.3965L249.566 58.0506C249.182 57.4991 248.659 57.1544 247.989 57.0263C247.319 56.8983 246.697 57.0263 246.145 57.4104C245.593 57.7945 245.248 58.3165 245.12 58.9862C244.992 59.656 245.12 60.2764 245.505 60.828L251.183 69.1207C251.706 69.8791 251.992 70.6867 252.041 71.5534C252.09 72.4201 251.933 73.2375 251.568 74.0254C251.203 74.8133 250.641 75.4634 249.902 75.9755L249.882 75.9656Z" fill="var(--fill-0, white)"/>
<path id="Vector_17" d="M250.128 88.05L249.073 85.8242L262.442 79.5012L258.705 71.6222L260.933 70.5683L269.461 88.5425L267.233 89.5963L263.497 81.7172L250.138 88.0402L250.128 88.05Z" fill="var(--fill-0, white)"/>
<path id="Vector_18" d="M275.948 110.564L267.637 112.869C266.484 113.194 265.34 113.282 264.216 113.135C263.092 112.987 262.047 112.642 261.071 112.101C260.095 111.559 259.257 110.84 258.547 109.954C257.838 109.067 257.325 108.063 257 106.92L256.507 105.167C256.191 104.025 256.102 102.902 256.241 101.779C256.388 100.656 256.733 99.6024 257.286 98.6372C257.838 97.6622 258.557 96.825 259.445 96.1159C260.332 95.4068 261.338 94.8946 262.481 94.5795L270.782 92.2551L271.453 94.6287L263.152 96.953C262.057 97.2584 261.14 97.8 260.401 98.5781C259.652 99.3562 259.139 100.272 258.853 101.326C258.567 102.38 258.577 103.443 258.883 104.517L259.376 106.27C259.681 107.363 260.233 108.279 261.022 109.018C261.811 109.757 262.728 110.269 263.773 110.544C264.818 110.82 265.882 110.81 266.977 110.505L275.278 108.181L275.948 110.574V110.564Z" fill="var(--fill-0, white)"/>
<path id="Vector_19" d="M270.32 136.398C269.127 136.516 267.993 136.438 266.919 136.172C265.844 135.896 264.878 135.453 264.02 134.842C263.162 134.231 262.472 133.453 261.93 132.528C261.388 131.602 261.062 130.548 260.944 129.376L260.077 120.729L262.531 120.482L263.399 129.13C263.517 130.252 263.892 131.198 264.523 131.956C265.164 132.715 265.962 133.266 266.928 133.611C267.895 133.946 268.94 134.064 270.073 133.946C271.207 133.828 272.213 133.512 273.1 132.981C273.987 132.449 274.668 131.759 275.131 130.883C275.594 130.006 275.772 129.012 275.663 127.889L274.668 118.02L259.958 119.498L259.712 117.045L276.876 115.322L278.118 127.643C278.237 128.815 278.118 129.918 277.783 130.932C277.438 131.946 276.906 132.843 276.186 133.621C275.466 134.399 274.599 135.019 273.603 135.502C272.597 135.985 271.513 136.28 270.34 136.398H270.32Z" fill="var(--fill-0, white)"/>
<path id="Vector_20" d="M261.25 142.337L261.289 139.875L278.542 140.16L278.503 142.623L261.25 142.337Z" fill="var(--fill-0, white)"/>
<path id="Vector_21" d="M267.243 167.53C266.05 167.372 264.965 167.028 263.989 166.515C263.003 166.003 262.175 165.343 261.485 164.546C260.795 163.748 260.302 162.842 259.996 161.818C259.691 160.793 259.612 159.7 259.77 158.528L260.548 152.845C260.716 151.654 261.081 150.619 261.653 149.713C262.224 148.817 262.944 148.069 263.822 147.488C264.699 146.906 265.675 146.493 266.759 146.266C267.844 146.03 268.978 146 270.171 146.158C271.344 146.316 272.418 146.65 273.404 147.172C274.39 147.685 275.228 148.344 275.918 149.142C276.608 149.94 277.111 150.846 277.427 151.87C277.742 152.895 277.811 153.998 277.644 155.179L276.865 160.862C276.707 162.034 276.342 163.068 275.77 163.965C275.199 164.861 274.469 165.609 273.592 166.19C272.704 166.772 271.719 167.185 270.634 167.412C269.55 167.638 268.416 167.678 267.252 167.52L267.243 167.53ZM267.578 165.087C268.702 165.245 269.757 165.166 270.742 164.861C271.728 164.556 272.547 164.043 273.207 163.305C273.858 162.576 274.272 161.65 274.42 160.527L275.199 154.845C275.356 153.722 275.209 152.717 274.775 151.841C274.341 150.964 273.69 150.235 272.823 149.674C271.955 149.113 270.959 148.748 269.835 148.591C268.712 148.433 267.657 148.522 266.681 148.827C265.705 149.142 264.876 149.664 264.216 150.393C263.555 151.122 263.141 152.048 262.993 153.17L262.215 158.853C262.057 159.976 262.215 160.98 262.648 161.857C263.092 162.734 263.743 163.453 264.6 164.014C265.458 164.565 266.454 164.93 267.578 165.078V165.087Z" fill="var(--fill-0, white)"/>
<path id="Vector_22" d="M256.724 188.252C255.867 187.966 255.147 187.503 254.575 186.843C254.003 186.193 253.619 185.445 253.431 184.598C253.244 183.751 253.293 182.904 253.579 182.027L258.262 167.805L260.599 168.574L255.916 182.795C255.699 183.455 255.748 184.076 256.064 184.686C256.379 185.287 256.852 185.701 257.493 185.908C258.134 186.114 258.755 186.075 259.366 185.77C259.978 185.464 260.392 184.992 260.599 184.332L263.744 174.788C264.03 173.931 264.493 173.212 265.154 172.641C265.804 172.07 266.563 171.696 267.411 171.499C268.259 171.312 269.117 171.361 269.975 171.637C270.832 171.922 271.552 172.385 272.124 173.045C272.696 173.695 273.07 174.453 273.267 175.3C273.455 176.147 273.405 177.004 273.129 177.861L268.831 190.911L266.484 190.143L270.783 177.093C270.99 176.453 270.941 175.832 270.635 175.222C270.329 174.611 269.846 174.197 269.215 173.99C268.575 173.784 267.953 173.833 267.342 174.138C266.731 174.444 266.317 174.916 266.11 175.556L262.965 185.1C262.679 185.976 262.206 186.695 261.555 187.257C260.904 187.818 260.155 188.192 259.307 188.38C258.459 188.567 257.602 188.518 256.744 188.242L256.724 188.252Z" fill="var(--fill-0, white)"/>
</g>
</svg>
