<svg preserveAspectRatio="none" width="100%" height="100%" overflow="visible" style="display: block;" viewBox="0 0 100.054 90.5448" fill="none" xmlns="http://www.w3.org/2000/svg">
<g id="clippath">
<path id="Vector" d="M43.5104 0.952572C34.3614 0.952572 26.437 2.718 19.9464 6.2044C12.7008 10.0909 7.49823 16.054 4.48452 23.9222C0.259 34.9339 -1.06068 47.8761 0.868087 59.4276C2.37176 68.4452 6.55287 80.9874 17.9161 89.5224C18.2143 89.7447 18.4808 89.878 18.6521 89.878C19.0772 89.878 19.8893 89.0715 20.5428 88.4174C21.8625 87.1029 23.5057 85.4708 25.9992 85.4645L45.3757 85.4391C48.2561 85.4391 50.2547 86.9314 52.0185 88.2523C53.6618 89.4843 55.083 90.5448 57.1513 90.5448C57.8492 90.5448 58.6169 90.4242 59.429 90.1829C73.7108 85.9535 86.4635 79.0569 97.3255 69.6899C98.2074 68.9342 100.2 66.9084 99.7492 64.527C97.3572 52.0293 98.5373 43.2149 99.4002 36.7755C100.365 29.555 100.898 25.5733 96.2723 21.5408C82.0921 9.18277 65.2978 2.10201 47.7232 1.07958C46.3083 0.997026 44.8935 0.952572 43.5167 0.952572H43.5104Z" fill="var(--fill-0, black)"/>
</g>
</svg>
