<svg preserveAspectRatio="none" width="100%" height="100%" overflow="visible" style="display: block;" viewBox="0 0 108.879 99.1669" fill="none" xmlns="http://www.w3.org/2000/svg">
<g id="Vector Nebula">
<path id="Vector" d="M86.2723 26.2434C86.2723 26.4322 86.2312 26.6292 86.1737 26.8509C86.108 27.1053 86.0423 27.3927 86.0177 27.7539V27.836C86.5186 27.7867 87.036 27.9016 87.5122 28.0412L87.8489 26.5964C87.3644 26.5061 86.8881 26.3911 86.4201 26.2844L86.2723 26.2516V26.2434Z" fill="var(--fill-0, white)"/>
<path id="Vector_2" d="M43.2814 74.9508L42.7518 77.1876L44.7095 77.6511L45.2391 75.4143L43.2814 74.9508Z" fill="var(--fill-0, white)"/>
<path id="Vector_3" d="M92.768 56.9055C92.6448 57.513 92.5463 58.022 92.4641 58.5474L92.5873 58.572C93.08 58.6623 93.4742 58.7362 94.0244 58.7855C94.0819 58.572 94.1393 58.3668 94.1886 58.1616C94.2707 57.8496 94.3446 57.5623 94.4267 57.275C93.8766 57.1436 93.3264 57.0205 92.7762 56.9055H92.768Z" fill="var(--fill-0, white)"/>
<path id="Vector_4" d="M87.4464 20.9722C87.3889 21.3006 87.3561 21.555 87.3232 21.9983C87.2739 22.2528 87.2411 22.4252 87.2165 22.5976C87.7256 22.7372 88.169 22.8521 88.6699 22.9424L88.7274 22.6797C88.8342 22.2118 88.9409 21.7521 89.0477 21.3088C88.5139 21.1938 87.9802 21.0789 87.4382 20.964L87.4464 20.9722Z" fill="var(--fill-0, white)"/>
<path id="Vector_5" d="M89.8036 47.2643C89.8857 47.2643 90.0992 47.2889 90.3374 47.3218C90.5591 47.3546 90.8219 47.3874 91.0272 47.3957C91.0436 47.3464 91.06 47.3054 91.0764 47.2561C91.2899 46.6076 91.3474 46.4434 91.0436 46.0493C90.3867 45.8934 90.0335 46.1725 89.5737 47.2397C89.6476 47.2397 89.7297 47.2397 89.8036 47.2561V47.2643Z" fill="var(--fill-0, white)"/>
<path id="Vector_6" d="M85.4181 17.7122L85.3607 18.0653C85.3032 18.4184 85.2539 18.6894 85.18 18.9111L85.3196 18.9522H85.1636C84.9993 19.4448 84.7694 19.6748 84.4163 19.7487C83.9975 19.8308 82.8889 20.0443 82.2238 19.5023L82.0842 20.3727C81.9856 21.0296 81.92 21.4156 81.6325 21.6701L81.534 21.744C81.1645 21.9904 80.7621 21.8918 80.0395 21.703C79.8506 21.6537 79.6617 21.6044 79.44 21.5552L78.9391 21.4402L78.8406 22.1874C78.7338 23.0168 78.6763 23.4356 78.3561 23.723L78.2657 23.7887C77.8634 24.0596 77.4199 23.9447 76.6809 23.7558L75.9911 23.5834L75.9582 23.7805C75.8597 24.347 75.753 24.9218 75.6462 25.4802L75.5969 25.743C75.9747 25.6855 76.4427 25.8333 77.2393 26.0714L77.6006 26.1782L77.773 25.4638C77.9373 24.7412 78.0687 24.1828 78.5696 23.9118C79.0459 23.6573 79.6371 23.8051 80.565 24.1582L80.6882 24.2074L80.7785 23.7969C81.0085 22.7294 81.1152 22.1874 81.5833 21.9C82.0349 21.6126 82.5276 21.7276 83.4227 21.9411L83.7101 22.0068L83.8004 21.6373C83.9975 20.8572 84.1864 20.3809 84.4902 20.11C84.9008 19.7487 85.5249 19.7322 86.6827 19.7979H86.8388C86.8552 19.7322 86.8716 19.6748 86.8798 19.6173C86.9291 19.3874 86.9619 19.1739 87.0112 18.8372L87.0276 18.7469L87.0933 18.5662C87.1837 18.4348 87.2904 18.3034 87.4218 18.1803C86.7567 18.0243 86.0997 17.8765 85.4346 17.7369L85.4181 17.7122Z" fill="var(--fill-0, white)"/>
<path id="Vector_7" d="M95.552 52.2159C94.969 52.0928 94.5913 52.0271 93.9836 51.9696C93.844 52.3473 93.7783 52.5853 93.7208 52.8562C93.688 53.0204 93.6469 53.201 93.6059 53.4227V53.4637L93.7947 53.5048C94.2299 53.5951 94.657 53.6936 95.0758 53.7921C95.1579 53.5458 95.2236 53.2913 95.2975 53.045C95.3796 52.7659 95.4617 52.4868 95.552 52.2077V52.2159Z" fill="var(--fill-0, white)"/>
<path id="Vector_8" d="M83.9648 36.5897L83.9074 36.9345C83.9074 36.9427 83.9074 36.9509 83.9074 36.9591L83.8499 37.2793C83.817 37.4763 83.7842 37.6733 83.7431 37.8621C84.0552 37.8621 84.359 37.9524 84.6218 38.0263C84.7778 38.0674 84.9503 38.1166 85.1391 38.1577C85.2869 37.78 85.4101 37.2875 85.5169 36.8688C85.5333 36.7867 85.5579 36.7128 85.5743 36.639L84.0141 36.286C83.9977 36.3845 83.9813 36.4912 83.9648 36.5897Z" fill="var(--fill-0, white)"/>
<path id="Vector_9" d="M92.1273 29.7748L92.0698 30.1196C92.0698 30.1278 92.0698 30.136 92.0698 30.1442L92.0123 30.4644C91.9795 30.6614 91.9466 30.8584 91.9056 31.0473C92.2176 31.0473 92.5215 31.1376 92.7842 31.2114C92.9403 31.2525 93.1127 31.3017 93.3016 31.3428C93.4494 30.9652 93.5726 30.4726 93.6793 30.0539C93.6957 29.9718 93.7204 29.898 93.7368 29.8241L92.1766 29.4711C92.1601 29.5696 92.1437 29.6763 92.1273 29.7748Z" fill="var(--fill-0, white)"/>
<path id="Vector_10" d="M96.6767 46.288L96.6192 46.6328C96.6192 46.641 96.6192 46.6492 96.6192 46.6574L96.5617 46.9776C96.5289 47.1746 96.496 47.3716 96.455 47.5605C96.767 47.5605 97.0709 47.6508 97.3336 47.7246C97.4897 47.7657 97.6621 47.8149 97.851 47.856C97.9988 47.4784 98.122 46.9858 98.2287 46.5671C98.2451 46.4851 98.2698 46.4112 98.2862 46.3373L96.726 45.9843C96.7096 46.0828 96.6931 46.1895 96.6767 46.288Z" fill="var(--fill-0, white)"/>
<path id="Vector_11" d="M79.3249 64.6972L79.2674 65.042C79.2674 65.0502 79.2674 65.0584 79.2674 65.0667L79.2099 65.3868C79.177 65.5838 79.1442 65.7809 79.1031 65.9697C79.4152 65.9697 79.719 66.06 79.9818 66.1339C80.1378 66.1749 80.3103 66.2242 80.4991 66.2652C80.6469 65.8876 80.7701 65.395 80.8769 64.9764C80.8933 64.8943 80.9179 64.8204 80.9343 64.7465L79.3741 64.3935C79.3577 64.492 79.3413 64.5987 79.3249 64.6972Z" fill="var(--fill-0, white)"/>
<path id="Vector_12" d="M82.1904 6.49572L82.1329 6.84051C82.1329 6.84872 82.1329 6.85693 82.1329 6.86514L82.0754 7.1853C82.0426 7.38232 82.0097 7.57934 81.9687 7.76816C82.2807 7.76816 82.5845 7.85846 82.8473 7.93234C83.0033 7.97339 83.1758 8.02264 83.3646 8.06369C83.5124 7.68606 83.6356 7.19351 83.7424 6.77484C83.7588 6.69275 83.7834 6.61886 83.7999 6.54498L82.2396 6.19198C82.2232 6.29049 82.2068 6.39721 82.1904 6.49572Z" fill="var(--fill-0, white)"/>
<path id="Vector_13" d="M40.9108 85.8498L40.8533 86.1946C40.8533 86.2028 40.8533 86.211 40.8533 86.2192L40.7958 86.5394C40.763 86.7364 40.7301 86.9334 40.6891 87.1222C41.0011 87.1222 41.3049 87.2125 41.5677 87.2864C41.7237 87.3275 41.8962 87.3767 42.0851 87.4178C42.2329 87.0401 42.356 86.5476 42.4628 86.1289C42.4792 86.0468 42.5039 85.9729 42.5203 85.899L40.9601 85.546C40.9436 85.6446 40.9272 85.7513 40.9108 85.8498Z" fill="var(--fill-0, white)"/>
<path id="Vector_14" d="M34.5384 91.0972L34.4809 91.442C34.4809 91.4502 34.4809 91.4584 34.4809 91.4666L34.4234 91.7868C34.3906 91.9838 34.3578 92.1808 34.3167 92.3696C34.6287 92.3696 34.9326 92.46 35.1954 92.5338C35.3514 92.5749 35.5238 92.6241 35.7127 92.6652C35.8605 92.2876 35.9837 91.795 36.0904 91.3763C36.1068 91.2942 36.1315 91.2204 36.1479 91.1465L34.5877 90.7935C34.5713 90.892 34.5548 90.9987 34.5384 91.0972Z" fill="var(--fill-0, white)"/>
<path id="Vector_15" d="M88.5306 29.5613L88.4731 29.9061C88.4731 29.9143 88.4731 29.9225 88.4731 29.9307L88.4157 30.2509C88.3828 30.4479 88.35 30.6449 88.3089 30.8337C88.621 30.8337 88.9248 30.924 89.1876 30.9979C89.3436 31.039 89.516 31.0882 89.7049 31.1293C89.8527 30.7516 89.9759 30.2591 90.0826 29.8404C90.0991 29.7583 90.1237 29.6844 90.1401 29.6106L88.5799 29.2576C88.5635 29.3561 88.5471 29.4628 88.5306 29.5613Z" fill="var(--fill-0, white)"/>
<path id="Vector_16" d="M65.7182 20.4551L65.6607 20.7999C65.6607 20.8081 65.6607 20.8163 65.6607 20.8245L65.6033 21.1446C65.5704 21.3417 65.5376 21.5387 65.4965 21.7275C65.8086 21.7275 66.1124 21.8178 66.3752 21.8917C66.5312 21.9327 66.7036 21.982 66.8925 22.023C67.0403 21.6454 67.1635 21.1529 67.2702 20.7342C67.2867 20.6521 67.3113 20.5782 67.3277 20.5043L65.7675 20.1513C65.7511 20.2498 65.7346 20.3566 65.7182 20.4551Z" fill="var(--fill-0, white)"/>
<path id="Vector_17" d="M69.1012 19.8799L69.0438 20.2247C69.0438 20.2329 69.0438 20.2411 69.0438 20.2493L68.9863 20.5694C68.9534 20.7665 68.9206 20.9635 68.8795 21.1523C69.1916 21.1523 69.4954 21.2426 69.7582 21.3165C69.9142 21.3575 70.0866 21.4068 70.2755 21.4478C70.4233 21.0702 70.5465 20.5777 70.6532 20.159C70.6697 20.0769 70.6943 20.003 70.7107 19.9291L69.1505 19.5761C69.1341 19.6746 69.1177 19.7814 69.1012 19.8799Z" fill="var(--fill-0, white)"/>
<path id="Vector_18" d="M67.845 24.6422L67.7876 24.9869C67.7876 24.9951 67.7876 25.0034 67.7876 25.0116L67.7301 25.3317C67.6972 25.5287 67.6644 25.7258 67.6233 25.9146C67.9354 25.9146 68.2392 26.0049 68.502 26.0788C68.658 26.1198 68.8304 26.1691 69.0193 26.2101C69.1671 25.8325 69.2903 25.3399 69.397 24.9213C69.4135 24.8392 69.4381 24.7653 69.4545 24.6914L67.8943 24.3384C67.8779 24.4369 67.8615 24.5436 67.845 24.6422Z" fill="var(--fill-0, white)"/>
<path id="Vector_19" d="M64.9297 75.832L64.8723 76.1768C64.8723 76.185 64.8723 76.1932 64.8723 76.2014L64.8148 76.5216C64.7819 76.7186 64.7491 76.9156 64.708 77.1044C65.0201 77.1044 65.3239 77.1947 65.5867 77.2686C65.7427 77.3097 65.9151 77.3589 66.104 77.4C66.2518 77.0224 66.375 76.5298 66.4818 76.1111C66.4982 76.029 66.5228 75.9552 66.5392 75.8813L64.979 75.5283C64.9626 75.6268 64.9462 75.7335 64.9297 75.832Z" fill="var(--fill-0, white)"/>
<path id="Vector_20" d="M59.2887 86.8353L59.2312 87.1801C59.2312 87.1883 59.2312 87.1965 59.2312 87.2047L59.1737 87.5249C59.1409 87.7219 59.108 87.9189 59.067 88.1077C59.379 88.1077 59.6828 88.198 59.9456 88.2719C60.1016 88.3129 60.2741 88.3622 60.4629 88.4033C60.6108 88.0256 60.7339 87.5331 60.8407 87.1144C60.8571 87.0323 60.8817 86.9584 60.8982 86.8845L59.3379 86.5315C59.3215 86.6301 59.3051 86.7368 59.2887 86.8353Z" fill="var(--fill-0, white)"/>
<path id="Vector_21" d="M37.3387 89.1096L37.2812 89.4544C37.2812 89.4626 37.2812 89.4708 37.2812 89.479L37.2237 89.7992C37.1909 89.9962 37.158 90.1932 37.117 90.382C37.429 90.382 37.7328 90.4723 37.9956 90.5462C38.1516 90.5873 38.3241 90.6365 38.513 90.6776C38.6608 90.2999 38.7839 89.8074 38.8907 89.3887C38.9071 89.3066 38.9318 89.2327 38.9482 89.1589L37.388 88.8059C37.3715 88.9044 37.3551 89.0111 37.3387 89.1096Z" fill="var(--fill-0, white)"/>
<path id="Vector_22" d="M35.0557 85.6201L34.9982 85.9649C34.9982 85.9731 34.9982 85.9814 34.9982 85.9896L34.9407 86.3097C34.9078 86.5067 34.875 86.7038 34.8339 86.8926C35.146 86.8926 35.4498 86.9829 35.7126 87.0568C35.8686 87.0978 36.0411 87.1471 36.2299 87.1881C36.3777 86.8105 36.5009 86.3179 36.6077 85.8993C36.6241 85.8172 36.6487 85.7433 36.6652 85.6694L35.1049 85.3164C35.0885 85.4149 35.0721 85.5216 35.0557 85.6201Z" fill="var(--fill-0, white)"/>
<path id="Vector_23" d="M29.3322 83.6414L29.2747 83.9862C29.2747 83.9944 29.2747 84.0026 29.2747 84.0108L29.2172 84.3309C29.1844 84.528 29.1515 84.725 29.1105 84.9138C29.4225 84.9138 29.7263 85.0041 29.9891 85.078C30.1451 85.119 30.3176 85.1683 30.5065 85.2093C30.6543 84.8317 30.7774 84.3392 30.8842 83.9205C30.9006 83.8384 30.9253 83.7645 30.9417 83.6906L29.3815 83.3376C29.365 83.4361 29.3486 83.5429 29.3322 83.6414Z" fill="var(--fill-0, white)"/>
<path id="Vector_24" d="M25.5389 78.1722L25.4814 78.517C25.4814 78.5252 25.4814 78.5334 25.4814 78.5416L25.4239 78.8618C25.3911 79.0588 25.3582 79.2558 25.3172 79.4447C25.6292 79.4447 25.933 79.535 26.1958 79.6088C26.3518 79.6499 26.5243 79.6991 26.7132 79.7402C26.861 79.3626 26.9841 78.87 27.0909 78.4513C27.1073 78.3693 27.132 78.2954 27.1484 78.2215L25.5882 77.8685C25.5717 77.967 25.5553 78.0737 25.5389 78.1722Z" fill="var(--fill-0, white)"/>
<path id="Vector_25" d="M27.3693 72.7451L27.3118 73.0899C27.3118 73.0981 27.3118 73.1063 27.3118 73.1145L27.2543 73.4346C27.2214 73.6317 27.1886 73.8287 27.1475 74.0175C27.4596 74.0175 27.7634 74.1078 28.0262 74.1817C28.1822 74.2227 28.3547 74.272 28.5435 74.313C28.6913 73.9354 28.8145 73.4429 28.9213 73.0242C28.9377 72.9421 28.9623 72.8682 28.9787 72.7943L27.4185 72.4413C27.4021 72.5398 27.3857 72.6466 27.3693 72.7451Z" fill="var(--fill-0, white)"/>
<path id="Vector_26" d="M28.0019 58.7358L27.9444 59.0806C27.9444 59.0888 27.9444 59.097 27.9444 59.1052L27.8869 59.4254C27.8541 59.6224 27.8212 59.8194 27.7802 60.0082C28.0922 60.0082 28.3961 60.0985 28.6588 60.1724C28.8149 60.2135 28.9873 60.2627 29.1762 60.3038C29.324 59.9261 29.4472 59.4336 29.5539 59.0149C29.5703 58.9328 29.595 58.8589 29.6114 58.7851L28.0512 58.4321C28.0348 58.5306 28.0183 58.6373 28.0019 58.7358Z" fill="var(--fill-0, white)"/>
<path id="Vector_27" d="M26.1871 62.4479L26.1297 62.7927C26.1297 62.8009 26.1297 62.8091 26.1297 62.8173L26.0722 63.1375C26.0393 63.3345 26.0065 63.5315 25.9654 63.7203C26.2775 63.7203 26.5813 63.8106 26.8441 63.8845C27.0001 63.9255 27.1725 63.9748 27.3614 64.0158C27.5092 63.6382 27.6324 63.1457 27.7391 62.727C27.7556 62.6449 27.7802 62.571 27.7966 62.4971L26.2364 62.1441C26.22 62.2426 26.2036 62.3494 26.1871 62.4479Z" fill="var(--fill-0, white)"/>
<path id="Vector_28" d="M45.3366 48.3976L45.2791 48.7423C45.2791 48.7506 45.2791 48.7588 45.2791 48.767L45.2216 49.0871C45.1888 49.2842 45.1559 49.4812 45.1149 49.67C45.4269 49.67 45.7308 49.7603 45.9935 49.8342C46.1496 49.8752 46.322 49.9245 46.5109 49.9655C46.6587 49.5879 46.7819 49.0953 46.8886 48.6767C46.905 48.5946 46.9297 48.5207 46.9461 48.4468L45.3859 48.0938C45.3694 48.1923 45.353 48.299 45.3366 48.3976Z" fill="var(--fill-0, white)"/>
<path id="Vector_29" d="M38.7507 43.6194L38.6932 43.9642C38.6932 43.9724 38.6932 43.9806 38.6932 43.9888L38.6357 44.309C38.6029 44.506 38.57 44.703 38.529 44.8918C38.841 44.8918 39.1449 44.9822 39.4076 45.056C39.5637 45.0971 39.7361 45.1463 39.925 45.1874C40.0728 44.8098 40.196 44.3172 40.3027 43.8985C40.3191 43.8164 40.3438 43.7426 40.3602 43.6687L38.8 43.3157C38.7836 43.4142 38.7671 43.5209 38.7507 43.6194Z" fill="var(--fill-0, white)"/>
<path id="Vector_30" d="M33.8405 48.135L33.783 48.4798C33.783 48.488 33.783 48.4962 33.783 48.5045L33.7256 48.8246C33.6927 49.0216 33.6599 49.2187 33.6188 49.4075C33.9309 49.4075 34.2347 49.4978 34.4975 49.5717C34.6535 49.6127 34.8259 49.662 35.0148 49.703C35.1626 49.3254 35.2858 48.8328 35.3925 48.4141C35.409 48.3321 35.4336 48.2582 35.45 48.1843L33.8898 47.8313C33.8734 47.9298 33.8569 48.0365 33.8405 48.135Z" fill="var(--fill-0, white)"/>
<path id="Vector_31" d="M53.3758 43.2989L53.3184 43.6437C53.3184 43.6519 53.3184 43.6601 53.3184 43.6684L53.2609 43.9885C53.228 44.1855 53.1952 44.3826 53.1541 44.5714C53.4662 44.5714 53.77 44.6617 54.0328 44.7356C54.1888 44.7766 54.3612 44.8259 54.5501 44.8669C54.6979 44.4893 54.8211 43.9967 54.9279 43.578C54.9443 43.496 54.9689 43.4221 54.9853 43.3482L53.4251 42.9952C53.4087 43.0937 53.3923 43.2004 53.3758 43.2989Z" fill="var(--fill-0, white)"/>
<path id="Vector_32" d="M56.4308 41.0815L56.3734 41.4263C56.3734 41.4345 56.3734 41.4427 56.3734 41.451L56.3159 41.7711C56.283 41.9681 56.2502 42.1652 56.2091 42.354C56.5212 42.354 56.825 42.4443 57.0878 42.5182C57.2438 42.5592 57.4162 42.6085 57.6051 42.6495C57.7529 42.2719 57.8761 41.7793 57.9828 41.3607C57.9993 41.2786 58.0239 41.2047 58.0403 41.1308L56.4801 40.7778C56.4637 40.8763 56.4473 40.983 56.4308 41.0815Z" fill="var(--fill-0, white)"/>
<path id="Vector_33" d="M58.976 39.3902L58.9185 39.735C58.9185 39.7432 58.9185 39.7514 58.9185 39.7596L58.861 40.0798C58.8282 40.2768 58.7953 40.4739 58.7543 40.6627C59.0663 40.6627 59.3701 40.753 59.6329 40.8269C59.7889 40.8679 59.9614 40.9172 60.1503 40.9582C60.2981 40.5806 60.4212 40.088 60.528 39.6693C60.5444 39.5873 60.569 39.5134 60.5855 39.4395L59.0252 39.0865C59.0088 39.185 58.9924 39.2917 58.976 39.3902Z" fill="var(--fill-0, white)"/>
<path id="Vector_34" d="M67.9187 37.8628L67.8612 38.2076C67.8612 38.2158 67.8612 38.224 67.8612 38.2322L67.8037 38.5524C67.7709 38.7494 67.7381 38.9464 67.697 39.1352C68.009 39.1352 68.3129 39.2255 68.5756 39.2994C68.7317 39.3405 68.9041 39.3897 69.093 39.4308C69.2408 39.0531 69.364 38.5606 69.4707 38.1419C69.4871 38.0598 69.5118 37.9859 69.5282 37.9121L67.968 37.5591C67.9516 37.6576 67.9351 37.7643 67.9187 37.8628Z" fill="var(--fill-0, white)"/>
<path id="Vector_35" d="M59.7155 32.0821L59.658 32.4269C59.658 32.4351 59.658 32.4434 59.658 32.4516L59.6005 32.7717C59.5677 32.9687 59.5348 33.1658 59.4937 33.3546C59.8058 33.3546 60.1096 33.4449 60.3724 33.5188C60.5284 33.5598 60.7009 33.6091 60.8897 33.6501C61.0375 33.2725 61.1607 32.7799 61.2675 32.3613C61.2839 32.2792 61.3085 32.2053 61.325 32.1314L59.7647 31.7784C59.7483 31.8769 59.7319 31.9836 59.7155 32.0821Z" fill="var(--fill-0, white)"/>
<path id="Vector_36" d="M71.6556 30.9898L71.5981 31.3346C71.5981 31.3428 71.5981 31.351 71.5981 31.3592L71.5406 31.6794C71.5078 31.8764 71.4749 32.0734 71.4339 32.2623C71.7459 32.2623 72.0498 32.3526 72.3125 32.4264C72.4686 32.4675 72.641 32.5167 72.8299 32.5578C72.9777 32.1802 73.1009 31.6876 73.2076 31.2689C73.224 31.1869 73.2487 31.113 73.2651 31.0391L71.7049 30.6861C71.6885 30.7846 71.672 30.8913 71.6556 30.9898Z" fill="var(--fill-0, white)"/>
<path id="Vector_37" d="M85.139 31.0715C85.1801 31.4081 85.0979 31.7611 85.024 32.1141C84.983 32.2947 84.9501 32.4753 84.9255 32.6477L84.9009 32.7791C84.9009 32.7791 84.8927 32.8037 84.8844 32.8119C85.3854 32.9104 85.8781 33.0171 86.3872 33.1321L86.8224 31.441C86.3954 31.3342 85.9766 31.2439 85.566 31.1619L85.1308 31.0715H85.139Z" fill="var(--fill-0, white)"/>
<path id="Vector_38" d="M73.0184 9.89459L71.4746 9.54159C71.3679 10.0013 71.2693 10.4528 71.1708 10.9043L71.1462 11.0028L72.6243 11.323C72.7885 10.8058 72.887 10.42 73.0102 9.89459H73.0184Z" fill="var(--fill-0, white)"/>
<path id="Vector_39" d="M84.8674 16.8176C84.9249 16.5876 84.9824 16.3824 85.0234 16.2017L85.0399 16.1278C85.1548 15.668 85.2616 15.3149 85.4176 15.0767L85.3191 15.0521C84.695 14.9125 84.0709 14.7729 83.4386 14.6333L83.3893 14.9207C83.2333 15.824 83.1512 16.2838 82.8309 16.5712L82.7324 16.6451C82.3218 16.9079 81.903 16.8011 81.1968 16.6205C80.9586 16.5548 80.7205 16.4973 80.4413 16.4316L80.1703 16.3659L80.0964 16.8586C79.965 17.7537 79.8993 18.2053 79.5626 18.5009L79.4641 18.5748C79.0699 18.8458 78.6265 18.7308 77.8957 18.5502C77.7314 18.5091 77.559 18.4681 77.3619 18.4188L77.0991 18.3613L77.0416 18.6569C76.9924 18.9115 76.9513 19.125 76.9267 19.3138C76.8117 19.9707 76.746 20.3649 76.4586 20.6194L76.3436 20.7016C75.9741 20.9479 75.5471 20.8329 74.8491 20.6605C74.6685 20.6112 74.4632 20.562 74.225 20.5045L74.1265 20.4798L74.1101 20.5702C73.9705 21.2189 73.8391 21.8676 73.7077 22.5163V22.5573C73.9869 22.5409 74.3318 22.6394 74.7834 22.7626C74.9723 22.8119 75.1776 22.8694 75.4239 22.9268L75.5635 22.9597L75.6785 22.3849C75.8509 21.5227 75.9413 21.0546 76.3519 20.7919C76.746 20.5373 77.1812 20.6441 77.9039 20.8247L78.8072 21.0382L79.0042 20.2417C79.1685 19.552 79.2506 19.1989 79.5709 18.9607C79.924 18.698 80.3099 18.7719 80.8929 18.8786C81.09 18.9197 81.3035 18.9525 81.5581 18.9936L81.8948 19.0429C81.8948 19.0429 81.8866 19.0182 81.8783 19.01L81.788 18.8211H81.7552L81.8619 18.4188C82.0344 17.7701 82.1904 17.3431 82.4532 17.1132C82.5271 17.0475 82.6092 16.9982 82.7077 16.9572C83.2497 16.8176 84.1858 16.5876 84.8346 16.9489L84.8756 16.7847L84.8674 16.8176Z" fill="var(--fill-0, white)"/>
<path id="Vector_40" d="M32.2557 71.8493V71.8247C32.4118 71.25 32.5432 70.7246 32.6992 70.191C32.0833 70.0433 31.5988 69.9448 31.0076 69.8544L30.9583 70.1089C30.8762 70.5194 30.8023 70.897 30.7612 71.3567L30.7202 71.5045H30.7366C31.2375 71.6276 31.7548 71.7426 32.264 71.8411L32.2557 71.8493Z" fill="var(--fill-0, white)"/>
<path id="Vector_41" d="M83.1765 28.0087V28.0497C83.0944 28.3452 83.0287 28.6408 82.963 28.9445L82.766 29.8147C83.2505 29.9132 83.7267 30.0117 84.203 30.0938C84.3262 30.1184 84.4329 30.1513 84.5233 30.1923L84.5643 29.946C84.6547 29.3878 84.7368 28.8953 85.1145 28.3945C84.5068 28.2631 83.8992 28.14 83.1765 28.0004V28.0087Z" fill="var(--fill-0, white)"/>
<path id="Vector_42" d="M38.8168 54.5149C38.9235 54.0223 39.0385 53.5298 39.1617 53.0372L37.6343 52.7663C37.544 53.1685 37.4619 53.579 37.3797 53.9813L37.3387 54.1947C37.8314 54.2932 38.3405 54.4081 38.7347 54.5066L38.825 54.5313L38.8168 54.5149Z" fill="var(--fill-0, white)"/>
<path id="Vector_43" d="M86.3134 10.2147L84.6465 9.83712C84.5315 10.2558 84.4576 10.7073 84.4001 11.126L84.3508 11.4379L85.9521 11.7991C86.0671 11.2655 86.1903 10.7401 86.3216 10.2147H86.3134Z" fill="var(--fill-0, white)"/>
<path id="Vector_44" d="M34.7193 61.29C34.826 60.7318 34.8999 60.3377 35.0478 60.0586L33.2822 59.681C33.1508 60.2146 33.0441 60.7318 32.9209 61.3228L34.6372 61.7005L34.7193 61.29Z" fill="var(--fill-0, white)"/>
<path id="Vector_45" d="M35.9833 59.5162C36.2707 59.5162 36.6238 59.6065 37.0919 59.7214L37.5928 59.8446L38.0609 57.8743C37.6092 57.9154 37.0508 57.784 36.4103 57.6034L35.9915 59.5162H35.9833Z" fill="var(--fill-0, white)"/>
<path id="Vector_46" d="M31.443 63.5802C31.5826 63.1862 31.6811 62.8168 31.7797 62.3899C31.8043 62.2914 31.8207 62.1929 31.8454 62.0861L31.599 62.0287C31.1884 61.9302 30.7039 61.8152 30.2687 61.7578L29.9485 63.2683C30.4576 63.3832 30.9503 63.4981 31.4348 63.6048V63.5802H31.443Z" fill="var(--fill-0, white)"/>
<path id="Vector_47" d="M35.1875 62.6613C35.0643 63.2687 34.9411 63.8762 34.8261 64.4673V64.4919L36.5752 64.9106L37.0679 62.8419C36.6738 62.9814 36.1893 62.8747 35.3763 62.7023L35.1875 62.6613Z" fill="var(--fill-0, white)"/>
<path id="Vector_48" d="M91.3475 15.5271L91.7335 15.601C92.0866 15.6749 92.4397 15.7405 92.7764 15.8062L93.1623 14.4353C92.6778 14.3203 92.2837 14.2629 91.7499 14.189C91.5118 14.6815 91.4789 14.8129 91.3475 15.5271Z" fill="var(--fill-0, white)"/>
<path id="Vector_49" d="M86.1983 14.4766L86.1655 14.6326C86.3626 14.6162 86.6007 14.6326 86.8881 14.6654C87.1345 14.7065 87.4137 14.7393 87.7585 14.7803L87.9146 14.7968C87.9146 14.7968 87.9146 14.7639 87.9228 14.7393C88.0049 14.255 88.1034 13.6967 88.3169 13.237L86.535 12.8512C86.4118 13.393 86.2969 13.9348 86.1901 14.4766H86.1983Z" fill="var(--fill-0, white)"/>
<path id="Vector_50" d="M66.35 42.9123L66.2679 43.372C66.1612 43.9713 66.0955 44.3653 65.923 44.6444L67.9595 45.1288L68.3948 43.2899L68.288 43.2653C67.8774 43.1832 67.5407 43.1421 67.2698 43.1093C66.9002 43.06 66.5964 43.0272 66.3583 42.9123H66.35Z" fill="var(--fill-0, white)"/>
<path id="Vector_51" d="M51.6759 47.5848L51.5938 48.0445C51.487 48.6437 51.4213 49.0378 51.2489 49.3169L53.2854 49.8013L53.7206 47.9624L53.6139 47.9378C53.2033 47.8557 52.8666 47.8146 52.5956 47.7818C52.2261 47.7325 51.9223 47.6997 51.6841 47.5848H51.6759Z" fill="var(--fill-0, white)"/>
<path id="Vector_52" d="M62.3594 46.78L60.1012 46.6732L59.2143 48.5618L56.7015 48.3648L56.0939 50.5244L53.6386 50.4012L52.998 52.4869L55.5929 53.1027L56.1924 50.549L58.6559 51.132L59.2718 48.5454L61.7928 49.1448L62.3594 46.78Z" fill="var(--fill-0, white)"/>
<path id="Vector_53" d="M62.844 44.1275L62.8932 43.8977C62.9343 43.7089 62.9671 43.5365 63 43.3805L63.0328 43.2081C63.0328 43.2081 63.0328 43.1835 63.0328 43.167L63.0985 42.8223C63.1478 42.6088 63.1971 42.4282 63.2628 42.2722L61.3494 41.87C61.2345 42.4364 61.1359 42.9864 61.0292 43.5775L61.0045 43.7335C61.2673 43.7335 61.5794 43.8156 61.9982 43.9223L62.8275 44.1193L62.844 44.1275Z" fill="var(--fill-0, white)"/>
<path id="Vector_54" d="M76.5083 58.564C76.3933 59.0894 76.2784 59.6148 76.1716 60.1484H76.2045C76.6972 60.2551 77.2063 60.3618 77.6744 60.4767C77.6908 60.3618 77.7072 60.2551 77.7236 60.1566C77.7893 59.7133 77.855 59.27 78.0767 58.9252C77.5594 58.802 77.0338 58.6789 76.5083 58.564Z" fill="var(--fill-0, white)"/>
<path id="Vector_55" d="M86.3954 62.2342C86.5925 62.2834 86.7731 62.3163 86.962 62.3573C87.2248 62.4148 87.4711 62.464 87.701 62.5297C87.8817 61.9468 88.0295 61.5035 88.2266 61.1834C87.701 61.0028 87.2987 60.9043 86.691 60.8222C86.5925 61.2819 86.4857 61.7498 86.3954 62.2342Z" fill="var(--fill-0, white)"/>
<path id="Vector_56" d="M84.2273 22.9268C84.137 23.5589 84.0303 24.0925 83.9235 24.6097L83.8825 24.8231C84.0877 24.7985 84.3341 24.7985 84.6215 24.8149L85.2292 24.9052C85.3934 24.9791 85.533 25.0612 85.6562 25.1433C85.7876 24.5194 85.919 23.9119 86.0996 23.3372C85.4837 23.2223 84.9007 23.091 84.293 22.9596L84.2356 22.9432L84.2273 22.9268Z" fill="var(--fill-0, white)"/>
<path id="Vector_57" d="M57.4981 45.8106L59.6249 45.9994L59.9123 44.8501C59.9862 44.5792 60.1751 44.177 60.1751 44.177C60.1751 44.177 58.8119 43.8568 58.3849 43.8158C58.2371 44.177 57.4981 45.8188 57.4981 45.8188V45.8106Z" fill="var(--fill-0, white)"/>
<path id="Vector_58" d="M48.7772 86.2032C49.2453 86.3099 49.7626 86.433 50.206 86.4741C50.3292 85.8912 50.4606 85.3823 50.5838 84.939C50.0746 84.824 49.5819 84.7091 49.0892 84.6106C48.9661 85.177 48.8675 85.686 48.769 86.195L48.7772 86.2032Z" fill="var(--fill-0, white)"/>
<path id="Vector_59" d="M65.8168 69.3287V69.3204L65.0941 71.2332L67.1717 71.5862L68.0586 69.6652L65.8168 69.3287Z" fill="var(--fill-0, white)"/>
<path id="Vector_60" d="M45.0246 53.431L47.1021 53.9236L47.2746 53.1273C47.2992 53.0042 47.3239 52.881 47.3485 52.7743V52.7333H47.3567C47.4224 52.4623 47.4881 52.2407 47.5866 52.0683H47.5702C46.979 51.9287 46.3795 51.7974 45.7801 51.666C45.4844 52.3146 45.2627 52.84 45.0164 53.431H45.0246Z" fill="var(--fill-0, white)"/>
<path id="Vector_61" d="M31.0486 76.9399L31.4592 75.3227H31.4099C30.9008 75.1995 30.3917 75.0846 29.8908 74.9861C29.7265 75.5115 29.628 76.0287 29.5295 76.5951L29.7101 76.6361C30.0961 76.7182 30.597 76.825 31.0486 76.9399Z" fill="var(--fill-0, white)"/>
<path id="Vector_62" d="M43.645 85.0775L45.1313 85.3977C45.2792 84.8805 45.4352 84.3716 45.6158 83.8297C45.0246 83.7066 44.499 83.5999 43.9817 83.5014L43.645 85.0858V85.0775Z" fill="var(--fill-0, white)"/>
<path id="Vector_63" d="M90.8629 12.7682C90.9532 12.3085 91.0764 11.7995 91.2324 11.2824C90.7397 11.1756 90.247 11.0607 89.7625 10.9622C89.6311 11.4465 89.5572 11.8488 89.4751 12.3085L89.4587 12.407L89.5326 12.4316C90.0089 12.5794 90.3948 12.6861 90.8629 12.7764V12.7682Z" fill="var(--fill-0, white)"/>
<path id="Vector_64" d="M41.7237 52.5695L41.7484 52.4874C41.888 52.0933 42.0112 51.6829 42.1261 51.2806L42.1508 51.1903C42.1508 51.1903 42.1672 51.1411 42.1754 51.1164C41.7648 51.0343 41.3542 50.9604 40.9436 50.8784C40.648 51.3134 40.377 51.7732 40.1143 52.2247C40.4674 52.2986 40.8122 52.3724 41.1653 52.4463L41.7155 52.5613L41.7237 52.5695Z" fill="var(--fill-0, white)"/>
<path id="Vector_65" d="M38.521 83.9285C39.0629 84.0516 39.6049 84.1748 40.1387 84.2897C40.2783 83.7479 40.4261 83.2143 40.5903 82.6478L38.8002 82.2374C38.7262 82.8695 38.6277 83.3785 38.5127 83.9285H38.521Z" fill="var(--fill-0, white)"/>
<path id="Vector_66" d="M35.4907 81.4657C34.9323 81.3426 34.3821 81.2195 33.8237 81.0963C33.7498 81.3919 33.6842 81.6792 33.6185 81.9501C33.5528 82.2456 33.4871 82.5329 33.4296 82.8203L33.5281 82.8367C34.1851 82.9598 34.6778 83.0665 35.0391 83.1979C35.1951 82.5494 35.3347 82.0158 35.4907 81.4493V81.4657Z" fill="var(--fill-0, white)"/>
<path id="Vector_67" d="M71.5893 16.1352C71.7453 15.3553 71.8603 14.9941 71.9506 14.7889C71.4989 14.7889 70.9652 14.6575 70.3904 14.5015C70.2672 15.0187 70.1358 15.5605 70.0208 16.1106C70.53 16.2173 71.0719 16.3322 71.5154 16.4882L71.5893 16.1352Z" fill="var(--fill-0, white)"/>
<path id="Vector_68" d="M91.4049 59.2945C90.8793 59.2535 90.1895 59.1057 89.6804 58.8923C89.6804 59.0811 89.6476 59.2617 89.6147 59.4587C89.5901 59.5983 89.5737 59.746 89.5572 59.9102C89.4998 60.1729 89.4505 60.3617 89.4094 60.5505C89.6229 60.5505 89.8775 60.5751 90.1649 60.6326C90.4277 60.6819 90.7069 60.7311 91.0353 60.7804C91.1503 60.255 91.2735 59.7871 91.3967 59.3027L91.4049 59.2945Z" fill="var(--fill-0, white)"/>
<path id="Vector_69" d="M72.5669 24.2969L72.5997 24.1245C72.6901 23.6894 72.7557 23.3611 72.8789 23.1148L71.2119 22.7372L70.8506 24.3954L72.4683 24.7566C72.5094 24.5924 72.5422 24.4365 72.5669 24.2969Z" fill="var(--fill-0, white)"/>
<path id="Vector_70" d="M77.1896 38.6176C77.321 38.1497 77.4277 37.7803 77.5755 37.5012C77.0336 37.3862 76.4916 37.2631 75.9414 37.1318C75.7772 37.69 75.6786 38.1661 75.5555 38.7326C76.081 38.8475 76.5737 38.9624 77.0582 39.0691L77.1896 38.6176Z" fill="var(--fill-0, white)"/>
<path id="Vector_71" d="M77.9865 26.6704L77.8551 27.4669C77.7565 28.1074 77.6908 28.4933 77.4773 28.7643L77.7237 28.8136C78.2985 28.9286 78.7912 29.0271 79.4071 29.1174H79.4564L79.6124 28.559C79.8095 27.82 79.9819 27.352 80.2693 27.0892C80.5896 26.81 81.0576 26.769 81.8706 26.9085C82.043 26.9332 82.2401 26.966 82.4618 26.9989L82.5932 27.0153L82.6343 26.9003L82.6918 26.4651C82.7821 25.8493 82.9053 25.4469 83.1106 25.1842L81.033 24.7079L80.9919 24.946C80.9509 25.1841 80.918 25.3976 80.8934 25.5783V25.6276C80.8688 25.7261 80.8606 25.8246 80.8441 25.9068V25.9232C80.7702 26.3748 80.6963 26.6458 80.4582 26.8593L80.3596 26.9332C79.9983 27.1713 79.6288 27.0728 78.939 26.9003C78.7173 26.8429 78.4792 26.7854 78.2 26.7197L77.97 26.6704H77.9865Z" fill="var(--fill-0, white)"/>
<path id="Vector_72" d="M73.4616 40.8758C73.6094 40.9086 73.7737 40.9415 73.9543 40.9743L74.291 39.5459L72.8622 39.2093C72.78 39.513 72.6979 39.825 72.624 40.1369L72.468 40.728C72.7472 40.728 73.0757 40.7937 73.4616 40.8758Z" fill="var(--fill-0, white)"/>
<path id="Vector_73" d="M69.2077 42.4771L71.0142 42.904L71.0307 42.8137C71.1785 42.1159 71.277 41.6644 71.4495 41.3442C70.8582 41.2293 70.2752 41.1472 69.6593 41.0733C69.4704 41.5987 69.3555 41.9353 69.2077 42.4771Z" fill="var(--fill-0, white)"/>
<path id="Vector_74" d="M35.2858 70.0837L35.7292 68.2284L34.0048 67.818C33.8898 68.4172 33.7831 69.0165 33.6763 69.6158L33.6599 69.6979C33.8734 69.7389 34.0705 69.7718 34.2429 69.8046C34.6535 69.8785 35.0148 69.936 35.294 70.0837H35.2858Z" fill="var(--fill-0, white)"/>
<path id="Vector_75" d="M34.6614 73.2544C34.489 73.2544 34.3412 73.2462 34.2426 73.2297C34.1851 73.2297 34.1277 73.2133 34.0702 73.2133L33.9798 73.1969L33.791 73.1394C33.3475 72.9835 33.2654 72.9506 32.9452 72.9096C32.822 73.5171 32.6988 74.1163 32.5674 74.7238C33.1176 74.8387 33.676 74.9701 34.2262 75.1096L34.6696 73.2544H34.6614Z" fill="var(--fill-0, white)"/>
<path id="Vector_76" d="M33.8073 65.0184L33.6924 64.9937C33.1175 64.8788 32.5591 64.7639 32.1486 64.6161L31.7544 66.455C32.2964 66.5781 32.8383 66.7095 33.3803 66.8408L33.8155 65.0102L33.8073 65.0184Z" fill="var(--fill-0, white)"/>
<path id="Vector_77" d="M55.979 78.0742L55.8312 78.0578C55.0922 77.9921 54.3942 77.9182 53.8686 77.7787L53.1214 80.1594C53.8112 80.2497 54.5009 80.3482 55.1825 80.4467L55.979 78.0742Z" fill="var(--fill-0, white)"/>
<path id="Vector_78" d="M57.0792 81.0713H56.9642C56.3976 81.0056 55.8556 80.9482 55.4533 80.8497L54.8784 82.6803C55.4122 82.746 55.9378 82.8199 56.4633 82.902L57.0792 81.0713Z" fill="var(--fill-0, white)"/>
<path id="Vector_79" d="M41.2883 55.8207C41.0337 55.87 40.7135 55.8371 40.2947 55.7304C40.0894 55.6729 39.843 55.6155 39.5392 55.5498L39.4325 55.8207C39.2436 56.3215 39.104 56.6991 38.9233 57.2819L38.9069 57.323L40.8285 57.7745L41.2883 55.8207Z" fill="var(--fill-0, white)"/>
<path id="Vector_80" d="M53.7945 83.0093L53.7534 82.9929C53.2361 82.8451 52.7434 82.7466 52.2178 82.6399C52.1029 83.1735 51.9961 83.7071 51.8894 84.2407C52.3985 84.3474 52.8583 84.4459 53.351 84.5855C53.4906 84.0519 53.622 83.5511 53.8027 83.0093H53.7945Z" fill="var(--fill-0, white)"/>
<path id="Vector_81" d="M42.5199 53.555C42.4953 53.7274 42.4871 53.8259 42.4788 54.0968L42.4542 54.2528C42.2735 54.7618 42.1175 55.1558 41.9204 55.4267L43.9569 55.9111L44.425 53.9491L44.2197 53.9162C43.7517 53.8341 43.1933 53.7274 42.5281 53.5632L42.5199 53.555Z" fill="var(--fill-0, white)"/>
<path id="Vector_82" d="M43.547 82.6229L44.2532 80.7594L41.7979 80.1848L41.4448 82.1304L43.547 82.6229Z" fill="var(--fill-0, white)"/>
<path id="Vector_83" d="M33.594 78.5578L31.8531 78.1719C31.7546 78.6809 31.6642 79.1981 31.5657 79.781C32.1159 79.9041 32.6743 80.0354 33.2245 80.175L33.6022 78.566L33.594 78.5578Z" fill="var(--fill-0, white)"/>
<path id="Vector_84" d="M76.4836 31.0135C76.615 30.4635 76.7464 29.9053 76.8778 29.3552L76.9435 29.0926C76.6314 29.15 76.2619 29.0515 75.7364 28.9119C75.5393 28.8627 75.3011 28.797 75.0302 28.7313L74.948 29.1664C74.8577 29.659 74.7838 30.0859 74.6853 30.5292C75.1944 30.7016 75.605 30.8001 76.1962 30.9396L76.4754 31.0053L76.4836 31.0135Z" fill="var(--fill-0, white)"/>
<path id="Vector_85" d="M73.6588 19.7481L73.6834 19.6496C73.7327 19.4115 73.7819 19.2063 73.8148 19.0257C73.9215 18.4921 73.9954 18.1226 74.1925 17.8764L73.6341 17.7614C73.1332 17.6547 72.6816 17.5644 72.271 17.5316H72.2135L71.8686 19.3622C72.427 19.4854 72.9936 19.6085 73.552 19.7317L73.6588 19.7563V19.7481Z" fill="var(--fill-0, white)"/>
<path id="Vector_86" d="M74.4144 27.8276C74.4636 27.6224 74.5129 27.4336 74.5458 27.2776C74.6689 26.7522 74.7593 26.3582 74.9728 26.0873L73.0677 25.6604L72.7063 27.606C73.2647 27.7291 73.8231 27.8604 74.3815 27.9754L74.4226 27.8276H74.4144Z" fill="var(--fill-0, white)"/>
<path id="Vector_87" d="M76.2454 11.364C76.1797 11.7663 76.1304 12.0618 76.0319 12.2917C76.4179 12.2506 76.9106 12.3984 77.7153 12.6447L77.8303 12.6775L77.8713 12.5133C77.9945 12.029 78.1095 11.5282 78.2162 11.0439L78.2326 10.9536L76.3768 10.5349C76.3111 10.8715 76.27 11.1424 76.229 11.364H76.2454Z" fill="var(--fill-0, white)"/>
<path id="Vector_88" d="M54.6734 47.7078C54.9772 47.6832 55.3385 47.7735 55.823 47.8966L56.6031 48.0936L56.792 47.2809C56.907 46.7884 56.9891 46.4272 57.1533 46.1645L55.1168 45.7047L54.6734 47.7078Z" fill="var(--fill-0, white)"/>
<path id="Vector_89" d="M64.7658 40.1458C64.5359 40.6794 64.4045 41.057 64.2156 41.6809C64.3881 41.6809 64.5769 41.722 64.8069 41.7712L65.2092 41.8615C65.3899 41.9026 65.5788 41.9436 65.7923 41.9929C65.7841 41.722 65.8251 41.4018 65.8908 41.016C65.9401 40.8025 65.9811 40.6055 66.0222 40.4085L64.7822 40.1458H64.7658Z" fill="var(--fill-0, white)"/>
<g id="Vector_90">
</g>
<g id="Vector_91">
</g>
<g id="Vector_92">
</g>
<g id="Vector_93">
</g>
<g id="Vector_94">
</g>
<path id="Vector_95" d="M64.7574 60.8218L65.3897 58.1531L67.4837 58.6458L68.0339 56.3056L65.7757 55.7718L66.3341 53.4152L63.9116 52.8404L63.3943 55.0164L60.9718 54.4416L61.5467 52.0192L63.6981 52.5283L64.2729 50.1142L62.0147 49.5804L61.4317 52.0356L58.9682 51.4526L58.4016 53.8339L60.6105 54.3595L60.0357 56.7818L57.6132 56.207L58.1388 53.9817L55.5685 53.3741L54.9609 55.9279L52.5302 55.3531L51.9143 57.9479L49.4262 57.3648L48.8185 59.9186L46.1907 59.2945L45.5256 62.0946L43.1031 61.5198L42.4955 64.0736L40.188 63.5234L39.6624 65.7405L42.011 66.2906L41.3376 69.1236L39.1369 68.6063L38.6278 70.7494L40.7792 71.2585L41.2801 69.1318L43.9079 69.7559L43.2838 72.3835L41.1405 71.8744L40.6643 73.8862L42.9061 74.4117L43.4316 72.2029L46.0594 72.8269L45.4763 75.2985L47.9563 75.8651L47.2501 78.4928L45.0986 77.9837L44.3349 80.6524L46.8231 81.0876L47.2993 78.5749L49.7546 79.0512L50.3951 76.3578L52.6369 76.8998L53.5567 74.5103L56.0694 75.0194L56.9481 72.5724L59.231 72.9747L60.0357 70.5688L62.335 70.9629L63.2629 68.4092L65.4062 68.8444L65.9892 66.5945L63.7638 66.1182L63.2383 68.0068L60.668 67.4649L61.21 65.2149L63.4928 65.7651L64.0348 63.4741L61.5467 62.8829L62.1707 60.2306L64.7246 60.8383L64.7574 60.8218ZM63.501 55.2381L65.9235 55.8129L65.3487 58.2353L62.9262 57.6605L63.501 55.2381ZM50.4034 76.3332L48.0055 75.8159L48.7528 73.3771L51.0192 73.9108L50.4034 76.325V76.3332ZM53.5649 74.4446L51.2984 73.9108L51.8322 71.6445L54.0986 72.1782L53.5649 74.4446ZM56.7428 72.3999L54.4764 71.858L55.0183 69.5916L57.2848 70.1254L56.751 72.3917L56.7428 72.3999ZM59.97 70.4702L57.4983 69.8872L58.0813 67.4156L60.553 67.9986L59.97 70.4702Z" fill="var(--fill-0, white)"/>
<path id="Vector_96" d="M80.1055 37.0741H80.1301L80.6967 35.4487L78.8819 35.0711C78.8573 35.3092 78.8163 35.5472 78.767 35.8263C78.7095 36.1629 78.652 36.4913 78.6192 36.8443C78.9805 36.8361 79.4321 36.9346 80.0973 37.0824L80.1055 37.0741Z" fill="var(--fill-0, white)"/>
<path id="Vector_97" d="M74.3732 12.7117C74.1433 12.6706 73.8641 12.6214 73.5192 12.5639L73.2975 12.4818C73.1661 13.0565 73.0922 13.3766 73.0594 14.017L73.0429 14.2386C73.8395 14.1976 74.4061 14.3864 74.7674 14.805L74.9481 13.9267C75.0384 13.4505 75.1205 13.0811 75.2683 12.8102C75.0302 12.8266 74.7428 12.7774 74.3732 12.7035V12.7117Z" fill="var(--fill-0, white)"/>
<path id="Vector_98" d="M92.0454 48.9565C91.7991 49.3998 91.7334 49.6871 91.6348 50.1058C91.6102 50.2043 91.5856 50.3028 91.5609 50.4095C91.7662 50.4424 91.9715 50.4752 92.185 50.5163C92.5217 50.5737 92.8584 50.6312 93.1704 50.664C93.3018 50.1715 93.4496 49.7117 93.5974 49.2438C93.1047 49.1453 92.6038 49.0468 92.1193 48.9565H92.0536H92.0454Z" fill="var(--fill-0, white)"/>
<path id="Vector_99" d="M84.4814 46.033L85.9678 46.3449C86.0909 45.8688 86.2305 45.3844 86.3701 44.9165L86.3866 44.8673L84.8017 44.5307L84.4897 46.0248L84.4814 46.033Z" fill="var(--fill-0, white)"/>
<path id="Vector_100" d="M64.7978 61.0474L64.3007 63.1485L66.4503 63.657L66.9474 61.5559L64.7978 61.0474Z" fill="var(--fill-0, white)"/>
<path id="Vector_101" d="M82.5275 42.9292L82.5111 42.9785C83.0038 43.077 83.4965 43.1837 83.9646 43.2986H83.9728C84.1042 42.7732 84.2602 42.2561 84.4244 41.7307L82.8231 41.3859C82.7164 41.9031 82.6096 42.4038 82.5193 42.9292H82.5275Z" fill="var(--fill-0, white)"/>
<path id="Vector_102" d="M89.8527 17.9417L90.2715 16.2342C89.828 16.2342 89.3025 16.1111 88.7359 15.9469L88.5142 15.8812C88.5224 16.185 88.4649 16.4805 88.4074 16.776C88.3663 16.9977 88.3171 17.2357 88.3006 17.5066L88.2842 17.7119C88.6948 17.638 89.2121 17.679 89.8527 17.9417Z" fill="var(--fill-0, white)"/>
<path id="Vector_103" d="M35.6224 72.5639C35.606 72.6132 35.5896 72.6542 35.5732 72.6953L37.4126 73.1304L37.8396 71.3407L35.8688 70.8728C35.9509 71.3161 35.8113 71.8744 35.6224 72.5557V72.5639Z" fill="var(--fill-0, white)"/>
<path id="Vector_104" d="M80.8687 38.2319C80.7702 38.6095 80.6881 38.9789 80.5977 39.373L80.4992 39.8409L82.1497 40.2185L82.5521 38.5684C82.2072 38.5028 81.8541 38.4289 81.5092 38.3632L80.8687 38.2319Z" fill="var(--fill-0, white)"/>
<path id="Vector_105" d="M86.5023 49.1284L86.4613 49.3172C86.8062 49.2762 87.2249 49.3747 87.8244 49.5225L88.0625 49.5799C88.0708 49.5225 88.079 49.4732 88.0872 49.4157C88.1693 48.9478 88.2596 48.3978 88.4896 47.9709L86.839 47.6097C86.724 48.1187 86.6091 48.6359 86.5023 49.1448V49.1284Z" fill="var(--fill-0, white)"/>
<path id="Vector_106" d="M70.0126 59.6309L68.1731 59.1958L67.7461 61.0101L69.5363 61.437C69.6923 60.7802 69.8237 60.2795 70.0126 59.6391V59.6309Z" fill="var(--fill-0, white)"/>
<path id="Vector_107" d="M70.8747 68.0893L69.0353 67.6542L68.6083 69.4685L70.3984 69.8953C70.5545 69.2386 70.6858 68.7378 70.8747 68.0975V68.0893Z" fill="var(--fill-0, white)"/>
<path id="Vector_108" d="M69.0523 65.0841L67.2128 64.649L66.7858 66.4632L68.576 66.8901C68.732 66.2334 68.8634 65.7326 69.0523 65.0923V65.0841Z" fill="var(--fill-0, white)"/>
<path id="Vector_109" d="M72.4927 59.2944C72.6159 58.7854 72.7391 58.2846 72.8787 57.7757L72.4106 57.6607C72.1725 57.6197 71.8933 57.5458 71.6305 57.4801L71.3841 57.4227L70.9818 59.122L72.4599 59.4503L72.4927 59.3026V59.2944Z" fill="var(--fill-0, white)"/>
<path id="Vector_110" d="M83.1678 60.0579H83.1267C82.6422 59.9348 82.0674 59.7952 81.6075 59.746C81.6075 59.7624 81.6075 59.7706 81.5993 59.787V59.8034C81.4679 60.3288 81.3694 60.8132 81.2791 61.2483C81.7554 61.3303 82.2234 61.4124 82.6915 61.5027C82.8147 60.9856 82.9378 60.5012 83.176 60.0579H83.1678Z" fill="var(--fill-0, white)"/>
<path id="Vector_111" d="M85.9354 59.7786C86.0586 59.2286 86.19 58.6786 86.3214 58.1286C85.7137 58.0054 85.1389 57.8905 84.5723 57.7591L84.3095 59.3764H84.3341C84.9007 59.5405 85.4017 59.6555 85.9354 59.7704V59.7786Z" fill="var(--fill-0, white)"/>
<path id="Vector_112" d="M90.3701 55.6159C90.6904 55.583 91.0681 55.6651 91.6511 55.7883L92.152 55.8868C92.2916 55.2875 92.4312 54.68 92.579 54.089C91.9467 53.9576 91.3719 53.8345 90.7643 53.7277L90.3701 55.6077V55.6159Z" fill="var(--fill-0, white)"/>
<path id="Vector_113" d="M79.7764 58.2922C80.0884 58.4071 80.3101 58.481 80.5318 58.5467C80.6468 58.5795 80.7618 58.6206 80.8685 58.6616C81.0245 57.6929 81.1641 57.1511 81.4926 56.8228L79.4397 56.3795L79.0619 58.3086C79.2098 58.284 79.374 58.2676 79.5629 58.2676L79.7599 58.3004L79.7764 58.2922Z" fill="var(--fill-0, white)"/>
<path id="Vector_114" d="M78.2904 33.945H78.3068L78.3315 33.8547C78.4628 33.3211 78.586 32.7957 78.7256 32.2703L76.9847 31.8763C76.9108 32.2785 76.8534 32.6726 76.7877 33.0666L76.6891 33.6413C77.1982 33.7562 77.7074 33.8629 78.2822 33.9368L78.2904 33.945Z" fill="var(--fill-0, white)"/>
<path id="Vector_115" d="M80.0229 29.9716C79.9079 30.5545 79.7929 31.1455 79.6698 31.7202C80.261 31.8351 80.803 31.9501 81.4435 32.0978C81.5831 31.4903 81.7145 30.9896 81.9198 30.3082L81.9362 30.2589L80.0475 29.8485L80.0229 29.9716Z" fill="var(--fill-0, white)"/>
<path id="Vector_116" d="M52.7518 52.6514L50.5346 52.4708L49.8366 54.482L52.1852 55.032L52.7518 52.6514Z" fill="var(--fill-0, white)"/>
<path id="Vector_117" d="M49.7384 54.5728L47.4966 54.3757L46.9957 56.5019L49.1636 57.0109L49.7466 54.5728H49.7384Z" fill="var(--fill-0, white)"/>
<path id="Vector_118" d="M83.9316 56.7319C83.9891 56.5185 84.0384 56.3215 84.0795 56.1491L84.1041 56.0506C84.1041 56.0506 84.1123 56.0095 84.1205 55.9931L84.1862 55.7222C84.293 55.3282 84.4079 55.0162 84.6379 54.811L84.4161 54.7617C83.8167 54.6304 83.209 54.499 82.6013 54.3841L82.5028 54.3677L82.4864 54.5154C82.4043 55.1229 82.3057 55.6565 82.199 56.2147L82.1415 56.5185C82.4782 56.4774 82.8641 56.5431 83.3404 56.6334C83.5211 56.6663 83.7181 56.6991 83.9316 56.7401V56.7319Z" fill="var(--fill-0, white)"/>
<path id="Vector_119" d="M44.4382 56.4807L43.9052 58.7336L46.0148 59.2326L46.5478 56.9798L44.4382 56.4807Z" fill="var(--fill-0, white)"/>
<path id="Vector_120" d="M61.6778 74.1979L59.3621 73.886L58.5245 76.4062L60.8402 76.7264L61.6778 74.1979Z" fill="var(--fill-0, white)"/>
<path id="Vector_121" d="M67.1455 50.9637L66.6749 52.9529L68.6406 53.418L69.1113 51.4287L67.1455 50.9637Z" fill="var(--fill-0, white)"/>
<path id="Vector_122" d="M87.1754 54.6626C87.3396 54.1126 87.471 53.5872 87.6188 53.0372L88.0212 53.111L87.627 53.0125L87.6599 52.8894L87.5778 52.873C86.9455 52.7416 86.2967 52.5939 85.6562 52.4379H85.6234L85.6152 52.52C85.5248 53.1849 85.4263 53.6611 85.3113 54.2111L85.2374 54.5641C85.5823 54.523 86.0175 54.6215 86.7648 54.7939L87.1343 54.876L87.2 54.6626H87.1754Z" fill="var(--fill-0, white)"/>
<path id="Vector_123" d="M81.0494 45.0728C81.1562 44.6293 81.2629 44.1777 81.4025 43.7179C80.8934 43.5701 80.3514 43.4551 79.9162 43.3648L79.7273 43.3237C79.6042 43.644 79.5138 43.915 79.4481 44.1285L79.4153 44.2352C79.4153 44.2352 79.4153 44.2598 79.4071 44.2763L79.3003 44.6129C79.1771 44.9496 79.0211 45.2041 78.7009 45.3273C78.3478 45.4669 77.9947 45.3848 77.2967 45.2206C77.0996 45.1713 76.8779 45.122 76.6069 45.0646L76.418 45.0235L76.3441 45.4833C76.2209 46.2634 76.147 46.6986 75.8268 46.986L75.7364 47.0517C75.3341 47.3227 74.8988 47.2242 74.1023 47.0517L73.314 46.8793L73.2401 47.2898C73.1087 48.3081 73.0512 48.7761 72.6981 49.0881L72.5996 49.162C72.189 49.4412 71.7291 49.3263 70.9654 49.1374L70.3988 48.9978L69.98 50.7633L71.9426 51.2313L71.9837 51.0671C72.189 50.2788 72.3039 49.8025 72.7474 49.5398C73.1662 49.2934 73.6589 49.3837 74.5375 49.548L74.8824 49.6137L75.0467 49.1374C75.5804 47.5855 75.9089 47.3391 77.5677 47.257L78.1835 47.2241C78.2492 46.9778 78.2985 46.7643 78.3396 46.5755C78.4709 46.0253 78.5531 45.6394 78.8323 45.3848C78.8651 45.352 78.9062 45.3273 78.9472 45.3027C79.3332 45.0646 79.7355 45.1549 80.4664 45.3273L80.9591 45.4423L81.0494 45.0728Z" fill="var(--fill-0, white)"/>
<path id="Vector_124" d="M79.2425 10.1812H79.2753C79.8501 10.4193 80.2361 10.5096 80.466 10.5588C80.5563 10.5835 80.6385 10.5999 80.7124 10.6163L80.7452 10.4685C80.852 9.97597 80.9587 9.50805 81.0737 9.03191L79.5134 8.67891L79.2507 10.173L79.2425 10.1812Z" fill="var(--fill-0, white)"/>
<path id="Vector_125" d="M34.5467 77.7613C35.1215 77.8844 35.6882 78.0157 36.263 78.1471L36.6571 76.4806L34.8341 76.0455C34.752 76.6202 34.6535 77.1948 34.5467 77.7613Z" fill="var(--fill-0, white)"/>
<path id="Vector_126" d="M37.9955 74.0732L37.5986 75.7509L39.5084 76.2027L39.9054 74.5251L37.9955 74.0732Z" fill="var(--fill-0, white)"/>
<path id="Vector_127" d="M37.1939 65.6279L36.7384 67.5532L38.6402 68.0031L39.0957 66.0778L37.1939 65.6279Z" fill="var(--fill-0, white)"/>
<path id="Vector_128" d="M58.6315 76.3006L56.5703 76.0215L55.8477 78.1641L57.9088 78.4432L58.6315 76.3006Z" fill="var(--fill-0, white)"/>
<path id="Vector_129" d="M40.2705 60.9449L38.1026 60.4359L38.0041 60.9777C37.8809 61.6673 37.807 62.1106 37.6017 62.4226L39.7942 62.9398L40.2705 60.9449Z" fill="var(--fill-0, white)"/>
<path id="Vector_130" d="M53.2283 80.1023L50.6908 79.7575L50.5102 80.406C50.2803 81.2269 50.1324 81.7523 49.8533 82.1381L52.4235 82.4829L53.2283 80.094V80.1023Z" fill="var(--fill-0, white)"/>
<path id="Vector_131" d="M41.978 77.6715L40.0154 77.2036L39.5392 79.2067L41.4936 79.6418L41.978 77.6715Z" fill="var(--fill-0, white)"/>
<path id="Vector_132" d="M41.1963 58.5515L40.697 60.6605L42.7826 61.1543L43.2819 59.0453L41.1963 58.5515Z" fill="var(--fill-0, white)"/>
<path id="Vector_133" d="M48.4124 49.2526L47.9131 51.3615L49.9986 51.8553L50.498 49.7463L48.4124 49.2526Z" fill="var(--fill-0, white)"/>
<path id="Vector_134" d="M64.5024 72.3173L62.2688 71.9561L61.5544 74.2629L63.788 74.6158L64.5024 72.3173Z" fill="var(--fill-0, white)"/>
<path id="Vector_135" d="M38.685 79.7158L38.7343 79.5434L36.9277 79.1165C36.7963 79.7158 36.6731 80.315 36.5499 80.9143C37.1658 81.0293 37.7078 81.1524 38.2333 81.2837C38.3976 80.7666 38.5454 80.2412 38.6932 79.7158H38.685Z" fill="var(--fill-0, white)"/>
<path id="Vector_136" d="M74.1432 56.9954C74.6441 57.0775 75.2025 57.217 75.687 57.332C75.8266 56.823 75.9744 56.314 76.1304 55.805L76.1551 55.7147C76.0155 55.7312 75.8348 55.7312 75.5556 55.7147L75.2353 55.6655C74.9397 55.5506 74.7344 55.4849 74.5045 55.411L74.1432 57.0036V56.9954Z" fill="var(--fill-0, white)"/>
<path id="Vector_137" d="M73.8643 53.8421C74.0449 53.177 74.1681 52.7007 74.6279 52.4297C75.0878 52.1587 75.6626 52.2409 76.5659 52.4872C76.7384 52.5365 76.8862 52.6186 77.0011 52.75L77.19 52.0274C77.3789 51.2719 77.4938 50.8039 77.9373 50.5575C78.4053 50.303 78.9719 50.4672 79.8424 50.7628L80.0395 50.8285L80.1626 50.3605C80.2201 50.1552 80.2612 49.9745 80.3022 49.8185C80.4501 49.2191 80.5486 48.8331 80.8196 48.595C80.8688 48.5539 80.9263 48.5129 80.992 48.48C81.3698 48.2665 81.7639 48.3651 82.4948 48.5293L83.0778 48.6607L83.1353 48.3979C83.2585 47.856 83.3898 47.2894 83.513 46.7392L81.5833 46.2958V46.3122C81.5258 46.575 81.4847 46.7967 81.4519 46.9856C81.3369 47.6178 81.2712 47.9956 80.9838 48.2501L80.8689 48.3322C80.4993 48.5704 80.0887 48.4636 79.399 48.2912C79.2101 48.2419 78.9884 48.1844 78.7256 48.1269L78.3396 48.0366L78.2575 48.6278C78.1508 49.4079 78.0933 49.8431 77.7648 50.1305L77.6827 50.1962C77.2639 50.4836 76.8041 50.3687 75.8843 50.147L75.3095 50.0074L75.252 50.4179C75.1124 51.4115 75.0467 51.9042 74.7019 52.208L74.6033 52.2819C74.2091 52.5447 73.7739 52.4297 73.117 52.2573C72.961 52.2162 72.7885 52.1752 72.5914 52.1259L72.1562 53.9488L73.7247 54.3183C73.7739 54.1459 73.8232 53.9817 73.856 53.8421H73.8643Z" fill="var(--fill-0, white)"/>
<path id="Vector_138" d="M67.9515 47.8557L69.9633 48.3319L70.1193 47.6177C70.1358 47.552 70.144 47.4863 70.1604 47.4289L70.185 47.3221C70.2836 46.9035 70.3821 46.6079 70.612 46.4109H70.6203L68.4277 45.8855L67.9597 47.8639L67.9515 47.8557Z" fill="var(--fill-0, white)"/>
<path id="Vector_139" d="M63.0325 44.6702L62.975 45.015C62.8272 45.918 62.7533 46.3941 62.4494 46.6979L64.7898 47.2479L65.3071 45.0724C65.1757 45.0971 65.0361 45.0971 64.8801 45.0724L64.6091 45.0232C64.4531 44.9904 64.2806 44.9493 64.0836 44.9001C63.8783 44.8508 63.6812 44.8015 63.4513 44.7441L63.0407 44.6456L63.0325 44.6702Z" fill="var(--fill-0, white)"/>
<path id="Vector_140" d="M69.1729 54.1925L68.8102 55.7264L70.6483 56.1609L71.0109 54.627L69.1729 54.1925Z" fill="var(--fill-0, white)"/>
<path id="Vector_141" d="M90.5673 51.0909L88.7607 50.6886C88.654 51.2304 88.539 51.764 88.424 52.2976L88.3912 52.4536L90.1238 52.823C90.2552 52.273 90.403 51.6901 90.5673 51.0909Z" fill="var(--fill-0, white)"/>
<path id="Vector_142" d="M78.8813 55.4921C79.1112 54.5478 79.2672 53.9812 79.6778 53.6609C80.1459 53.3079 80.7043 53.431 81.624 53.6363L81.9853 53.7102L82.1824 53.004C82.3549 52.3553 82.478 51.9283 82.7737 51.6656C82.8311 51.6163 82.8886 51.5752 82.9625 51.5342C83.3813 51.3125 83.8165 51.411 84.687 51.6163L85.0729 51.7066L85.2043 51.2057C85.385 50.4913 85.5081 50.0151 85.7463 49.7113L83.5866 49.235L83.5127 49.7523C83.3895 50.6309 83.3238 51.0744 82.9954 51.37L82.8968 51.4439C82.5027 51.7066 82.0757 51.5917 81.353 51.411C81.1477 51.3618 80.9424 51.3043 80.6961 51.2468L80.3758 51.1729L80.2937 51.7723C80.1787 52.6263 80.1131 53.0533 79.7928 53.3407L79.6943 53.4146C79.3083 53.6774 78.8731 53.5624 78.1587 53.3735C77.9944 53.3325 77.822 53.2832 77.6249 53.234L77.2143 53.1354C77.3539 53.6117 77.1897 54.2029 76.9762 54.8598C76.9351 54.9748 76.9105 55.0733 76.8858 55.1472L76.853 55.2786L76.9433 55.295C77.5592 55.41 78.134 55.5249 78.832 55.681L78.8813 55.4921Z" fill="var(--fill-0, white)"/>
<path id="Vector_143" d="M89.0312 57.7335C89.0969 57.52 89.1543 57.323 89.1954 57.1506C89.335 56.6416 89.4417 56.2804 89.6306 56.0177L89.2939 55.9438C88.7684 55.8289 88.2182 55.7058 87.6927 55.5662L87.627 55.5498L87.6105 55.6647C87.5284 56.2886 87.4135 56.8386 87.2903 57.4133L87.5695 57.4708C88.0868 57.5775 88.5138 57.6596 89.023 57.7252H89.0312V57.7335Z" fill="var(--fill-0, white)"/>
<path id="Vector_144" d="M74.9806 15.1581C75.2927 15.8643 75.0135 16.7511 74.8657 17.2027L74.7671 17.5148C75.0874 17.4573 75.4651 17.5558 76.0646 17.7036L76.7461 17.8679L76.8775 17.2766V17.2602C77.0336 16.5376 77.1239 16.1024 77.4277 15.8396C77.4688 15.8068 77.5098 15.7739 77.5591 15.7411C77.9533 15.4948 78.3967 15.5933 79.1275 15.7657L79.8009 15.9217L80.0144 15.0349V15.0185C80.154 14.4109 80.2526 14.0003 80.4989 13.7457H80.4414C79.9405 13.7868 79.2343 13.6061 78.6677 13.4665L78.2817 13.3762V13.3926L78.216 13.8607C78.0929 14.649 78.0272 15.0924 77.7069 15.3716L77.6084 15.4455C77.2224 15.7 76.8201 15.6015 76.1467 15.4291C75.9332 15.3716 75.6951 15.3141 75.4076 15.2484L74.9888 15.1581H74.9806Z" fill="var(--fill-0, white)"/>
<path id="Vector_145" d="M67.2621 48.2664L65.1188 47.7575L64.8396 48.9314C64.8314 48.9724 64.815 49.0381 64.7985 49.0956L64.6015 49.9329L66.7529 50.4419L67.2703 48.2664H67.2621Z" fill="var(--fill-0, white)"/>
<path id="Vector_146" d="M81.6979 11.6931L81.3119 11.5782C81.3037 11.6685 81.2873 11.767 81.2709 11.8737C81.2298 12.12 81.1723 12.4976 81.1231 13.0805L81.0984 13.4663C81.394 13.4335 81.7471 13.5156 82.2563 13.6387C82.4369 13.6798 82.634 13.729 82.8557 13.7783L83.2581 12.0461L82.8475 11.9558C82.4616 11.8655 82.0756 11.7834 81.6979 11.7013V11.6931Z" fill="var(--fill-0, white)"/>
<path id="Vector_147" d="M82.6425 33.3873C82.4208 33.3298 82.1991 33.2806 81.9856 33.2559L81.9445 33.3791C81.846 33.6582 81.7721 33.8716 81.7064 34.1507C81.6899 34.241 81.6653 34.3395 81.6489 34.4545L81.5832 34.8978C82.1744 34.9799 82.7739 35.062 83.3569 35.1605V35.1112C83.4965 34.5858 83.6279 34.0851 83.7839 33.5597C83.4062 33.5679 82.9956 33.4694 82.6425 33.3791V33.3873Z" fill="var(--fill-0, white)"/>
<path id="Vector_148" d="M74.2498 44.0044C74.685 43.9306 75.2187 44.1029 75.9167 44.3574L75.9989 44.3903L76.1138 43.8485C76.2534 43.1999 76.3437 42.7648 76.5162 42.4529L74.6932 42.0506L74.2498 44.0126V44.0044Z" fill="var(--fill-0, white)"/>
<path id="Vector_149" d="M77.379 41.8942C77.7156 41.8695 78.118 41.9762 78.6928 42.1158L79.1609 42.2307C79.2923 41.6397 79.4319 41.065 79.5715 40.4904C79.4072 40.4575 79.2512 40.4247 79.0952 40.3919C78.7831 40.3262 78.5779 40.2851 78.3561 40.2441L77.7321 40.0799C77.6335 40.671 77.5185 41.2292 77.4036 41.7628L77.379 41.8942Z" fill="var(--fill-0, white)"/>
<path id="Vector_150" d="M71.8027 44.0047L71.2935 46.1638C71.5727 46.1638 71.9094 46.2541 72.3529 46.3608L73.0098 46.5168L73.1083 46.0653C73.1412 45.9011 73.174 45.7533 73.2069 45.6138C73.3136 45.0802 73.3957 44.6697 73.6175 44.3824L72.862 44.2182C72.5089 44.1443 72.164 44.0704 71.8109 43.9965L71.8027 44.0047Z" fill="var(--fill-0, white)"/>
<path id="Vector_151" d="M44.4003 31.5398L45.5992 34.8161L44.0226 37.9118L47.2908 36.713L50.3866 38.2978L49.1877 35.0296L50.7726 31.9257L47.5043 33.1246L44.4003 31.5398Z" fill="var(--fill-0, white)"/>
<path id="Vector_152" d="M0.38598 62.785L1.58489 66.0531L2.91453e-05 69.1488L3.26829 67.9499L6.37232 69.5347L5.17341 66.2666L6.75827 63.1627L3.4818 64.3616L0.38598 62.785Z" fill="var(--fill-0, white)"/>
<path id="Vector_153" d="M84.7207 66.0606L85.9196 69.3288L84.3347 72.4327L87.603 71.2256L90.707 72.8104L89.5081 69.5423L91.093 66.4384L87.8247 67.6454L84.7207 66.0606Z" fill="var(--fill-0, white)"/>
<path id="Vector_154" d="M88.6286 0L89.8275 3.26814L88.2426 6.37205L91.5109 5.17318L94.6149 6.75798L93.416 3.48163L95.0009 0.385936L91.7244 1.5848L88.6286 0Z" fill="var(--fill-0, white)"/>
<path id="Vector_155" d="M51.3808 2.22545L52.5797 5.49359L50.9948 8.5975L54.2631 7.39042L57.3671 8.97522L56.1682 5.70708L57.7531 2.60317L54.4848 3.81025L51.3808 2.22545Z" fill="var(--fill-0, white)"/>
<path id="Vector_156" d="M57.0057 95.0466L57.7365 97.0337L56.7757 98.9141L58.763 98.1915L60.6435 99.1523L59.9126 97.1651L60.8816 95.2765L58.8944 96.0073L57.0057 95.0466Z" fill="var(--fill-0, white)"/>
<path id="Vector_157" d="M14.0669 86.2768L14.7977 88.264L13.837 90.1444L15.8242 89.4136L17.7047 90.3743L16.9738 88.3954L17.9346 86.5067L15.9556 87.2376L14.0669 86.2768Z" fill="var(--fill-0, white)"/>
<path id="Vector_158" d="M105.011 35.4894L105.742 37.4766L104.773 39.357L106.76 38.6262L108.649 39.5869L107.918 37.5998L108.879 35.7194L106.892 36.4502L105.011 35.4894Z" fill="var(--fill-0, white)"/>
<path id="Vector_159" d="M39.4244 92.4089L40.6233 95.6852L39.0466 98.7809L42.3149 97.5821L45.4107 99.1669L44.2118 95.8987L45.7967 92.7948L42.5284 93.9937L39.4244 92.4089Z" fill="var(--fill-0, white)"/>
<path id="Vector_160" d="M73.1578 71.3981L74.3567 74.6663L72.7718 77.7702L76.0401 76.5713L79.1441 78.1561L77.9452 74.888L79.5301 71.7841L76.2618 72.9829L73.1578 71.3981Z" fill="var(--fill-0, white)"/>
<path id="Vector_161" d="M14.6661 69.7637L15.865 73.0319L14.2801 76.1358L17.5484 74.9369L20.6524 76.5217L19.4535 73.2536L21.0384 70.1497L17.7701 71.3485L14.6661 69.7637Z" fill="var(--fill-0, white)"/>
<path id="Vector_162" d="M39.745 50.0567L40.3034 51.5919L39.5644 53.0449L41.0918 52.4785L42.5452 53.2255L41.9868 51.6904L42.7259 50.2373L41.1985 50.7956L39.745 50.0567Z" fill="var(--fill-0, white)"/>
<path id="Vector_163" d="M42.7252 44.0136L43.2918 45.5405L42.5445 46.9935L44.0801 46.4353L45.5336 47.1741L44.967 45.639L45.7142 44.186L44.1786 44.7524L42.7252 44.0136Z" fill="var(--fill-0, white)"/>
<path id="Vector_164" d="M48.1205 44.2511L48.6871 45.7781L47.9398 47.2311L49.4754 46.6729L50.9289 47.4117L50.3705 45.8848L51.1096 44.4317L49.574 44.99L48.1205 44.2511Z" fill="var(--fill-0, white)"/>
<path id="Vector_165" d="M70.8668 33.8969L71.4334 35.4238L70.6861 36.8768L72.2217 36.3186L73.6752 37.0575L73.1086 35.5305L73.8558 34.0693L72.3202 34.6357L70.8668 33.8969Z" fill="var(--fill-0, white)"/>
<path id="Vector_166" d="M74.1025 5.52606L74.6609 7.06119L73.9219 8.51423L75.4492 7.956L76.9027 8.69483L76.3443 7.1597L77.0834 5.70667L75.556 6.2731L74.1025 5.52606Z" fill="var(--fill-0, white)"/>
<path id="Vector_167" d="M90.6658 19.2807L91.2324 20.8159L90.4851 22.2689L92.0207 21.7107L93.4742 22.4495L92.9076 20.9144L93.6548 19.4613L92.1192 20.0278L90.6658 19.2807Z" fill="var(--fill-0, white)"/>
<path id="Vector_168" d="M86.5598 40.4243L87.1182 41.9594L86.3791 43.4125L87.9065 42.846L89.3682 43.5931L88.8016 42.0579L89.5406 40.6049L88.0133 41.1713L86.5598 40.4243Z" fill="var(--fill-0, white)"/>
<path id="Vector_169" d="M70.8503 61.6429L71.4086 63.178L70.6696 64.631L72.197 64.0646L73.6504 64.8116L73.092 63.2765L73.8311 61.8235L72.3037 62.3817L70.8503 61.6429Z" fill="var(--fill-0, white)"/>
<path id="Vector_170" d="M59.3292 78.7141L59.8958 80.2411L59.1486 81.6941L60.6842 81.1359L62.1376 81.8747L61.571 80.3478L62.3183 78.8947L60.7827 79.453L59.3292 78.7141Z" fill="var(--fill-0, white)"/>
<path id="Vector_171" d="M44.4496 86.9837L45.008 88.5188L44.269 89.9718L45.8046 89.4054L47.258 90.1524L46.6914 88.6173L47.4387 87.1643L45.9031 87.7225L44.4496 86.9837Z" fill="var(--fill-0, white)"/>
<path id="Vector_172" d="M26.4172 65.5356L26.9756 67.0707L26.2365 68.5238L27.7639 67.9573L29.2174 68.7044L28.659 67.1692L29.398 65.7162L27.8706 66.2826L26.4172 65.5356Z" fill="var(--fill-0, white)"/>
<path id="Vector_173" d="M96.4225 54.2939L96.9809 55.8208L96.2419 57.282L97.7692 56.7156L99.2227 57.4544L98.6643 55.9275L99.4034 54.4745L97.876 55.0327L96.4225 54.2939Z" fill="var(--fill-0, white)"/>
<path id="Vector_174" d="M87.0773 33.8879L87.6439 35.4148L86.9048 36.8679L88.4322 36.3097L89.8857 37.0485L89.3273 35.5216L90.0663 34.0685L88.5389 34.6268L87.0773 33.8879Z" fill="var(--fill-0, white)"/>
<path id="Vector_175" d="M66.4651 10.3542L67.0235 11.8812L66.2845 13.3342L67.8118 12.776L69.2735 13.5148L68.7069 11.9879L69.446 10.5348L67.9186 11.0931L66.4651 10.3542Z" fill="var(--fill-0, white)"/>
<path id="Vector_176" d="M82.0516 1.88898L82.61 3.4159L81.8709 4.86893L83.4065 4.31071L84.86 5.04954L84.2934 3.51441L85.0406 2.06137L83.505 2.62781L82.0516 1.88898Z" fill="var(--fill-0, white)"/>
<path id="Vector_177" d="M31.4181 53.0787L31.9765 54.6139L31.2374 56.0669L32.7648 55.5087L34.2265 56.2475L33.6599 54.7124L34.3989 53.2593L32.8715 53.8258L31.4181 53.0787Z" fill="var(--fill-0, white)"/>
<path id="Vector_178" d="M16.4723 57.332L17.0307 58.8671L16.2917 60.3201L17.819 59.7619L19.2725 60.5007L18.7141 58.9656L19.4532 57.5126L17.9258 58.079L16.4723 57.332Z" fill="var(--fill-0, white)"/>
<path id="Vector_179" d="M27.2713 89.8162L27.8297 91.3431L27.0906 92.7961L28.6262 92.2379L30.0797 92.9767L29.5131 91.4498L30.2603 89.9968L28.7247 90.555L27.2713 89.8162Z" fill="var(--fill-0, white)"/>
<path id="Vector_180" d="M72.2954 82.4751L72.862 84.0102L72.1148 85.4632L73.6504 84.8968L75.1038 85.6438L74.5454 84.1087L75.2845 82.6557L73.7489 83.2139L72.2954 82.4751Z" fill="var(--fill-0, white)"/>
<path id="Vector_181" d="M55.5194 35.8507L56.086 37.3859L55.3388 38.8389L56.8744 38.2725L58.3278 39.0113L57.7612 37.4844L58.5085 36.0313L56.9729 36.5896L55.5194 35.8507Z" fill="var(--fill-0, white)"/>
<path id="Vector_182" d="M62.4741 35.662L63.0325 37.1972L62.2935 38.6502L63.8209 38.0837L65.2743 38.8308L64.7159 37.2957L65.455 35.8426L63.9276 36.4091L62.4741 35.662Z" fill="var(--fill-0, white)"/>
<path id="Vector_183" d="M64.5438 27.672L65.1022 29.199L64.3631 30.652L65.8987 30.0938L67.3522 30.8326L66.7856 29.3057L67.5328 27.8526L65.9973 28.4109L64.5438 27.672Z" fill="var(--fill-0, white)"/>
</g>
</svg>
