<svg preserveAspectRatio="none" width="100%" height="100%" overflow="visible" style="display: block;" viewBox="0 0 58.8816 39.6209" fill="none" xmlns="http://www.w3.org/2000/svg">
<g id="Out">
<path id="Vector" d="M46.2872 39.3433C45.0845 39.1378 44.1846 38.6238 43.5673 37.7923C42.9499 36.9608 42.7638 35.8252 43.0088 34.3855C43.1986 33.2734 43.6444 31.9139 44.3371 30.3271C45.0397 28.7399 45.8691 27.1178 46.8154 25.4611C46.634 25.3702 46.4135 25.2908 46.1631 25.2028C45.9127 25.1148 45.6713 25.0067 45.4476 24.8486L45.6607 23.5877C46.0905 23.7174 46.4402 23.8209 46.7193 23.888C46.9989 23.9649 47.2883 24.0414 47.5875 24.1174C48.399 22.7721 49.2524 21.4841 50.1473 20.2436C51.0425 19.013 51.9141 17.9214 52.752 16.9692C53.5999 16.0166 54.3686 15.2941 55.0771 14.7811C55.7758 14.2685 56.3589 14.0566 56.826 14.1354C57.0945 14.1832 57.3375 14.3307 57.5548 14.5679C57.7626 14.8154 57.835 15.1278 57.772 15.5051C57.6767 16.0513 57.2732 16.7781 56.5419 17.6863C55.8106 18.5946 54.928 19.6571 53.8837 20.8644C52.8395 22.0718 51.8092 23.3771 50.7925 24.7706C51.0113 24.8106 51.2297 24.8408 51.4484 24.8808C51.6672 24.9209 51.8659 24.9519 52.0646 24.9829C53.257 25.179 54.3496 25.3497 55.3216 25.4663C56.2939 25.5928 57.2942 25.6786 58.3232 25.7436L58.0941 27.0939C56.5697 26.9809 55.1828 26.8522 53.9145 26.7284C52.6458 26.5947 51.4362 26.4586 50.2943 26.29C50.2147 26.2736 50.135 26.2573 50.046 26.2512C49.9663 26.2348 49.8871 26.2283 49.7976 26.2124C49.0013 27.4487 48.2759 28.7313 47.6118 30.0606C46.9575 31.3894 46.5105 32.7194 46.2904 34.0496C46.1006 35.1617 46.1454 35.9878 46.4239 36.5084C46.7025 37.0289 47.2194 37.3521 47.9849 37.4873C49.3464 37.7156 50.85 37.3366 52.485 36.331C54.1204 35.3353 55.6468 33.8611 57.0646 31.9184L57.5693 32.4195C56.5863 33.9101 55.467 35.2094 54.2023 36.3373C52.9376 37.4652 51.621 38.2996 50.2726 38.8495C48.9242 39.3994 47.5888 39.5544 46.2868 39.3334L46.2872 39.3433Z" fill="var(--fill-0, #F1F2F2)"/>
<path id="Vector_2" d="M26.9041 33.883C26.0051 33.6253 25.3768 33.0012 25.0487 32.0096C24.7104 31.0086 24.6963 29.9741 25.0051 28.8767C25.2107 28.1386 25.5796 27.295 26.102 26.3463C26.6248 25.4074 27.2083 24.5054 27.8633 23.6595C28.5183 22.8137 29.1405 22.1269 29.7304 21.6091C30.3203 21.0913 30.7848 20.8745 31.1341 20.9681C31.3238 21.0193 31.5779 21.1958 31.9068 21.5072C32.2358 21.8186 32.5064 22.1522 32.7196 22.5276C32.3098 22.8703 31.7708 23.4253 31.1121 24.1827C30.4534 24.94 29.8279 25.7846 29.2255 26.7071C28.6231 27.6296 28.2058 28.495 27.9744 29.323C27.9494 29.4325 27.8913 29.6912 27.8197 30.0984C27.7481 30.5056 27.7454 30.9099 27.8015 31.3018C27.8674 31.6933 28.0949 31.94 28.4943 32.0513C28.9438 32.1801 29.5015 32.0679 30.158 31.7247C30.8145 31.3815 31.5238 30.8882 32.2869 30.2644C33.0495 29.6309 33.8195 28.9379 34.5968 28.1854C35.3643 27.4334 36.0826 26.6834 36.7323 25.9462C37.382 25.209 37.9283 24.5944 38.3508 24.0837C38.5815 24.1725 38.8742 24.3277 39.2289 24.5493C39.5832 24.7611 39.8793 24.995 40.1269 25.2507C40.3746 25.5064 40.4457 25.7892 40.3605 26.1083C40.3343 26.1882 40.1194 26.4733 39.7064 26.9738C39.2934 27.4743 38.8057 28.0765 38.2532 28.78C37.7008 29.4836 37.1791 30.2154 36.6887 30.9853C36.1983 31.7552 35.8625 32.4496 35.6921 33.0877C35.5893 33.4567 35.5645 33.8028 35.6373 34.125C35.7003 34.4477 35.9561 34.6636 36.3756 34.7839C36.9347 34.9377 37.6722 34.8769 38.5775 34.5823C39.493 34.2972 40.488 33.7918 41.5822 33.0654C42.6764 32.339 43.7224 31.4076 44.7392 30.2507L45.2005 30.8916C44.2084 32.1658 43.0894 33.2383 41.8438 34.119C40.5884 35.0001 39.3414 35.6147 38.0935 35.973C36.8452 36.3215 35.7219 36.3591 34.7133 36.0765C33.9444 35.8625 33.4168 35.5201 33.1305 35.0492C32.8442 34.5783 32.713 34.0416 32.7467 33.4389C32.7701 32.8267 32.8535 32.2317 32.9965 31.6441C33.0304 31.5145 33.0739 31.3747 33.1169 31.225C33.1599 31.0753 33.1943 30.9556 33.2193 30.8461C32.5633 31.4357 31.8766 31.997 31.1586 32.5202C30.4407 33.0435 29.7177 33.4486 28.9898 33.7357C28.2619 34.0228 27.5732 34.0716 26.9041 33.883Z" fill="var(--fill-0, #F1F2F2)"/>
<path id="Vector_3" d="M5.59534 27.7071C4.14615 27.0389 2.9886 26.0331 2.14361 24.7183C1.29821 23.3937 0.849166 21.8749 0.796077 20.152C0.742987 18.4292 1.16839 16.5875 2.08255 14.6365C2.97785 12.706 4.17447 10.9008 5.69211 9.21995C7.19948 7.52972 8.90274 6.03821 10.7818 4.73644C12.6608 3.43466 14.6303 2.4051 16.6898 1.63786C18.7493 0.870631 20.7643 0.450294 22.7248 0.377278C24.6948 0.294006 26.5157 0.650777 28.1964 1.42749C28.4481 1.545 28.793 1.76701 29.2311 2.0935C29.6692 2.42 30.0171 2.94745 30.2548 3.66687C30.1127 3.5743 29.9505 3.47273 29.7785 3.37157C29.5966 3.27082 29.4053 3.18034 29.2037 3.08042C27.9052 2.47485 26.3968 2.27245 24.6883 2.47281C22.9798 2.67318 21.2152 3.1815 19.3749 3.99861C17.5346 4.81572 15.7441 5.87717 13.9935 7.18337C12.2429 8.48957 10.6665 9.94614 9.24527 11.5736C7.82363 13.1912 6.70165 14.8947 5.87892 16.6743C5.27262 17.9716 4.88345 19.2695 4.71097 20.5583C4.53849 21.847 4.67663 23.0143 5.13526 24.0595C5.59388 25.1048 6.45747 25.9259 7.73546 26.5126C9.11445 27.1542 10.5925 27.3382 12.1795 27.0641C13.7669 26.7998 15.3692 26.1899 16.9874 25.254C18.6057 24.3182 20.165 23.1581 21.6652 21.7639C23.1658 20.3795 24.5226 18.8632 25.7361 17.2248C26.9497 15.5864 27.9457 13.9376 28.7147 12.2884C29.0492 11.5645 29.3607 10.7627 29.6586 9.87283C29.947 8.99316 30.1103 8.18779 30.1494 7.47639C30.1884 6.76499 29.9817 6.31043 29.5383 6.09258C29.1154 5.89359 28.5257 5.94809 27.7789 6.25567C27.0321 6.56325 26.2225 7.02135 25.3597 7.6197C24.4974 8.2279 23.6773 8.90329 22.8897 9.64633C22.1021 10.3894 21.4606 11.0868 20.9754 11.7481C20.2014 11.1795 19.7238 10.6181 19.533 10.0741C19.3423 9.53013 19.3691 8.99669 19.6134 8.47377C19.9303 7.79991 20.5148 7.15418 21.3776 6.55582C22.24 5.94763 23.2251 5.44266 24.3425 5.0307C25.4598 4.61874 26.5543 4.36547 27.6251 4.25121C28.6958 4.13694 29.5984 4.24664 30.3234 4.59059C31.0784 4.94312 31.5552 5.48487 31.7748 6.24449C31.9841 6.99468 32.0207 7.8606 31.8838 8.82258C31.737 9.78497 31.4929 10.781 31.1508 11.7911C30.7988 12.8016 30.4426 13.7137 30.0536 14.5483C28.8689 17.1023 27.4714 19.2906 25.8709 21.1129C24.2606 22.9356 22.547 24.4177 20.7299 25.5493C18.9127 26.6809 17.0827 27.5074 15.2496 28.0285C13.4165 28.5496 11.6694 28.7713 10.0088 28.7034C8.34819 28.6356 6.88359 28.3032 5.6056 27.7165L5.59534 27.7071Z" fill="var(--fill-0, #F1F2F2)"/>
</g>
</svg>
