<svg width="279" height="280" viewBox="0 0 279 280" fill="none" xmlns="http://www.w3.org/2000/svg">
<path d="M21.1664 170.208L21.9748 172.533L14.9849 174.946L18.9186 186.321L16.5919 187.129L12.6582 175.753L5.66829 178.166L4.85986 175.842L21.1664 170.218V170.208ZM26.3127 185.08L27.1211 187.405L10.8146 193.028L10.0062 190.704L26.3127 185.08Z" fill="white"/>
<path d="M17.3922 147.596L17.7569 150.029L12.8867 150.758L14.9373 164.369L12.5022 164.733L10.4515 151.122L3.13628 152.225L4.4475 160.971C4.6151 162.074 5.03903 163.049 5.71929 163.896C6.39955 164.743 7.24741 165.363 8.25301 165.767C9.25861 166.171 10.3234 166.289 11.4473 166.122L19.9752 164.842L20.3399 167.274L11.8121 168.555C10.6389 168.732 9.50508 168.673 8.41075 168.397C7.31642 168.111 6.31082 167.639 5.40381 166.979C4.4968 166.319 3.74753 165.501 3.156 164.536C2.56446 163.571 2.17997 162.507 2.00251 161.335L0.31665 150.157L17.3823 147.596H17.3922Z" fill="white"/>
<path d="M3.05624 124.904L14.8967 141.096L15.3699 125.268L17.8346 125.337L17.2431 145.252L14.7784 145.183L2.93793 128.893L2.46471 144.818L0 144.749L0.59153 124.835L3.05624 124.904Z" fill="white"/>
<path d="M17.3124 103.177C18.1997 103.365 18.949 103.808 19.5602 104.497C20.1715 105.187 20.6053 106.043 20.8419 107.048C21.0785 108.053 21.0883 109.116 20.8419 110.219L17.9927 123.683L15.5773 123.171L18.4265 109.707C18.5645 109.047 18.5842 108.427 18.4856 107.836C18.387 107.245 18.18 106.743 17.8842 106.339C17.5885 105.935 17.2138 105.679 16.78 105.59L15.5773 105.334L13.2309 116.395C12.9942 117.498 12.5112 118.453 11.7717 119.241C11.0323 120.029 10.1549 120.61 9.12958 120.964C8.10426 121.319 7.03951 121.378 5.92546 121.142L1.10449 120.117L1.61715 117.704L6.43812 118.729C7.09866 118.867 7.73949 118.837 8.36059 118.63C8.9817 118.423 9.51408 118.079 9.95772 117.596C10.4014 117.114 10.6873 116.542 10.8253 115.882L13.1717 104.822L4.73254 103.04L5.2452 100.627L17.3026 103.177H17.3124Z" fill="white"/>
<path d="M30.2869 73.5825C31.0953 73.9863 31.7362 74.5477 32.2094 75.2765C32.6826 76.0053 32.9488 76.8031 33.0178 77.6599C33.0868 78.5168 32.9192 79.3638 32.5052 80.1812L25.8307 93.5855L23.6224 92.4923L30.2968 79.088C30.6024 78.4675 30.6517 77.8372 30.425 77.197C30.1982 76.5568 29.794 76.0841 29.1827 75.7886C28.5813 75.4932 27.9504 75.4439 27.3096 75.6507C26.6589 75.8576 26.1856 76.2712 25.88 76.8917L21.4041 85.8837C20.9999 86.6913 20.4379 87.3315 19.7084 87.8042C18.9788 88.277 18.1803 88.5429 17.3127 88.6118C16.4451 88.6808 15.6071 88.5035 14.7987 88.1095C13.9903 87.7057 13.3494 87.1443 12.8762 86.4155C12.403 85.6867 12.1368 84.8889 12.0678 84.0223C11.9988 83.1556 12.1762 82.3184 12.5706 81.5108L18.6929 69.2096L20.9013 70.3028L14.779 82.604C14.4832 83.2048 14.4339 83.8351 14.6607 84.4851C14.8776 85.1352 15.2916 85.6079 15.893 85.9132C16.4944 86.2087 17.1254 86.2579 17.7761 86.0314C18.4267 85.8147 18.9 85.4011 19.2056 84.8003L23.6815 75.8083C24.0956 74.981 24.6575 74.3408 25.3871 73.878C26.1166 73.4151 26.9152 73.1491 27.7729 73.09C28.6405 73.0309 29.4785 73.1984 30.2869 73.5923V73.5825Z" fill="white"/>
<path d="M38.8242 51.4324C39.7312 52.1021 40.4016 52.9393 40.8157 53.934C41.2298 54.9287 41.3875 55.9629 41.2791 57.0561C41.1706 58.1493 40.7763 59.1342 40.1059 60.0501L34.2103 68.008L32.2484 66.5602L38.1439 58.6023C38.558 58.0508 38.7946 57.45 38.8538 56.8C38.9129 56.15 38.8143 55.5295 38.558 54.9287C38.3017 54.3279 37.8975 53.8257 37.3552 53.4219C36.8031 53.0082 36.2018 52.7718 35.5609 52.7029C34.9201 52.6339 34.299 52.7226 33.6976 52.9787C33.1061 53.2347 32.5934 53.6385 32.1892 54.1901L25.4655 63.251L37.3454 72.046L35.8764 74.0256L22.0149 63.7631L30.1977 52.7226C30.8681 51.8165 31.7061 51.1468 32.7117 50.7233C33.7075 50.2998 34.7525 50.1422 35.8271 50.2604C36.9017 50.3786 37.9073 50.7725 38.8143 51.4422L38.8242 51.4324Z" fill="white"/>
<path d="M62.5936 43.9371L60.8092 45.6311L57.4178 42.056L47.4209 51.5306L45.7252 49.748L55.722 40.2734L50.6349 34.9156L44.2168 41.0022C43.4083 41.7704 42.8464 42.6765 42.5506 43.7205C42.2549 44.7644 42.2253 45.8183 42.4718 46.8721C42.7182 47.9259 43.2309 48.8714 44.0097 49.6889L49.9448 55.9429L48.1603 57.6369L42.2253 51.3829C41.407 50.526 40.8056 49.5707 40.4113 48.507C40.0169 47.4433 39.8296 46.36 39.8493 45.2372C39.869 44.1144 40.1056 43.0409 40.5591 41.9969C41.0127 40.9529 41.6633 40.0272 42.5211 39.2195L50.7236 31.439L62.6035 43.9371H62.5936Z" fill="white"/>
<path d="M80.3983 31.9905L71.1211 38.1066C70.1155 38.7665 69.0902 39.1801 68.0353 39.3377C66.9804 39.5051 65.9452 39.446 64.9298 39.1703C63.9143 38.8945 62.958 38.4316 62.0707 37.7619C61.1834 37.102 60.4046 36.2649 59.744 35.2701C59.0933 34.2853 58.6398 33.2511 58.3835 32.1776C58.1272 31.1041 58.068 30.0404 58.2159 28.9866C58.3638 27.9426 58.7187 26.9577 59.2807 26.0615C59.8426 25.1554 60.6313 24.3773 61.6271 23.7174L70.9042 17.6013L72.2648 19.6597L62.9876 25.7759C62.0411 26.3963 61.3806 27.1645 61.006 28.0706C60.6313 28.9767 60.513 29.9419 60.6609 30.9662C60.8088 31.9905 61.1933 32.9754 61.8144 33.9208C62.4355 34.8663 63.1946 35.605 64.0721 36.1368C64.9495 36.6687 65.8861 36.9444 66.872 36.9641C67.8579 36.9838 68.824 36.6785 69.7705 36.058L79.0476 29.9419L80.4081 32.0003L80.3983 31.9905Z" fill="white"/>
<path d="M98.7471 23.7861L82.4307 31.0053L75.4507 15.2472L91.7671 8.02795L92.7628 10.2833L78.7041 16.5078L83.6927 27.765L97.7514 21.5406L98.7471 23.7959V23.7861ZM93.8374 17.8768L82.8152 22.752L81.8195 20.4966L92.8417 15.6214L93.8374 17.8768Z" fill="white"/>
<path d="M129.101 17.2263L125.818 17.7877L119.893 13.799L112.43 15.0695L112.016 12.6663L121.786 11.0019C122.466 10.8837 123.058 10.6178 123.551 10.1943C124.043 9.77078 124.408 9.24879 124.635 8.63816C124.862 8.02753 124.921 7.38736 124.812 6.72749C124.694 6.04792 124.428 5.45698 124.014 4.96454C123.6 4.4721 123.087 4.10769 122.476 3.88117C121.875 3.65465 121.224 3.59555 120.544 3.71374L109.413 5.60472L111.897 20.1712L109.472 20.5848L106.574 3.59555L120.13 1.29093C121.244 1.1038 122.318 1.20229 123.334 1.58639C124.349 1.9705 125.207 2.58112 125.907 3.40843C126.607 4.23573 127.05 5.21076 127.238 6.32368C127.405 7.32826 127.346 8.29345 127.041 9.22909C126.745 10.1647 126.252 10.9723 125.581 11.6618C124.911 12.3512 124.103 12.8633 123.156 13.1883L129.101 17.246V17.2263Z" fill="white"/>
<path d="M151.067 17.414L148.603 17.3746L148.682 12.4502L134.909 12.2237L134.948 9.76149L148.721 9.98801L148.839 2.60138L139.996 2.45365C138.882 2.43395 137.847 2.69002 136.9 3.23171C135.954 3.76354 135.195 4.49236 134.633 5.428C134.071 6.35379 133.775 7.38792 133.755 8.52053L133.617 17.1383L131.153 17.0989L131.291 8.48114C131.31 7.29928 131.547 6.19621 132.01 5.15223C132.474 4.1181 133.105 3.21201 133.903 2.4241C134.702 1.64604 135.628 1.03541 136.683 0.611914C137.738 0.188413 138.852 -0.0184122 140.035 0.00128544L151.343 0.188413L151.067 17.4239V17.414Z" fill="white"/>
<path d="M156.835 18.2807L154.419 17.7882L157.85 0.897461L159.063 1.14368C160.236 1.38005 161.468 1.86265 162.75 2.59146C164.032 3.32028 165.284 4.23622 166.506 5.33929C167.729 6.44236 168.833 7.68331 169.839 9.072C170.844 10.4607 171.643 11.9282 172.244 13.4941L174.137 4.20667L176.552 4.69911L173.122 21.5899L170.706 21.0974C171.012 19.6201 170.992 18.1329 170.667 16.6556C170.341 15.1783 169.789 13.76 169.03 12.4009C168.271 11.0418 167.364 9.80081 166.329 8.65835C165.294 7.51588 164.209 6.54085 163.065 5.71354C161.922 4.88624 160.828 4.28546 159.763 3.90136L156.845 18.2807H156.835Z" fill="white"/>
<path d="M193.085 29.2719L182.763 25.165C181.649 24.7218 180.722 24.1112 179.983 23.3429C179.244 22.5747 178.701 21.6883 178.347 20.7035C177.992 19.7087 177.824 18.6647 177.863 17.5518C177.903 16.4488 178.139 15.3358 178.583 14.2229C179.017 13.1297 179.608 12.1645 180.348 11.3372C181.087 10.5099 181.925 9.85003 182.872 9.36744C183.818 8.88485 184.824 8.61893 185.889 8.56968C186.953 8.52044 188.048 8.70757 189.162 9.15077L199.484 13.2577L198.577 15.5427L188.255 11.4357C187.2 11.0122 186.194 10.9137 185.238 11.1205C184.282 11.3274 183.424 11.7903 182.665 12.4895C181.906 13.1986 181.314 14.0752 180.9 15.129C180.476 16.1828 180.308 17.217 180.377 18.2412C180.446 19.2655 180.752 20.1913 181.304 21.0088C181.856 21.8262 182.655 22.4467 183.71 22.8702L191.745 26.0711L193.569 21.4914L183.858 17.6306L184.765 15.3457L196.763 20.1224L193.115 29.2719H193.085Z" fill="white"/>
<path d="M210.91 39.9477L195.678 30.6602L204.67 15.946L219.902 25.2335L218.62 27.3313L205.498 19.3242L199.08 29.8329L212.202 37.84L210.92 39.9378L210.91 39.9477ZM212.971 32.5512L202.688 26.2775L203.97 24.1797L214.253 30.4534L212.971 32.5512Z" fill="white"/>
<path d="M227.73 54.4654L225.235 52.2691L224.604 45.1583L218.926 40.1649L220.533 38.333L227.966 44.8727C228.489 45.3257 229.061 45.6113 229.701 45.7295C230.342 45.8477 230.973 45.7985 231.594 45.5916C232.215 45.3848 232.748 45.0302 233.191 44.5181C233.645 43.9961 233.941 43.4249 234.059 42.7847C234.177 42.1445 234.138 41.5241 233.941 40.9036C233.743 40.2831 233.379 39.7513 232.856 39.2982L224.378 31.8525L214.607 42.9423L212.754 41.3172L224.151 28.3759L234.473 37.4565C235.321 38.205 235.922 39.0914 236.257 40.1255C236.593 41.1597 236.662 42.2036 236.455 43.2673C236.248 44.331 235.774 45.2863 235.025 46.1432C234.355 46.9114 233.556 47.4629 232.639 47.8175C231.722 48.172 230.786 48.3001 229.83 48.2114C228.873 48.1228 227.966 47.8175 227.118 47.2856L227.7 54.4556L227.73 54.4654Z" fill="white"/>
<path d="M249.882 75.9656C249.133 76.4778 248.324 76.7536 247.457 76.8127C246.589 76.8717 245.761 76.7142 244.982 76.3596C244.203 76.005 243.543 75.4437 243.03 74.6853L234.571 62.325L236.602 60.9363L245.061 73.2966C245.455 73.8678 245.978 74.2126 246.648 74.3307C247.319 74.4489 247.93 74.3209 248.482 73.9368C249.034 73.5527 249.379 73.0307 249.517 72.3708C249.645 71.7011 249.517 71.0905 249.133 70.5192L243.454 62.2265C242.941 61.478 242.665 60.6803 242.606 59.8136C242.547 58.9469 242.705 58.1196 243.069 57.3316C243.434 56.5437 243.996 55.8937 244.736 55.3816C245.485 54.8694 246.283 54.5937 247.161 54.5346C248.028 54.4755 248.857 54.6331 249.645 54.9975C250.434 55.3619 251.085 55.9233 251.597 56.6619L259.356 68.0078L257.325 69.3965L249.566 58.0506C249.182 57.4991 248.659 57.1544 247.989 57.0263C247.319 56.8983 246.698 57.0263 246.145 57.4104C245.593 57.7945 245.248 58.3165 245.12 58.9862C244.992 59.656 245.12 60.2764 245.505 60.828L251.183 69.1207C251.706 69.8791 251.992 70.6867 252.041 71.5534C252.09 72.4201 251.933 73.2375 251.568 74.0254C251.203 74.8133 250.641 75.4634 249.902 75.9755L249.882 75.9656Z" fill="white"/>
<path d="M250.128 88.0501L249.073 85.8242L262.442 79.5013L258.705 71.6222L260.933 70.5684L269.461 88.5425L267.233 89.5963L263.496 81.7172L250.138 88.0402L250.128 88.0501Z" fill="white"/>
<path d="M275.948 110.564L267.637 112.869C266.484 113.194 265.34 113.282 264.216 113.135C263.092 112.987 262.047 112.642 261.071 112.101C260.095 111.559 259.257 110.84 258.547 109.953C257.838 109.067 257.325 108.063 257 106.92L256.507 105.167C256.191 104.024 256.102 102.902 256.241 101.779C256.388 100.656 256.733 99.6024 257.286 98.6372C257.838 97.6621 258.557 96.825 259.445 96.1159C260.332 95.4068 261.338 94.8946 262.481 94.5795L270.782 92.2551L271.453 94.6287L263.152 96.953C262.057 97.2583 261.14 97.8 260.401 98.5781C259.652 99.3561 259.139 100.272 258.853 101.326C258.567 102.38 258.577 103.443 258.883 104.517L259.376 106.27C259.681 107.363 260.233 108.279 261.022 109.018C261.811 109.757 262.728 110.269 263.773 110.544C264.818 110.82 265.882 110.81 266.977 110.505L275.278 108.181L275.948 110.574V110.564Z" fill="white"/>
<path d="M270.32 136.398C269.127 136.516 267.993 136.438 266.919 136.172C265.844 135.896 264.878 135.453 264.02 134.842C263.162 134.231 262.472 133.453 261.93 132.528C261.388 131.602 261.062 130.548 260.944 129.376L260.077 120.729L262.531 120.482L263.399 129.13C263.517 130.253 263.892 131.198 264.523 131.956C265.164 132.715 265.962 133.266 266.928 133.611C267.895 133.946 268.94 134.064 270.073 133.946C271.207 133.828 272.213 133.512 273.1 132.981C273.987 132.449 274.668 131.759 275.131 130.883C275.594 130.006 275.772 129.012 275.663 127.889L274.668 118.02L259.958 119.498L259.712 117.045L276.876 115.322L278.118 127.643C278.237 128.815 278.118 129.918 277.783 130.932C277.438 131.947 276.906 132.843 276.186 133.621C275.466 134.399 274.599 135.019 273.603 135.502C272.597 135.985 271.513 136.28 270.34 136.398H270.32Z" fill="white"/>
<path d="M261.25 142.337L261.289 139.875L278.542 140.16L278.503 142.623L261.25 142.337Z" fill="white"/>
<path d="M267.243 167.53C266.05 167.372 264.965 167.028 263.989 166.515C263.003 166.003 262.175 165.343 261.485 164.546C260.795 163.748 260.302 162.842 259.996 161.818C259.691 160.793 259.612 159.7 259.77 158.528L260.548 152.845C260.716 151.654 261.081 150.619 261.653 149.713C262.224 148.817 262.944 148.069 263.822 147.488C264.699 146.906 265.675 146.493 266.759 146.266C267.844 146.03 268.978 146 270.171 146.158C271.344 146.315 272.418 146.65 273.404 147.172C274.39 147.684 275.228 148.344 275.918 149.142C276.608 149.94 277.111 150.846 277.427 151.87C277.742 152.895 277.811 153.998 277.644 155.179L276.865 160.862C276.707 162.034 276.342 163.068 275.77 163.965C275.199 164.861 274.469 165.609 273.592 166.19C272.704 166.772 271.718 167.185 270.634 167.412C269.55 167.638 268.416 167.678 267.252 167.52L267.243 167.53ZM267.578 165.087C268.702 165.245 269.757 165.166 270.742 164.861C271.728 164.556 272.547 164.043 273.207 163.305C273.858 162.576 274.272 161.65 274.42 160.527L275.199 154.845C275.356 153.722 275.208 152.717 274.775 151.841C274.341 150.964 273.69 150.235 272.823 149.674C271.955 149.113 270.959 148.748 269.835 148.591C268.712 148.433 267.657 148.522 266.681 148.827C265.705 149.142 264.876 149.664 264.216 150.393C263.555 151.122 263.141 152.048 262.993 153.17L262.215 158.853C262.057 159.976 262.215 160.98 262.648 161.857C263.092 162.734 263.743 163.452 264.6 164.014C265.458 164.565 266.454 164.93 267.578 165.078V165.087Z" fill="white"/>
<path d="M256.724 188.252C255.867 187.966 255.147 187.503 254.575 186.843C254.003 186.193 253.619 185.445 253.431 184.598C253.244 183.751 253.293 182.904 253.579 182.027L258.262 167.805L260.599 168.574L255.916 182.795C255.699 183.455 255.748 184.076 256.064 184.686C256.379 185.287 256.852 185.701 257.493 185.908C258.134 186.114 258.755 186.075 259.366 185.77C259.978 185.464 260.392 184.992 260.599 184.332L263.744 174.788C264.03 173.931 264.493 173.212 265.154 172.641C265.804 172.07 266.563 171.696 267.411 171.499C268.259 171.312 269.117 171.361 269.975 171.637C270.832 171.922 271.552 172.385 272.124 173.045C272.696 173.695 273.07 174.453 273.267 175.3C273.455 176.147 273.405 177.004 273.129 177.861L268.831 190.911L266.484 190.143L270.783 177.093C270.99 176.453 270.941 175.832 270.635 175.222C270.329 174.611 269.846 174.197 269.215 173.99C268.575 173.784 267.953 173.833 267.342 174.138C266.731 174.444 266.317 174.916 266.11 175.556L262.965 185.1C262.679 185.977 262.206 186.695 261.555 187.257C260.904 187.818 260.155 188.193 259.307 188.38C258.459 188.567 257.602 188.518 256.744 188.242L256.724 188.252Z" fill="white"/>
<path d="M207.271 262.613C205.691 263.398 204.256 263.586 202.986 263.158C201.705 262.73 200.752 261.877 200.105 260.598C199.562 259.51 199.262 258.221 199.203 256.722C199.144 255.223 199.323 253.701 199.719 252.164C200.126 250.618 200.725 249.235 201.527 248.006C202.329 246.776 203.3 245.876 204.439 245.305C205.079 244.987 205.773 244.848 206.522 244.888C207.27 244.928 207.888 245.447 208.384 246.435C208.852 247.374 209.022 248.383 208.884 249.473C208.747 250.553 208.382 251.647 207.791 252.745C207.199 253.842 206.452 254.867 205.559 255.828C204.665 256.779 203.687 257.601 202.643 258.282C202.669 258.391 202.706 258.51 202.742 258.62C202.779 258.729 202.872 258.919 202.994 259.168C203.06 259.288 203.182 259.498 203.372 259.789C203.561 260.08 203.83 260.353 204.178 260.609C204.526 260.864 204.956 261.024 205.478 261.067C205.999 261.121 206.605 260.969 207.294 260.623C208.334 260.109 209.233 259.296 209.993 258.193C210.752 257.09 211.358 255.825 211.8 254.399C212.243 252.972 212.479 251.52 212.509 250.023L213.548 250.248C213.618 252.063 213.414 253.782 212.917 255.414C212.42 257.046 211.691 258.494 210.73 259.74C209.77 260.995 208.62 261.949 207.29 262.613L207.271 262.613ZM202.36 256.688C202.962 256.29 203.569 255.716 204.172 254.953C204.774 254.191 205.3 253.338 205.748 252.414C206.198 251.48 206.478 250.562 206.611 249.649C206.744 248.736 206.637 247.935 206.291 247.246C206.15 246.977 206.017 246.815 205.87 246.762C205.723 246.709 205.535 246.743 205.315 246.856C204.746 247.136 204.259 247.635 203.845 248.353C203.431 249.071 203.094 249.9 202.832 250.848C202.57 251.797 202.395 252.788 202.318 253.81C202.242 254.833 202.265 255.799 202.369 256.698L202.36 256.688Z" fill="#F1F2F2"/>
<path d="M195.211 266.98C194.254 267.349 193.386 267.385 192.604 267.108C191.822 266.83 191.266 266.264 190.943 265.418C190.666 264.701 190.551 263.851 190.596 262.896C190.642 261.932 190.697 260.987 190.771 260.044C190.836 259.1 190.758 258.319 190.518 257.702C190.288 257.105 189.904 256.69 189.369 256.43C188.833 256.179 188.255 256.026 187.636 255.96C187.612 257.595 187.49 259.207 187.289 260.808C187.088 262.408 186.907 263.664 186.754 264.577L185.743 263.673C185.843 262.868 185.963 261.728 186.081 260.263C186.199 258.798 186.241 257.203 186.209 255.478C185.848 255.321 185.59 255.018 185.424 254.58C185.166 253.913 185.135 253.203 185.323 252.45C185.511 251.696 185.799 251.25 186.187 251.103C186.496 250.983 186.79 251.07 187.068 251.363C187.346 251.656 187.508 251.868 187.554 251.997C187.6 252.126 187.633 252.383 187.642 252.758C187.652 253.133 187.664 253.409 187.669 253.586C187.8 253.866 188.13 254.052 188.66 254.164C189.189 254.277 189.798 254.402 190.474 254.558C191.15 254.714 191.804 254.978 192.425 255.369C193.046 255.75 193.513 256.353 193.826 257.179C194.112 257.926 194.238 258.747 194.194 259.652C194.15 260.558 194.098 261.404 194.017 262.199C193.937 262.995 193.989 263.637 194.183 264.135C194.321 264.493 194.513 264.695 194.748 264.741C194.984 264.787 195.231 264.754 195.49 264.653C196.108 264.413 196.682 263.985 197.211 263.359C197.741 262.732 198.214 261.996 198.631 261.16C199.048 260.324 199.376 259.486 199.616 258.635C199.855 257.794 200.003 257.049 200.05 256.41L201.244 256.757C201.18 258.056 200.887 259.408 200.366 260.832C199.844 262.257 199.15 263.529 198.272 264.638C197.394 265.758 196.377 266.529 195.221 266.971L195.211 266.98Z" fill="#F1F2F2"/>
<path d="M178.678 273.011C176.97 273.468 175.533 273.37 174.367 272.699C173.202 272.027 172.43 271.002 172.053 269.622C171.739 268.451 171.695 267.13 171.942 265.649C172.189 264.168 172.652 262.712 173.351 261.282C174.05 259.853 174.912 258.605 175.946 257.559C176.98 256.512 178.103 255.813 179.334 255.491C180.03 255.303 180.74 255.302 181.455 255.499C182.179 255.686 182.685 256.32 182.972 257.382C183.241 258.394 183.204 259.418 182.861 260.453C182.517 261.488 181.938 262.487 181.144 263.441C180.349 264.405 179.409 265.257 178.343 266.017C177.277 266.777 176.166 267.387 175 267.839C174.997 267.957 175.014 268.066 175.03 268.194C175.047 268.313 175.091 268.511 175.162 268.779C175.198 268.908 175.281 269.137 175.41 269.466C175.54 269.784 175.748 270.115 176.035 270.428C176.323 270.751 176.721 270.988 177.21 271.139C177.709 271.291 178.331 271.268 179.076 271.061C180.198 270.756 181.24 270.144 182.202 269.214C183.164 268.284 184.003 267.163 184.728 265.853C185.444 264.542 185.964 263.157 186.289 261.707L187.264 262.127C186.979 263.923 186.432 265.563 185.623 267.069C184.813 268.574 183.813 269.838 182.621 270.88C181.43 271.912 180.109 272.626 178.678 273.021L178.678 273.011ZM175.043 266.234C175.711 265.966 176.423 265.522 177.17 264.892C177.916 264.262 178.597 263.531 179.22 262.71C179.844 261.889 180.301 261.035 180.61 260.166C180.919 259.297 180.97 258.491 180.773 257.747C180.692 257.459 180.589 257.269 180.453 257.186C180.317 257.114 180.13 257.099 179.891 257.171C179.275 257.342 178.702 257.731 178.153 258.347C177.604 258.962 177.111 259.718 176.663 260.593C176.216 261.467 175.855 262.403 175.583 263.391C175.31 264.379 175.136 265.33 175.063 266.235L175.043 266.234Z" fill="#F1F2F2"/>
<path d="M154.504 277.093C153.901 277.176 153.408 276.778 153.008 275.891C152.617 275.004 152.33 273.942 152.156 272.715C151.972 271.459 151.965 269.912 152.132 268.084C152.299 266.246 152.598 264.293 153.048 262.227C153.488 260.16 154.016 258.115 154.632 256.101C155.248 254.088 155.918 252.244 156.634 250.569C157.349 248.893 158.076 247.523 158.805 246.469C159.533 245.415 160.219 244.842 160.882 244.751C161.457 244.668 161.943 244.917 162.332 245.499C162.721 246.081 162.97 246.718 163.07 247.401C163.178 248.143 163.134 249.068 162.956 250.196C162.768 251.324 162.469 252.547 162.039 253.856C161.619 255.175 161.081 256.481 160.455 257.784C159.818 259.087 159.105 260.3 158.306 261.421C157.507 262.543 156.644 263.476 155.717 264.219C155.493 265.198 155.341 266.101 155.249 266.936C155.158 267.771 155.127 268.548 155.148 269.268C155.168 269.988 155.228 270.689 155.328 271.371C155.344 271.51 155.38 271.649 155.415 271.797C155.451 271.946 155.477 272.085 155.502 272.223C155.586 272.048 155.707 271.598 155.854 270.873C156.002 270.158 156.222 269.307 156.514 268.329C156.806 267.352 157.197 266.377 157.697 265.395C158.197 264.414 158.831 263.573 159.589 262.865C160.348 262.156 161.277 261.718 162.375 261.57C163.306 261.437 164.063 261.546 164.635 261.896C165.217 262.247 165.659 262.712 165.969 263.291C166.279 263.871 166.479 264.477 166.561 265.11C166.686 265.981 166.663 266.827 166.494 267.631C166.314 268.434 166.136 269.197 165.94 269.902C165.753 270.616 165.696 271.264 165.789 271.868C165.854 272.362 166.013 272.682 166.265 272.846C166.508 273.01 166.782 273.067 167.089 273.016C167.693 272.934 168.355 272.528 169.074 271.808C169.794 271.088 170.489 270.181 171.15 269.065C171.811 267.95 172.346 266.753 172.745 265.473L173.498 266.074C173.065 267.53 172.505 268.895 171.831 270.158C171.156 271.42 170.349 272.473 169.439 273.305C168.529 274.138 167.48 274.632 166.312 274.798C165.272 274.948 164.438 274.788 163.82 274.318C163.201 273.848 162.824 273.207 162.708 272.387C162.624 271.813 162.632 271.163 162.74 270.437C162.848 269.71 162.937 268.984 163.025 268.247C163.114 267.511 163.122 266.851 163.039 266.277C162.948 265.624 162.732 265.195 162.412 264.989C162.092 264.784 161.719 264.715 161.313 264.773C160.63 264.873 160.049 265.222 159.589 265.84C159.119 266.448 158.723 267.216 158.413 268.124C158.103 269.032 157.821 269.99 157.567 270.978C157.324 271.977 157.072 272.926 156.811 273.825C156.55 274.724 156.244 275.475 155.903 276.067C155.552 276.658 155.109 276.991 154.564 277.075L154.504 277.093ZM156.175 261.473C156.796 260.741 157.371 259.899 157.9 258.928C158.428 257.957 158.909 256.965 159.331 255.941C159.752 254.918 160.114 253.933 160.406 252.985C160.697 252.037 160.917 251.196 161.065 250.441C161.214 249.696 161.268 249.126 161.239 248.741C161.24 248.711 161.24 248.692 161.231 248.682C161.231 248.672 161.232 248.652 161.223 248.622C161.054 248.647 160.758 249.034 160.324 249.781C159.89 250.528 159.399 251.519 158.874 252.747C158.337 253.984 157.827 255.359 157.333 256.873C156.839 258.397 156.453 259.924 156.175 261.473Z" fill="#F1F2F2"/>
<path d="M137.546 279.517C136.026 279.545 134.968 279.271 134.382 278.693C133.786 278.116 133.471 277.349 133.427 276.412C133.409 275.613 133.553 274.651 133.85 273.526C134.146 272.401 134.451 271.326 134.755 270.299C135.379 268.326 136.033 266.383 136.715 264.47C137.398 262.557 138.088 260.703 138.777 258.929C139.475 257.154 140.142 255.458 140.787 253.84C141.431 252.231 142.033 250.74 142.583 249.375C140.707 249.443 139.087 249.528 137.723 249.639C136.359 249.751 135.113 249.875 133.985 250.022C132.857 250.169 131.688 250.365 130.478 250.608C130.588 249.449 131.125 248.547 132.059 247.912C133.003 247.277 134.268 246.818 135.864 246.535C137.459 246.253 139.288 246.095 141.36 246.052C142.435 246.031 143.451 246.029 144.407 246.054C145.363 246.08 146.269 246.124 147.145 246.187C148.012 246.249 148.868 246.322 149.695 246.383C151.437 246.518 152.825 246.595 153.86 246.632C154.895 246.66 155.634 246.68 156.078 246.672C155.268 247.458 154.236 248.041 152.984 248.412C151.731 248.782 150.423 249.023 149.039 249.134C147.655 249.245 146.352 249.309 145.109 249.334C143.847 252.611 142.701 256.019 141.67 259.538C140.629 263.057 139.678 266.539 138.807 269.974C138.475 271.305 138.199 272.431 137.987 273.361C137.774 274.291 137.614 275.134 137.515 275.89C137.415 276.646 137.384 277.463 137.401 278.311C137.397 278.449 137.412 278.607 137.427 278.785C137.442 278.962 137.485 279.2 137.546 279.507L137.546 279.517Z" fill="#F1F2F2"/>
<path d="M109.363 275.727C108.16 275.522 107.26 275.008 106.643 274.176C106.026 273.345 105.839 272.209 106.084 270.769C106.274 269.657 106.72 268.298 107.413 266.711C108.115 265.124 108.945 263.502 109.891 261.845C109.71 261.754 109.489 261.675 109.239 261.587C108.988 261.499 108.747 261.391 108.523 261.233L108.736 259.972C109.166 260.101 109.516 260.205 109.795 260.272C110.075 260.349 110.364 260.425 110.663 260.501C111.475 259.156 112.328 257.868 113.223 256.628C114.118 255.397 114.99 254.305 115.828 253.353C116.676 252.401 117.444 251.678 118.153 251.165C118.851 250.652 119.435 250.441 119.902 250.519C120.17 250.567 120.413 250.715 120.63 250.952C120.838 251.199 120.911 251.512 120.848 251.889C120.752 252.435 120.349 253.162 119.618 254.07C118.886 254.978 118.004 256.041 116.959 257.248C115.915 258.456 114.885 259.761 113.868 261.154C114.087 261.195 114.305 261.225 114.524 261.265C114.743 261.305 114.942 261.336 115.14 261.367C116.333 261.563 117.425 261.734 118.397 261.85C119.37 261.977 120.37 262.063 121.399 262.128L121.17 263.478C119.645 263.365 118.258 263.236 116.99 263.112C115.721 262.979 114.512 262.842 113.37 262.674C113.29 262.658 113.211 262.641 113.122 262.635C113.042 262.619 112.963 262.612 112.873 262.596C112.077 263.833 111.352 265.115 110.687 266.444C110.033 267.773 109.586 269.103 109.366 270.434C109.176 271.546 109.221 272.372 109.5 272.892C109.778 273.413 110.295 273.736 111.061 273.871C112.422 274.1 113.926 273.721 115.561 272.715C117.196 271.719 118.722 270.245 120.14 268.302L120.645 268.803C119.662 270.294 118.543 271.593 117.278 272.721C116.013 273.849 114.697 274.684 113.348 275.233C112 275.783 110.664 275.938 109.362 275.717L109.363 275.727Z" fill="#F1F2F2"/>
<path d="M89.9797 270.267C89.0807 270.009 88.4524 269.385 88.1243 268.394C87.7859 267.392 87.7718 266.358 88.0807 265.261C88.2863 264.522 88.6552 263.679 89.1776 262.73C89.7003 261.791 90.2839 260.889 90.9388 260.043C91.5938 259.198 92.2161 258.511 92.806 257.993C93.3959 257.475 93.8603 257.258 94.2097 257.352C94.3993 257.403 94.6535 257.58 94.9824 257.891C95.3113 258.203 95.582 258.536 95.7952 258.912C95.3854 259.254 94.8464 259.809 94.1877 260.567C93.5289 261.324 92.9035 262.169 92.3011 263.091C91.6987 264.014 91.2814 264.879 91.05 265.707C91.025 265.816 90.9668 266.075 90.8953 266.482C90.8237 266.89 90.821 267.294 90.877 267.686C90.9429 268.077 91.1704 268.324 91.5699 268.435C92.0193 268.564 92.5771 268.452 93.2335 268.109C93.89 267.765 94.5994 267.272 95.3624 266.648C96.1251 266.015 96.8951 265.322 97.6724 264.569C98.4399 263.817 99.1581 263.067 99.8078 262.33C100.458 261.593 101.004 260.978 101.426 260.468C101.657 260.556 101.95 260.712 102.304 260.933C102.659 261.145 102.955 261.379 103.203 261.635C103.45 261.89 103.521 262.173 103.436 262.492C103.41 262.572 103.195 262.857 102.782 263.358C102.369 263.858 101.881 264.46 101.329 265.164C100.776 265.867 100.255 266.599 99.7643 267.369C99.2738 268.139 98.9381 268.833 98.7677 269.472C98.6649 269.841 98.64 270.187 98.7129 270.509C98.7759 270.832 99.0317 271.047 99.4512 271.168C100.01 271.322 100.748 271.261 101.653 270.966C102.569 270.681 103.564 270.176 104.658 269.449C105.752 268.723 106.798 267.791 107.815 266.635L108.276 267.276C107.284 268.55 106.165 269.622 104.919 270.503C103.664 271.384 102.417 271.999 101.169 272.357C99.9208 272.705 98.7974 272.743 97.7889 272.46C97.02 272.246 96.4924 271.904 96.2061 271.433C95.9198 270.962 95.7885 270.426 95.8223 269.823C95.8457 269.211 95.9291 268.616 96.072 268.028C96.106 267.898 96.1494 267.759 96.1925 267.609C96.2355 267.459 96.2699 267.339 96.2948 267.23C95.6389 267.82 94.9522 268.381 94.2342 268.904C93.5163 269.427 92.7933 269.833 92.0654 270.12C91.3374 270.407 90.6488 270.456 89.9797 270.267Z" fill="#F1F2F2"/>
<path d="M68.671 264.091C67.2218 263.423 66.0642 262.417 65.2192 261.102C64.3738 259.778 63.9248 258.259 63.8717 256.536C63.8186 254.813 64.244 252.971 65.1582 251.02C66.0535 249.09 67.2501 247.285 68.7677 245.604C70.2751 243.914 71.9784 242.422 73.8574 241.12C75.7364 239.819 77.7059 238.789 79.7654 238.022C81.8249 237.255 83.8399 236.834 85.8005 236.761C87.7705 236.678 89.5913 237.035 91.2721 237.811C91.5237 237.929 91.8686 238.151 92.3067 238.477C92.7448 238.804 93.0927 239.331 93.3304 240.051C93.1883 239.958 93.0261 239.857 92.8541 239.755C92.6722 239.655 92.4809 239.564 92.2793 239.464C90.9808 238.859 89.4724 238.656 87.7639 238.857C86.0554 239.057 84.2908 239.565 82.4505 240.383C80.6102 241.2 78.8197 242.261 77.0691 243.567C75.3186 244.873 73.7421 246.33 72.3209 247.957C70.8992 249.575 69.7773 251.279 68.9545 253.058C68.3482 254.355 67.9591 255.653 67.7866 256.942C67.6141 258.231 67.7523 259.398 68.2109 260.443C68.6695 261.489 69.5331 262.31 70.8111 262.897C72.1901 263.538 73.6681 263.722 75.2551 263.448C76.8425 263.184 78.4449 262.574 80.0631 261.638C81.6813 260.702 83.2407 259.542 84.7408 258.148C86.2414 256.763 87.5982 255.247 88.8118 253.609C90.0253 251.97 91.0213 250.321 91.7903 248.672C92.1249 247.948 92.4363 247.147 92.7342 246.257C93.0227 245.377 93.186 244.572 93.225 243.86C93.264 243.149 93.0573 242.694 92.6139 242.476C92.191 242.278 91.6013 242.332 90.8545 242.64C90.1077 242.947 89.2982 243.405 88.4354 244.004C87.573 244.612 86.7529 245.287 85.9653 246.03C85.1777 246.773 84.5362 247.471 84.051 248.132C83.277 247.563 82.7994 247.002 82.6087 246.458C82.4179 245.914 82.4447 245.381 82.689 244.858C83.0059 244.184 83.5904 243.538 84.4532 242.94C85.3156 242.332 86.3007 241.827 87.4181 241.415C88.5355 241.003 89.6299 240.749 90.7007 240.635C91.7714 240.521 92.674 240.631 93.399 240.974C94.154 241.327 94.6308 241.869 94.8504 242.628C95.0597 243.379 95.0963 244.245 94.9594 245.206C94.8126 246.169 94.5685 247.165 94.2264 248.175C93.8744 249.186 93.5182 250.098 93.1292 250.932C91.9445 253.486 90.547 255.675 88.9465 257.497C87.3362 259.32 85.6227 260.802 83.8055 261.933C81.9884 263.065 80.1583 263.891 78.3252 264.412C76.4921 264.933 74.7451 265.155 73.0844 265.087C71.4238 265.02 69.9592 264.687 68.6812 264.1L68.671 264.091Z" fill="#F1F2F2"/>
<path d="M60.6292 242.288C61.1345 241.608 62.0951 241.467 62.7748 241.972C62.9115 242.073 63.0485 242.175 63.1856 242.276C63.8673 242.778 64.0126 243.739 63.5101 244.42C63.0075 245.102 62.0472 245.247 61.3656 244.744C61.2253 244.641 61.0851 244.537 60.9452 244.433C60.2656 243.928 60.1242 242.967 60.6292 242.288ZM217.577 241.03C218.25 240.517 219.212 240.646 219.726 241.32C220.239 241.993 220.11 242.956 219.436 243.469C219.298 243.575 219.159 243.681 219.019 243.786C218.344 244.297 217.382 244.163 216.871 243.488C216.361 242.812 216.494 241.85 217.169 241.339C217.305 241.236 217.441 241.134 217.577 241.03ZM46.6689 229.994C47.2653 229.393 48.2366 229.389 48.8379 229.985C48.9588 230.105 49.08 230.225 49.2013 230.344C49.805 230.938 49.8127 231.909 49.2188 232.513C48.6248 233.116 47.654 233.124 47.0503 232.53C46.926 232.408 46.8017 232.285 46.6779 232.163C46.0767 231.566 46.0727 230.596 46.6689 229.994ZM231.367 228.875C231.961 228.271 232.932 228.264 233.535 228.858C234.139 229.452 234.147 230.423 233.553 231.027C233.431 231.151 233.308 231.275 233.185 231.398C232.589 232 231.618 232.004 231.017 231.407C230.416 230.811 230.412 229.84 231.008 229.238C231.128 229.118 231.247 228.996 231.367 228.875ZM34.5891 215.849C35.2646 215.338 36.2262 215.471 36.7371 216.147C36.8398 216.283 36.9428 216.419 37.0461 216.554C37.5595 217.227 37.4299 218.19 36.7565 218.703C36.083 219.217 35.1205 219.087 34.607 218.413C34.5013 218.275 34.3958 218.136 34.2905 217.997C33.7797 217.321 33.9135 216.359 34.5891 215.849ZM253.125 199.356C253.526 198.61 254.455 198.329 255.202 198.73C255.948 199.131 256.228 200.06 255.828 200.807C255.745 200.96 255.662 201.114 255.579 201.267C255.176 202.012 254.245 202.289 253.5 201.885C252.755 201.482 252.479 200.551 252.882 199.806C252.964 199.656 253.044 199.506 253.125 199.356Z" fill="white"/>
<path d="M31.0632 201.507L27.0734 200.601C26.7176 200.52 26.4384 200.242 26.3586 199.886L25.452 195.896C25.4168 195.738 25.1897 195.738 25.1545 195.896L24.2479 199.886C24.1666 200.242 23.889 200.52 23.5331 200.601L19.5433 201.507C19.3853 201.543 19.3853 201.77 19.5433 201.805L23.5331 202.712C23.889 202.793 24.1681 203.071 24.2479 203.426L25.1545 207.416C25.1897 207.574 25.4168 207.574 25.452 207.416L26.3586 203.426C26.4399 203.071 26.7176 202.791 27.0734 202.712L31.0632 201.805C31.2212 201.77 31.2212 201.543 31.0632 201.507Z" fill="white"/>
<path d="M35.1938 211.026L32.5917 210.435C32.3597 210.382 32.1776 210.201 32.1256 209.968L31.5343 207.366C31.5113 207.263 31.3633 207.263 31.3402 207.366L30.749 209.968C30.696 210.201 30.5149 210.382 30.2828 210.435L27.6808 211.026C27.5778 211.049 27.5778 211.197 27.6808 211.22L30.2828 211.811C30.5149 211.864 30.697 212.045 30.749 212.277L31.3402 214.879C31.3633 214.982 31.5113 214.982 31.5343 214.879L32.1256 212.277C32.1786 212.045 32.3597 211.863 32.5917 211.811L35.1938 211.22C35.2968 211.197 35.2968 211.049 35.1938 211.026Z" fill="white"/>
<path d="M59.2085 237.328L56.2595 236.658C55.9965 236.598 55.7901 236.393 55.7312 236.13L55.0611 233.181C55.035 233.064 54.8672 233.064 54.8412 233.181L54.1711 236.13C54.111 236.393 53.9058 236.598 53.6428 236.658L50.6938 237.328C50.577 237.354 50.577 237.522 50.6938 237.548L53.6428 238.218C53.9058 238.278 54.1121 238.483 54.1711 238.746L54.8412 241.695C54.8672 241.812 55.035 241.812 55.0611 241.695L55.7312 238.746C55.7913 238.483 55.9965 238.277 56.2595 238.218L59.2085 237.548C59.3253 237.522 59.3253 237.354 59.2085 237.328Z" fill="white"/>
<path d="M230.941 236.28L227.298 235.452C226.973 235.378 226.718 235.125 226.645 234.8L225.818 231.157C225.785 231.013 225.578 231.013 225.546 231.157L224.718 234.8C224.644 235.125 224.391 235.378 224.066 235.452L220.423 236.28C220.279 236.312 220.279 236.52 220.423 236.552L224.066 237.38C224.391 237.454 224.645 237.707 224.718 238.032L225.546 241.675C225.578 241.819 225.785 241.819 225.818 241.675L226.645 238.032C226.72 237.707 226.973 237.452 227.298 237.38L230.941 236.552C231.085 236.52 231.085 236.312 230.941 236.28Z" fill="white"/>
<path d="M47.4206 224.51L43.4308 223.604C43.075 223.522 42.7958 223.245 42.716 222.889L41.8095 218.899C41.7742 218.741 41.5472 218.741 41.5119 218.899L40.6053 222.889C40.524 223.245 40.2464 223.522 39.8905 223.604L35.9007 224.51C35.7427 224.545 35.7427 224.772 35.9007 224.808L39.8905 225.714C40.2464 225.796 40.5256 226.073 40.6053 226.429L41.5119 230.419C41.5472 230.577 41.7742 230.577 41.8095 230.419L42.716 226.429C42.7973 226.073 43.075 225.794 43.4308 225.714L47.4206 224.808C47.5786 224.772 47.5786 224.545 47.4206 224.51Z" fill="white"/>
</svg>