<svg preserveAspectRatio="none" width="100%" height="100%" overflow="visible" style="display: block;" viewBox="0 0 236.585 49.2657" fill="none" xmlns="http://www.w3.org/2000/svg">
<g id="Swash">
<path id="Ellipse 2 (Stroke)" d="M41.2043 46.5099C41.7096 45.8302 42.6702 45.6887 43.3499 46.1939C43.4866 46.2955 43.6236 46.3968 43.7607 46.4979C44.4424 47.0005 44.5877 47.9607 44.0852 48.6424C43.5826 49.324 42.6223 49.4689 41.9406 48.9664C41.8004 48.8629 41.6602 48.7593 41.5203 48.6554C40.8407 48.1502 40.6993 47.1896 41.2043 46.5099ZM198.152 45.2524C198.825 44.7391 199.787 44.8686 200.301 45.5419C200.814 46.2154 200.685 47.1779 200.011 47.6914C199.873 47.7972 199.734 47.9027 199.595 48.0079C198.919 48.5187 197.957 48.3852 197.447 47.7099C196.936 47.0344 197.069 46.0722 197.745 45.5614C197.88 45.4586 198.016 45.3557 198.152 45.2524ZM27.244 34.2163C27.8404 33.615 28.8117 33.6109 29.413 34.2073C29.5339 34.3272 29.6551 34.4468 29.7764 34.5663C30.38 35.1603 30.3878 36.1311 29.7939 36.7347C29.1999 37.3384 28.2291 37.3462 27.6254 36.7522C27.5011 36.6299 27.3768 36.5076 27.253 36.3848C26.6518 35.7885 26.6478 34.8177 27.244 34.2163ZM211.942 33.0971C212.536 32.4935 213.507 32.4858 214.11 33.0797C214.714 33.6737 214.722 34.645 214.128 35.2487C214.006 35.3728 213.883 35.4968 213.761 35.6205C213.164 36.2218 212.193 36.2258 211.592 35.6295C210.991 35.0331 210.987 34.0619 211.583 33.4606C211.703 33.3397 211.823 33.2185 211.942 33.0971ZM15.1641 20.0708C15.8397 19.56 16.8013 19.6933 17.3122 20.3688C17.4149 20.5047 17.5179 20.6407 17.6212 20.7762C18.1346 21.4496 18.005 22.4117 17.3316 22.9252C16.6581 23.4387 15.6956 23.3091 15.1821 22.6356C15.0764 22.4969 14.9709 22.358 14.8656 22.2188C14.3548 21.5433 14.4886 20.5816 15.1641 20.0708ZM233.7 3.5781C234.101 2.83187 235.031 2.55161 235.777 2.95211C236.523 3.35265 236.803 4.2825 236.403 5.02874C236.32 5.18252 236.237 5.33609 236.154 5.48949C235.751 6.23414 234.82 6.51099 234.075 6.10749C233.33 5.70397 233.054 4.77298 233.458 4.02837C233.539 3.8785 233.62 3.72833 233.7 3.5781Z" fill="var(--fill-0, white)"/>
<path id="Vector" d="M11.6384 5.72966L7.64862 4.8231C7.29275 4.7418 7.01357 4.46416 6.9338 4.10828L6.02724 0.118497C5.99196 -0.039499 5.76494 -0.039499 5.72966 0.118497L4.8231 4.10828C4.7418 4.46416 4.46416 4.7418 4.10828 4.8231L0.118497 5.72966C-0.039499 5.76494 -0.039499 5.99196 0.118497 6.02724L4.10828 6.9338C4.46416 7.0151 4.74333 7.29275 4.8231 7.64862L5.72966 11.6384C5.76494 11.7964 5.99196 11.7964 6.02724 11.6384L6.9338 7.64862C7.0151 7.29275 7.29275 7.01357 7.64862 6.9338L11.6384 6.02724C11.7964 5.99196 11.7964 5.76494 11.6384 5.72966Z" fill="var(--fill-0, white)"/>
<path id="Vector_2" d="M15.7689 15.2481L13.1669 14.6568C12.9348 14.6038 12.7527 14.4227 12.7007 14.1906L12.1095 11.5886C12.0865 11.4856 11.9384 11.4856 11.9154 11.5886L11.3242 14.1906C11.2711 14.4227 11.0901 14.6038 10.858 14.6568L8.25595 15.2481C8.1529 15.2711 8.1529 15.4191 8.25595 15.4421L10.858 16.0334C11.0901 16.0864 11.2721 16.2675 11.3242 16.4996L11.9154 19.1016C11.9384 19.2046 12.0865 19.2046 12.1095 19.1016L12.7007 16.4996C12.7537 16.2675 12.9348 16.0854 13.1669 16.0334L15.7689 15.4421C15.872 15.4191 15.872 15.2711 15.7689 15.2481Z" fill="var(--fill-0, white)"/>
<path id="Vector_3" d="M39.7838 41.5503L36.8348 40.8802C36.5718 40.8201 36.3654 40.6149 36.3065 40.3519L35.6364 37.4029C35.6103 37.2861 35.4425 37.2861 35.4164 37.4029L34.7464 40.3519C34.6863 40.6149 34.4811 40.8201 34.218 40.8802L31.2691 41.5503C31.1523 41.5763 31.1523 41.7441 31.2691 41.7702L34.218 42.4403C34.4811 42.5004 34.6874 42.7056 34.7464 42.9686L35.4164 45.9176C35.4425 46.0344 35.6103 46.0344 35.6364 45.9176L36.3065 42.9686C36.3665 42.7056 36.5718 42.4992 36.8348 42.4403L39.7838 41.7702C39.9005 41.7441 39.9005 41.5763 39.7838 41.5503Z" fill="var(--fill-0, white)"/>
<path id="Vector_4" d="M211.516 40.5023L207.873 39.6746C207.548 39.6004 207.293 39.3469 207.221 39.0219L206.393 35.3791C206.361 35.2348 206.153 35.2348 206.121 35.3791L205.293 39.0219C205.219 39.3469 204.966 39.6004 204.641 39.6746L200.998 40.5023C200.854 40.5345 200.854 40.7418 200.998 40.774L204.641 41.6018C204.966 41.676 205.221 41.9295 205.293 42.2544L206.121 45.8973C206.153 46.0415 206.361 46.0415 206.393 45.8973L207.221 42.2544C207.295 41.9295 207.548 41.6746 207.873 41.6018L211.516 40.774C211.66 40.7418 211.66 40.5345 211.516 40.5023Z" fill="var(--fill-0, white)"/>
<path id="Vector_5" d="M27.9958 28.7324L24.006 27.8258C23.6501 27.7445 23.3709 27.4669 23.2912 27.111L22.3846 23.1212C22.3493 22.9632 22.1223 22.9632 22.087 23.1212L21.1805 27.111C21.0992 27.4669 20.8215 27.7445 20.4656 27.8258L16.4759 28.7324C16.3179 28.7677 16.3179 28.9947 16.4759 29.03L20.4656 29.9365C20.8215 30.0178 21.1007 30.2955 21.1805 30.6513L22.087 34.6411C22.1223 34.7991 22.3493 34.7991 22.3846 34.6411L23.2912 30.6513C23.3725 30.2955 23.6501 30.0163 24.006 29.9365L27.9958 29.03C28.1538 28.9947 28.1538 28.7677 27.9958 28.7324Z" fill="var(--fill-0, white)"/>
</g>
</svg>
