<svg preserveAspectRatio="none" width="100%" height="100%" overflow="visible" style="display: block;" viewBox="0 0 84.0138 35.4894" fill="none" xmlns="http://www.w3.org/2000/svg">
<g id="There">
<path id="Vector" d="M77.56 18.1019C75.9808 18.8873 74.5457 19.0755 73.275 18.6474C71.9945 18.2191 71.0409 17.366 70.3946 16.0876C69.8517 14.9992 69.5509 13.7104 69.4923 12.2112C69.4338 10.7121 69.6126 9.18979 70.0087 7.65356C70.4149 6.10775 71.0141 4.72471 71.8162 3.49491C72.6184 2.26511 73.5892 1.36497 74.7288 0.794452C75.3685 0.476576 76.0626 0.337487 76.811 0.377206C77.5595 0.416925 78.1768 0.935891 78.6731 1.92455C79.1411 2.86318 79.3114 3.87268 79.1737 4.96261C79.0364 6.0427 78.6718 7.13642 78.0803 8.23392C77.4888 9.33142 76.7415 10.3558 75.8479 11.3171C74.9545 12.2686 73.9759 13.0898 72.932 13.7712C72.9587 13.8803 72.995 13.9995 73.0315 14.1089C73.068 14.2182 73.1616 14.4079 73.2831 14.6575C73.3489 14.7775 73.4715 14.9876 73.661 15.2784C73.8505 15.5692 74.1193 15.8424 74.4675 16.098C74.8157 16.3536 75.2454 16.5129 75.7669 16.5564C76.2882 16.6098 76.8939 16.4585 77.5836 16.1124C78.6231 15.5983 79.5226 14.7849 80.2819 13.682C81.0412 12.5792 81.647 11.3146 82.0895 9.88796C82.532 8.46134 82.7681 7.00949 82.7982 5.51273L83.8376 5.73759C83.9075 7.55229 83.7037 9.27101 83.2064 10.9031C82.7091 12.5351 81.98 13.9836 81.0196 15.2289C80.059 16.484 78.9092 17.4385 77.5797 18.1025L77.56 18.1019ZM72.6492 12.1774C73.2516 11.7797 73.8587 11.2048 74.4609 10.4426C75.0632 9.68036 75.589 8.82742 76.0378 7.90344C76.4868 6.96962 76.7678 6.051 76.9007 5.13828C77.0336 4.22556 76.9268 3.42468 76.5803 2.7356C76.4396 2.46582 76.3058 2.30463 76.1593 2.25145C76.0128 2.19827 75.8245 2.23263 75.6045 2.34497C75.0349 2.62531 74.5481 3.12462 74.1344 3.84263C73.7207 4.56064 73.383 5.38906 73.1209 6.33773C72.8589 7.2864 72.6845 8.27685 72.6078 9.29944C72.5311 10.322 72.5546 11.2882 72.6588 12.1875L72.6492 12.1774Z" fill="var(--fill-0, #F1F2F2)"/>
<path id="Vector_2" d="M65.5003 22.4694C64.5437 22.8379 63.6748 22.8738 62.8933 22.5967C62.1117 22.3197 61.5548 21.7531 61.2323 20.907C60.9556 20.1902 60.8402 19.3398 60.8855 18.3854C60.931 17.421 60.9858 16.4767 61.0604 15.5329C61.1251 14.5888 61.0473 13.8083 60.8074 13.1911C60.5768 12.5938 60.1934 12.1796 59.6579 11.9189C59.1222 11.6682 58.5444 11.5148 57.9249 11.449C57.9009 13.0838 57.7788 14.6963 57.5783 16.2969C57.3777 17.8975 57.1961 19.1537 57.0435 20.0659L56.0321 19.162C56.1326 18.3568 56.2518 17.2171 56.3699 15.7523C56.4879 14.2874 56.5306 12.6925 56.4978 10.9674C56.1371 10.81 55.8789 10.5075 55.7131 10.0696C55.4548 9.40258 55.4245 8.6924 55.6123 7.93879C55.8001 7.18518 56.0882 6.73966 56.4767 6.59241C56.7857 6.47259 57.0792 6.55928 57.3574 6.85244C57.6356 7.14559 57.7976 7.35683 57.8434 7.48614C57.8893 7.61544 57.9219 7.87247 57.9316 8.24712C57.9413 8.62176 57.9536 8.89796 57.9587 9.07544C58.0893 9.35479 58.4197 9.54097 58.9492 9.65365C59.4788 9.76634 60.0869 9.89098 60.7632 10.047C61.4396 10.203 62.0933 10.4668 62.714 10.8578C63.335 11.2389 63.8022 11.8426 64.1154 12.6687C64.4012 13.4153 64.5271 14.2364 64.4832 15.1416C64.4393 16.0469 64.3871 16.8928 64.3066 17.6887C64.2262 18.4845 64.278 19.1263 64.4718 19.6241C64.6102 19.9825 64.802 20.1847 65.0375 20.2304C65.273 20.2761 65.5204 20.2433 65.7795 20.1419C66.3974 19.9022 66.971 19.4742 67.5006 18.848C68.0302 18.2217 68.5035 17.4856 68.9204 16.6495C69.3372 15.8133 69.6654 14.9747 69.9051 14.124C70.1446 13.2831 70.2927 12.5383 70.3394 11.8991L71.5333 12.2463C71.469 13.5451 71.1764 14.8969 70.6551 16.3214C70.1337 17.746 69.4389 19.018 68.5611 20.1276C67.683 21.247 66.6663 22.0178 65.5104 22.4598L65.5003 22.4694Z" fill="var(--fill-0, #F1F2F2)"/>
<path id="Vector_3" d="M48.9678 28.5003C47.2593 28.9571 45.822 28.8596 44.6565 28.188C43.4909 27.5165 42.7195 26.4909 42.3422 25.1113C42.0283 23.9404 41.9847 22.619 42.2314 21.1379C42.4782 19.6568 42.9412 18.2011 43.6402 16.7715C44.3392 15.3419 45.201 14.094 46.2349 13.0477C47.2689 12.0015 48.3921 11.3024 49.6237 10.9807C50.3191 10.7924 51.0292 10.7917 51.7439 10.9881C52.4687 11.175 52.9744 11.8092 53.2616 12.8711C53.5304 13.8832 53.4932 14.9069 53.1499 15.942C52.8067 16.9772 52.2276 17.9765 51.4329 18.9306C50.6378 19.8946 49.6979 20.7464 48.6321 21.506C47.5664 22.2657 46.4554 22.8764 45.2894 23.328C45.2862 23.4462 45.303 23.555 45.3193 23.6835C45.3359 23.8022 45.3799 24.0004 45.4516 24.2683C45.4876 24.3974 45.5703 24.6262 45.6996 24.9548C45.8291 25.2735 46.0372 25.6042 46.3247 25.9173C46.612 26.2403 47.01 26.4775 47.4991 26.6285C47.998 26.7798 48.6199 26.757 49.3651 26.5504C50.4877 26.2454 51.5298 25.6329 52.4916 24.7029C53.4534 23.7729 54.2921 22.6525 55.0175 21.3418C55.733 20.0309 56.2533 18.6458 56.5781 17.1963L57.5531 17.6164C57.2684 19.4118 56.7215 21.0524 55.912 22.5579C55.1025 24.0633 54.1022 25.3273 52.9106 26.3693C51.7192 27.4015 50.3983 28.1149 48.9675 28.5102L48.9678 28.5003ZM45.3323 21.7232C46.0002 21.4554 46.7123 21.0114 47.459 20.3811C48.2057 19.7508 48.886 19.0202 49.5095 18.1994C50.1331 17.3786 50.5899 16.5238 50.8991 15.6552C51.2084 14.7867 51.2595 13.9801 51.0624 13.2359C50.9814 12.9481 50.878 12.7581 50.7421 12.6756C50.606 12.603 50.419 12.5882 50.1803 12.6606C49.5643 12.8313 48.9918 13.22 48.4427 13.8358C47.8937 14.4517 47.4001 15.207 46.9526 16.0818C46.5052 16.9565 46.1448 17.8927 45.8718 18.8805C45.5989 19.8683 45.4255 20.8193 45.352 21.7238L45.3323 21.7232Z" fill="var(--fill-0, #F1F2F2)"/>
<path id="Vector_4" d="M24.7937 32.5826C24.1899 32.665 23.6975 32.2676 23.2972 31.38C22.9067 30.4927 22.6195 29.4308 22.4452 28.2045C22.2618 26.9483 22.2538 25.4013 22.4211 23.5732C22.5886 21.7353 22.8873 19.7827 23.3371 17.7159C23.777 15.6488 24.3051 13.6038 24.9211 11.5907C25.537 9.57754 26.2077 7.73336 26.9231 6.05789C27.6386 4.38241 28.3656 3.01267 29.094 1.95824C29.8224 0.903807 30.5084 0.33102 31.1716 0.240378C31.7458 0.157209 32.2322 0.406675 32.621 0.988508C33.0098 1.57034 33.2591 2.20756 33.3592 2.89005C33.4676 3.63188 33.4231 4.5568 33.245 5.68506C33.057 6.81306 32.758 8.0366 32.3285 9.34533C31.9086 10.6642 31.3707 11.97 30.7442 13.2735C30.1077 14.5767 29.3948 15.7891 28.5955 16.9106C27.7963 18.0321 26.933 18.9647 26.0058 19.7084C25.7824 20.6877 25.63 21.59 25.5387 22.425C25.4473 23.26 25.4167 24.0376 25.4369 24.7573C25.4571 25.4771 25.5172 26.1782 25.6173 26.8607C25.6333 26.9991 25.6691 27.138 25.7046 27.2867C25.74 27.4354 25.7659 27.5741 25.7918 27.7127C25.8754 27.5376 25.9959 27.0876 26.1435 26.3625C26.2908 25.6472 26.5108 24.7959 26.8033 23.8185C27.0957 22.8411 27.4866 21.8663 27.9863 20.8846C28.4859 19.9028 29.1199 19.0626 29.8785 18.3538C30.6371 17.645 31.566 17.2068 32.6647 17.0589C33.5953 16.9261 34.3518 17.035 34.9243 17.3853C35.5067 17.7359 35.9479 18.2009 36.2579 18.7806C36.5678 19.3603 36.7686 19.9667 36.8503 20.5994C36.975 21.4697 36.9523 22.3165 36.7829 23.1198C36.6036 23.9229 36.4254 24.6866 36.2291 25.3907C36.0423 26.105 35.9855 26.7537 36.0779 27.3572C36.1436 27.8515 36.3027 28.1711 36.5547 28.3355C36.7969 28.4996 37.0715 28.5562 37.3786 28.5053C37.9824 28.4229 38.6442 28.0169 39.3636 27.2973C40.0831 26.5776 40.778 25.67 41.439 24.5547C42.1001 23.4393 42.635 22.2418 43.0342 20.9618L43.7874 21.5632C43.3539 23.0196 42.7947 24.384 42.1199 25.6468C41.4451 26.9096 40.6378 27.9619 39.7279 28.7947C38.8181 29.6275 37.7693 30.1217 36.6011 30.2875C35.5616 30.437 34.7276 30.2768 34.1089 29.807C33.4903 29.3373 33.1129 28.6966 32.9968 27.8758C32.9135 27.3021 32.921 26.6521 33.0292 25.9259C33.1374 25.1997 33.2259 24.473 33.3146 23.7364C33.4033 22.9999 33.4111 22.34 33.3278 21.7663C33.2368 21.1136 33.0215 20.6842 32.7015 20.4786C32.3815 20.273 32.0086 20.2039 31.6027 20.262C30.9195 20.362 30.3382 20.711 29.8778 21.3292C29.4079 21.9374 29.0126 22.7051 28.7023 23.6131C28.392 24.5211 28.11 25.4791 27.8567 26.4674C27.6131 27.4658 27.3609 28.4148 27.1001 29.3142C26.8394 30.2136 26.5333 30.9641 26.192 31.5559C25.8409 32.1475 25.398 32.4805 24.8533 32.5645L24.7937 32.5826ZM26.4639 16.962C27.0851 16.2299 27.6599 15.3881 28.1888 14.417C28.7178 13.4459 29.198 12.4538 29.6198 11.4306C30.0417 10.4074 30.4033 9.42194 30.695 8.47406C30.9866 7.52617 31.2063 6.68474 31.3547 5.93008C31.5029 5.18526 31.5576 4.61527 31.5284 4.23025C31.5292 4.20072 31.5297 4.18103 31.5201 4.17092C31.5204 4.16107 31.5209 4.14138 31.5118 4.11159C31.3435 4.13664 31.0472 4.52282 30.613 5.26985C30.1788 6.01687 29.6887 7.00869 29.1628 8.23603C28.6268 9.47294 28.1166 10.8485 27.6224 12.3624C27.128 13.8861 26.742 15.4128 26.4639 16.962Z" fill="var(--fill-0, #F1F2F2)"/>
<path id="Vector_5" d="M7.83512 35.0061C6.31556 35.0344 5.25777 34.7598 4.6716 34.1826C4.07558 33.605 3.76077 32.838 3.7168 31.9009C3.6987 31.1023 3.84277 30.1407 4.13914 29.0156C4.4355 27.8905 4.7404 26.8148 5.04399 25.7885C5.66878 23.815 6.32234 21.8718 7.00468 19.959C7.68702 18.0462 8.37764 16.1927 9.06615 14.418C9.76451 12.6436 10.4312 10.9471 11.0761 9.32883C11.7207 7.72043 12.3227 6.22913 12.8721 4.86449C10.9964 4.93256 9.3767 5.01732 8.01272 5.12864C6.64874 5.23995 5.40276 5.36426 4.27451 5.51143C3.14627 5.65861 1.97728 5.85396 0.767559 6.09748C0.877467 4.93784 1.41442 4.03593 2.34861 3.4008C3.29264 2.76593 4.55744 2.30713 6.15283 2.02467C7.74822 1.7422 9.57698 1.58422 11.6492 1.5411C12.7248 1.5206 13.7407 1.51819 14.6966 1.54375C15.6526 1.56932 16.5588 1.61325 17.4348 1.67608C18.301 1.73866 19.1571 1.81081 19.9839 1.87233C21.7259 2.00758 23.1145 2.08414 24.149 2.12165C25.1838 2.14932 25.923 2.16907 26.367 2.16124C25.557 2.94747 24.5256 3.53074 23.273 3.9012C22.0204 4.27165 20.7122 4.51253 19.3285 4.62332C17.9448 4.7341 16.6413 4.79777 15.3979 4.82364C14.1367 8.1003 12.9903 11.5081 11.9592 15.0274C10.9184 18.5464 9.96723 22.0284 9.09626 25.4633C8.76479 26.7944 8.48813 27.92 8.27587 28.8503C8.06361 29.7806 7.90301 30.6236 7.80389 31.3796C7.70478 32.1356 7.67307 32.9525 7.68985 33.8002C7.68617 33.938 7.70166 34.0961 7.71663 34.2739C7.7316 34.4516 7.77456 34.6892 7.83538 34.9963L7.83512 35.0061Z" fill="var(--fill-0, #F1F2F2)"/>
</g>
</svg>
