<svg width="512" height="512" viewBox="0 0 512 512" fill="none" xmlns="http://www.w3.org/2000/svg">
<g id="Favicon">
<rect width="512" height="512" rx="256" fill="#050505"/>
<g id="Group 5">
<path id="Vector" d="M142.921 260.575C134.283 221.836 160.671 182.045 198.644 174.755C168.013 196.687 149.011 225.131 142.921 260.575ZM361.676 299.634C352.107 319.796 328.679 336.237 306.717 341.102C310.837 337.961 314.348 335.246 318.514 332.44C344.125 315.145 360.867 289.37 367.278 258.348C369.43 272.578 367.735 286.899 361.676 299.634Z" fill="white"/>
<path id="Vector_2" d="M403.038 357.21C401.16 355.822 382.266 381.749 367.095 393.645C351.924 405.541 313.387 421.876 316.928 424.255C320.469 426.634 361.723 408.958 376.436 398.084C391.148 387.194 405.617 359.116 403.038 357.21Z" fill="white"/>
<path id="Vector_3" d="M295.498 423.064C295.498 423.064 304.076 419.54 315.782 413.791L320.193 384.34C319.827 384.493 305.266 389.19 300.627 391.325L295.483 423.064H295.498Z" fill="white"/>
<path id="Vector_4" d="M285.197 427.091L291.638 391.235L282.771 379.461L256 379.491L229.23 379.461L220.363 391.235L226.804 427.091C235.228 428.296 245.653 428.83 256 428.799C266.348 428.83 276.788 428.296 285.197 427.091Z" fill="white"/>
<path id="Vector_5" d="M406.411 243.283C406.411 272.779 399.344 311.243 392.522 324.71C387.135 335.34 371.185 361.344 328.375 380.835L324.3 409.477C336.647 403.026 350.719 394.79 361.692 385.884C406.396 349.646 413.416 321.141 413.355 270.125C413.325 241.88 413.905 225.179 411.356 202.561C410.639 196.247 408.013 190.33 405.953 184.351C399.833 166.644 393.667 152.964 381.198 138.627C379.137 146.939 377.351 154.367 374.192 161.962C396.414 179.318 406.411 213.786 406.411 243.283Z" fill="white"/>
<path id="Vector_6" d="M373.673 129.917C360.12 115.795 347.956 107.208 329.824 99.6738C328.573 111.844 326.405 122.124 324.223 133.974C340.981 140.075 352.275 146.633 367.064 155.83C371.109 146.663 372.971 138.931 373.688 129.933L373.673 129.917Z" fill="white"/>
<path id="Vector_7" d="M430.51 300.565C432.357 277.672 433.7 252.63 432.784 230.5L432.082 213.586L420.849 209.361C423.764 241.954 422.559 272.99 419.109 305.338C423.505 304.439 427.198 302.868 430.525 300.55L430.51 300.565Z" fill="white"/>
<path id="Vector_8" d="M448 255.576C448 236.756 444.673 225.241 440.079 220.467L440.476 257.299L438.98 294.497C444.154 288.214 448 274.396 448 255.576Z" fill="white"/>
<path id="Vector_9" d="M108.949 357.21C106.369 359.116 120.838 387.194 135.551 398.084C150.264 408.973 191.518 426.634 195.059 424.255C198.6 421.876 160.077 405.541 144.891 393.645C129.721 381.749 110.826 355.822 108.949 357.21Z" fill="white"/>
<path id="Vector_10" d="M216.485 423.064L211.342 391.325C206.702 389.19 192.157 384.493 191.776 384.34L196.186 413.791C207.893 419.54 216.47 423.064 216.47 423.064H216.485Z" fill="white"/>
<path id="Vector_11" d="M98.6153 270.141C98.5695 321.172 105.59 349.677 150.278 385.899C161.267 394.806 175.339 403.042 187.671 409.493L183.596 380.851C140.785 361.359 124.836 335.341 119.448 324.726C112.626 311.259 105.56 272.779 105.56 243.298C105.56 213.817 115.556 179.349 137.778 161.978C134.619 154.382 132.833 146.955 130.773 138.643C118.304 152.979 112.122 166.66 106.018 184.367C103.957 190.345 101.317 196.248 100.615 202.577C98.0658 225.21 98.6458 241.895 98.6153 270.141Z" fill="white"/>
<path id="Vector_12" d="M255.986 123.556C276.056 123.511 296.019 126.18 315.692 131.365C318.012 118.737 319.828 107.131 321.064 94.9599C303.314 87.9137 286.037 84.4517 267.371 83.4603C263.556 83.2773 259.771 83.1858 255.986 83.201C252.201 83.201 248.415 83.2773 244.6 83.4603C225.934 84.4517 208.657 87.9137 190.907 94.9599C192.143 107.131 193.959 118.737 196.279 131.365C215.952 126.164 235.916 123.511 255.986 123.556Z" fill="white"/>
<path id="Vector_13" d="M187.762 133.974C185.579 122.124 183.412 111.86 182.16 99.6738C164.029 107.208 151.865 115.795 138.312 129.917C139.029 138.916 140.876 146.648 144.936 155.814C159.71 146.618 171.019 140.06 187.777 133.959L187.762 133.974Z" fill="white"/>
<path id="Vector_14" d="M92.8927 305.354C89.4282 273.006 88.2377 241.969 91.1528 209.377L79.9197 213.601L79.2177 230.515C78.3019 252.63 79.645 277.688 81.4918 300.58C84.8189 302.898 88.5124 304.469 92.908 305.369L92.8927 305.354Z" fill="white"/>
<path id="Vector_15" d="M71.5243 257.299L71.9211 220.467C67.3272 225.225 64 236.755 64 255.576C64 274.396 67.8461 288.214 73.02 294.497L71.5243 257.299Z" fill="white"/>
<path id="Vector_16" d="M256.853 156.928C262.317 156.928 267.583 157.05 272.955 157.294C305.403 158.804 340.293 172.377 361.843 191.884C369.184 198.518 374.251 205.519 376.525 212.107C383.332 231.873 384.889 254.521 381.272 281.364C379.44 295.029 374.45 306.163 365.598 316.412C351.159 333.127 332.219 346.472 309.325 356.081C307.784 356.737 305.83 357.316 303.495 357.85L294.582 350.575L292.048 348.501H288.782L255.999 348.531L223.2 348.501H219.934L217.4 350.56L208.487 357.835C206.152 357.316 204.214 356.721 202.657 356.065C179.748 346.457 160.823 333.112 146.385 316.396C137.533 306.148 132.542 294.999 130.71 281.349C127.108 254.506 128.65 231.858 135.457 212.092C137.731 205.503 142.798 198.503 150.139 191.869C171.69 172.362 206.579 158.788 239.027 157.278C244.415 157.034 249.68 156.912 255.129 156.912H256.014H256.853M256.853 147.777C256.563 147.777 256.273 147.777 255.983 147.777C255.694 147.777 255.404 147.777 255.114 147.777C249.634 147.777 244.17 147.899 238.584 148.158C206.091 149.668 168.439 162.967 143.973 185.112C136.892 191.518 130.008 199.769 126.773 209.133C118.577 232.925 118.287 257.938 121.614 282.584C123.674 297.912 129.321 310.692 139.44 322.39C155.618 341.119 176.177 354.891 199.101 364.515C202.733 366.04 207.159 367.016 210.944 367.641L223.169 357.652L255.968 357.682L288.767 357.652L300.992 367.641C304.777 367.001 309.203 366.04 312.836 364.515C335.76 354.891 356.318 341.119 372.496 322.39C382.615 310.677 388.262 297.912 390.322 282.584C393.634 257.938 393.344 232.925 385.164 209.133C381.943 199.754 375.06 191.518 367.963 185.112C343.498 162.982 305.846 149.683 273.352 148.158C267.766 147.899 262.287 147.777 256.823 147.777H256.853Z" fill="white"/>
<g id="Vector Nebula + Mask">
<mask id="mask0_1_889" style="mask-type:luminance" maskUnits="userSpaceOnUse" x="119" y="147" width="274" height="221">
<g id="clippath">
<path id="Vector_17" d="M256.854 147.777C256.564 147.777 256.274 147.777 255.984 147.777C255.694 147.777 255.404 147.777 255.114 147.777C249.634 147.777 244.171 147.899 238.585 148.158C206.091 149.668 168.439 162.968 143.973 185.113C136.892 191.518 130.008 199.769 126.773 209.134C118.577 232.926 118.287 257.938 121.614 282.585C123.674 297.912 129.322 310.693 139.44 322.391C155.619 341.119 176.177 354.892 199.101 364.515C202.733 366.04 207.159 367.016 210.944 367.642L223.17 357.652L255.968 357.683L288.767 357.652L300.992 367.642C304.777 367.001 309.203 366.04 312.836 364.515C335.76 354.892 356.318 341.119 372.496 322.391C382.615 310.678 388.262 297.912 390.323 282.585C393.635 257.938 393.345 232.926 385.164 209.134C381.944 199.754 375.06 191.518 367.963 185.113C343.498 162.983 305.846 149.684 273.352 148.158C267.766 147.899 262.287 147.777 256.823 147.777H256.854Z" fill="white"/>
</g>
</mask>
<g mask="url(#mask0_1_889)">
<g id="Vector Nebula">
<path id="Vector_18" d="M238.841 266.275L237.373 272.475L242.798 273.76L244.266 267.56L238.841 266.275Z" fill="white"/>
<path id="Vector_19" d="M375.973 216.252C375.631 217.936 375.358 219.346 375.131 220.803L375.472 220.871C376.837 221.121 377.93 221.326 379.454 221.463C379.613 220.871 379.773 220.302 379.909 219.733C380.137 218.869 380.342 218.072 380.569 217.276C379.045 216.912 377.52 216.57 375.995 216.252H375.973Z" fill="white"/>
<path id="Vector_20" d="M249.724 284.035C249.428 283.967 249.155 283.853 248.905 283.694L248.791 284.377C248.541 286.038 248.268 287.54 247.927 289.314L253.183 290.429L253.456 289.292C253.775 287.972 254.093 286.675 254.435 285.355L254.822 283.853C253.593 284.945 252.136 284.581 250.703 284.24L249.702 283.99L249.724 284.035Z" fill="white"/>
<path id="Vector_21" d="M367.758 189.53C367.985 189.53 368.577 189.599 369.237 189.69C369.851 189.781 370.579 189.872 371.148 189.894C371.194 189.758 371.239 189.644 371.285 189.508C371.876 187.71 372.036 187.255 371.194 186.163C369.373 185.73 368.395 186.504 367.121 189.462C367.325 189.462 367.553 189.462 367.758 189.508V189.53Z" fill="white"/>
<path id="Vector_22" d="M383.687 203.259C382.072 202.918 381.025 202.736 379.341 202.576C378.954 203.623 378.772 204.283 378.613 205.034C378.522 205.489 378.408 205.99 378.294 206.604V206.718L378.818 206.832C380.024 207.082 381.207 207.355 382.367 207.628C382.595 206.945 382.777 206.24 382.982 205.557C383.209 204.784 383.437 204.01 383.687 203.236V203.259Z" fill="white"/>
<path id="Vector_23" d="M351.578 159.938L351.419 160.894C351.419 160.917 351.419 160.94 351.419 160.962L351.259 161.85C351.168 162.396 351.077 162.942 350.964 163.465C351.828 163.465 352.67 163.716 353.398 163.921C353.831 164.034 354.309 164.171 354.832 164.285C355.242 163.238 355.583 161.873 355.879 160.712C355.924 160.484 355.993 160.28 356.038 160.075L351.715 159.096C351.669 159.369 351.624 159.665 351.578 159.938Z" fill="white"/>
<path id="Vector_24" d="M386.804 186.82L386.645 187.775C386.645 187.798 386.645 187.821 386.645 187.844L386.486 188.731C386.395 189.277 386.304 189.823 386.19 190.347C387.055 190.347 387.897 190.597 388.625 190.802C389.057 190.916 389.535 191.052 390.058 191.166C390.468 190.119 390.809 188.754 391.105 187.593C391.151 187.366 391.219 187.161 391.264 186.956L386.941 185.978C386.895 186.251 386.85 186.547 386.804 186.82Z" fill="white"/>
<path id="Vector_25" d="M338.721 237.853L338.561 238.809C338.561 238.832 338.561 238.855 338.561 238.877L338.402 239.765C338.311 240.311 338.22 240.857 338.106 241.381C338.971 241.381 339.813 241.631 340.541 241.836C340.973 241.949 341.451 242.086 341.975 242.2C342.384 241.153 342.726 239.788 343.021 238.627C343.067 238.4 343.135 238.195 343.181 237.99L338.857 237.011C338.812 237.285 338.766 237.58 338.721 237.853Z" fill="white"/>
<path id="Vector_26" d="M232.271 296.488L232.111 297.443C232.111 297.466 232.111 297.489 232.111 297.512L231.952 298.399C231.861 298.945 231.77 299.491 231.656 300.015C232.521 300.015 233.363 300.265 234.091 300.47C234.523 300.584 235.001 300.72 235.525 300.834C235.934 299.787 236.276 298.422 236.571 297.261C236.617 297.034 236.685 296.829 236.731 296.624L232.407 295.646C232.362 295.919 232.316 296.215 232.271 296.488Z" fill="white"/>
<path id="Vector_27" d="M214.612 311.029L214.453 311.985C214.453 312.007 214.453 312.03 214.453 312.053L214.294 312.94C214.203 313.487 214.112 314.033 213.998 314.556C214.863 314.556 215.705 314.806 216.433 315.011C216.865 315.125 217.343 315.261 217.866 315.375C218.276 314.328 218.617 312.963 218.913 311.803C218.959 311.575 219.027 311.37 219.072 311.165L214.749 310.187C214.703 310.46 214.658 310.756 214.612 311.029Z" fill="white"/>
<path id="Vector_28" d="M298.83 268.714L298.671 269.669C298.671 269.692 298.671 269.715 298.671 269.738L298.512 270.625C298.421 271.171 298.33 271.717 298.216 272.241C299.081 272.241 299.923 272.491 300.651 272.696C301.083 272.81 301.561 272.946 302.084 273.06C302.494 272.013 302.835 270.648 303.131 269.487C303.177 269.26 303.245 269.055 303.291 268.85L298.967 267.872C298.921 268.145 298.876 268.44 298.83 268.714Z" fill="white"/>
<path id="Vector_29" d="M283.198 299.217L283.038 300.172C283.038 300.195 283.038 300.218 283.038 300.241L282.879 301.128C282.788 301.674 282.697 302.22 282.583 302.744C283.448 302.744 284.29 302.994 285.018 303.199C285.45 303.313 285.928 303.449 286.452 303.563C286.861 302.516 287.203 301.151 287.498 299.99C287.544 299.763 287.612 299.558 287.658 299.353L283.334 298.375C283.289 298.648 283.243 298.944 283.198 299.217Z" fill="white"/>
<path id="Vector_30" d="M222.372 305.524L222.213 306.48C222.213 306.503 222.213 306.526 222.213 306.549L222.053 307.436C221.962 307.982 221.871 308.528 221.758 309.052C222.622 309.052 223.464 309.302 224.192 309.507C224.625 309.62 225.103 309.757 225.626 309.871C226.036 308.824 226.377 307.459 226.673 306.298C226.718 306.071 226.787 305.866 226.832 305.661L222.509 304.683C222.463 304.956 222.418 305.251 222.372 305.524Z" fill="white"/>
<path id="Vector_31" d="M216.047 295.847L215.887 296.803C215.887 296.826 215.887 296.848 215.887 296.871L215.728 297.759C215.637 298.305 215.546 298.851 215.432 299.374C216.297 299.374 217.139 299.625 217.867 299.829C218.299 299.943 218.777 300.08 219.301 300.193C219.71 299.147 220.052 297.781 220.347 296.621C220.393 296.393 220.461 296.189 220.507 295.984L216.183 295.005C216.138 295.278 216.092 295.574 216.047 295.847Z" fill="white"/>
<path id="Vector_32" d="M200.185 290.362L200.025 291.318C200.025 291.341 200.025 291.364 200.025 291.386L199.866 292.274C199.775 292.82 199.684 293.366 199.57 293.889C200.435 293.889 201.277 294.14 202.005 294.345C202.437 294.458 202.915 294.595 203.439 294.709C203.848 293.662 204.19 292.297 204.485 291.136C204.531 290.908 204.599 290.704 204.645 290.499L200.321 289.52C200.276 289.793 200.23 290.089 200.185 290.362Z" fill="white"/>
<path id="Vector_33" d="M189.673 275.204L189.514 276.16C189.514 276.182 189.514 276.205 189.514 276.228L189.354 277.115C189.263 277.662 189.172 278.208 189.058 278.731C189.923 278.731 190.765 278.981 191.493 279.186C191.926 279.3 192.403 279.436 192.927 279.55C193.336 278.503 193.678 277.138 193.974 275.978C194.019 275.75 194.087 275.545 194.133 275.34L189.809 274.362C189.764 274.635 189.718 274.931 189.673 275.204Z" fill="white"/>
<path id="Vector_34" d="M194.746 260.158L194.587 261.114C194.587 261.137 194.587 261.159 194.587 261.182L194.428 262.07C194.337 262.616 194.246 263.162 194.132 263.685C194.997 263.685 195.839 263.936 196.567 264.14C196.999 264.254 197.477 264.391 198 264.504C198.41 263.458 198.751 262.092 199.047 260.932C199.093 260.704 199.161 260.499 199.206 260.295L194.883 259.316C194.837 259.589 194.792 259.885 194.746 260.158Z" fill="white"/>
<path id="Vector_35" d="M196.499 221.325L196.34 222.281C196.34 222.303 196.34 222.326 196.34 222.349L196.18 223.236C196.089 223.782 195.998 224.329 195.885 224.852C196.749 224.852 197.591 225.102 198.319 225.307C198.752 225.421 199.23 225.557 199.753 225.671C200.163 224.624 200.504 223.259 200.8 222.099C200.845 221.871 200.914 221.666 200.959 221.461L196.636 220.483C196.59 220.756 196.544 221.052 196.499 221.325Z" fill="white"/>
<path id="Vector_36" d="M191.47 231.615L191.311 232.571C191.311 232.594 191.311 232.617 191.311 232.639L191.152 233.527C191.06 234.073 190.969 234.619 190.856 235.142C191.72 235.142 192.562 235.393 193.291 235.598C193.723 235.711 194.201 235.848 194.724 235.962C195.134 234.915 195.475 233.55 195.771 232.389C195.816 232.162 195.885 231.957 195.93 231.752L191.607 230.773C191.561 231.047 191.516 231.342 191.47 231.615Z" fill="white"/>
<path id="Vector_37" d="M244.535 192.669L244.376 193.625C244.376 193.648 244.376 193.671 244.376 193.693L244.216 194.581C244.125 195.127 244.034 195.673 243.921 196.197C244.785 196.197 245.627 196.447 246.355 196.652C246.788 196.765 247.266 196.902 247.789 197.016C248.199 195.969 248.54 194.604 248.836 193.443C248.881 193.216 248.95 193.011 248.995 192.806L244.672 191.828C244.626 192.101 244.581 192.396 244.535 192.669Z" fill="white"/>
<path id="Vector_38" d="M226.285 179.421L226.126 180.377C226.126 180.399 226.126 180.422 226.126 180.445L225.966 181.332C225.875 181.879 225.784 182.425 225.67 182.948C226.535 182.948 227.377 183.198 228.105 183.403C228.538 183.517 229.015 183.654 229.539 183.767C229.948 182.721 230.29 181.355 230.586 180.195C230.631 179.967 230.699 179.762 230.745 179.558L226.421 178.579C226.376 178.852 226.33 179.148 226.285 179.421Z" fill="white"/>
<path id="Vector_39" d="M212.678 191.94L212.519 192.895C212.519 192.918 212.519 192.941 212.519 192.964L212.36 193.851C212.269 194.397 212.178 194.943 212.064 195.467C212.928 195.467 213.77 195.717 214.499 195.922C214.931 196.036 215.409 196.172 215.932 196.286C216.342 195.239 216.683 193.874 216.979 192.713C217.024 192.486 217.093 192.281 217.138 192.076L212.815 191.098C212.769 191.371 212.724 191.667 212.678 191.94Z" fill="white"/>
<path id="Vector_40" d="M266.814 178.536L266.654 179.492C266.654 179.514 266.654 179.537 266.654 179.56L266.495 180.447C266.404 180.994 266.313 181.54 266.199 182.063C267.064 182.063 267.906 182.313 268.634 182.518C269.066 182.632 269.544 182.768 270.068 182.882C270.477 181.835 270.819 180.47 271.114 179.31C271.16 179.082 271.228 178.877 271.274 178.672L266.95 177.694C266.905 177.967 266.859 178.263 266.814 178.536Z" fill="white"/>
<path id="Vector_41" d="M275.279 172.395L275.119 173.351C275.119 173.373 275.119 173.396 275.119 173.419L274.96 174.306C274.869 174.853 274.778 175.399 274.664 175.922C275.529 175.922 276.371 176.172 277.099 176.377C277.532 176.491 278.009 176.627 278.533 176.741C278.942 175.694 279.284 174.329 279.58 173.169C279.625 172.941 279.693 172.736 279.739 172.531L275.415 171.553C275.37 171.826 275.324 172.122 275.279 172.395Z" fill="white"/>
<path id="Vector_42" d="M282.332 167.702L282.173 168.658C282.173 168.68 282.173 168.703 282.173 168.726L282.013 169.613C281.922 170.16 281.831 170.706 281.718 171.229C282.582 171.229 283.424 171.479 284.152 171.684C284.585 171.798 285.063 171.934 285.586 172.048C285.996 171.001 286.337 169.636 286.633 168.476C286.678 168.248 286.746 168.043 286.792 167.838L282.468 166.86C282.423 167.133 282.377 167.429 282.332 167.702Z" fill="white"/>
<path id="Vector_43" d="M307.112 163.467L306.953 164.423C306.953 164.445 306.953 164.468 306.953 164.491L306.794 165.378C306.703 165.924 306.612 166.471 306.498 166.994C307.363 166.994 308.204 167.244 308.933 167.449C309.365 167.563 309.843 167.699 310.366 167.813C310.776 166.766 311.117 165.401 311.413 164.241C311.458 164.013 311.527 163.808 311.572 163.603L307.249 162.625C307.203 162.898 307.158 163.194 307.112 163.467Z" fill="white"/>
<path id="Vector_44" d="M284.381 147.447L284.221 148.402C284.221 148.425 284.221 148.448 284.221 148.471L284.062 149.358C283.971 149.904 283.88 150.45 283.766 150.974C284.631 150.974 285.473 151.224 286.201 151.429C286.633 151.543 287.111 151.679 287.635 151.793C288.044 150.746 288.386 149.381 288.681 148.22C288.727 147.993 288.795 147.788 288.841 147.583L284.517 146.605C284.472 146.878 284.426 147.174 284.381 147.447Z" fill="white"/>
<path id="Vector_45" d="M317.468 144.419L317.309 145.375C317.309 145.397 317.309 145.42 317.309 145.443L317.149 146.33C317.058 146.877 316.967 147.423 316.853 147.946C317.718 147.946 318.56 148.196 319.288 148.401C319.721 148.515 320.199 148.651 320.722 148.765C321.131 147.718 321.473 146.353 321.769 145.193C321.814 144.965 321.882 144.76 321.928 144.555L317.604 143.577C317.559 143.85 317.513 144.146 317.468 144.419Z" fill="white"/>
<path id="Vector_46" d="M354.833 144.641C354.947 145.574 354.719 146.552 354.514 147.531C354.4 148.031 354.309 148.532 354.241 149.01L354.173 149.374C354.173 149.374 354.15 149.442 354.127 149.465C355.515 149.738 356.881 150.034 358.292 150.352L359.498 145.665C358.314 145.369 357.154 145.118 356.016 144.891L354.81 144.641H354.833Z" fill="white"/>
<path id="Vector_47" d="M208.287 257.68V257.612C208.719 256.019 209.083 254.562 209.516 253.083C207.809 252.674 206.466 252.401 204.828 252.15L204.691 252.856C204.464 253.994 204.259 255.04 204.145 256.315L204.031 256.724H204.077C205.465 257.066 206.899 257.384 208.31 257.657L208.287 257.68Z" fill="white"/>
<path id="Vector_48" d="M226.468 209.628C226.764 208.263 227.082 206.897 227.424 205.532L223.191 204.781C222.941 205.896 222.713 207.034 222.486 208.149L222.372 208.74C223.737 209.014 225.148 209.332 226.24 209.605L226.491 209.673L226.468 209.628Z" fill="white"/>
<path id="Vector_49" d="M215.113 228.405C215.409 226.858 215.614 225.766 216.023 224.992L211.131 223.945C210.767 225.425 210.471 226.858 210.13 228.497L214.886 229.543L215.113 228.405Z" fill="white"/>
<path id="Vector_50" d="M218.616 223.487C219.413 223.487 220.391 223.737 221.688 224.056L223.076 224.397L224.373 218.936C223.122 219.05 221.575 218.685 219.8 218.185L218.639 223.487H218.616Z" fill="white"/>
<path id="Vector_51" d="M206.034 234.754C206.421 233.661 206.694 232.637 206.967 231.454C207.035 231.181 207.081 230.908 207.149 230.612L206.466 230.453C205.329 230.18 203.986 229.861 202.78 229.702L201.893 233.889C203.303 234.208 204.669 234.526 206.011 234.822V234.754H206.034Z" fill="white"/>
<path id="Vector_52" d="M216.41 232.21C216.069 233.894 215.728 235.578 215.409 237.216V237.284L220.256 238.445L221.621 232.71C220.529 233.097 219.186 232.801 216.934 232.324L216.41 232.21Z" fill="white"/>
<path id="Vector_53" d="M302.766 177.465L302.538 178.739C302.242 180.4 302.06 181.493 301.582 182.266L307.226 183.609L308.432 178.512L308.136 178.444C306.998 178.216 306.065 178.102 305.314 178.011C304.29 177.875 303.448 177.784 302.789 177.465H302.766Z" fill="white"/>
<path id="Vector_54" d="M262.102 190.418L261.875 191.693C261.579 193.354 261.397 194.446 260.919 195.22L266.562 196.562L267.768 191.465L267.473 191.397C266.335 191.169 265.402 191.056 264.651 190.965C263.627 190.828 262.785 190.737 262.125 190.418H262.102Z" fill="white"/>
<path id="Vector_55" d="M291.708 188.187L285.45 187.891L282.992 193.126L276.029 192.58L274.345 198.566L267.541 198.225L265.766 204.006L272.957 205.714L274.618 198.635L281.445 200.251L283.152 193.081L290.137 194.743L291.708 188.187Z" fill="white"/>
<path id="Vector_56" d="M293.05 180.835L293.186 180.197C293.3 179.674 293.391 179.196 293.482 178.764L293.573 178.286C293.573 178.286 293.573 178.218 293.573 178.172L293.755 177.217C293.892 176.625 294.028 176.124 294.21 175.692L288.908 174.577C288.59 176.147 288.317 177.672 288.021 179.31L287.953 179.742C288.681 179.742 289.546 179.97 290.706 180.266L293.004 180.812L293.05 180.835Z" fill="white"/>
<path id="Vector_57" d="M330.916 220.848C330.597 222.304 330.278 223.76 329.983 225.24H330.074C331.439 225.535 332.85 225.831 334.147 226.15C334.192 225.831 334.238 225.535 334.283 225.262C334.465 224.033 334.647 222.805 335.262 221.849C333.828 221.508 332.372 221.166 330.916 220.848Z" fill="white"/>
<path id="Vector_58" d="M358.314 231.023C358.86 231.16 359.361 231.251 359.884 231.364C360.612 231.524 361.295 231.66 361.932 231.842C362.433 230.227 362.842 228.998 363.388 228.11C361.932 227.61 360.817 227.337 359.133 227.109C358.86 228.383 358.564 229.68 358.314 231.023Z" fill="white"/>
<path id="Vector_59" d="M278.237 185.502L284.13 186.025L284.927 182.84C285.131 182.089 285.655 180.974 285.655 180.974C285.655 180.974 281.877 180.086 280.694 179.973C280.285 180.974 278.237 185.525 278.237 185.525V185.502Z" fill="white"/>
<path id="Vector_60" d="M254.07 297.467C255.367 297.763 256.801 298.104 258.029 298.218C258.371 296.603 258.735 295.192 259.076 293.963C257.665 293.644 256.3 293.326 254.935 293.053C254.593 294.623 254.32 296.034 254.047 297.445L254.07 297.467Z" fill="white"/>
<path id="Vector_61" d="M301.288 250.686V250.664L299.286 255.966L305.043 256.944L307.5 251.619L301.288 250.686Z" fill="white"/>
<path id="Vector_62" d="M243.671 206.618L249.428 207.984L249.906 205.777C249.974 205.435 250.042 205.094 250.11 204.798V204.684H250.133C250.315 203.933 250.497 203.319 250.77 202.841H250.725C249.086 202.454 247.425 202.09 245.764 201.726C244.945 203.524 244.331 204.98 243.648 206.618H243.671Z" fill="white"/>
<path id="Vector_63" d="M204.942 271.789L206.079 267.306H205.943C204.532 266.965 203.121 266.646 201.733 266.373C201.278 267.83 201.005 269.263 200.732 270.833L201.233 270.947C202.302 271.175 203.69 271.47 204.942 271.789Z" fill="white"/>
<path id="Vector_64" d="M239.849 294.344L243.967 295.231C244.377 293.797 244.809 292.387 245.31 290.885C243.672 290.543 242.215 290.248 240.782 289.974L239.849 294.366V294.344Z" fill="white"/>
<path id="Vector_65" d="M234.524 204.236L234.592 204.009C234.979 202.916 235.32 201.778 235.639 200.663L235.707 200.413C235.707 200.413 235.752 200.277 235.775 200.208C234.637 199.981 233.5 199.776 232.362 199.548C231.543 200.755 230.792 202.029 230.064 203.28C231.042 203.485 231.998 203.69 232.976 203.895L234.501 204.213L234.524 204.236Z" fill="white"/>
<path id="Vector_66" d="M225.648 291.161C227.149 291.502 228.651 291.843 230.13 292.162C230.517 290.66 230.927 289.181 231.382 287.611L226.421 286.473C226.216 288.225 225.943 289.636 225.625 291.161H225.648Z" fill="white"/>
<path id="Vector_67" d="M217.251 284.33C215.704 283.988 214.179 283.647 212.632 283.306C212.427 284.125 212.245 284.921 212.063 285.672C211.881 286.491 211.699 287.288 211.54 288.084L211.813 288.13C213.633 288.471 214.999 288.767 216 289.131C216.432 287.333 216.819 285.854 217.251 284.284V284.33Z" fill="white"/>
<path id="Vector_68" d="M372.195 222.875C370.739 222.761 368.827 222.352 367.416 221.76C367.416 222.283 367.325 222.784 367.234 223.33C367.166 223.717 367.121 224.127 367.075 224.582C366.916 225.31 366.779 225.833 366.665 226.357C367.257 226.357 367.963 226.425 368.759 226.584C369.487 226.721 370.261 226.857 371.171 226.994C371.49 225.537 371.831 224.24 372.172 222.898L372.195 222.875Z" fill="white"/>
<path id="Vector_69" d="M332.803 165.56C333.167 164.263 333.463 163.239 333.872 162.465C332.371 162.146 330.869 161.805 329.344 161.441C328.889 162.988 328.616 164.308 328.275 165.878C329.731 166.197 331.096 166.515 332.439 166.811L332.803 165.56Z" fill="white"/>
<path id="Vector_70" d="M322.473 171.821C322.882 171.912 323.337 172.003 323.838 172.094L324.771 168.135L320.812 167.202C320.584 168.043 320.356 168.908 320.152 169.773L319.719 171.411C320.493 171.411 321.403 171.593 322.473 171.821Z" fill="white"/>
<path id="Vector_71" d="M310.684 176.263L315.691 177.447L315.736 177.196C316.146 175.262 316.419 174.01 316.897 173.123C315.258 172.804 313.643 172.577 311.936 172.372C311.412 173.828 311.094 174.761 310.684 176.263Z" fill="white"/>
<path id="Vector_72" d="M216.683 252.783L217.912 247.64L213.133 246.502C212.815 248.164 212.519 249.825 212.223 251.486L212.177 251.713C212.769 251.827 213.315 251.918 213.793 252.009C214.931 252.214 215.932 252.373 216.706 252.783H216.683Z" fill="white"/>
<path id="Vector_73" d="M214.953 261.568C214.475 261.568 214.066 261.546 213.793 261.5C213.633 261.5 213.474 261.455 213.315 261.455L213.064 261.409L212.541 261.25C211.312 260.818 211.085 260.727 210.197 260.613C209.856 262.297 209.515 263.958 209.151 265.642C210.675 265.96 212.223 266.324 213.747 266.711L214.976 261.568H214.953Z" fill="white"/>
<path id="Vector_74" d="M212.587 238.74L212.268 238.672C210.676 238.353 209.128 238.034 207.99 237.625L206.898 242.722C208.4 243.063 209.902 243.427 211.404 243.792L212.61 238.717L212.587 238.74Z" fill="white"/>
<path id="Vector_75" d="M274.027 274.933L273.617 274.887C271.569 274.705 269.635 274.5 268.179 274.114L266.108 280.713C268.019 280.963 269.931 281.236 271.82 281.509L274.027 274.933Z" fill="white"/>
<path id="Vector_76" d="M277.076 283.241H276.758C275.187 283.059 273.686 282.899 272.571 282.626L270.978 287.701C272.457 287.883 273.913 288.088 275.369 288.315L277.076 283.241Z" fill="white"/>
<path id="Vector_77" d="M233.317 213.245C232.611 213.382 231.724 213.291 230.563 212.995C229.994 212.835 229.312 212.676 228.47 212.494L228.174 213.245C227.651 214.633 227.264 215.68 226.763 217.296L226.718 217.409L232.042 218.661L233.317 213.245Z" fill="white"/>
<path id="Vector_78" d="M267.973 288.611L267.859 288.566C266.426 288.156 265.06 287.883 263.604 287.587C263.286 289.066 262.99 290.545 262.694 292.025C264.105 292.32 265.379 292.593 266.744 292.98C267.131 291.501 267.495 290.113 267.996 288.611H267.973Z" fill="white"/>
<path id="Vector_79" d="M236.729 206.966C236.661 207.444 236.638 207.717 236.616 208.468L236.547 208.901C236.047 210.311 235.614 211.404 235.068 212.155L240.712 213.497L242.009 208.059L241.44 207.968C240.143 207.74 238.595 207.444 236.752 206.989L236.729 206.966Z" fill="white"/>
<path id="Vector_80" d="M239.576 287.541L241.533 282.375L234.729 280.782L233.75 286.175L239.576 287.541Z" fill="white"/>
<path id="Vector_81" d="M211.995 276.278L207.171 275.208C206.897 276.619 206.647 278.053 206.374 279.668C207.899 280.01 209.446 280.374 210.971 280.76L212.017 276.3L211.995 276.278Z" fill="white"/>
<path id="Vector_82" d="M270.408 190.758C271.25 190.689 272.251 190.94 273.594 191.281L275.755 191.827L276.279 189.574C276.597 188.209 276.825 187.208 277.28 186.48L271.637 185.205L270.408 190.758Z" fill="white"/>
<path id="Vector_83" d="M298.375 169.795C297.738 171.274 297.374 172.32 296.851 174.05C297.329 174.05 297.852 174.164 298.489 174.3L299.604 174.55C300.105 174.664 300.628 174.778 301.22 174.915C301.197 174.164 301.311 173.276 301.493 172.207C301.629 171.615 301.743 171.069 301.857 170.523L298.421 169.795H298.375Z" fill="white"/>
<path id="Vector_84" d="M298.352 227.107L300.104 219.709L305.907 221.075L307.432 214.588L301.174 213.108L302.721 206.576L296.008 204.982L294.575 211.014L287.862 209.421L289.455 202.706L295.417 204.118L297.01 197.426L290.752 195.946L289.136 202.752L282.31 201.136L280.739 207.737L286.861 209.193L285.268 215.908L278.555 214.315L280.011 208.146L272.889 206.462L271.205 213.541L264.469 211.947L262.763 219.14L255.868 217.524L254.184 224.603L246.902 222.873L245.059 230.635L238.346 229.041L236.662 236.12L230.268 234.595L228.811 240.741L235.319 242.266L233.453 250.118L227.355 248.684L225.944 254.625L231.906 256.036L233.294 250.141L240.576 251.871L238.847 259.155L232.907 257.743L231.588 263.32L237.8 264.777L239.256 258.654L246.538 260.384L244.922 267.235L251.794 268.806L249.837 276.089L243.875 274.678L241.759 282.075L248.654 283.282L249.974 276.317L256.778 277.637L258.553 270.171L264.765 271.673L267.314 265.05L274.277 266.461L276.712 259.678L283.038 260.794L285.268 254.124L291.639 255.217L294.211 248.138L300.15 249.344L301.765 243.108L295.599 241.788L294.142 247.023L287.02 245.521L288.522 239.284L294.848 240.809L296.35 234.459L289.455 232.82L291.184 225.468L298.261 227.152L298.352 227.107ZM294.871 211.629L301.583 213.222L299.991 219.937L293.278 218.343L294.871 211.629ZM258.576 270.103L251.931 268.669L254.002 261.909L260.282 263.388L258.576 270.08V270.103ZM267.336 264.868L261.056 263.388L262.535 257.106L268.815 258.586L267.336 264.868ZM276.143 259.2L269.862 257.698L271.364 251.416L277.645 252.895L276.166 259.177L276.143 259.2ZM285.086 253.851L278.236 252.235L279.852 245.384L286.701 247L285.086 253.851Z" fill="white"/>
<path id="Vector_85" d="M340.883 161.283H340.951L342.521 156.778L337.492 155.731C337.424 156.391 337.31 157.051 337.174 157.824C337.014 158.757 336.855 159.668 336.764 160.646C337.765 160.623 339.017 160.896 340.86 161.306L340.883 161.283Z" fill="white"/>
<path id="Vector_86" d="M373.97 194.219C373.288 195.448 373.106 196.244 372.833 197.405C372.764 197.678 372.696 197.951 372.628 198.246C373.197 198.337 373.766 198.429 374.357 198.542C375.29 198.702 376.223 198.861 377.088 198.952C377.452 197.587 377.862 196.312 378.271 195.015C376.906 194.742 375.518 194.469 374.175 194.219H373.993H373.97Z" fill="white"/>
<path id="Vector_87" d="M353.01 186.113L357.129 186.977C357.47 185.657 357.857 184.315 358.244 183.018L358.29 182.881L353.898 181.948L353.033 186.09L353.01 186.113Z" fill="white"/>
<path id="Vector_88" d="M298.464 227.737L297.086 233.561L303.043 234.97L304.421 229.146L298.464 227.737Z" fill="white"/>
<path id="Vector_89" d="M347.595 177.512L347.55 177.648C348.915 177.921 350.28 178.217 351.577 178.536H351.6C351.964 177.079 352.397 175.646 352.852 174.19L348.414 173.234C348.119 174.667 347.823 176.055 347.572 177.512H347.595Z" fill="white"/>
<path id="Vector_90" d="M217.616 259.656C217.571 259.793 217.525 259.907 217.48 260.02L222.577 261.226L223.76 256.266L218.299 254.969C218.527 256.197 218.14 257.745 217.616 259.634V259.656Z" fill="white"/>
<path id="Vector_91" d="M342.998 164.492C342.725 165.539 342.498 166.563 342.247 167.655L341.974 168.952L346.548 169.999L347.663 165.425C346.708 165.243 345.729 165.038 344.773 164.856L342.998 164.492Z" fill="white"/>
<path id="Vector_92" d="M358.609 194.698L358.495 195.221C359.451 195.108 360.611 195.381 362.273 195.79L362.933 195.95C362.955 195.79 362.978 195.654 363.001 195.495C363.228 194.197 363.479 192.673 364.116 191.49L359.542 190.488C359.223 191.899 358.905 193.333 358.609 194.744V194.698Z" fill="white"/>
<path id="Vector_93" d="M312.915 223.812L307.818 222.606L306.635 227.635L311.595 228.818C312.028 226.998 312.392 225.61 312.915 223.835V223.812Z" fill="white"/>
<path id="Vector_94" d="M315.304 247.254L310.207 246.048L309.024 251.077L313.985 252.26C314.417 250.44 314.781 249.052 315.304 247.277V247.254Z" fill="white"/>
<path id="Vector_95" d="M310.254 238.924L305.157 237.718L303.974 242.747L308.934 243.93C309.367 242.11 309.731 240.722 310.254 238.947V238.924Z" fill="white"/>
<path id="Vector_96" d="M319.788 222.876C320.129 221.465 320.47 220.077 320.857 218.666L319.56 218.348C318.9 218.234 318.126 218.029 317.398 217.847L316.716 217.688L315.601 222.398L319.697 223.309L319.788 222.899V222.876Z" fill="white"/>
<path id="Vector_97" d="M349.369 224.993H349.256C347.913 224.651 346.32 224.264 345.046 224.128C345.046 224.173 345.046 224.196 345.023 224.242V224.287C344.659 225.744 344.386 227.086 344.136 228.292C345.455 228.52 346.752 228.747 348.049 228.998C348.391 227.564 348.732 226.221 349.392 224.993H349.369Z" fill="white"/>
<path id="Vector_98" d="M357.038 224.217C357.38 222.693 357.744 221.168 358.108 219.644C356.424 219.302 354.831 218.984 353.261 218.62L352.533 223.102H352.601C354.171 223.558 355.559 223.876 357.038 224.195V224.217Z" fill="white"/>
<path id="Vector_99" d="M369.327 212.678C370.215 212.587 371.262 212.814 372.877 213.156L374.265 213.429C374.652 211.767 375.039 210.084 375.449 208.445C373.696 208.081 372.104 207.74 370.42 207.444L369.327 212.655V212.678Z" fill="white"/>
<path id="Vector_100" d="M339.97 220.094C340.835 220.413 341.45 220.618 342.064 220.8C342.383 220.891 342.701 221.004 342.997 221.118C343.429 218.433 343.816 216.931 344.726 216.021L339.037 214.792L337.991 220.14C338.4 220.071 338.855 220.026 339.379 220.026L339.925 220.117L339.97 220.094Z" fill="white"/>
<path id="Vector_101" d="M335.854 152.611H335.9L335.968 152.361C336.332 150.881 336.673 149.425 337.06 147.969L332.236 146.877C332.031 147.992 331.872 149.084 331.69 150.176L331.417 151.769C332.828 152.088 334.239 152.383 335.831 152.588L335.854 152.611Z" fill="white"/>
<path id="Vector_102" d="M265.084 204.463L258.94 203.962L257.006 209.537L263.514 211.062L265.084 204.463Z" fill="white"/>
<path id="Vector_103" d="M256.732 209.791L250.52 209.245L249.132 215.139L255.139 216.55L256.755 209.791H256.732Z" fill="white"/>
<path id="Vector_104" d="M351.486 215.771C351.645 215.18 351.781 214.634 351.895 214.156L351.963 213.883C351.963 213.883 351.986 213.769 352.009 213.723L352.191 212.973C352.487 211.88 352.805 211.016 353.442 210.447L352.828 210.31C351.167 209.946 349.483 209.582 347.799 209.263L347.526 209.218L347.481 209.627C347.253 211.311 346.98 212.79 346.684 214.338L346.525 215.18C347.458 215.066 348.527 215.248 349.847 215.498C350.348 215.589 350.894 215.68 351.486 215.794V215.771Z" fill="white"/>
<path id="Vector_105" d="M242.046 215.073L240.569 221.318L246.415 222.701L247.892 216.456L242.046 215.073Z" fill="white"/>
<path id="Vector_106" d="M289.819 264.191L283.402 263.326L281.081 270.312L287.498 271.199L289.819 264.191Z" fill="white"/>
<path id="Vector_107" d="M304.969 199.783L303.665 205.297L309.113 206.586L310.417 201.072L304.969 199.783Z" fill="white"/>
<path id="Vector_108" d="M360.475 210.036C360.93 208.511 361.294 207.055 361.704 205.53L362.819 205.735L361.726 205.462L361.817 205.12L361.59 205.075C359.838 204.711 358.04 204.301 356.265 203.869H356.174L356.151 204.096C355.901 205.94 355.628 207.259 355.309 208.784L355.104 209.763C356.06 209.649 357.266 209.922 359.337 210.4L360.361 210.627L360.543 210.036H360.475Z" fill="white"/>
<path id="Vector_109" d="M343.5 183.454C343.795 182.225 344.091 180.973 344.478 179.699C343.067 179.289 341.565 178.97 340.359 178.72L339.836 178.606C339.495 179.494 339.244 180.245 339.062 180.837L338.971 181.133C338.971 181.133 338.971 181.201 338.948 181.247L338.653 182.18C338.311 183.113 337.879 183.819 336.991 184.16C336.013 184.547 335.034 184.319 333.1 183.864C332.554 183.728 331.94 183.591 331.189 183.432L330.665 183.318L330.461 184.592C330.119 186.755 329.915 187.961 329.027 188.758L328.777 188.94C327.662 189.691 326.456 189.418 324.248 188.94L322.064 188.462L321.859 189.6C321.495 192.422 321.336 193.72 320.357 194.585L320.084 194.79C318.946 195.563 317.672 195.245 315.556 194.721L313.986 194.334L312.825 199.228L318.264 200.525L318.377 200.07C318.946 197.885 319.265 196.565 320.494 195.837C321.654 195.154 323.02 195.404 325.454 195.859L326.41 196.041L326.865 194.721C328.344 190.419 329.255 189.737 333.851 189.509L335.558 189.418C335.74 188.735 335.876 188.143 335.99 187.62C336.354 186.095 336.582 185.025 337.356 184.319C337.447 184.228 337.56 184.16 337.674 184.092C338.744 183.432 339.859 183.682 341.884 184.16L343.249 184.479L343.5 183.454Z" fill="white"/>
<path id="Vector_110" d="M214.635 274.064C216.227 274.405 217.798 274.769 219.39 275.133L220.483 270.514L215.431 269.308C215.203 270.901 214.93 272.494 214.635 274.064Z" fill="white"/>
<path id="Vector_111" d="M224.193 263.838L223.093 268.489L228.385 269.741L229.485 265.091L224.193 263.838Z" fill="white"/>
<path id="Vector_112" d="M221.971 240.432L220.709 245.769L225.979 247.016L227.241 241.679L221.971 240.432Z" fill="white"/>
<path id="Vector_113" d="M281.377 270.012L275.665 269.238L273.663 275.177L279.374 275.951L281.377 270.012Z" fill="white"/>
<path id="Vector_114" d="M230.496 227.449L224.489 226.038L224.216 227.54C223.874 229.451 223.67 230.68 223.101 231.544L229.176 232.978L230.496 227.449Z" fill="white"/>
<path id="Vector_115" d="M266.404 280.554L259.373 279.599L258.872 281.396C258.235 283.672 257.825 285.128 257.052 286.198L264.174 287.153L266.404 280.531V280.554Z" fill="white"/>
<path id="Vector_116" d="M235.229 273.815L229.79 272.518L228.47 278.07L233.886 279.276L235.229 273.815Z" fill="white"/>
<path id="Vector_117" d="M233.062 220.813L231.678 226.659L237.458 228.027L238.841 222.182L233.062 220.813Z" fill="white"/>
<path id="Vector_118" d="M253.059 195.042L251.675 200.888L257.455 202.256L258.838 196.41L253.059 195.042Z" fill="white"/>
<path id="Vector_119" d="M297.646 258.974L291.457 257.973L289.477 264.367L295.667 265.346L297.646 258.974Z" fill="white"/>
<path id="Vector_120" d="M226.103 279.482L226.239 279.004L221.233 277.821C220.869 279.482 220.528 281.143 220.186 282.804C221.893 283.123 223.395 283.464 224.851 283.828C225.306 282.394 225.716 280.938 226.126 279.482H226.103Z" fill="white"/>
<path id="Vector_121" d="M324.361 216.502C325.749 216.729 327.296 217.116 328.639 217.435C329.026 216.024 329.435 214.613 329.868 213.202L329.936 212.952C329.549 212.997 329.048 212.997 328.275 212.952L327.387 212.815C326.568 212.497 325.999 212.315 325.362 212.11L324.361 216.524V216.502Z" fill="white"/>
<path id="Vector_122" d="M323.589 207.765C324.089 205.921 324.431 204.601 325.705 203.85C326.979 203.099 328.572 203.327 331.075 204.009C331.553 204.146 331.963 204.374 332.281 204.738L332.805 202.735C333.328 200.641 333.647 199.343 334.875 198.66C336.172 197.955 337.743 198.41 340.155 199.229L340.701 199.412L341.042 198.114C341.201 197.545 341.315 197.044 341.429 196.612C341.839 194.95 342.112 193.881 342.863 193.22C342.999 193.107 343.158 192.993 343.34 192.902C344.387 192.31 345.479 192.583 347.505 193.038L349.12 193.403L349.28 192.674C349.621 191.172 349.985 189.601 350.326 188.076L344.979 186.847V186.893C344.819 187.621 344.706 188.236 344.615 188.759C344.296 190.512 344.114 191.559 343.318 192.264L342.999 192.492C341.975 193.152 340.837 192.856 338.926 192.378C338.402 192.242 337.788 192.082 337.06 191.923L335.99 191.673L335.763 193.311C335.467 195.474 335.308 196.68 334.397 197.477L334.17 197.659C333.009 198.456 331.735 198.137 329.186 197.522L327.594 197.135L327.434 198.273C327.047 201.028 326.865 202.393 325.91 203.235L325.637 203.44C324.544 204.169 323.338 203.85 321.518 203.372C321.086 203.258 320.608 203.144 320.062 203.008L318.855 208.061L323.202 209.085C323.338 208.607 323.475 208.152 323.566 207.765H323.589Z" fill="white"/>
<path id="Vector_123" d="M307.203 191.167L312.778 192.487L313.211 190.507C313.256 190.325 313.279 190.143 313.325 189.984L313.393 189.688C313.666 188.528 313.939 187.708 314.576 187.162H314.599L308.523 185.706L307.226 191.19L307.203 191.167Z" fill="white"/>
<path id="Vector_124" d="M293.573 182.339L293.414 183.295C293.004 185.798 292.8 187.118 291.958 187.959L298.443 189.484L299.877 183.454C299.512 183.522 299.126 183.522 298.693 183.454L297.942 183.317C297.51 183.226 297.032 183.113 296.486 182.976C295.917 182.84 295.371 182.703 294.734 182.544L293.596 182.271L293.573 182.339Z" fill="white"/>
<path id="Vector_125" d="M310.589 208.735L309.584 212.987L314.677 214.192L315.682 209.94L310.589 208.735Z" fill="white"/>
<path id="Vector_126" d="M369.874 200.139L364.867 199.024C364.572 200.526 364.253 202.005 363.934 203.484L363.843 203.917L368.645 204.941C369.009 203.416 369.418 201.801 369.874 200.139Z" fill="white"/>
<path id="Vector_127" d="M337.492 212.339C338.129 209.722 338.561 208.151 339.699 207.263C340.996 206.285 342.543 206.626 345.092 207.195L346.093 207.4L346.639 205.443C347.117 203.644 347.459 202.461 348.278 201.732C348.437 201.596 348.596 201.482 348.801 201.368C349.962 200.754 351.168 201.027 353.58 201.596L354.649 201.846L355.013 200.458C355.514 198.478 355.855 197.157 356.515 196.315L350.531 194.995L350.326 196.429C349.984 198.865 349.802 200.094 348.892 200.913L348.619 201.118C347.527 201.846 346.344 201.528 344.341 201.027C343.772 200.89 343.203 200.731 342.521 200.572L341.633 200.367L341.406 202.028C341.087 204.396 340.905 205.579 340.018 206.376L339.744 206.581C338.675 207.309 337.469 206.99 335.489 206.467C335.034 206.353 334.556 206.216 334.01 206.08L332.872 205.807C333.259 207.127 332.804 208.766 332.212 210.587C332.099 210.905 332.03 211.178 331.962 211.383L331.871 211.747L332.121 211.793C333.828 212.112 335.421 212.43 337.355 212.863L337.492 212.339Z" fill="white"/>
<path id="Vector_128" d="M365.618 218.547C365.8 217.955 365.96 217.409 366.073 216.931C366.46 215.521 366.756 214.519 367.28 213.791L366.347 213.586C364.89 213.268 363.366 212.926 361.909 212.54L361.727 212.494L361.682 212.813C361.454 214.542 361.136 216.067 360.794 217.66L361.568 217.819C363.001 218.115 364.185 218.342 365.596 218.524H365.618V218.547Z" fill="white"/>
<path id="Vector_129" d="M305.293 192.307L299.354 190.896L298.58 194.15C298.557 194.264 298.512 194.446 298.466 194.605L297.92 196.926L303.882 198.337L305.316 192.307H305.293Z" fill="white"/>
<path id="Vector_130" d="M347.913 151.064C347.299 150.905 346.685 150.768 346.093 150.7L345.979 151.041C345.706 151.815 345.501 152.407 345.319 153.18C345.274 153.431 345.206 153.704 345.16 154.022L344.978 155.251C346.616 155.479 348.278 155.706 349.893 155.979V155.843C350.28 154.386 350.644 152.998 351.076 151.542C350.03 151.565 348.892 151.292 347.913 151.041V151.064Z" fill="white"/>
<path id="Vector_131" d="M324.657 180.493C325.863 180.289 327.342 180.766 329.276 181.472L329.504 181.563L329.822 180.061C330.209 178.263 330.459 177.057 330.937 176.193L325.886 175.078L324.657 180.516V180.493Z" fill="white"/>
<path id="Vector_132" d="M333.328 174.641C334.261 174.573 335.376 174.869 336.969 175.255L338.266 175.574C338.63 173.936 339.017 172.343 339.403 170.75C338.948 170.659 338.516 170.568 338.084 170.477C337.219 170.295 336.65 170.181 336.036 170.067L334.306 169.612C334.033 171.251 333.715 172.798 333.396 174.277L333.328 174.641Z" fill="white"/>
<path id="Vector_133" d="M317.876 180.492L316.465 186.477C317.239 186.477 318.172 186.727 319.401 187.023L321.221 187.455L321.494 186.204C321.585 185.749 321.676 185.339 321.767 184.952C322.063 183.473 322.291 182.335 322.905 181.539L320.812 181.084C319.833 180.879 318.877 180.674 317.899 180.469L317.876 180.492Z" fill="white"/>
<path id="Vector_134" d="M237.847 149.031L241.169 158.113L236.8 166.694L245.857 163.371L254.436 167.764L251.114 158.705L255.505 150.101L246.449 153.424L237.847 149.031Z" fill="white"/>
<path id="Vector_135" d="M300.956 299.889L304.278 308.948L299.886 317.529L308.943 314.205L317.544 318.598L314.222 309.539L318.614 300.936L309.535 304.259L300.956 299.889Z" fill="white"/>
<path id="Vector_136" d="M353.672 241.635L356.995 250.694L352.603 259.298L361.659 255.952L370.261 260.345L366.939 251.286L371.331 242.682L362.274 246.028L353.672 241.635Z" fill="white"/>
<path id="Vector_137" d="M276.872 321.98L278.897 327.488L276.234 332.7L281.741 330.697L286.952 333.361L284.927 327.852L287.612 322.617L282.105 324.643L276.872 321.98Z" fill="white"/>
<path id="Vector_138" d="M157.883 297.668L159.909 303.176L157.246 308.389L162.753 306.363L167.964 309.026L165.939 303.541L168.601 298.305L163.117 300.331L157.883 297.668Z" fill="white"/>
<path id="Vector_139" d="M221.389 324.573L224.712 333.655L220.343 342.236L229.399 338.912L237.978 343.305L234.656 334.246L239.048 325.643L229.991 328.966L221.389 324.573Z" fill="white"/>
<path id="Vector_140" d="M321.631 256.424L324.953 265.483L320.562 274.087L329.618 270.764L338.22 275.157L334.898 266.098L339.289 257.494L330.233 260.817L321.631 256.424Z" fill="white"/>
<path id="Vector_141" d="M159.544 251.898L162.867 260.957L158.475 269.561L167.532 266.238L176.133 270.631L172.811 261.572L177.203 252.968L168.146 256.291L159.544 251.898Z" fill="white"/>
<path id="Vector_142" d="M229.04 197.27L230.587 201.525L228.539 205.553L232.772 203.983L236.799 206.053L235.252 201.798L237.3 197.77L233.067 199.318L229.04 197.27Z" fill="white"/>
<path id="Vector_143" d="M237.299 180.52L238.869 184.752L236.798 188.78L241.054 187.233L245.081 189.281L243.511 185.026L245.582 180.998L241.327 182.568L237.299 180.52Z" fill="white"/>
<path id="Vector_144" d="M252.25 181.176L253.82 185.408L251.749 189.436L256.005 187.889L260.032 189.937L258.485 185.704L260.533 181.677L256.278 183.224L252.25 181.176Z" fill="white"/>
<path id="Vector_145" d="M315.282 152.474L316.852 156.707L314.782 160.734L319.037 159.187L323.065 161.235L321.494 157.002L323.565 152.952L319.31 154.522L315.282 152.474Z" fill="white"/>
<path id="Vector_146" d="M358.769 170.571L360.316 174.826L358.268 178.854L362.501 177.284L366.551 179.355L364.981 175.099L367.029 171.072L362.797 172.642L358.769 170.571Z" fill="white"/>
<path id="Vector_147" d="M315.237 229.388L316.784 233.643L314.736 237.671L318.968 236.101L322.996 238.171L321.449 233.916L323.497 229.888L319.264 231.436L315.237 229.388Z" fill="white"/>
<path id="Vector_148" d="M283.311 276.707L284.881 280.939L282.81 284.967L287.066 283.419L291.093 285.467L289.523 281.235L291.594 277.207L287.339 278.755L283.311 276.707Z" fill="white"/>
<path id="Vector_149" d="M242.078 299.628L243.625 303.884L241.577 307.911L245.832 306.341L249.86 308.412L248.29 304.157L250.361 300.129L246.105 301.676L242.078 299.628Z" fill="white"/>
<path id="Vector_150" d="M192.107 240.175L193.655 244.43L191.607 248.458L195.839 246.888L199.867 248.959L198.32 244.703L200.368 240.676L196.135 242.246L192.107 240.175Z" fill="white"/>
<path id="Vector_151" d="M386.099 209.012L387.647 213.245L385.599 217.295L389.831 215.725L393.859 217.773L392.312 213.541L394.36 209.513L390.127 211.06L386.099 209.012Z" fill="white"/>
<path id="Vector_152" d="M360.203 152.455L361.773 156.687L359.725 160.715L363.957 159.168L367.985 161.215L366.438 156.983L368.486 152.955L364.253 154.503L360.203 152.455Z" fill="white"/>
<path id="Vector_153" d="M205.965 205.643L207.513 209.898L205.465 213.926L209.697 212.378L213.748 214.426L212.178 210.171L214.226 206.143L209.993 207.714L205.965 205.643Z" fill="white"/>
<path id="Vector_154" d="M164.55 217.436L166.097 221.691L164.049 225.719L168.282 224.171L172.309 226.219L170.762 221.964L172.81 217.936L168.577 219.506L164.55 217.436Z" fill="white"/>
<path id="Vector_155" d="M194.474 307.477L196.022 311.71L193.974 315.738L198.229 314.19L202.257 316.238L200.687 312.006L202.757 307.978L198.502 309.525L194.474 307.477Z" fill="white"/>
<path id="Vector_156" d="M319.241 287.133L320.811 291.388L318.74 295.416L322.995 293.846L327.023 295.917L325.476 291.661L327.524 287.634L323.268 289.181L319.241 287.133Z" fill="white"/>
<path id="Vector_157" d="M272.753 157.889L274.323 162.144L272.253 166.172L276.508 164.602L280.536 166.65L278.966 162.417L281.036 158.39L276.781 159.937L272.753 157.889Z" fill="white"/>
<path id="Vector_158" d="M292.025 157.369L293.573 161.624L291.525 165.652L295.757 164.082L299.785 166.153L298.238 161.897L300.286 157.87L296.053 159.44L292.025 157.369Z" fill="white"/>
</g>
</g>
</g>
</g>
</g>
</svg>
