<svg preserveAspectRatio="none" width="100%" height="100%" overflow="visible" style="display: block;" viewBox="0 0 644 560" fill="none" xmlns="http://www.w3.org/2000/svg">
<g id="Out There 1">
<path id="Vector" d="M169.988 259.473C157.644 259.909 146.244 257.008 135.787 250.844C125.331 244.68 116.981 235.76 110.591 224.084C104.201 212.409 100.788 198.195 100.208 181.66C99.6266 165.126 101.66 148.664 106.234 131.84C110.809 115.015 117.271 98.7711 125.694 83.3245C134.117 67.8054 144.138 53.8817 155.611 41.4809C167.156 29.0802 179.573 19.2176 192.861 11.8206C206.221 4.42367 219.945 0.507634 234.249 0C236.355 0 239.55 0.290077 243.689 0.942749C247.901 1.66794 252.039 4.06107 256.251 8.19466C254.944 8.04963 253.492 7.90459 251.894 7.83207C250.297 7.83207 248.627 7.83207 246.957 7.83207C235.847 8.19466 224.81 12.0382 213.773 19.2901C202.736 26.542 192.28 36.2596 182.477 48.2977C172.674 60.3359 163.961 73.897 156.482 88.9085C149.003 103.92 143.194 119.512 138.982 135.611C134.843 151.71 133.028 167.302 133.536 182.386C133.9 193.481 135.715 203.706 139.055 213.206C142.323 222.706 147.405 230.248 154.231 235.832C161.056 241.489 169.843 244.099 180.734 243.737C192.425 243.374 203.317 239.458 213.265 232.134C223.285 224.809 232.216 215.092 240.131 202.981C248.046 190.943 254.726 177.454 260.245 162.733C265.691 148.012 269.829 132.855 272.443 117.336C275.13 101.817 276.219 87.023 275.784 73.0268C275.566 66.8626 274.912 60.2634 273.823 53.1565C272.734 46.0497 271.064 40.0306 268.885 34.9542C266.707 29.9504 263.657 27.4848 259.882 27.5573C256.251 27.7023 252.403 30.0954 248.264 34.8092C244.125 39.5229 240.204 45.4695 236.355 52.5764C232.507 59.7558 229.239 67.2252 226.407 75.1298C223.575 82.9619 221.615 89.9963 220.526 96.2329C213.265 95.0001 207.964 92.8245 204.842 89.7062C201.647 86.5879 199.977 82.8169 199.831 78.3932C199.613 72.6642 201.429 66.21 205.277 59.0306C209.053 51.8512 214.136 44.9619 220.381 38.2901C226.625 31.6183 233.305 26.0344 240.276 21.5382C247.247 17.042 253.855 14.7214 260.027 14.5038C266.199 14.2863 271.645 16.3893 275.711 20.813C279.777 25.2367 283.045 31.0382 285.368 38.2176C287.765 45.397 289.507 53.0115 290.596 61.2062C291.686 69.3283 292.412 76.9428 292.63 83.9772C293.356 105.66 291.323 125.603 286.603 143.733C281.883 161.863 275.203 178.034 266.634 192.103C258.066 206.244 248.336 218.283 237.444 228.218C226.553 238.153 215.298 245.767 203.68 251.061C192.062 256.355 180.734 259.183 169.915 259.546L169.988 259.473Z" fill="var(--fill-0, white)"/>
<path id="Vector_2" d="M322.984 236.196C315.723 236.414 309.696 233.296 304.904 226.769C300.112 220.242 297.57 212.628 297.28 203.853C297.062 197.906 297.788 190.872 299.458 182.677C301.128 174.555 303.379 166.578 306.211 158.818C309.043 151.059 312.02 144.605 315.142 139.383C318.265 134.162 321.242 131.551 324.001 131.406C325.453 131.406 327.777 132.059 330.972 133.582C334.094 135.105 336.853 136.918 339.322 139.238C337.071 142.719 334.457 148.013 331.407 155.12C328.358 162.227 325.671 169.914 323.347 178.036C321.024 186.231 320.007 193.555 320.225 200.154C320.225 201.025 320.516 203.055 320.879 206.173C321.242 209.292 322.186 212.338 323.565 215.021C324.945 217.777 327.196 219.082 330.391 218.937C334.021 218.792 337.797 216.761 341.863 212.628C345.857 208.567 349.996 203.345 354.135 196.891C358.274 190.509 362.34 183.62 366.261 176.223C370.182 168.826 373.668 161.719 376.717 154.83C379.767 147.941 382.308 142.067 384.269 137.353C386.157 137.498 388.698 137.933 391.821 138.731C394.943 139.456 397.702 140.471 400.098 141.776C402.495 143.082 403.729 145.04 403.802 147.578C403.802 148.231 402.93 150.841 401.042 155.483C399.154 160.124 396.976 165.708 394.58 172.162C392.111 178.616 390.005 185.215 388.19 192.032C386.375 198.777 385.576 204.723 385.721 209.799C385.794 212.773 386.52 215.383 387.754 217.559C388.989 219.735 391.312 220.822 394.725 220.677C399.227 220.532 404.455 218.357 410.482 214.078C416.509 209.799 422.681 203.78 429.071 195.876C435.388 187.971 440.979 178.689 445.699 167.883L450.636 171.582C446.352 183.185 440.616 193.7 433.5 203.128C426.384 212.555 418.614 219.952 410.264 225.464C401.914 230.975 393.709 233.803 385.576 234.093C379.404 234.311 374.757 233.006 371.562 230.25C368.367 227.494 366.189 223.796 364.954 219.299C363.72 214.731 362.921 210.162 362.558 205.521L362.413 202.185V199.139C358.855 205.013 355.152 210.742 351.085 216.254C347.019 221.765 342.662 226.479 337.942 230.25C333.295 234.021 328.285 235.979 322.984 236.196Z" fill="var(--fill-0, white)"/>
<path id="Vector_3" d="M469.371 246.058C460.004 246.348 452.38 243.882 446.425 238.516C440.471 233.15 437.349 224.882 436.986 213.642C436.695 204.94 438.002 194.062 440.834 180.936C443.666 167.882 447.442 154.321 452.089 140.325C450.564 139.962 448.822 139.672 446.788 139.382C444.755 139.165 442.795 138.585 440.834 137.859L440.471 127.997C443.884 128.287 446.716 128.577 448.967 128.649C451.218 128.794 453.469 128.94 455.865 129.085C459.931 117.699 464.433 106.604 469.298 95.9433C474.163 85.283 479.101 75.638 484.038 67.2258C488.976 58.741 493.696 52.0693 498.27 47.1379C502.772 42.2066 506.839 39.6685 510.469 39.5234C512.575 39.5234 514.681 40.1761 516.641 41.699C518.602 43.2219 519.618 45.47 519.764 48.4433C519.909 52.7219 517.948 58.8135 513.809 66.8632C509.671 74.8403 504.66 84.2678 498.634 95.0006C492.607 105.733 486.798 117.191 481.207 129.23L486.289 129.085L491.082 128.94C500.449 128.649 508.872 128.214 516.423 127.634C523.975 127.054 531.672 126.256 539.514 125.096L539.877 135.611C528.187 137.062 517.513 138.295 507.71 139.237C497.907 140.18 488.613 140.905 479.682 141.413H477.794C477.14 141.485 476.487 141.485 475.906 141.558C471.767 152.146 468.282 162.951 465.305 173.974C462.4 185.069 461.093 195.802 461.456 206.172C461.747 214.875 463.344 221.039 466.249 224.52C469.153 228.073 473.582 229.669 479.537 229.524C490.211 229.161 500.957 224.012 511.776 213.932C522.595 203.924 531.962 190.436 539.659 173.611L544.234 176.657C539.078 189.42 532.616 200.951 524.774 211.466C516.932 221.909 508.291 230.249 498.924 236.413C489.557 242.577 479.754 245.84 469.516 246.13L469.371 246.058Z" fill="var(--fill-0, white)"/>
<path id="Vector_4" d="M305.336 140.544C300.979 144.315 296.114 148.666 289.797 151.567C282.536 154.902 252.765 161.647 229.965 153.67C211.594 145.983 219 106.895 220.452 96.2344L200.92 69.4023C189.665 108.2 193.078 135.685 211.085 151.204C223.938 162.299 242.309 165.055 258.501 164.547C274.113 164.04 287.836 160.414 292.847 158.093C300.108 154.757 305.409 150.044 310.128 145.91C316.3 140.544 319.931 137.498 324.215 138.658L326.103 131.696C317.898 129.448 311.798 134.815 305.336 140.471V140.544Z" fill="var(--fill-0, white)"/>
<path id="Vector_5" d="M80.3863 557.818C68.7684 559.413 60.418 558.18 55.4078 554.264C50.3249 550.348 47.2026 544.837 46.0408 537.657C45.1695 531.566 45.3873 524.024 46.6217 515.176C47.8561 506.329 49.2357 497.772 50.688 489.65C53.6651 473.986 56.9326 458.539 60.3454 443.237C63.7582 427.936 67.3888 413.142 71.1646 398.928C74.8678 384.642 78.4984 371.081 81.9838 358.1C85.4692 345.192 88.6641 333.226 91.7138 322.276C77.4093 324.451 65.0652 326.627 54.6817 328.657C44.2981 330.76 34.8586 332.863 26.3629 334.966C17.8673 337.142 9.08125 339.68 0.00473483 342.653C-0.140489 333.661 3.05444 326.264 9.66215 320.535C16.2698 314.806 25.5642 310.092 37.5452 306.539C49.5262 302.985 63.3951 300.085 79.2246 297.909C87.4297 296.749 95.1992 295.879 102.533 295.153C109.867 294.428 116.91 293.993 123.591 293.703C130.343 293.413 136.879 293.123 143.341 292.905C156.847 292.325 167.521 291.745 175.508 291.02C183.496 290.367 189.159 289.787 192.499 289.279C186.981 296.024 179.647 301.39 170.353 305.379C161.131 309.367 151.256 312.34 140.8 314.443C130.343 316.547 120.396 318.214 110.883 319.52C104.203 345.772 98.4668 372.894 93.747 400.814C89.0272 428.734 84.8883 456.291 81.3303 483.413C79.9507 493.928 78.9341 502.776 78.0628 510.1C77.264 517.425 76.8284 524.024 76.7557 529.898C76.6831 535.772 76.6105 535.844 77.4819 542.371C77.6271 543.459 78.4258 548.825 81.9838 549.043C82.2743 550.421 79.515 555.352 80.2411 557.673L80.3863 557.818Z" fill="var(--fill-0, white)"/>
<path id="Vector_6" d="M163.166 553.611C158.519 554.119 154.743 550.928 151.911 543.966C149.079 537.004 147.119 528.81 146.03 519.31C144.94 509.81 145.158 497.699 146.901 483.558C148.571 469.416 151.33 454.477 155.179 438.596C159.027 422.714 163.529 407.122 168.757 391.748C173.985 376.374 179.504 362.306 185.458 349.542C191.412 336.779 197.294 326.409 203.103 318.432C208.912 310.454 214.358 306.176 219.44 305.596C223.87 305.088 227.573 307.119 230.405 311.687C233.309 316.256 235.052 321.187 235.633 326.481C236.286 332.21 235.778 339.39 234.108 348.019C232.438 356.649 229.824 366.004 226.266 376.084C222.708 386.164 218.351 396.1 213.196 406.035C208.04 415.97 202.231 425.107 195.769 433.592C189.379 442.004 182.481 449.039 175.22 454.623C173.332 462.092 171.879 469.054 171.008 475.508C170.137 481.962 169.701 487.909 169.701 493.493C169.701 499.077 169.992 504.516 170.645 509.737C170.79 510.825 170.935 511.913 171.153 513.073C171.371 514.233 171.589 515.321 171.734 516.409C172.46 515.031 173.404 511.623 174.711 506.111C176.018 500.6 177.906 494.145 180.302 486.676C182.771 479.207 186.039 471.81 190.105 464.34C194.171 456.943 199.254 450.561 205.281 445.268C211.308 439.974 218.569 436.855 226.992 435.84C234.181 435.042 239.99 435.985 244.346 438.813C248.776 441.642 252.043 445.34 254.294 449.909C256.545 454.477 257.925 459.191 258.506 464.05C259.304 470.794 258.941 477.248 257.344 483.485C255.746 489.722 254.222 495.451 252.624 500.89C251.027 506.329 250.446 511.405 251.027 516.046C251.462 519.817 252.624 522.428 254.512 523.661C256.4 524.966 258.433 525.474 260.829 525.184C265.476 524.676 270.632 521.703 276.368 516.336C282.032 510.97 287.623 504.081 292.924 495.668C298.297 487.256 302.654 478.119 305.994 468.329L311.73 473.115C308.1 484.21 303.525 494.653 297.934 504.226C292.416 513.871 286.026 521.775 278.837 527.939C271.648 534.104 263.443 537.729 254.367 538.817C246.307 539.76 239.917 538.31 235.197 534.611C230.477 530.84 227.718 525.836 226.992 519.527C226.484 515.103 226.702 510.1 227.646 504.516C228.589 498.932 229.533 493.348 230.332 487.691C231.204 482.035 231.349 476.958 230.84 472.535C230.26 467.458 228.735 464.123 226.266 462.455C223.797 460.787 221.038 460.134 217.843 460.569C212.542 461.149 208.04 463.76 204.264 468.401C200.489 473.042 197.294 478.771 194.68 485.733C192.066 492.695 189.669 499.947 187.564 507.561C185.458 515.176 183.28 522.428 181.101 529.317C178.923 536.207 176.381 541.936 173.622 546.432C170.79 550.928 167.305 553.394 163.093 553.901L163.166 553.611ZM179.504 433.519C184.441 428.008 189.088 421.626 193.373 414.229C197.657 406.905 201.578 399.29 205.063 391.531C208.549 383.771 211.526 376.229 214.067 368.977C216.536 361.726 218.424 355.271 219.731 349.542C220.965 343.813 221.546 339.462 221.401 336.489V335.981C221.401 335.981 221.328 335.691 221.256 335.474C220.021 335.619 217.625 338.519 214.067 344.176C210.509 349.832 206.588 357.374 202.231 366.729C197.875 376.157 193.59 386.6 189.452 398.203C185.313 409.806 182.045 421.554 179.504 433.374V433.519Z" fill="var(--fill-0, white)"/>
<path id="Vector_7" d="M342.37 534.83C328.864 536.426 317.973 533.96 309.84 527.506C301.707 521.052 296.988 512.349 295.753 501.326C294.664 492.044 295.898 481.891 299.456 470.868C303.014 459.845 308.243 449.33 315.286 439.178C322.257 429.025 330.317 420.613 339.393 413.796C348.47 406.979 357.909 402.99 367.639 401.903C373.158 401.25 378.531 402.12 383.832 404.368C389.132 406.616 392.255 411.983 393.271 420.468C394.288 428.952 392.763 436.277 388.915 443.746C385.066 451.216 379.548 458.178 372.359 464.632C365.17 471.013 357.038 476.525 348.034 481.094C339.03 485.662 329.808 488.998 320.441 491.174C320.296 492.044 320.296 492.987 320.296 493.929C320.296 494.872 320.441 496.468 320.659 498.571C320.804 499.658 321.168 501.471 321.748 504.082C322.402 506.693 323.564 509.376 325.452 512.204C327.267 514.96 330.026 517.281 333.657 518.949C337.287 520.689 342.08 521.197 347.961 520.544C356.82 519.529 365.461 515.975 373.884 510.029C382.307 504.01 390.004 496.468 396.975 487.258C403.945 478.12 409.536 468.113 413.603 457.38L420.573 461.731C416.289 475.074 410.263 487.04 402.348 497.555C394.433 508.071 385.357 516.628 375.046 523.155C364.735 529.681 353.916 533.597 342.443 534.975L342.37 534.83ZM322.402 478.991C327.848 477.685 333.729 475.147 340.119 471.158C346.509 467.17 352.536 462.456 358.272 456.872C363.936 451.288 368.438 445.342 371.851 439.105C375.191 432.796 376.498 426.704 375.844 420.83C375.554 418.51 374.973 416.987 374.029 416.189C373.085 415.464 371.633 415.174 369.745 415.391C364.88 415.971 360.015 418.292 355.077 422.353C350.212 426.414 345.565 431.563 341.063 437.8C336.634 443.964 332.785 450.708 329.591 457.887C326.323 465.139 323.927 472.101 322.402 478.991Z" fill="var(--fill-0, white)"/>
<path id="Vector_8" d="M471.839 514.161C463.997 515.031 457.462 513.726 452.088 510.172C446.715 506.619 443.665 501.325 442.867 494.363C442.213 488.417 442.867 481.962 445.118 474.856C447.296 467.749 449.547 460.714 451.871 453.825C454.194 446.936 455.065 440.917 454.485 435.84C453.904 430.764 451.871 427.065 448.313 424.165C444.755 421.264 440.761 419.016 436.259 417.348C432.919 429.531 428.998 441.352 424.423 452.882C419.849 464.413 416.145 473.478 413.241 480.004L407.432 471.375C409.755 465.573 412.805 457.306 416.436 446.573C420.139 435.84 423.479 424.02 426.456 411.039C424.06 409.153 422.68 406.47 422.317 402.844C421.664 397.333 422.753 391.966 425.585 386.745C428.417 381.523 431.394 378.695 434.589 378.333C437.13 378.042 439.163 379.275 440.616 381.958C442.068 384.642 442.939 386.6 443.012 387.615C443.084 388.63 442.867 390.661 442.213 393.489C441.56 396.317 441.124 398.42 440.833 399.726C441.342 402.046 443.448 404.077 447.151 405.89C450.927 407.703 455.138 409.806 459.93 412.271C464.723 414.737 469.08 417.928 472.928 421.989C476.849 426.05 479.173 431.417 479.971 438.233C480.698 444.397 479.971 450.779 478.011 457.378C475.978 464.05 473.945 470.287 471.839 476.088C469.733 481.89 468.862 486.821 469.37 490.81C469.733 493.783 470.75 495.596 472.42 496.394C474.09 497.191 476.05 497.409 478.156 497.191C483.239 496.611 488.322 494.436 493.477 490.737C498.633 487.039 503.57 482.47 508.29 476.959C513.01 471.52 517.076 465.863 520.489 459.989C523.902 454.115 526.371 448.894 527.968 444.18L536.246 449.039C533.269 458.611 528.476 468.184 521.869 477.829C515.261 487.474 507.637 495.668 498.996 502.34C490.355 509.012 481.278 512.928 471.694 514.016L471.839 514.161Z" fill="var(--fill-0, white)"/>
<path id="Vector_9" d="M565.797 509.084C552.291 510.68 541.399 508.214 533.267 501.76C525.134 495.306 520.414 486.603 519.18 475.58C518.091 466.298 519.325 456.145 522.883 445.122C526.441 434.099 531.669 423.584 538.713 413.431C545.683 403.279 553.743 394.866 562.82 388.05C571.896 381.233 581.336 377.244 591.066 376.157C596.585 375.504 601.958 376.374 607.259 378.622C612.559 380.87 615.682 386.237 616.698 394.721C617.715 403.206 616.19 410.531 612.341 418C608.493 425.47 602.974 432.431 595.786 438.886C588.597 445.267 580.465 450.779 571.461 455.347C562.457 459.916 553.235 463.252 543.868 465.428C543.723 466.298 543.723 467.241 543.723 468.183C543.723 469.126 543.868 470.721 544.086 472.825C544.231 473.912 544.594 475.725 545.175 478.336C545.829 480.947 546.99 483.63 548.878 486.458C550.694 489.214 553.453 491.535 557.084 493.202C560.714 494.943 565.507 495.451 571.388 494.798C580.247 493.783 588.888 490.229 597.311 484.283C605.734 478.263 613.431 470.722 620.401 461.512C627.372 452.374 632.963 442.367 637.029 431.634L644 435.985C639.716 449.328 633.689 461.294 625.775 471.809C617.86 482.325 608.783 490.882 598.472 497.409C588.162 503.935 577.342 507.851 565.87 509.229L565.797 509.084ZM545.901 453.244C551.347 451.939 557.229 449.401 563.619 445.412C570.008 441.424 576.035 436.71 581.772 431.126C587.435 425.542 591.937 419.596 595.35 413.359C598.69 407.05 599.997 400.958 599.344 395.084C599.053 392.763 598.472 391.241 597.529 390.443C596.585 389.718 595.132 389.428 593.244 389.645C588.379 390.225 583.514 392.546 578.577 396.607C573.712 400.668 569.065 405.817 564.563 412.054C560.133 418.218 556.285 424.962 553.09 432.141C549.822 439.393 547.426 446.355 545.901 453.244Z" fill="var(--fill-0, white)"/>
<path id="Vector_10" d="M184.803 438.886L179.43 433.592C141.381 461.367 124.244 493.565 110.956 517.496C99.0479 538.89 92.0772 549.622 82.0567 549.26L81.1854 551.943C75.0859 553.176 68.1152 552.306 59.547 548.607L56.7151 555.279C66.1547 560.645 73.3433 560.355 79.951 559.558C99.3384 557.309 110.521 538.164 122.937 516.844C135.354 495.668 149.659 471.664 174.855 454.622L171.224 449.619C175.436 445.92 179.938 442.294 184.73 438.813L184.803 438.886Z" fill="var(--fill-0, white)"/>
</g>
</svg>
