<svg width="36" height="32" viewBox="0 0 36 32" fill="none" xmlns="http://www.w3.org/2000/svg">
<path d="M7.30757 16.4236C6.50771 12.8367 8.95109 9.1524 12.4671 8.47739C9.63082 10.5081 7.87142 13.1418 7.30757 16.4236ZM27.5626 20.0402C26.6765 21.9071 24.5073 23.4294 22.4738 23.8799C22.8553 23.589 23.1803 23.3376 23.5661 23.0778C25.9374 21.4764 27.4877 19.0898 28.0812 16.2175C28.2805 17.535 28.1236 18.861 27.5626 20.0402Z" fill="#A7A7A7"/>
<path d="M31.3923 25.3713C31.2185 25.2428 29.469 27.6435 28.0643 28.745C26.6596 29.8464 23.0914 31.3589 23.4192 31.5792C23.7471 31.7995 27.5669 30.1628 28.9292 29.1559C30.2915 28.1476 31.6312 25.5478 31.3923 25.3713Z" fill="#A7A7A7"/>
<path d="M21.435 31.4688C21.435 31.4688 22.2292 31.1426 23.3131 30.6103L23.7215 27.8834C23.6876 27.8975 22.3394 28.3324 21.9098 28.5301L21.4336 31.4688H21.435Z" fill="#A7A7A7"/>
<path d="M20.4812 31.8418L21.0776 28.5218L20.2565 27.4316L17.7778 27.4344L15.2991 27.4316L14.478 28.5218L15.0744 31.8418C15.8545 31.9533 16.8197 32.0028 17.7778 31.9999C18.7359 32.0028 19.7025 31.9533 20.4812 31.8418Z" fill="#A7A7A7"/>
<path d="M31.7046 14.8225C31.7046 17.5537 31.0503 21.1151 30.4186 22.3621C29.9198 23.3464 28.443 25.7541 24.4791 27.5589L24.1018 30.2109C25.245 29.6136 26.548 28.851 27.564 28.0263C31.7032 24.671 32.3533 22.0316 32.3476 17.3079C32.3448 14.6926 32.3985 13.1463 32.1625 11.0521C32.0961 10.4674 31.853 9.9195 31.6622 9.36593C31.0956 7.72641 30.5246 6.4597 29.3701 5.13226C29.1793 5.90189 29.014 6.58962 28.7214 7.29288C30.779 8.89992 31.7046 12.0914 31.7046 14.8225Z" fill="#A7A7A7"/>
<path d="M28.6733 4.32577C27.4184 3.01811 26.2921 2.22306 24.6133 1.52545C24.4974 2.65236 24.2967 3.60416 24.0946 4.70141C25.6463 5.26628 26.692 5.87351 28.0614 6.72504C28.4359 5.87633 28.6083 5.16036 28.6747 4.32719L28.6733 4.32577Z" fill="#A7A7A7"/>
<path d="M33.936 20.1264C34.107 18.0068 34.2314 15.688 34.1466 13.6389L34.0816 12.0728L33.0415 11.6817C33.3114 14.6995 33.1997 17.5732 32.8804 20.5684C33.2874 20.4851 33.6294 20.3397 33.9374 20.125L33.936 20.1264Z" fill="#A7A7A7"/>
<path d="M35.5555 15.9608C35.5555 14.2182 35.2474 13.152 34.8221 12.71L34.8588 16.1203L34.7203 19.5646C35.1994 18.9828 35.5555 17.7034 35.5555 15.9608Z" fill="#A7A7A7"/>
<path d="M4.1619 25.3713C3.92307 25.5478 5.26276 28.1476 6.62506 29.1559C7.98736 30.1642 11.8072 31.7995 12.135 31.5792C12.4629 31.3589 8.89603 29.8464 7.48992 28.745C6.08523 27.6435 4.33572 25.2428 4.1619 25.3713Z" fill="#A7A7A7"/>
<path d="M14.119 31.4688L13.6427 28.5301C13.2131 28.3324 11.8664 27.8975 11.8311 27.8834L12.2395 30.6103C13.3234 31.1426 14.1176 31.4688 14.1176 31.4688H14.119Z" fill="#A7A7A7"/>
<path d="M3.20513 17.3094C3.20089 22.0345 3.85095 24.6738 7.98872 28.0277C9.00621 28.8524 10.3092 29.615 11.451 30.2123L11.0737 27.5603C7.10973 25.7555 5.63296 23.3464 5.13411 22.3635C4.50242 21.1166 3.84812 17.5537 3.84812 14.824C3.84812 12.0943 4.77375 8.90277 6.83133 7.29431C6.53881 6.59105 6.37347 5.90333 6.18269 5.1337C5.02812 6.46113 4.45579 7.72784 3.89052 9.36737C3.69974 9.92094 3.45526 10.4674 3.39026 11.0535C3.15426 13.1491 3.20796 14.6941 3.20513 17.3094Z" fill="#A7A7A7"/>
<path d="M17.7764 3.7368C19.6347 3.73256 21.4831 3.97969 23.3047 4.45983C23.5195 3.29056 23.6877 2.2159 23.8021 1.08899C22.1586 0.436572 20.5589 0.11601 18.8306 0.0242197C18.4773 0.00727368 18.1268 -0.00119931 17.7764 0.000212857C17.4259 0.000212857 17.0754 0.00727368 16.7221 0.0242197C14.9938 0.11601 13.3941 0.436572 11.7506 1.08899C11.8651 2.2159 12.0332 3.29056 12.248 4.45983C14.0696 3.97828 15.918 3.73256 17.7764 3.7368Z" fill="#A7A7A7"/>
<path d="M11.4594 4.70141C11.2574 3.60416 11.0567 2.65377 10.9408 1.52545C9.26196 2.22306 8.13566 3.01811 6.88076 4.32577C6.94718 5.15895 7.11818 5.87492 7.49408 6.72363C8.86203 5.8721 9.9092 5.26486 11.4609 4.7L11.4594 4.70141Z" fill="#A7A7A7"/>
<path d="M2.67527 20.5699C2.35448 17.5747 2.24425 14.7009 2.51417 11.6831L1.47407 12.0743L1.40906 13.6404C1.32427 15.688 1.44863 18.0082 1.61963 20.1279C1.9277 20.3425 2.26969 20.488 2.67668 20.5713L2.67527 20.5699Z" fill="#A7A7A7"/>
<path d="M0.696695 16.1203L0.733437 12.71C0.308072 13.1506 0 14.2182 0 15.9608C0 17.7034 0.35612 18.9828 0.835186 19.5646L0.696695 16.1203Z" fill="#A7A7A7"/>
<path d="M17.8568 6.82673C18.3627 6.82673 18.8502 6.83803 19.3477 6.86062C22.3521 7.00043 25.5826 8.25725 27.578 10.0634C28.2577 10.6777 28.7269 11.3259 28.9375 11.9359C29.5678 13.7661 29.7119 15.8632 29.377 18.3486C29.2074 19.6139 28.7453 20.6448 27.9256 21.5937C26.5888 23.1415 24.835 24.3771 22.7153 25.2668C22.5725 25.3275 22.3917 25.3812 22.1754 25.4306L21.3501 24.757L21.1156 24.5649H20.8131L17.7776 24.5678L14.7407 24.5649H14.4383L14.2037 24.7556L13.3784 25.4292C13.1622 25.3812 12.9827 25.3261 12.8386 25.2654C10.7174 24.3757 8.96508 23.1401 7.62822 21.5923C6.80858 20.6434 6.34647 19.6111 6.17689 18.3472C5.84338 15.8618 5.98611 13.7647 6.61639 11.9345C6.82695 11.3245 7.29613 10.6763 7.97586 10.062C9.97126 8.25584 13.2018 6.99901 16.2062 6.85921C16.705 6.83662 17.1926 6.82532 17.6971 6.82532H17.7791H17.8568M17.8568 5.97943C17.8299 5.97943 17.8031 5.97943 17.7762 5.97943C17.7494 5.97943 17.7225 5.97943 17.6957 5.97943C17.1883 5.97943 16.6824 5.99073 16.1652 6.01474C13.1566 6.15454 9.67026 7.38595 7.40494 9.43641C6.74923 10.0295 6.11189 10.7935 5.81229 11.6606C5.05342 13.8635 5.02657 16.1795 5.33464 18.4616C5.52542 19.8808 6.04829 21.0642 6.98523 22.1473C8.48319 23.8814 10.3867 25.1566 12.5093 26.0477C12.8457 26.1889 13.2555 26.2793 13.6059 26.3372L14.7379 25.4122L17.7748 25.4151L20.8117 25.4122L21.9437 26.3372C22.2941 26.2779 22.704 26.1889 23.0403 26.0477C25.1629 25.1566 27.0664 23.8814 28.5644 22.1473C29.5013 21.0628 30.0242 19.8808 30.215 18.4616C30.5216 16.1795 30.4948 13.8635 29.7373 11.6606C29.4392 10.7921 28.8018 10.0295 28.1447 9.43641C25.8794 7.38736 22.3931 6.15595 19.3844 6.01474C18.8672 5.99073 18.3599 5.97943 17.854 5.97943H17.8568Z" fill="#A7A7A7"/>
<mask id="mask0_1_20" style="mask-type:luminance" maskUnits="userSpaceOnUse" x="5" y="5" width="26" height="22">
<path d="M17.8567 5.97943C17.8298 5.97943 17.803 5.97943 17.7761 5.97943C17.7493 5.97943 17.7224 5.97943 17.6956 5.97943C17.1882 5.97943 16.6823 5.99073 16.1651 6.01474C13.1565 6.15454 9.67015 7.38595 7.40483 9.43641C6.74912 10.0295 6.11178 10.7935 5.81219 11.6606C5.05331 13.8635 5.02646 16.1795 5.33453 18.4616C5.52531 19.8808 6.04819 21.0642 6.98512 22.1473C8.48309 23.8814 10.3866 25.1566 12.5092 26.0477C12.8456 26.1889 13.2554 26.2793 13.6058 26.3372L14.7378 25.4122L17.7747 25.4151L20.8116 25.4122L21.9436 26.3372C22.294 26.2779 22.7039 26.1889 23.0402 26.0477C25.1628 25.1566 27.0663 23.8814 28.5643 22.1473C29.5012 21.0628 30.0241 19.8808 30.2149 18.4616C30.5215 16.1795 30.4947 13.8635 29.7372 11.6606C29.439 10.7921 28.8017 10.0295 28.1446 9.43641C25.8793 7.38736 22.393 6.15595 19.3843 6.01474C18.8671 5.99073 18.3598 5.97943 17.8538 5.97943H17.8567Z" fill="white"/>
</mask>
<g mask="url(#mask0_1_20)">
<path d="M16.189 16.9515L16.0531 17.5256L16.5554 17.6445L16.6913 17.0704L16.189 16.9515Z" fill="#A7A7A7"/>
<path d="M28.8863 12.3197C28.8547 12.4756 28.8294 12.6062 28.8083 12.7411L28.84 12.7474C28.9664 12.7706 29.0675 12.7895 29.2087 12.8022C29.2234 12.7474 29.2382 12.6947 29.2508 12.642C29.2719 12.562 29.2908 12.4882 29.3119 12.4145C29.1707 12.3808 29.0296 12.3492 28.8884 12.3197H28.8863Z" fill="#A7A7A7"/>
<path d="M17.1967 18.5959C17.1693 18.5896 17.144 18.579 17.1208 18.5643L17.1103 18.6275C17.0871 18.7813 17.0618 18.9203 17.0302 19.0847L17.5169 19.1879L17.5422 19.0826C17.5717 18.9604 17.6012 18.8403 17.6328 18.7181L17.6686 18.579C17.5549 18.6802 17.42 18.6464 17.2873 18.6148L17.1946 18.5917L17.1967 18.5959Z" fill="#A7A7A7"/>
<path d="M28.1257 9.8455C28.1468 9.8455 28.2016 9.85182 28.2627 9.86025C28.3196 9.86868 28.387 9.87711 28.4397 9.87921C28.4439 9.86657 28.4481 9.85604 28.4523 9.84339C28.5071 9.67694 28.5219 9.6348 28.4439 9.53367C28.2753 9.49364 28.1847 9.56527 28.0667 9.83918C28.0857 9.83918 28.1068 9.83918 28.1257 9.84339V9.8455Z" fill="#A7A7A7"/>
<path d="M29.6007 11.1166C29.4511 11.085 29.3542 11.0682 29.1982 11.0534C29.1624 11.1503 29.1456 11.2114 29.1308 11.281C29.1224 11.3231 29.1118 11.3695 29.1013 11.4263V11.4369L29.1498 11.4474C29.2614 11.4706 29.371 11.4959 29.4785 11.5212C29.4995 11.4579 29.5164 11.3926 29.5354 11.3294C29.5564 11.2578 29.5775 11.1861 29.6007 11.1145V11.1166Z" fill="#A7A7A7"/>
<path d="M26.6275 7.10549L26.6128 7.19398C26.6128 7.19609 26.6128 7.19819 26.6128 7.2003L26.598 7.28247C26.5896 7.33304 26.5812 7.38361 26.5707 7.43207C26.6507 7.43207 26.7287 7.45524 26.7961 7.47421C26.8361 7.48474 26.8804 7.49738 26.9288 7.50792C26.9668 7.411 26.9984 7.28458 27.0258 7.17712C27.03 7.15605 27.0363 7.13709 27.0405 7.11813L26.6402 7.02753C26.636 7.05281 26.6318 7.0802 26.6275 7.10549Z" fill="#A7A7A7"/>
<path d="M29.8893 9.5945L29.8745 9.68299C29.8745 9.6851 29.8745 9.68721 29.8745 9.68931L29.8598 9.77148C29.8513 9.82205 29.8429 9.87262 29.8324 9.92108C29.9124 9.92108 29.9904 9.94426 30.0578 9.96322C30.0979 9.97375 30.1421 9.9864 30.1906 9.99693C30.2285 9.90001 30.2601 9.77359 30.2875 9.66614C30.2917 9.64507 30.298 9.6261 30.3022 9.60714L29.9019 9.51654C29.8977 9.54182 29.8935 9.56921 29.8893 9.5945Z" fill="#A7A7A7"/>
<path d="M25.4371 14.3198L25.4224 14.4083C25.4224 14.4104 25.4224 14.4125 25.4224 14.4147L25.4076 14.4968C25.3992 14.5474 25.3908 14.598 25.3802 14.6464C25.4603 14.6464 25.5382 14.6696 25.6057 14.6886C25.6457 14.6991 25.6899 14.7117 25.7384 14.7223C25.7763 14.6254 25.8079 14.4989 25.8353 14.3915C25.8395 14.3704 25.8459 14.3514 25.8501 14.3325L25.4498 14.2419C25.4455 14.2672 25.4413 14.2946 25.4371 14.3198Z" fill="#A7A7A7"/>
<path d="M15.5806 19.7489L15.5658 19.8374C15.5658 19.8395 15.5658 19.8416 15.5658 19.8437L15.5511 19.9259C15.5426 19.9765 15.5342 20.027 15.5237 20.0755C15.6037 20.0755 15.6817 20.0987 15.7491 20.1176C15.7892 20.1282 15.8334 20.1408 15.8819 20.1514C15.9198 20.0544 15.9514 19.928 15.9788 19.8206C15.983 19.7995 15.9893 19.7805 15.9935 19.7616L15.5932 19.671C15.589 19.6962 15.5848 19.7236 15.5806 19.7489Z" fill="#A7A7A7"/>
<path d="M13.9456 21.0953L13.9309 21.1838C13.9309 21.1859 13.9309 21.188 13.9309 21.1901L13.9161 21.2723C13.9077 21.3228 13.8993 21.3734 13.8887 21.4219C13.9688 21.4219 14.0467 21.4451 14.1142 21.464C14.1542 21.4745 14.1984 21.4872 14.2469 21.4977C14.2848 21.4008 14.3164 21.2744 14.3438 21.1669C14.348 21.1459 14.3544 21.1269 14.3586 21.1079L13.9582 21.0173C13.954 21.0426 13.9498 21.07 13.9456 21.0953Z" fill="#A7A7A7"/>
<path d="M21.7436 17.1772L21.7288 17.2657C21.7288 17.2678 21.7288 17.2699 21.7288 17.272L21.7141 17.3542C21.7056 17.4048 21.6972 17.4554 21.6867 17.5038C21.7667 17.5038 21.8447 17.527 21.9121 17.546C21.9521 17.5565 21.9964 17.5691 22.0449 17.5797C22.0828 17.4827 22.1144 17.3563 22.1418 17.2489C22.146 17.2278 22.1523 17.2088 22.1565 17.1899L21.7562 17.0993C21.752 17.1246 21.7478 17.1519 21.7436 17.1772Z" fill="#A7A7A7"/>
<path d="M20.2961 20.0016L20.2813 20.0901C20.2813 20.0922 20.2813 20.0943 20.2813 20.0964L20.2666 20.1786C20.2582 20.2292 20.2497 20.2797 20.2392 20.3282C20.3193 20.3282 20.3972 20.3514 20.4647 20.3703C20.5047 20.3809 20.5489 20.3935 20.5974 20.404C20.6353 20.3071 20.6669 20.1807 20.6943 20.0732C20.6985 20.0522 20.7049 20.0332 20.7091 20.0142L20.3087 19.9236C20.3045 19.9489 20.3003 19.9763 20.2961 20.0016Z" fill="#A7A7A7"/>
<path d="M14.6641 20.5856L14.6493 20.6741C14.6493 20.6762 14.6493 20.6784 14.6493 20.6805L14.6346 20.7626C14.6261 20.8132 14.6177 20.8638 14.6072 20.9122C14.6872 20.9122 14.7652 20.9354 14.8326 20.9544C14.8727 20.9649 14.9169 20.9775 14.9654 20.9881C15.0033 20.8912 15.0349 20.7647 15.0623 20.6573C15.0665 20.6362 15.0728 20.6173 15.077 20.5983L14.6767 20.5077C14.6725 20.533 14.6683 20.5604 14.6641 20.5856Z" fill="#A7A7A7"/>
<path d="M14.0784 19.6896L14.0637 19.7781C14.0637 19.7802 14.0637 19.7823 14.0637 19.7844L14.0489 19.8666C14.0405 19.9171 14.0321 19.9677 14.0215 20.0162C14.1016 20.0162 14.1796 20.0393 14.247 20.0583C14.287 20.0688 14.3313 20.0815 14.3797 20.092C14.4176 19.9951 14.4492 19.8687 14.4766 19.7612C14.4809 19.7402 14.4872 19.7212 14.4914 19.7022L14.0911 19.6116C14.0868 19.6369 14.0826 19.6643 14.0784 19.6896Z" fill="#A7A7A7"/>
<path d="M12.6097 19.1817L12.5949 19.2702C12.5949 19.2723 12.5949 19.2745 12.5949 19.2766L12.5802 19.3587C12.5717 19.4093 12.5633 19.4599 12.5528 19.5083C12.6328 19.5083 12.7108 19.5315 12.7782 19.5505C12.8183 19.561 12.8625 19.5736 12.911 19.5842C12.9489 19.4873 12.9805 19.3608 13.0079 19.2534C13.0121 19.2323 13.0184 19.2134 13.0226 19.1944L12.6223 19.1038C12.6181 19.1291 12.6139 19.1565 12.6097 19.1817Z" fill="#A7A7A7"/>
<path d="M11.6364 17.7782L11.6217 17.8667C11.6217 17.8688 11.6217 17.8709 11.6217 17.873L11.6069 17.9552C11.5985 18.0057 11.5901 18.0563 11.5795 18.1048C11.6596 18.1048 11.7376 18.1279 11.805 18.1469C11.845 18.1574 11.8893 18.1701 11.9377 18.1806C11.9757 18.0837 12.0073 17.9573 12.0346 17.8498C12.0389 17.8288 12.0452 17.8098 12.0494 17.7908L11.6491 17.7002C11.6449 17.7255 11.6406 17.7529 11.6364 17.7782Z" fill="#A7A7A7"/>
<path d="M12.1062 16.3851L12.0914 16.4735C12.0914 16.4757 12.0914 16.4778 12.0914 16.4799L12.0767 16.562C12.0682 16.6126 12.0598 16.6632 12.0493 16.7116C12.1293 16.7116 12.2073 16.7348 12.2747 16.7538C12.3147 16.7643 12.359 16.777 12.4075 16.7875C12.4454 16.6906 12.477 16.5641 12.5044 16.4567C12.5086 16.4356 12.5149 16.4167 12.5191 16.3977L12.1188 16.3071C12.1146 16.3324 12.1104 16.3598 12.1062 16.3851Z" fill="#A7A7A7"/>
<path d="M12.2685 12.7894L12.2537 12.8779C12.2537 12.88 12.2537 12.8821 12.2537 12.8842L12.239 12.9664C12.2305 13.0169 12.2221 13.0675 12.2116 13.116C12.2916 13.116 12.3696 13.1391 12.437 13.1581C12.477 13.1686 12.5213 13.1813 12.5698 13.1918C12.6077 13.0949 12.6393 12.9685 12.6667 12.861C12.6709 12.84 12.6772 12.821 12.6814 12.802L12.2811 12.7114C12.2769 12.7367 12.2727 12.7641 12.2685 12.7894Z" fill="#A7A7A7"/>
<path d="M11.8028 13.7422L11.7881 13.8307C11.7881 13.8328 11.7881 13.8349 11.7881 13.837L11.7733 13.9192C11.7649 13.9698 11.7565 14.0203 11.7459 14.0688C11.826 14.0688 11.904 14.092 11.9714 14.1109C12.0114 14.1215 12.0557 14.1341 12.1041 14.1446C12.1421 14.0477 12.1737 13.9213 12.2011 13.8138C12.2053 13.7928 12.2116 13.7738 12.2158 13.7548L11.8155 13.6642C11.8113 13.6895 11.807 13.7169 11.8028 13.7422Z" fill="#A7A7A7"/>
<path d="M16.7162 10.1361L16.7015 10.2246C16.7015 10.2267 16.7015 10.2288 16.7015 10.2309L16.6867 10.3131C16.6783 10.3637 16.6699 10.4142 16.6593 10.4627C16.7394 10.4627 16.8173 10.4859 16.8848 10.5048C16.9248 10.5154 16.9691 10.528 17.0175 10.5386C17.0554 10.4416 17.087 10.3152 17.1144 10.2078C17.1186 10.1867 17.125 10.1677 17.1292 10.1488L16.7289 10.0582C16.7246 10.0835 16.7204 10.1108 16.7162 10.1361Z" fill="#A7A7A7"/>
<path d="M15.0264 8.90944L15.0116 8.99793C15.0116 9.00004 15.0116 9.00215 15.0116 9.00425L14.9969 9.08643C14.9884 9.13699 14.98 9.18756 14.9695 9.23602C15.0495 9.23602 15.1275 9.2592 15.1949 9.27816C15.235 9.2887 15.2792 9.30134 15.3277 9.31187C15.3656 9.21495 15.3972 9.08853 15.4246 8.98108C15.4288 8.96001 15.4351 8.94104 15.4393 8.92208L15.039 8.83148C15.0348 8.85677 15.0306 8.88416 15.0264 8.90944Z" fill="#A7A7A7"/>
<path d="M13.7665 10.0686L13.7518 10.1571C13.7518 10.1592 13.7518 10.1613 13.7518 10.1634L13.737 10.2455C13.7286 10.2961 13.7202 10.3467 13.7096 10.3951C13.7897 10.3951 13.8676 10.4183 13.9351 10.4373C13.9751 10.4478 14.0193 10.4605 14.0678 10.471C14.1057 10.3741 14.1373 10.2477 14.1647 10.1402C14.1689 10.1191 14.1753 10.1002 14.1795 10.0812L13.7791 9.9906C13.7749 10.0159 13.7707 10.0433 13.7665 10.0686Z" fill="#A7A7A7"/>
<path d="M18.779 8.82747L18.7643 8.91596C18.7643 8.91807 18.7643 8.92018 18.7643 8.92228L18.7495 9.00446C18.7411 9.05502 18.7327 9.10559 18.7221 9.15405C18.8022 9.15405 18.8801 9.17723 18.9476 9.19619C18.9876 9.20673 19.0318 9.21937 19.0803 9.2299C19.1182 9.13298 19.1498 9.00656 19.1772 8.89911C19.1814 8.87804 19.1878 8.85907 19.192 8.84011L18.7916 8.74951C18.7874 8.7748 18.7832 8.80219 18.779 8.82747Z" fill="#A7A7A7"/>
<path d="M19.5629 8.25887L19.5481 8.34736C19.5481 8.34947 19.5481 8.35157 19.5481 8.35368L19.5334 8.43585C19.525 8.48642 19.5165 8.53699 19.506 8.58545C19.5861 8.58545 19.664 8.60862 19.7315 8.62759C19.7715 8.63812 19.8157 8.65076 19.8642 8.6613C19.9021 8.56438 19.9337 8.43796 19.9611 8.3305C19.9653 8.30943 19.9716 8.29047 19.9759 8.27151L19.5755 8.18091C19.5713 8.20619 19.5671 8.23358 19.5629 8.25887Z" fill="#A7A7A7"/>
<path d="M20.2159 7.82433L20.2012 7.91282C20.2012 7.91493 20.2012 7.91703 20.2012 7.91914L20.1864 8.00131C20.178 8.05188 20.1696 8.10245 20.159 8.15091C20.2391 8.15091 20.3171 8.17409 20.3845 8.19305C20.4245 8.20358 20.4688 8.21623 20.5172 8.22676C20.5551 8.12984 20.5867 8.00342 20.6141 7.89596C20.6184 7.87489 20.6247 7.85593 20.6289 7.83697L20.2286 7.74637C20.2243 7.77165 20.2201 7.79904 20.2159 7.82433Z" fill="#A7A7A7"/>
<path d="M22.5104 7.43221L22.4956 7.5207C22.4956 7.52281 22.4956 7.52491 22.4956 7.52702L22.4809 7.60919C22.4724 7.65976 22.464 7.71033 22.4535 7.75879C22.5335 7.75879 22.6115 7.78196 22.6789 7.80093C22.7189 7.81146 22.7632 7.8241 22.8117 7.83464C22.8496 7.73772 22.8812 7.6113 22.9086 7.50384C22.9128 7.48277 22.9191 7.46381 22.9233 7.44485L22.523 7.35425C22.5188 7.37953 22.5146 7.40692 22.5104 7.43221Z" fill="#A7A7A7"/>
<path d="M20.4056 5.94887L20.3908 6.03736C20.3908 6.03947 20.3908 6.04158 20.3908 6.04368L20.3761 6.12585C20.3676 6.17642 20.3592 6.22699 20.3487 6.27545C20.4287 6.27545 20.5067 6.29863 20.5741 6.31759C20.6142 6.32812 20.6584 6.34077 20.7069 6.3513C20.7448 6.25438 20.7764 6.12796 20.8038 6.02051C20.808 5.99944 20.8143 5.98047 20.8185 5.96151L20.4182 5.87091C20.414 5.89619 20.4098 5.92358 20.4056 5.94887Z" fill="#A7A7A7"/>
<path d="M23.4692 5.6685L23.4545 5.757C23.4545 5.7591 23.4545 5.76121 23.4545 5.76332L23.4397 5.84549C23.4313 5.89606 23.4229 5.94663 23.4123 5.99509C23.4924 5.99509 23.5704 6.01826 23.6378 6.03723C23.6778 6.04776 23.7221 6.0604 23.7705 6.07094C23.8085 5.97402 23.8401 5.8476 23.8675 5.74014C23.8717 5.71907 23.878 5.70011 23.8822 5.68115L23.4819 5.59055C23.4777 5.61583 23.4735 5.64322 23.4692 5.6685Z" fill="#A7A7A7"/>
<path d="M26.9289 5.68903C26.9395 5.77541 26.9184 5.86601 26.8994 5.95661C26.8889 6.00297 26.8805 6.04932 26.8742 6.09357L26.8678 6.12728C26.8678 6.12728 26.8657 6.1336 26.8636 6.13571C26.9921 6.16099 27.1186 6.18838 27.2492 6.21788L27.3609 5.78384C27.2513 5.75645 27.1438 5.73327 27.0385 5.7122L26.9268 5.68903H26.9289Z" fill="#A7A7A7"/>
<path d="M13.3599 16.1556V16.1493C13.3999 16.0018 13.4336 15.867 13.4736 15.73C13.3156 15.6921 13.1913 15.6668 13.0396 15.6436L13.027 15.7089C13.0059 15.8143 12.9869 15.9112 12.9764 16.0292L12.9659 16.0671H12.9701C13.0986 16.0987 13.2313 16.1282 13.362 16.1535L13.3599 16.1556Z" fill="#A7A7A7"/>
<path d="M15.0434 11.7064C15.0708 11.5799 15.1003 11.4535 15.1319 11.3271L14.74 11.2576C14.7168 11.3608 14.6957 11.4662 14.6746 11.5694L14.6641 11.6242C14.7905 11.6495 14.9212 11.679 15.0223 11.7042L15.0455 11.7106L15.0434 11.7064Z" fill="#A7A7A7"/>
<path d="M13.9919 13.445C14.0193 13.3017 14.0383 13.2006 14.0762 13.129L13.6232 13.032C13.5895 13.169 13.5621 13.3017 13.5305 13.4534L13.9709 13.5504L13.9919 13.445Z" fill="#A7A7A7"/>
<path d="M14.3164 12.9896C14.3901 12.9896 14.4807 13.0128 14.6008 13.0423L14.7293 13.0739L14.8494 12.5682C14.7335 12.5787 14.5903 12.545 14.4259 12.4987L14.3185 12.9896H14.3164Z" fill="#A7A7A7"/>
<path d="M13.1513 14.0328C13.1871 13.9317 13.2124 13.8369 13.2377 13.7273C13.244 13.702 13.2482 13.6767 13.2545 13.6493L13.1913 13.6346C13.086 13.6093 12.9617 13.5798 12.85 13.5651L12.7678 13.9527C12.8985 13.9822 13.0249 14.0117 13.1492 14.0391V14.0328H13.1513Z" fill="#A7A7A7"/>
<path d="M14.1121 13.7973C14.0805 13.9532 14.0489 14.1091 14.0194 14.2608V14.2671L14.4682 14.3746L14.5946 13.8436C14.4935 13.8794 14.3691 13.8521 14.1606 13.8078L14.1121 13.7973Z" fill="#A7A7A7"/>
<path d="M22.108 8.72833L22.0869 8.84632C22.0595 9.00013 22.0426 9.10127 21.9984 9.17291L22.5209 9.29722L22.6326 8.82525L22.6052 8.81893C22.4998 8.79786 22.4135 8.78733 22.3439 8.7789C22.2491 8.76626 22.1712 8.75783 22.1101 8.72833H22.108Z" fill="#A7A7A7"/>
<path d="M18.3428 9.9277L18.3217 10.0457C18.2944 10.1995 18.2775 10.3006 18.2332 10.3723L18.7558 10.4966L18.8674 10.0246L18.8401 10.0183C18.7347 9.99723 18.6483 9.9867 18.5788 9.97827C18.484 9.96563 18.406 9.9572 18.3449 9.9277H18.3428Z" fill="#A7A7A7"/>
<path d="M21.084 9.72112L20.5046 9.69373L20.2771 10.1785L19.6323 10.1279L19.4764 10.6822L18.8464 10.6505L18.6821 11.1859L19.3479 11.3439L19.5017 10.6885L20.1338 10.8381L20.2918 10.1742L20.9387 10.3281L21.084 9.72112Z" fill="#A7A7A7"/>
<path d="M21.2083 9.0403L21.221 8.9813C21.2315 8.93284 21.2399 8.88859 21.2484 8.84856L21.2568 8.80431C21.2568 8.80431 21.2568 8.79799 21.2568 8.79378L21.2737 8.70529C21.2863 8.6505 21.2989 8.60415 21.3158 8.56412L20.8249 8.46088C20.7954 8.60626 20.7701 8.74743 20.7427 8.89913L20.7364 8.93916C20.8038 8.93916 20.8839 8.96023 20.9913 8.98762L21.2041 9.03819L21.2083 9.0403Z" fill="#A7A7A7"/>
<path d="M24.7144 12.7452C24.6849 12.8801 24.6554 13.0149 24.628 13.1519H24.6364C24.7628 13.1792 24.8935 13.2066 25.0136 13.2361C25.0178 13.2066 25.022 13.1792 25.0262 13.154C25.0431 13.0402 25.0599 12.9264 25.1168 12.8379C24.9841 12.8063 24.8492 12.7747 24.7144 12.7452Z" fill="#A7A7A7"/>
<path d="M27.2512 13.6874C27.3018 13.7 27.3481 13.7085 27.3966 13.719C27.464 13.7337 27.5272 13.7464 27.5862 13.7632C27.6326 13.6136 27.6705 13.4999 27.7211 13.4177C27.5862 13.3713 27.483 13.3461 27.3271 13.325C27.3018 13.443 27.2744 13.5631 27.2512 13.6874Z" fill="#A7A7A7"/>
<path d="M19.8368 9.47251L20.3825 9.52097L20.4562 9.22599C20.4752 9.15646 20.5236 9.05322 20.5236 9.05322C20.5236 9.05322 20.1739 8.97105 20.0643 8.96051C20.0264 9.05322 19.8368 9.47461 19.8368 9.47461V9.47251Z" fill="#A7A7A7"/>
<path d="M17.5991 19.8396C17.7192 19.867 17.852 19.8986 17.9657 19.9091C17.9973 19.7595 18.0311 19.6289 18.0627 19.5151C17.932 19.4856 17.8056 19.4561 17.6792 19.4308C17.6476 19.5762 17.6223 19.7069 17.597 19.8375L17.5991 19.8396Z" fill="#A7A7A7"/>
<path d="M21.9711 15.5081V15.506L21.7857 15.9969L22.3188 16.0875L22.5463 15.5944L21.9711 15.5081Z" fill="#A7A7A7"/>
<path d="M16.6361 11.4277L17.1692 11.5541L17.2134 11.3497C17.2198 11.3181 17.2261 11.2865 17.2324 11.2591V11.2486H17.2345C17.2514 11.1791 17.2682 11.1222 17.2935 11.0779H17.2893C17.1376 11.0421 16.9838 11.0084 16.83 10.9747C16.7541 11.1412 16.6972 11.276 16.634 11.4277H16.6361Z" fill="#A7A7A7"/>
<path d="M13.0502 17.462L13.1555 17.0469H13.1429C13.0123 17.0153 12.8816 16.9858 12.7531 16.9605C12.711 17.0954 12.6857 17.2281 12.6604 17.3735L12.7068 17.384C12.8058 17.4051 12.9343 17.4325 13.0502 17.462Z" fill="#A7A7A7"/>
<path d="M16.2823 19.5504L16.6636 19.6325C16.7016 19.4998 16.7416 19.3692 16.7879 19.2301C16.6362 19.1985 16.5014 19.1711 16.3687 19.1458L16.2823 19.5525V19.5504Z" fill="#A7A7A7"/>
<path d="M15.7893 11.2071L15.7956 11.186C15.8314 11.0849 15.863 10.9796 15.8925 10.8763L15.8988 10.8531C15.8988 10.8531 15.9031 10.8405 15.9052 10.8342C15.7998 10.8131 15.6945 10.7941 15.5891 10.7731C15.5133 10.8847 15.4437 11.0027 15.3763 11.1186C15.4669 11.1376 15.5554 11.1565 15.646 11.1755L15.7872 11.205L15.7893 11.2071Z" fill="#A7A7A7"/>
<path d="M14.9674 19.2557C15.1064 19.2873 15.2455 19.3189 15.3825 19.3484C15.4183 19.2093 15.4562 19.0724 15.4983 18.927L15.039 18.8216C15.0201 18.9839 14.9948 19.1145 14.9653 19.2557H14.9674Z" fill="#A7A7A7"/>
<path d="M14.1899 18.6232C14.0467 18.5916 13.9055 18.56 13.7622 18.5284C13.7433 18.6042 13.7264 18.6779 13.7095 18.7475C13.6927 18.8233 13.6758 18.8971 13.6611 18.9708L13.6864 18.975C13.8549 19.0066 13.9813 19.034 14.0741 19.0677C14.1141 18.9013 14.1499 18.7643 14.1899 18.619V18.6232Z" fill="#A7A7A7"/>
<path d="M28.5366 12.9329C28.4017 12.9224 28.2247 12.8845 28.0941 12.8297C28.0941 12.8781 28.0857 12.9245 28.0772 12.9751C28.0709 13.0109 28.0667 13.0488 28.0625 13.0909C28.0477 13.1584 28.0351 13.2068 28.0246 13.2553C28.0793 13.2553 28.1447 13.2616 28.2184 13.2764C28.2858 13.289 28.3575 13.3016 28.4417 13.3143C28.4712 13.1794 28.5028 13.0593 28.5344 12.935L28.5366 12.9329Z" fill="#A7A7A7"/>
<path d="M24.8892 7.62596C24.9229 7.50586 24.9503 7.41105 24.9882 7.33941C24.8491 7.30991 24.7101 7.27831 24.5689 7.2446C24.5268 7.38787 24.5015 7.51008 24.4699 7.65546C24.6047 7.68496 24.7311 7.71445 24.8554 7.74185L24.8892 7.62596Z" fill="#A7A7A7"/>
<path d="M23.9326 8.20573C23.9706 8.21416 24.0127 8.22259 24.059 8.23102L24.1454 7.8644L23.7788 7.77802C23.7578 7.85597 23.7367 7.93604 23.7177 8.0161L23.6777 8.16781C23.7493 8.16781 23.8336 8.18466 23.9326 8.20573Z" fill="#A7A7A7"/>
<path d="M22.8412 8.61704L23.3047 8.7266L23.3089 8.70342C23.3468 8.52433 23.3721 8.40845 23.4164 8.32627C23.2647 8.29678 23.1151 8.27571 22.957 8.25674C22.9086 8.39159 22.8791 8.47798 22.8412 8.61704Z" fill="#A7A7A7"/>
<path d="M14.1373 15.7022L14.2511 15.226L13.8087 15.1207C13.7792 15.2745 13.7518 15.4283 13.7244 15.5821L13.7202 15.6032C13.7749 15.6137 13.8255 15.6221 13.8698 15.6306C13.9751 15.6495 14.0678 15.6643 14.1395 15.7022H14.1373Z" fill="#A7A7A7"/>
<path d="M13.9772 16.5156C13.9329 16.5156 13.895 16.5135 13.8697 16.5093C13.855 16.5093 13.8402 16.5051 13.8255 16.5051L13.8023 16.5009L13.7538 16.4861C13.6401 16.4461 13.619 16.4377 13.5368 16.4272C13.5052 16.5831 13.4736 16.7369 13.4399 16.8928C13.5811 16.9223 13.7243 16.956 13.8655 16.9918L13.9793 16.5156H13.9772Z" fill="#A7A7A7"/>
<path d="M13.758 14.4019L13.7285 14.3956C13.5811 14.3661 13.4378 14.3366 13.3324 14.2986L13.2313 14.7706C13.3704 14.8022 13.5094 14.8359 13.6485 14.8696L13.7601 14.3998L13.758 14.4019Z" fill="#A7A7A7"/>
<path d="M19.4469 17.7531L19.409 17.7489C19.2194 17.732 19.0403 17.713 18.9055 17.6772L18.7137 18.2882C18.8907 18.3114 19.0677 18.3367 19.2426 18.362L19.4469 17.7531Z" fill="#A7A7A7"/>
<path d="M19.7293 18.5223H19.6998C19.5544 18.5055 19.4153 18.4907 19.3121 18.4654L19.1646 18.9353C19.3016 18.9521 19.4364 18.9711 19.5712 18.9922L19.7293 18.5223Z" fill="#A7A7A7"/>
<path d="M15.6775 12.0413C15.6122 12.0539 15.53 12.0455 15.4225 12.0181C15.3699 12.0033 15.3066 11.9886 15.2287 11.9717L15.2013 12.0413C15.1528 12.1698 15.117 12.2667 15.0707 12.4163L15.0665 12.4268L15.5595 12.5427L15.6775 12.0413Z" fill="#A7A7A7"/>
<path d="M18.8864 19.0196L18.8759 19.0154C18.7432 18.9774 18.6167 18.9522 18.4819 18.9248C18.4524 19.0617 18.425 19.1987 18.3976 19.3356C18.5282 19.363 18.6462 19.3883 18.7726 19.4241C18.8085 19.2872 18.8422 19.1586 18.8885 19.0196H18.8864Z" fill="#A7A7A7"/>
<path d="M15.9935 11.4599C15.9872 11.5042 15.9851 11.5295 15.983 11.599L15.9766 11.639C15.9303 11.7697 15.8903 11.8708 15.8397 11.9403L16.3622 12.0646L16.4823 11.5611L16.4296 11.5526C16.3096 11.5316 16.1663 11.5042 15.9956 11.462L15.9935 11.4599Z" fill="#A7A7A7"/>
<path d="M16.257 18.9205L16.4382 18.4422L15.8082 18.2947L15.7176 18.7941L16.257 18.9205Z" fill="#A7A7A7"/>
<path d="M13.7032 17.8776L13.2565 17.7786C13.2312 17.9092 13.208 18.042 13.1828 18.1916C13.3239 18.2232 13.4672 18.2569 13.6084 18.2927L13.7053 17.8797L13.7032 17.8776Z" fill="#A7A7A7"/>
<path d="M19.1119 9.95911C19.1898 9.95279 19.2825 9.97597 19.4068 10.0076L19.607 10.0581L19.6555 9.84955C19.685 9.72313 19.706 9.63042 19.7482 9.563L19.2256 9.44501L19.1119 9.95911Z" fill="#A7A7A7"/>
<path d="M21.7014 8.0181C21.6424 8.15505 21.6087 8.25197 21.5602 8.4121C21.6045 8.4121 21.6529 8.42264 21.7119 8.43528L21.8151 8.45846C21.8615 8.46899 21.91 8.47953 21.9647 8.49217C21.9626 8.42264 21.9732 8.34046 21.99 8.24144C22.0027 8.18666 22.0132 8.13609 22.0237 8.08552L21.7056 8.0181H21.7014Z" fill="#A7A7A7"/>
<path d="M21.6993 13.3247L21.8615 12.6398L22.3988 12.7662L22.54 12.1656L21.9606 12.0286L22.1038 11.4237L21.4823 11.2762L21.3495 11.8347L20.728 11.6872L20.8755 11.0655L21.4275 11.1961L21.575 10.5765L20.9956 10.4395L20.846 11.0697L20.2139 10.92L20.0685 11.5312L20.6353 11.6661L20.4878 12.2878L19.8662 12.1403L20.0011 11.5692L19.3416 11.4132L19.1857 12.0686L18.562 11.9211L18.404 12.5871L17.7656 12.4375L17.6096 13.0929L16.9354 12.9327L16.7647 13.6514L16.1432 13.5039L15.9873 14.1593L15.3952 14.0181L15.2603 14.5871L15.8629 14.7283L15.6902 15.4554L15.1255 15.3227L14.9949 15.8727L15.5469 16.0034L15.6754 15.4576L16.3497 15.6177L16.1895 16.2921L15.6396 16.1615L15.5174 16.6778L16.0926 16.8127L16.2275 16.2458L16.9017 16.4059L16.7521 17.0403L17.3884 17.1857L17.2072 17.8601L16.6552 17.7295L16.4592 18.4144L17.0976 18.5261L17.2198 17.8812L17.8498 18.0035L18.0142 17.3122L18.5894 17.4513L18.8254 16.838L19.4701 16.9687L19.6956 16.3406L20.2813 16.4439L20.4878 15.8264L21.0777 15.9275L21.3158 15.2721L21.8657 15.3838L22.0153 14.8063L21.4443 14.6841L21.3095 15.1688L20.65 15.0297L20.7891 14.4523L21.3748 14.5935L21.5139 14.0055L20.8755 13.8537L21.0356 13.173L21.6909 13.3289L21.6993 13.3247ZM21.3769 11.8916L21.9985 12.0391L21.851 12.6609L21.2294 12.5133L21.3769 11.8916ZM18.0163 17.3059L17.401 17.1731L17.5928 16.5472L18.1743 16.6841L18.0163 17.3038V17.3059ZM18.8275 16.8211L18.2459 16.6841L18.3829 16.1025L18.9644 16.2395L18.8275 16.8211ZM19.6429 16.2964L19.0613 16.1573L19.2004 15.5756L19.7819 15.7126L19.645 16.2942L19.6429 16.2964ZM20.4709 15.8011L19.8367 15.6514L19.9863 15.0171L20.6205 15.1667L20.4709 15.8011Z" fill="#A7A7A7"/>
<path d="M25.6373 7.22998H25.6436L25.789 6.8128L25.3233 6.71588C25.317 6.77698 25.3065 6.83809 25.2938 6.90972C25.2791 6.99611 25.2643 7.08039 25.2559 7.17099C25.3486 7.16888 25.4645 7.19417 25.6352 7.23209L25.6373 7.22998Z" fill="#A7A7A7"/>
<path d="M28.7009 10.2796C28.6377 10.3934 28.6209 10.4671 28.5956 10.5746C28.5893 10.5999 28.5829 10.6251 28.5766 10.6525C28.6293 10.661 28.682 10.6694 28.7367 10.6799C28.8231 10.6947 28.9095 10.7094 28.9896 10.7179C29.0233 10.5914 29.0612 10.4734 29.0991 10.3533C28.9727 10.3281 28.8442 10.3028 28.7199 10.2796H28.703H28.7009Z" fill="#A7A7A7"/>
<path d="M26.7602 9.52904L27.1416 9.60911C27.1732 9.4869 27.209 9.36259 27.2448 9.24249L27.249 9.22985L26.8424 9.14346L26.7623 9.52693L26.7602 9.52904Z" fill="#A7A7A7"/>
<path d="M21.7096 13.3831L21.5821 13.9223L22.1336 14.0528L22.2612 13.5136L21.7096 13.3831Z" fill="#A7A7A7"/>
<path d="M26.2588 8.73266L26.2545 8.7453C26.381 8.77059 26.5074 8.79798 26.6275 8.82747H26.6296C26.6633 8.69263 26.7033 8.55989 26.7455 8.42504L26.3346 8.33655C26.3072 8.46929 26.2798 8.59781 26.2566 8.73266H26.2588Z" fill="#A7A7A7"/>
<path d="M14.2237 16.3386C14.2195 16.3512 14.2153 16.3618 14.2111 16.3723L14.683 16.484L14.7926 16.0246L14.2869 15.9045C14.308 16.0183 14.2722 16.1616 14.2237 16.3365V16.3386Z" fill="#A7A7A7"/>
<path d="M25.8331 7.52713C25.8079 7.62405 25.7868 7.71887 25.7636 7.82L25.7383 7.9401L26.1618 8.03702L26.2651 7.61352C26.1766 7.59666 26.086 7.5777 25.9975 7.56084L25.8331 7.52713Z" fill="#A7A7A7"/>
<path d="M27.2786 10.324L27.268 10.3724C27.3565 10.3619 27.464 10.3872 27.6178 10.4251L27.6789 10.4398C27.681 10.4251 27.6831 10.4125 27.6852 10.3977C27.7063 10.2776 27.7294 10.1364 27.7884 10.0269L27.3649 9.93417C27.3354 10.0648 27.3059 10.1975 27.2786 10.3282V10.324Z" fill="#A7A7A7"/>
<path d="M23.0477 13.0197L22.5757 12.908L22.4662 13.3737L22.9255 13.4832C22.9655 13.3147 22.9992 13.1861 23.0477 13.0218V13.0197Z" fill="#A7A7A7"/>
<path d="M23.2689 15.1903L22.7969 15.0786L22.6874 15.5442L23.1467 15.6538C23.1867 15.4852 23.2204 15.3567 23.2689 15.1924V15.1903Z" fill="#A7A7A7"/>
<path d="M22.8013 14.419L22.3293 14.3073L22.2198 14.7729L22.6791 14.8825C22.7191 14.7139 22.7528 14.5854 22.8013 14.4211V14.419Z" fill="#A7A7A7"/>
<path d="M23.684 12.9331C23.7156 12.8024 23.7472 12.6739 23.783 12.5433L23.663 12.5138C23.6018 12.5032 23.5302 12.4843 23.4628 12.4674L23.3996 12.4527L23.2963 12.8888L23.6756 12.9731L23.684 12.9352V12.9331Z" fill="#A7A7A7"/>
<path d="M26.423 13.129H26.4125C26.2882 13.0974 26.1407 13.0616 26.0227 13.0489C26.0227 13.0531 26.0227 13.0552 26.0206 13.0595V13.0637C25.9869 13.1985 25.9616 13.3228 25.9384 13.4345C26.0606 13.4556 26.1807 13.4766 26.3008 13.4998C26.3324 13.3671 26.364 13.2428 26.4251 13.129H26.423Z" fill="#A7A7A7"/>
<path d="M27.1331 13.0572C27.1648 12.9161 27.1985 12.7749 27.2322 12.6337C27.0763 12.6021 26.9288 12.5726 26.7834 12.5389L26.716 12.954H26.7223C26.8677 12.9961 26.9962 13.0256 27.1331 13.0551V13.0572Z" fill="#A7A7A7"/>
<path d="M28.271 11.9887C28.3532 11.9803 28.4501 12.0014 28.5997 12.033L28.7283 12.0583C28.7641 11.9044 28.7999 11.7485 28.8378 11.5968C28.6756 11.5631 28.5281 11.5315 28.3722 11.5041L28.271 11.9866V11.9887Z" fill="#A7A7A7"/>
<path d="M25.5528 12.6754C25.6329 12.7049 25.6897 12.7239 25.7466 12.7408C25.7761 12.7492 25.8056 12.7597 25.833 12.7702C25.873 12.5216 25.9089 12.3826 25.9931 12.2983L25.4664 12.1845L25.3695 12.6796C25.4074 12.6733 25.4495 12.6691 25.498 12.6691L25.5486 12.6775L25.5528 12.6754Z" fill="#A7A7A7"/>
<path d="M25.1716 6.42702H25.1759L25.1822 6.40384C25.2159 6.26689 25.2475 6.13204 25.2833 5.99719L24.8366 5.89606C24.8177 5.9993 24.8029 6.10043 24.7861 6.20157L24.7608 6.34906C24.8914 6.37856 25.0221 6.40595 25.1695 6.42491L25.1716 6.42702Z" fill="#A7A7A7"/>
<path d="M18.6189 11.2281L18.05 11.1817L17.8709 11.6979L18.4735 11.8391L18.6189 11.2281Z" fill="#A7A7A7"/>
<path d="M17.8456 11.7215L17.2704 11.6709L17.1418 12.2166L17.6981 12.3472L17.8477 11.7215H17.8456Z" fill="#A7A7A7"/>
<path d="M26.619 12.2752C26.6338 12.2204 26.6464 12.1699 26.657 12.1256L26.6633 12.1003C26.6633 12.1003 26.6654 12.0898 26.6675 12.0856L26.6844 12.016C26.7117 11.9149 26.7412 11.8348 26.8002 11.7822L26.7433 11.7695C26.5895 11.7358 26.4336 11.7021 26.2777 11.6726L26.2524 11.6684L26.2482 11.7063C26.2271 11.8622 26.2019 11.9992 26.1745 12.1425L26.1597 12.2204C26.2461 12.2099 26.3451 12.2267 26.4673 12.2499C26.5137 12.2584 26.5643 12.2668 26.619 12.2773V12.2752Z" fill="#A7A7A7"/>
<path d="M16.4857 12.2105L16.349 12.7887L16.8903 12.9168L17.027 12.3386L16.4857 12.2105Z" fill="#A7A7A7"/>
<path d="M20.9091 16.7585L20.315 16.6784L20.1 17.3252L20.6942 17.4074L20.9091 16.7585Z" fill="#A7A7A7"/>
<path d="M22.312 10.7948L22.1913 11.3054L22.6956 11.4247L22.8164 10.9142L22.312 10.7948Z" fill="#A7A7A7"/>
<path d="M27.4514 11.7441C27.4935 11.6029 27.5272 11.4681 27.5652 11.3269L27.6684 11.3459L27.5673 11.3206L27.5757 11.289L27.5546 11.2848C27.3924 11.2511 27.2259 11.2131 27.0616 11.1731H27.0532L27.0511 11.1942C27.0279 11.3648 27.0026 11.487 26.9731 11.6282L26.9541 11.7188C27.0426 11.7083 27.1543 11.7336 27.346 11.7778L27.4409 11.7989L27.4577 11.7441H27.4514Z" fill="#A7A7A7"/>
<path d="M25.8795 9.28289C25.9069 9.16908 25.9343 9.05317 25.9701 8.93515C25.8395 8.89721 25.7004 8.86771 25.5888 8.84452L25.5403 8.83398C25.5087 8.91618 25.4855 8.98573 25.4687 9.04052L25.4602 9.06792C25.4602 9.06792 25.4602 9.07424 25.4581 9.07846L25.4307 9.16487C25.3991 9.25128 25.3591 9.31661 25.2769 9.34822C25.1863 9.38405 25.0957 9.36298 24.9166 9.32083C24.8661 9.30818 24.8092 9.29554 24.7396 9.28078L24.6912 9.27024L24.6722 9.38827C24.6406 9.58848 24.6216 9.70018 24.5395 9.77395L24.5163 9.79081C24.4131 9.86035 24.3014 9.83506 24.097 9.79081L23.8947 9.74655L23.8758 9.85192C23.8421 10.1133 23.8273 10.2334 23.7367 10.3135L23.7114 10.3324C23.6061 10.4041 23.4881 10.3746 23.2921 10.3261L23.1468 10.2903L23.0393 10.7434L23.5429 10.8635L23.5534 10.8214C23.6061 10.6191 23.6356 10.4968 23.7494 10.4294C23.8568 10.3662 23.9832 10.3893 24.2087 10.4315L24.2972 10.4484L24.3393 10.3261C24.4763 9.9278 24.5605 9.86457 24.9862 9.84349L25.1442 9.83506C25.161 9.77184 25.1737 9.71704 25.1842 9.66857C25.2179 9.52736 25.239 9.42831 25.3106 9.36298C25.3191 9.35455 25.3296 9.34822 25.3401 9.3419C25.4392 9.28078 25.5424 9.30397 25.7299 9.34822L25.8563 9.37773L25.8795 9.28289Z" fill="#A7A7A7"/>
<path d="M13.9477 17.6726C14.0952 17.7042 14.2406 17.7379 14.3881 17.7716L14.4892 17.3439L14.0214 17.2322C14.0004 17.3797 13.9751 17.5272 13.9477 17.6726Z" fill="#A7A7A7"/>
<path d="M14.8326 16.7258L14.7308 17.1564L15.2208 17.2724L15.3227 16.8418L14.8326 16.7258Z" fill="#A7A7A7"/>
<path d="M14.627 14.5586L14.5101 15.0527L14.9981 15.1682L15.115 14.674L14.627 14.5586Z" fill="#A7A7A7"/>
<path d="M20.1275 17.2974L19.5986 17.2258L19.4132 17.7757L19.9421 17.8473L20.1275 17.2974Z" fill="#A7A7A7"/>
<path d="M15.4164 13.3564L14.8601 13.2258L14.8348 13.3648C14.8032 13.5418 14.7843 13.6556 14.7316 13.7357L15.2942 13.8684L15.4164 13.3564Z" fill="#A7A7A7"/>
<path d="M18.7411 18.2736L18.0901 18.1851L18.0437 18.3515C17.9847 18.5622 17.9468 18.6971 17.8751 18.7961L18.5346 18.8846L18.7411 18.2715V18.2736Z" fill="#A7A7A7"/>
<path d="M15.8545 17.6496L15.351 17.5295L15.2288 18.0436L15.7302 18.1553L15.8545 17.6496Z" fill="#A7A7A7"/>
<path d="M15.6539 12.742L15.5258 13.2833L16.0609 13.41L16.1891 12.8687L15.6539 12.742Z" fill="#A7A7A7"/>
<path d="M17.5055 10.3558L17.3774 10.8971L17.9125 11.0238L18.0406 10.4825L17.5055 10.3558Z" fill="#A7A7A7"/>
<path d="M21.6339 16.2754L21.0608 16.1827L20.8775 16.7748L21.4506 16.8654L21.6339 16.2754Z" fill="#A7A7A7"/>
<path d="M15.0096 18.1743L15.0222 18.13L14.5587 18.0205C14.525 18.1743 14.4934 18.3281 14.4618 18.4819C14.6198 18.5114 14.7588 18.543 14.8937 18.5767C14.9358 18.444 14.9738 18.3091 15.0117 18.1743H15.0096Z" fill="#A7A7A7"/>
<path d="M24.1075 12.3428C24.236 12.3639 24.3793 12.3997 24.5036 12.4292C24.5394 12.2986 24.5773 12.1679 24.6174 12.0373L24.6237 12.0141C24.5879 12.0183 24.5415 12.0183 24.4699 12.0141L24.3877 12.0015C24.3118 11.972 24.2592 11.9551 24.2002 11.9362L24.1075 12.3449V12.3428Z" fill="#A7A7A7"/>
<path d="M24.036 11.5339C24.0823 11.3632 24.1139 11.2409 24.2319 11.1714C24.3499 11.1018 24.4974 11.1229 24.7292 11.1861C24.7734 11.1988 24.8113 11.2198 24.8408 11.2536L24.8893 11.0681C24.9377 10.8742 24.9672 10.7541 25.081 10.6909C25.2011 10.6255 25.3465 10.6677 25.5698 10.7435L25.6204 10.7604L25.652 10.6403C25.6668 10.5876 25.6773 10.5412 25.6878 10.5012C25.7258 10.3473 25.751 10.2483 25.8206 10.1872C25.8332 10.1766 25.848 10.1661 25.8648 10.1577C25.9617 10.1029 26.0629 10.1281 26.2504 10.1703L26.4 10.204L26.4147 10.1366C26.4463 9.99748 26.4801 9.85206 26.5117 9.71085L26.0165 9.59705V9.60126C26.0018 9.6687 25.9912 9.72561 25.9828 9.77408C25.9533 9.93636 25.9365 10.0333 25.8627 10.0986L25.8332 10.1197C25.7384 10.1808 25.633 10.1534 25.4561 10.1092C25.4076 10.0965 25.3507 10.0818 25.2833 10.067L25.1843 10.0438L25.1632 10.1956C25.1358 10.3958 25.1211 10.5075 25.0368 10.5813L25.0157 10.5981C24.9082 10.6719 24.7903 10.6424 24.5543 10.5855L24.4068 10.5497L24.392 10.655C24.3562 10.91 24.3394 11.0365 24.2509 11.1145L24.2256 11.1334C24.1244 11.2009 24.0128 11.1714 23.8442 11.1271C23.8042 11.1166 23.7599 11.106 23.7094 11.0934L23.5977 11.5613L24.0001 11.6561C24.0128 11.6118 24.0254 11.5697 24.0338 11.5339H24.036Z" fill="#A7A7A7"/>
<path d="M22.5188 9.99704L23.035 10.1192L23.075 9.93594C23.0793 9.91908 23.0814 9.90222 23.0856 9.88747L23.0919 9.86008C23.1172 9.75263 23.1425 9.67678 23.2015 9.62621H23.2036L22.641 9.49136L22.5209 9.99915L22.5188 9.99704Z" fill="#A7A7A7"/>
<path d="M21.2568 9.1796L21.242 9.26809C21.2041 9.49986 21.1851 9.62207 21.1072 9.70002L21.7077 9.84119L21.8404 9.28284C21.8067 9.28916 21.7709 9.28916 21.7308 9.28284L21.6613 9.2702C21.6213 9.26177 21.577 9.25124 21.5265 9.2386C21.4738 9.22595 21.4232 9.21331 21.3642 9.19856L21.2589 9.17328L21.2568 9.1796Z" fill="#A7A7A7"/>
<path d="M22.8322 11.6237L22.7392 12.0174L23.2108 12.1289L23.3039 11.7352L22.8322 11.6237Z" fill="#A7A7A7"/>
<path d="M28.3216 10.8278L27.858 10.7245C27.8307 10.8636 27.8012 11.0006 27.7717 11.1375L27.7632 11.1775L28.2078 11.2724C28.2415 11.1312 28.2794 10.9816 28.3216 10.8278Z" fill="#A7A7A7"/>
<path d="M25.3233 11.9574C25.3823 11.715 25.4223 11.5696 25.5277 11.4874C25.6478 11.3968 25.7911 11.4284 26.027 11.4811L26.1197 11.5001L26.1703 11.3188C26.2146 11.1523 26.2462 11.0427 26.322 10.9753C26.3368 10.9627 26.3515 10.9521 26.3705 10.9416C26.4779 10.8847 26.5896 10.91 26.8129 10.9627L26.912 10.9858L26.9457 10.8573C26.992 10.6739 27.0236 10.5517 27.0847 10.4737L26.5306 10.3515L26.5116 10.4842C26.48 10.7098 26.4632 10.8236 26.3789 10.8994L26.3536 10.9184C26.2525 10.9858 26.1429 10.9563 25.9575 10.91C25.9048 10.8973 25.8522 10.8826 25.7889 10.8678L25.7068 10.8488L25.6857 11.0027C25.6562 11.2219 25.6394 11.3315 25.5572 11.4052L25.5319 11.4242C25.4329 11.4916 25.3212 11.4621 25.1379 11.4137C25.0958 11.4031 25.0515 11.3905 25.0009 11.3778L24.8956 11.3525C24.9314 11.4748 24.8893 11.6265 24.8345 11.7951C24.8239 11.8246 24.8176 11.8499 24.8113 11.8689L24.8029 11.9026L24.8261 11.9068C24.9841 11.9363 25.1316 11.9658 25.3107 12.0059L25.3233 11.9574Z" fill="#A7A7A7"/>
<path d="M27.9276 12.5322C27.9444 12.4774 27.9592 12.4268 27.9697 12.3826C28.0055 12.252 28.0329 12.1593 28.0814 12.0918L27.995 12.0729C27.8602 12.0434 27.719 12.0118 27.5841 11.976L27.5673 11.9717L27.5631 12.0012C27.542 12.1614 27.5125 12.3025 27.4809 12.45L27.5525 12.4648C27.6853 12.4922 27.7948 12.5132 27.9255 12.5301H27.9276V12.5322Z" fill="#A7A7A7"/>
<path d="M22.3419 10.1026L21.792 9.97192L21.7203 10.2732C21.7182 10.2838 21.714 10.3006 21.7098 10.3154L21.6592 10.5303L22.2113 10.6609L22.344 10.1026H22.3419Z" fill="#A7A7A7"/>
<path d="M26.2883 6.2838C26.2314 6.26905 26.1745 6.25641 26.1197 6.25009L26.1092 6.2817C26.0839 6.35333 26.0649 6.40812 26.0481 6.47975C26.0438 6.50293 26.0375 6.52821 26.0333 6.55771L26.0165 6.67149C26.1682 6.69256 26.322 6.71363 26.4716 6.73891V6.72627C26.5074 6.59142 26.5411 6.4629 26.5811 6.32805C26.4842 6.33016 26.3789 6.30487 26.2883 6.2817V6.2838Z" fill="#A7A7A7"/>
<path d="M24.1349 9.00872C24.2466 8.98976 24.3835 9.03401 24.5626 9.09932L24.5837 9.10775L24.6132 8.96869C24.649 8.80224 24.6722 8.69057 24.7164 8.61051L24.2487 8.50726L24.1349 9.01083V9.00872Z" fill="#A7A7A7"/>
<path d="M24.9377 8.46683C25.0241 8.46051 25.1274 8.4879 25.2749 8.52372L25.395 8.55322C25.4287 8.40152 25.4645 8.25403 25.5003 8.10654C25.4582 8.09811 25.4181 8.08968 25.3781 8.08125C25.298 8.0644 25.2454 8.05386 25.1885 8.04333L25.0283 8.00119C25.0031 8.15289 24.9736 8.29617 24.9441 8.43312L24.9377 8.46683Z" fill="#A7A7A7"/>
<path d="M23.507 9.00861L23.3764 9.56274C23.4481 9.56274 23.5344 9.58592 23.6482 9.61331L23.8168 9.65334L23.8421 9.53746C23.8505 9.49532 23.8589 9.45739 23.8673 9.42157C23.8947 9.28462 23.9158 9.17927 23.9727 9.10553L23.7788 9.06339C23.6882 9.04443 23.5998 9.02546 23.5092 9.0065L23.507 9.00861Z" fill="#A7A7A7"/>
<path d="M16.097 6.09552L16.4046 6.93643L16 7.73097L16.8386 7.42327L17.633 7.83002L17.3253 6.99122L17.732 6.19457L16.8934 6.50227L16.097 6.09552Z" fill="#A7A7A7"/>
<path d="M21.9404 20.0638L22.248 20.9026L21.8414 21.6971L22.6799 21.3894L23.4764 21.7962L23.1688 20.9574L23.5754 20.1607L22.7347 20.4684L21.9404 20.0638Z" fill="#A7A7A7"/>
<path d="M26.8214 14.6699L27.1291 15.5087L26.7224 16.3054L27.561 15.9956L28.3574 16.4023L28.0498 15.5635L28.4565 14.7669L27.6179 15.0767L26.8214 14.6699Z" fill="#A7A7A7"/>
<path d="M19.7103 22.1093L19.8978 22.6193L19.6513 23.1019L20.1612 22.9165L20.6437 23.1631L20.4562 22.653L20.7048 22.1683L20.1949 22.3559L19.7103 22.1093Z" fill="#A7A7A7"/>
<path d="M8.69293 19.8582L8.88045 20.3682L8.63393 20.8509L9.14382 20.6633L9.62632 20.9099L9.4388 20.402L9.68532 19.9172L9.17754 20.1048L8.69293 19.8582Z" fill="#A7A7A7"/>
<path d="M14.5731 22.3494L14.8808 23.1903L14.4762 23.9848L15.3148 23.6771L16.1091 24.0839L15.8015 23.2451L16.2082 22.4484L15.3696 22.7561L14.5731 22.3494Z" fill="#A7A7A7"/>
<path d="M23.8547 16.0393L24.1624 16.8781L23.7557 17.6748L24.5943 17.3671L25.3907 17.7738L25.0831 16.935L25.4898 16.1384L24.6512 16.4461L23.8547 16.0393Z" fill="#A7A7A7"/>
<path d="M8.84673 15.6202L9.15435 16.459L8.7477 17.2557L9.58628 16.948L10.3827 17.3547L10.0751 16.5159L10.4818 15.7193L9.64317 16.027L8.84673 15.6202Z" fill="#A7A7A7"/>
<path d="M15.2815 10.5621L15.4247 10.9561L15.2351 11.329L15.627 11.1836L15.9999 11.3754L15.8567 10.9814L16.0463 10.6084L15.6544 10.7517L15.2815 10.5621Z" fill="#A7A7A7"/>
<path d="M16.0462 9.01117L16.1916 9.40307L15.9999 9.776L16.3939 9.63273L16.7668 9.82236L16.6214 9.42835L16.8131 9.05542L16.4191 9.2008L16.0462 9.01117Z" fill="#A7A7A7"/>
<path d="M17.4306 9.07193L17.576 9.46383L17.3842 9.83676L17.7782 9.69349L18.1512 9.88312L18.0079 9.49122L18.1975 9.11828L17.8035 9.26156L17.4306 9.07193Z" fill="#A7A7A7"/>
<path d="M23.2668 6.41437L23.4122 6.80627L23.2205 7.1792L23.6145 7.03593L23.9874 7.22556L23.842 6.83366L24.0337 6.45861L23.6397 6.604L23.2668 6.41437Z" fill="#A7A7A7"/>
<path d="M27.2934 8.08997L27.4366 8.48397L27.247 8.85691L27.6389 8.71152L28.014 8.90326L27.8686 8.50925L28.0582 8.13632L27.6663 8.2817L27.2934 8.08997Z" fill="#A7A7A7"/>
<path d="M23.2626 13.5359L23.4059 13.93L23.2163 14.3029L23.6082 14.1575L23.9811 14.3492L23.8378 13.9552L24.0274 13.5823L23.6355 13.7256L23.2626 13.5359Z" fill="#A7A7A7"/>
<path d="M20.3066 17.9173L20.4519 18.3092L20.2602 18.6822L20.6542 18.5389L21.0271 18.7285L20.8818 18.3366L21.0735 17.9637L20.6795 18.107L20.3066 17.9173Z" fill="#A7A7A7"/>
<path d="M16.4887 20.0397L16.632 20.4337L16.4423 20.8067L16.8363 20.6613L17.2093 20.853L17.0639 20.459L17.2556 20.0861L16.8616 20.2294L16.4887 20.0397Z" fill="#A7A7A7"/>
<path d="M11.8618 14.5348L12.0051 14.9288L11.8155 15.3017L12.2074 15.1563L12.5803 15.3481L12.437 14.9541L12.6267 14.5811L12.2348 14.7265L11.8618 14.5348Z" fill="#A7A7A7"/>
<path d="M29.824 11.6494L29.9673 12.0413L29.7777 12.4163L30.1696 12.2709L30.5425 12.4605L30.3992 12.0686L30.5889 11.6957L30.197 11.839L29.824 11.6494Z" fill="#A7A7A7"/>
<path d="M27.4261 6.41254L27.5715 6.80443L27.3819 7.17737L27.7738 7.0341L28.1467 7.22372L28.0034 6.83182L28.1931 6.45889L27.8012 6.60216L27.4261 6.41254Z" fill="#A7A7A7"/>
<path d="M13.1449 11.3373L13.2882 11.7313L13.0986 12.1043L13.4905 11.961L13.8655 12.1506L13.7201 11.7566L13.9098 11.3837L13.5179 11.5291L13.1449 11.3373Z" fill="#A7A7A7"/>
<path d="M9.31017 12.4293L9.45344 12.8233L9.26382 13.1962L9.65572 13.053L10.0286 13.2426L9.88538 12.8486L10.075 12.4756L9.68311 12.621L9.31017 12.4293Z" fill="#A7A7A7"/>
<path d="M12.081 20.7665L12.2242 21.1584L12.0346 21.5313L12.4286 21.388L12.8016 21.5777L12.6562 21.1858L12.8479 20.8128L12.4539 20.9561L12.081 20.7665Z" fill="#A7A7A7"/>
<path d="M23.6334 18.8828L23.7788 19.2768L23.5871 19.6497L23.9811 19.5043L24.354 19.696L24.2107 19.302L24.4004 18.9291L24.0063 19.0724L23.6334 18.8828Z" fill="#A7A7A7"/>
<path d="M19.329 6.91574L19.4744 7.30975L19.2827 7.68268L19.6767 7.5373L20.0496 7.72693L19.9042 7.33503L20.096 6.96209L19.702 7.10537L19.329 6.91574Z" fill="#A7A7A7"/>
<path d="M21.1135 6.86758L21.2568 7.26159L21.0671 7.63452L21.459 7.48914L21.832 7.68088L21.6887 7.28687L21.8783 6.91394L21.4864 7.05932L21.1135 6.86758Z" fill="#A7A7A7"/>
</g>
</svg>
